<?xml version="1.0" encoding="utf-8"?>
<!-- Generator: Adobe Illustrator 23.0.3, SVG Export Plug-In . SVG Version: 6.00 Build 0)  -->
<svg version="1.1"
	 id="svg2" xmlns:cc="http://creativecommons.org/ns#" xmlns:dc="http://purl.org/dc/elements/1.1/" xmlns:inkscape="http://www.inkscape.org/namespaces/inkscape" xmlns:rdf="http://www.w3.org/1999/02/22-rdf-syntax-ns#" xmlns:sodipodi="http://sodipodi.sourceforge.net/DTD/sodipodi-0.dtd" xmlns:svg="http://www.w3.org/2000/svg"
	 xmlns="http://www.w3.org/2000/svg" xmlns:xlink="http://www.w3.org/1999/xlink" x="0px" y="0px" viewBox="0 0 28.8 23.8"
	 style="enable-background:new 0 0 28.8 23.8;" xml:space="preserve">
<style type="text/css">
	.st0{fill:#8C8C8C;}
	.st1{fill:#3D3D3D;}
	.st2{fill:#141414;}
	.st3{fill:#1F1F1F;}
	.st4{fill:#1C1C1C;}
	.st5{fill:#383838;}
	.st6{fill:#303030;}
	.st7{fill:#262626;}
	.st8{fill:#212121;}
	.st9{fill:#665E55;}
</style>
<sodipodi:namedview  bordercolor="#666666" borderopacity="1" gridtolerance="10" guidetolerance="10" id="namedview65" inkscape:current-layer="svg2" inkscape:cx="2.2690674" inkscape:cy="14.850001" inkscape:pageopacity="0" inkscape:pageshadow="2" inkscape:window-height="559" inkscape:window-maximized="0" inkscape:window-width="1028" inkscape:window-x="0" inkscape:window-y="0" inkscape:zoom="7.9461276" objecttolerance="10" pagecolor="#ffffff" showgrid="false">
	</sodipodi:namedview>
<g id="g4">
	<g id="breadboard">
		<rect id="rect7" x="2.5" y="19" class="st0" width="2.2" height="4.8"/>
		<rect id="rect9" x="9.7" y="19" class="st0" width="2.2" height="4.8"/>
		<rect id="rect11" x="16.9" y="19" class="st0" width="2.2" height="4.8"/>
		<rect id="rect13" x="24.1" y="19" class="st0" width="2.2" height="4.8"/>
		<rect id="rect15" x="2.5" class="st0" width="2.2" height="4.8"/>
		<rect id="rect17" x="9.7" class="st0" width="2.2" height="4.8"/>
		<rect id="rect19" x="16.9" class="st0" width="2.2" height="4.8"/>
		<rect id="rect21" x="24.1" class="st0" width="2.2" height="4.8"/>
		<polygon id="polygon23" class="st1" points="0,2.2 28.8,2.2 28.3,8.3 0,8.3 		"/>
		<polygon id="polygon25" points="0,15.5 28.3,15.5 28.8,21.6 0,21.6 		"/>
		<polygon id="polygon27" class="st0" points="6.1,3.1 6.1,2.3 4.7,1.7 2.5,1.7 2.5,3.1 		"/>
		<polygon id="polygon29" class="st0" points="13.3,3.1 13.3,2.3 11.9,1.7 9.7,1.7 8.3,2.3 8.3,3.1 		"/>
		<polygon id="polygon31" class="st0" points="26.3,3.1 26.3,1.7 24.1,1.7 22.7,2.3 22.7,3.1 		"/>
		<polygon id="polygon33" class="st0" points="20.5,3.1 20.5,2.3 19.1,1.7 16.9,1.7 15.5,2.3 15.5,3.1 		"/>
		<polygon id="polygon35" class="st0" points="2.5,20.6 2.5,22.1 4.7,22.1 6.1,21.4 6.1,20.6 		"/>
		<polygon id="polygon37" class="st0" points="22.7,20.6 22.7,21.4 24.1,22.1 26.3,22.1 26.3,20.6 		"/>
		<polygon id="polygon39" class="st0" points="8.3,20.6 8.3,21.4 9.7,22.1 11.9,22.1 13.3,21.4 13.3,20.6 		"/>
		<polygon id="polygon41" class="st0" points="15.5,20.6 15.5,21.4 16.9,22.1 19.1,22.1 20.5,21.4 20.5,20.6 		"/>
		<polygon id="polygon43" class="st2" points="28.8,2.2 28.3,3.9 27.3,3.9 27.3,19.8 28.3,19.8 28.8,21.6 		"/>
		<polygon id="polygon45" class="st3" points="0,2.2 0.5,3.9 0.5,8.3 3.6,8.3 3.6,15.5 0.5,15.5 0.5,19.8 0,21.6 		"/>
		<polygon id="polygon47" class="st4" points="3.6,8.3 0.5,8.3 0.4,9.8 0.4,11.9 3.6,11.9 		"/>
		<polygon id="polygon49" class="st5" points="0.5,15.5 3.6,15.5 3.6,11.9 0.4,11.9 0.4,14 		"/>
		<path id="path51" class="st6" d="M0.5,3.9v4.3c1.7,0.3,3,1.8,3,3.6s-1.3,3.3-3,3.6v4.3h27.7l0-15.9H0.5z"/>
		<path id="path53" class="st7" d="M0.4,9.8V14c1.1-0.1,1.9-1,1.9-2.1S1.5,9.9,0.4,9.8z"/>
		<circle id="circle55" class="st8" cx="4.7" cy="16.9" r="1.5"/>
		<g id="g57">
			<path id="path59" class="st9" d="M7.3,10.3V9.7h2.5V9.1H7.3l0-1.9H11v0.6H8.5v0.6h1.9v0.6H11v0.6h-0.6v0.6L7.3,10.3z"/>
			<path id="path61" class="st9" d="M11.7,10.3V9.7h2.5V9.1h-2.5l0-1.9h3.8v0.6h-2.5v0.6h1.9v0.6h0.6v0.6h-0.6v0.6L11.7,10.3z"/>
			<path id="path63" class="st9" d="M16.1,10.3V9.7h2.5V9.1h-2.5V7.2h3.8v0.6h-2.5v0.6h1.9v0.6h0.6v0.6h-0.6v0.6L16.1,10.3z"/>
		</g>
	</g>
</g>
</svg>
