<?xml version="1.0" encoding="utf-8"?>
<!-- Generator: Adobe Illustrator 24.0.0, SVG Export Plug-In . SVG Version: 6.00 Build 0)  -->
<svg version="1.1"
	 id="svg2" xmlns:cc="http://creativecommons.org/ns#" xmlns:dc="http://purl.org/dc/elements/1.1/" xmlns:inkscape="http://www.inkscape.org/namespaces/inkscape" xmlns:rdf="http://www.w3.org/1999/02/22-rdf-syntax-ns#" xmlns:sodipodi="http://sodipodi.sourceforge.net/DTD/sodipodi-0.dtd" xmlns:svg="http://www.w3.org/2000/svg"
	 xmlns="http://www.w3.org/2000/svg" xmlns:xlink="http://www.w3.org/1999/xlink" x="0px" y="0px" viewBox="0 0 28.8 23.8"
	 style="enable-background:new 0 0 28.8 23.8;" xml:space="preserve">
<style type="text/css">
	.st0{fill:#8C8C8C;}
	.st1{fill:#3D3D3D;}
	.st2{fill:#141414;}
	.st3{fill:#1F1F1F;}
	.st4{fill:#1C1C1C;}
	.st5{fill:#383838;}
	.st6{fill:#303030;}
	.st7{fill:#262626;}
	.st8{fill:#212121;}
	.st9{fill:#665E55;}
	.st10{font-family:'Arial-BoldMT';}
	.st11{font-size:1.8051px;}
	.st12{fill:#FFFFFF;}
	.st13{font-size:1.867px;}
</style>
<sodipodi:namedview  bordercolor="#666666" borderopacity="1" gridtolerance="10" guidetolerance="10" id="namedview65" inkscape:current-layer="svg2" inkscape:cx="2.2690674" inkscape:cy="14.850001" inkscape:pageopacity="0" inkscape:pageshadow="2" inkscape:window-height="559" inkscape:window-maximized="0" inkscape:window-width="1028" inkscape:window-x="0" inkscape:window-y="0" inkscape:zoom="7.9461276" objecttolerance="10" pagecolor="#ffffff" showgrid="false">
	</sodipodi:namedview>
<g id="g4">
	<g id="breadboard">
		<rect id="rect7" x="2.5" y="19" class="st0" width="2.2" height="4.8"/>
		<rect id="rect9" x="9.7" y="19" class="st0" width="2.2" height="4.8"/>
		<rect id="rect11" x="16.9" y="19" class="st0" width="2.2" height="4.8"/>
		<rect id="rect13" x="24.1" y="19" class="st0" width="2.2" height="4.8"/>
		<rect id="rect15" x="2.5" class="st0" width="2.2" height="4.8"/>
		<rect id="rect17" x="9.7" class="st0" width="2.2" height="4.8"/>
		<rect id="rect19" x="16.9" class="st0" width="2.2" height="4.8"/>
		<rect id="rect21" x="24.1" class="st0" width="2.2" height="4.8"/>
		<polygon id="polygon23" class="st1" points="0,2.2 28.8,2.2 28.3,8.3 0,8.3 		"/>
		<polygon id="polygon25" points="0,15.5 28.3,15.5 28.8,21.6 0,21.6 		"/>
		<polygon id="polygon27" class="st0" points="6.1,3.1 6.1,2.3 4.7,1.7 2.5,1.7 2.5,3.1 		"/>
		<polygon id="polygon29" class="st0" points="13.3,3.1 13.3,2.3 11.9,1.7 9.7,1.7 8.3,2.3 8.3,3.1 		"/>
		<polygon id="polygon31" class="st0" points="26.3,3.1 26.3,1.7 24.1,1.7 22.7,2.3 22.7,3.1 		"/>
		<polygon id="polygon33" class="st0" points="20.5,3.1 20.5,2.3 19.1,1.7 16.9,1.7 15.5,2.3 15.5,3.1 		"/>
		<polygon id="polygon35" class="st0" points="2.5,20.6 2.5,22.1 4.7,22.1 6.1,21.4 6.1,20.6 		"/>
		<polygon id="polygon37" class="st0" points="22.7,20.6 22.7,21.4 24.1,22.1 26.3,22.1 26.3,20.6 		"/>
		<polygon id="polygon39" class="st0" points="8.3,20.6 8.3,21.4 9.7,22.1 11.9,22.1 13.3,21.4 13.3,20.6 		"/>
		<polygon id="polygon41" class="st0" points="15.5,20.6 15.5,21.4 16.9,22.1 19.1,22.1 20.5,21.4 20.5,20.6 		"/>
		<polygon id="polygon43" class="st2" points="28.8,2.2 28.3,3.9 27.3,3.9 27.3,19.8 28.3,19.8 28.8,21.6 		"/>
		<polygon id="polygon45" class="st3" points="0,2.2 0.5,3.9 0.5,8.3 3.6,8.3 3.6,15.5 0.5,15.5 0.5,19.8 0,21.6 		"/>
		<polygon id="polygon47" class="st4" points="3.6,8.3 0.5,8.3 0.4,9.8 0.4,11.9 3.6,11.9 		"/>
		<polygon id="polygon49" class="st5" points="0.5,15.5 3.6,15.5 3.6,11.9 0.4,11.9 0.4,14 		"/>
		<path id="path51" class="st6" d="M0.5,3.9v4.3c1.7,0.3,3,1.8,3,3.6s-1.3,3.3-3,3.6v4.3h27.7V3.8L0.5,3.9L0.5,3.9z"/>
		<path id="path53" class="st7" d="M0.4,9.8V14c1.1-0.1,1.9-1,1.9-2.1S1.5,9.9,0.4,9.8z"/>
		<circle id="circle55" class="st8" cx="4.7" cy="16.9" r="1.5"/>
		<g id="g57">
			<path id="path59" class="st9" d="M8.1,13.4v-0.6h2.5v-0.6H8.1v-1.9h3.7v0.6H9.3v0.6h1.9v0.6h0.6v0.6h-0.6v0.6L8.1,13.4z"/>
			<path id="path61" class="st9" d="M12.5,13.4v-0.6H15v-0.6h-2.5v-1.9h3.8v0.6h-2.5v0.6h1.9v0.6h0.6v0.6h-0.6v0.6L12.5,13.4z"/>
			<path id="path63" class="st9" d="M16.9,13.4v-0.6h2.5v-0.6h-2.5v-1.9h3.8v0.6h-2.5v0.6h1.9v0.6h0.6v0.6h-0.6v0.6L16.9,13.4z"/>
		</g>
	</g>
</g>
<g>
	<g>
		<text transform="matrix(6.123234e-17 -1 1 6.123234e-17 4.3711 23.3675)" class="st10 st11">1</text>
		<text transform="matrix(6.123234e-17 -1 1 6.123234e-17 11.5088 23.3675)" class="st10 st11">2</text>
		<text transform="matrix(6.123234e-17 -1 1 6.123234e-17 18.7031 23.3675)" class="st10 st11">3</text>
		<text transform="matrix(6.123234e-17 -1 1 6.123234e-17 25.8984 23.3675)" class="st10 st11">4</text>
	</g>
	<g>
		<text transform="matrix(6.123234e-17 -1 1 6.123234e-17 4.3711 1.4364)" class="st10 st11">8</text>
		<text transform="matrix(6.123234e-17 -1 1 6.123234e-17 11.5088 1.4364)" class="st10 st11">7</text>
		<text transform="matrix(6.123234e-17 -1 1 6.123234e-17 18.7031 1.4364)" class="st10 st11">6</text>
		<text transform="matrix(6.123234e-17 -1 1 6.123234e-17 25.8984 1.4364)" class="st10 st11">5</text>
	</g>
</g>
<g>
	<g>
		<text transform="matrix(-1.836970e-16 -1 1 -1.836970e-16 4.5396 19.3379)" class="st12 st10 st13">GND</text>
		<text transform="matrix(-1.836970e-16 -1 1 -1.836970e-16 11.9927 19.3379)" class="st12 st10 st13">Trig</text>
		<text transform="matrix(-1.836970e-16 -1 1 -1.836970e-16 19.4453 19.3379)" class="st12 st10 st13">Out</text>
		<text transform="matrix(-1.836970e-16 -1 1 -1.836970e-16 25.4502 19.3379)" class="st12 st10 st13">Reset</text>
	</g>
	<g>
		<text transform="matrix(-1.836970e-16 -1 1 -1.836970e-16 4.7466 7.5203)" class="st12 st10 st13">Vcc</text>
		<text transform="matrix(-1.836970e-16 -1 1 -1.836970e-16 10.8022 10.4231)" class="st12 st10 st13">Thresh</text>
		<text transform="matrix(-1.836970e-16 -1 1 -1.836970e-16 18.2549 10.4231)" class="st12 st10 st13">Dischg</text>
		<text transform="matrix(-1.836970e-16 -1 1 -1.836970e-16 25.2422 9.178)" class="st12 st10 st13">Ctrl V</text>
	</g>
</g>
</svg>
