<?xml version="1.0" encoding="utf-8"?>
<!-- Generator: Adobe Illustrator 24.0.0, SVG Export Plug-In . SVG Version: 6.00 Build 0)  -->
<svg version="1.1" id="Layer_1" xmlns:svg="http://www.w3.org/2000/svg"
	 xmlns="http://www.w3.org/2000/svg" xmlns:xlink="http://www.w3.org/1999/xlink" x="0px" y="0px" viewBox="0 0 294.6 82.7"
	 style="enable-background:new 0 0 294.6 82.7;" xml:space="preserve">
<style type="text/css">
	.st0{fill:#353535;}
	.st1{fill:#CE925D;}
	.st2{opacity:0.35;enable-background:new    ;}
	.st3{fill:#B2B2B2;}
	.st4{fill:#7C7C7C;}
	.st5{fill:#E0E0E0;}
	.st6{opacity:0.35;fill:#FFFFFF;enable-background:new    ;}
</style>
<g>
	<path class="st0" d="M146.9,35.4c0,2.3-1.9,4.3-4.3,4.3l-133.5,0c-2.3,0-4.3-1.9-4.3-4.3V4.3C4.8,1.9,6.7,0,9.1,0h133.5
		c2.3,0,4.3,1.9,4.3,4.3L146.9,35.4L146.9,35.4z"/>
	<path class="st1" d="M106,0.1h36.9c2.3,0,4.3,1.9,4.3,4.3v31.2c0,2.3-1.9,4.3-4.3,4.3H106L106,0.1z"/>
	<path class="st2" d="M9.4,38.1c-1.8,0-4-1.6-4-3.6l0-8.9c0,1.9,2.2,5,4,5H142c1.8,0,4-3,4-5v8.9c0,1.9-2.2,3.6-4,3.6L9.4,38.1
		L9.4,38.1z"/>
	<path class="st3" d="M146.7,19.6c0,8.9-0.3,16.1-0.8,16.1s-0.4-32.2,0-32.2S146.7,10.7,146.7,19.6"/>
	<path class="st4" d="M146.4,25.1c-0.3,0-0.3-11.9,0-11.9l0,0c0,0.7,0.6,1.3,1.3,1.3h0.6c0.7,0,1.3,0.6,1.3,1.3v6.6
		c0,0.7-0.6,1.3-1.3,1.3h-0.6C147,23.7,146.4,24.3,146.4,25.1L146.4,25.1L146.4,25.1z"/>
	<g>
		<g>
			<path class="st5" d="M33.1,16.9l-0.6,1.7h-1.8l3-9h2.5l3,9h-1.8L37,16.9H33.1z M35.1,10.9L35.1,10.9l-1.6,4.7h3.1L35.1,10.9z"/>
			<path class="st5" d="M41.7,16.9l-0.6,1.7h-1.8l3-9h2.5l3,9h-1.8l-0.6-1.7H41.7z M43.6,10.9L43.6,10.9L42,15.6h3.1L43.6,10.9z"/>
			<path class="st5" d="M52.8,18.6v-9h4.5c1.8,0,2.6,0.4,2.6,2.3c0,1-0.2,1.7-1.3,2v0.1c1.3,0.1,1.5,1,1.5,2.1c0,2-0.8,2.5-2.7,2.5
				L52.8,18.6L52.8,18.6z M54.6,13.3H57c1,0,1.2-0.3,1.2-1.3s-0.4-1-1.2-1h-2.4L54.6,13.3L54.6,13.3z M54.6,17.1h2.4
				c1,0,1.5-0.1,1.5-1.2c0-1-0.2-1.3-1.2-1.3h-2.7L54.6,17.1L54.6,17.1z"/>
			<path class="st5" d="M65.5,17.8L65.5,17.8c-0.3,0.8-1.3,0.9-2,0.9c-1.4,0-2.4-0.3-2.4-2c0-1.5,0.8-1.9,2.4-1.9
				c0.8,0,1.5,0,1.9,0.7h0v-0.8c0-1-0.1-1.4-1.3-1.4c-0.7,0-1.2,0.1-1.2,0.9h-1.5c0-1.8,1.3-1.9,2.7-1.9c2,0,2.9,0.3,2.9,2.4v3.9
				h-1.5L65.5,17.8z M62.7,16.6c0,0.9,0.4,1,1.4,1c0.8,0,1.4-0.1,1.4-1c0-0.9-0.6-0.9-1.4-0.9C63.3,15.7,62.7,15.7,62.7,16.6z"/>
			<path class="st5" d="M67.7,12.3h0.8v-1.4H70v1.4h2.4v1.2H70v3.2c0,0.6,0,0.8,0.6,0.8c0.9,0,0.8-0.7,0.8-1.3h1.3
				c0,1.9-0.5,2.5-2.1,2.5c-1.7,0-2.2-0.4-2.2-2l0-3.2h-0.8L67.7,12.3L67.7,12.3z"/>
			<path class="st5" d="M72.8,12.3h0.8v-1.4h1.5v1.4h2.4v1.2h-2.4v3.2c0,0.6,0,0.8,0.6,0.8c0.9,0,0.8-0.7,0.8-1.3h1.3
				c0,1.9-0.5,2.5-2.1,2.5c-1.7,0-2.2-0.4-2.2-2l0-3.2h-0.8L72.8,12.3L72.8,12.3z"/>
			<path class="st5" d="M84.3,16.6c0,2-1.1,2.1-2.9,2.1c-2.4,0-2.9-0.8-2.9-3.2c0-2.3,0.4-3.2,2.9-3.2c2.6,0,2.9,0.8,2.9,3.5h-4.3
				c0,1.4,0,1.8,1.4,1.8c0.8,0,1.4,0,1.4-0.9L84.3,16.6L84.3,16.6z M82.8,14.7c0-1.3-0.2-1.4-1.4-1.4c-1.3,0-1.4,0.3-1.4,1.4H82.8z"
				/>
			<path class="st5" d="M86.9,12.3l0,0.8h0.1c0.3-0.7,0.9-0.9,1.7-0.9c1.3,0,1.7,0.8,1.7,2v0.5h-1.4v-0.3c0-0.6-0.1-1-0.8-1
				c-0.9,0-1.2,0.5-1.1,1.3v3.9h-1.5v-6.3L86.9,12.3L86.9,12.3z"/>
			<path class="st5" d="M94.8,18.8c-0.4,1.4-0.6,2.5-2.4,2.5c-0.2,0-0.4,0-0.6,0v-1.1c0.1,0,0.2,0,0.3,0c0.9,0,1.1-0.9,1.2-1.6h-0.7
				l-2.1-6.3H92l1.6,5.4h0l1.2-5.4h1.5L94.8,18.8z"/>
		</g>
	</g>
	<path class="st6" d="M142.7,11.7c0,1.4-1.5,2.6-3.4,2.6L12,14.3c-1.9,0-3.4-1-3.4-2.5V4.1c0-1.4,1.5-2.7,3.4-2.7h127.3
		c1.9,0,3.4,1.1,3.4,2.6L142.7,11.7L142.7,11.7z"/>
</g>
<g>
	<path class="st0" d="M291.7,35.4c0,2.3-1.9,4.3-4.3,4.3l-133.5,0c-2.3,0-4.3-1.9-4.3-4.3V4.3c0-2.3,1.9-4.3,4.3-4.3h133.5
		c2.3,0,4.3,1.9,4.3,4.3L291.7,35.4L291.7,35.4z"/>
	<path class="st1" d="M250.8,0.1h36.9c2.3,0,4.3,1.9,4.3,4.3v31.2c0,2.3-1.9,4.3-4.3,4.3h-36.9V0.1z"/>
	<path class="st2" d="M154.3,38.1c-1.8,0-4-1.6-4-3.6v-8.9c0,1.9,2.2,5,4,5h132.5c1.8,0,4-3,4-5v8.9c0,1.9-2.2,3.6-4,3.6L154.3,38.1
		L154.3,38.1z"/>
	<path class="st3" d="M291.6,19.6c0,8.9-0.3,16.1-0.8,16.1s-0.4-32.2,0-32.2S291.6,10.7,291.6,19.6"/>
	<path class="st4" d="M291.3,25.1c-0.3,0-0.3-11.9,0-11.9l0,0c0,0.7,0.6,1.3,1.3,1.3h0.6c0.7,0,1.3,0.6,1.3,1.3v6.6
		c0,0.7-0.6,1.3-1.3,1.3h-0.6C291.9,23.7,291.3,24.3,291.3,25.1L291.3,25.1L291.3,25.1z"/>
	<g>
		<g>
			<path class="st5" d="M178,16.9l-0.6,1.7h-1.8l3-9h2.5l3,9h-1.8l-0.6-1.7H178z M180,10.9L180,10.9l-1.6,4.7h3.1L180,10.9z"/>
			<path class="st5" d="M186.5,16.9l-0.6,1.7h-1.8l3-9h2.5l3,9H191l-0.6-1.7H186.5z M188.5,10.9L188.5,10.9l-1.6,4.7h3.1L188.5,10.9
				z"/>
			<path class="st5" d="M197.7,18.6v-9h4.5c1.8,0,2.6,0.4,2.6,2.3c0,1-0.2,1.7-1.3,2v0.1c1.3,0.1,1.5,1,1.5,2.1c0,2-0.8,2.5-2.7,2.5
				L197.7,18.6L197.7,18.6z M199.4,13.3h2.5c1,0,1.2-0.3,1.2-1.3s-0.4-1-1.2-1h-2.4L199.4,13.3L199.4,13.3z M199.4,17.1h2.4
				c1,0,1.5-0.1,1.5-1.2c0-1-0.2-1.3-1.2-1.3h-2.6L199.4,17.1L199.4,17.1z"/>
			<path class="st5" d="M210.4,17.8L210.4,17.8c-0.3,0.8-1.3,0.9-2,0.9c-1.4,0-2.4-0.3-2.4-2c0-1.5,0.8-1.9,2.4-1.9
				c0.8,0,1.5,0,1.9,0.7h0v-0.8c0-1-0.1-1.4-1.3-1.4c-0.7,0-1.2,0.1-1.2,0.9h-1.5c0-1.8,1.3-1.9,2.7-1.9c2,0,2.9,0.3,2.9,2.4v3.9
				h-1.5L210.4,17.8z M207.5,16.6c0,0.9,0.4,1,1.4,1c0.8,0,1.4-0.1,1.4-1c0-0.9-0.6-0.9-1.4-0.9C208.2,15.7,207.5,15.7,207.5,16.6z"
				/>
			<path class="st5" d="M212.6,12.3h0.8v-1.4h1.5v1.4h2.4v1.2h-2.4v3.2c0,0.6,0,0.8,0.6,0.8c0.9,0,0.8-0.7,0.8-1.3h1.3
				c0,1.9-0.5,2.5-2.1,2.5c-1.7,0-2.2-0.4-2.2-2l0-3.2h-0.8L212.6,12.3L212.6,12.3z"/>
			<path class="st5" d="M217.7,12.3h0.8v-1.4h1.5v1.4h2.4v1.2H220v3.2c0,0.6,0,0.8,0.6,0.8c0.9,0,0.8-0.7,0.8-1.3h1.3
				c0,1.9-0.5,2.5-2.1,2.5c-1.7,0-2.2-0.4-2.2-2l0-3.2h-0.8L217.7,12.3L217.7,12.3z"/>
			<path class="st5" d="M229.1,16.6c0,2-1.1,2.1-2.9,2.1c-2.4,0-2.9-0.8-2.9-3.2c0-2.3,0.4-3.2,2.9-3.2c2.6,0,2.9,0.8,2.9,3.5h-4.3
				c0,1.4,0,1.8,1.4,1.8c0.8,0,1.4,0,1.4-0.9L229.1,16.6L229.1,16.6z M227.6,14.7c0-1.3-0.2-1.4-1.4-1.4c-1.3,0-1.4,0.3-1.4,1.4
				H227.6z"/>
			<path class="st5" d="M231.7,12.3l0,0.8h0.1c0.3-0.7,0.9-0.9,1.7-0.9c1.3,0,1.7,0.8,1.7,2v0.5h-1.4v-0.3c0-0.6-0.1-1-0.8-1
				c-0.9,0-1.2,0.5-1.1,1.3v3.9h-1.5v-6.3L231.7,12.3L231.7,12.3z"/>
			<path class="st5" d="M239.6,18.8c-0.4,1.4-0.6,2.5-2.4,2.5c-0.2,0-0.4,0-0.6,0v-1.1c0.1,0,0.2,0,0.3,0c0.9,0,1.1-0.9,1.2-1.6
				h-0.7l-2.1-6.3h1.6l1.6,5.4h0l1.2-5.4h1.5L239.6,18.8z"/>
		</g>
	</g>
	<path class="st6" d="M287.6,11.7c0,1.4-1.5,2.6-3.4,2.6l-127.3,0c-1.9,0-3.4-1-3.4-2.5V4.1c0-1.4,1.5-2.7,3.4-2.7h127.3
		c1.9,0,3.4,1.1,3.4,2.6L287.6,11.7L287.6,11.7z"/>
</g>
<path class="st0" d="M2.8,78.4c0,2.3,1.9,4.3,4.3,4.3h133.5c2.3,0,4.3-1.9,4.3-4.3l0-31.2c0-2.3-1.9-4.3-4.3-4.3L7.1,43
	c-2.3,0-4.3,1.9-4.3,4.3L2.8,78.4z"/>
<path class="st1" d="M44,43H7.1c-2.3,0-4.3,1.9-4.3,4.3l0,31.2c0,2.3,1.9,4.3,4.3,4.3H44L44,43z"/>
<path class="st2" d="M140.3,81.1c1.8,0,4-1.6,4-3.6v-8.9c0,1.9-2.2,5-4,5l-132.5,0c-1.8,0-4-3-4-5v8.9c0,1.9,2.2,3.6,4,3.6
	L140.3,81.1z"/>
<path class="st3" d="M3,62.6c0,8.9,0.3,16.1,0.8,16.1s0.4-32.2,0-32.2S3,53.7,3,62.6"/>
<path class="st4" d="M3.2,68.1c0.3,0,0.3-11.9,0-11.9l0,0c0,0.7-0.6,1.3-1.3,1.3l-0.6,0c-0.7,0-1.3,0.6-1.3,1.3v6.6
	c0,0.7,0.6,1.3,1.3,1.3h0.6C2.7,66.7,3.3,67.3,3.2,68.1L3.2,68.1L3.2,68.1z"/>
<g>
	<g>
		<path class="st5" d="M56.5,66.1l-0.6,1.7h-1.8l3-9h2.5l3,9H61l-0.6-1.7H56.5z M58.5,60.1L58.5,60.1l-1.6,4.7H60L58.5,60.1z"/>
		<path class="st5" d="M65,66.1l-0.6,1.7h-1.8l3-9h2.5l3,9h-1.8l-0.6-1.7H65z M67,60.1L67,60.1l-1.6,4.7h3.1L67,60.1z"/>
		<path class="st5" d="M76.2,67.8v-9h4.5c1.8,0,2.6,0.4,2.6,2.3c0,1-0.2,1.7-1.3,2v0c1.3,0.1,1.5,1,1.5,2.1c0,2-0.8,2.5-2.7,2.5
			L76.2,67.8L76.2,67.8z M77.9,66.3h2.4c1,0,1.5-0.1,1.5-1.2c0-1-0.2-1.3-1.2-1.3h-2.6L77.9,66.3L77.9,66.3z M77.9,62.5h2.5
			c1,0,1.2-0.3,1.2-1.3s-0.4-1-1.2-1h-2.4L77.9,62.5L77.9,62.5z"/>
		<path class="st5" d="M88.9,67L88.9,67c-0.3,0.8-1.3,0.9-2,0.9c-1.4,0-2.4-0.3-2.4-2c0-1.5,0.8-1.9,2.4-1.9c0.8,0,1.5,0,1.9,0.7h0
			v-0.8c0-1-0.1-1.4-1.3-1.4c-0.7,0-1.2,0.1-1.2,0.9h-1.5c0-1.8,1.3-1.9,2.7-1.9c2,0,2.9,0.3,2.9,2.4v3.9h-1.5L88.9,67z M86.1,65.8
			c0,0.9,0.4,1,1.4,1c0.8,0,1.4-0.1,1.4-1c0-0.9-0.6-0.9-1.4-0.9C86.7,64.9,86.1,64.9,86.1,65.8z"/>
		<path class="st5" d="M91.1,61.5h0.8V60h1.5v1.4h2.4v1.1h-2.4v3.2c0,0.6,0,0.8,0.6,0.8c0.9,0,0.8-0.7,0.8-1.3h1.3
			c0,1.9-0.5,2.5-2.1,2.5c-1.7,0-2.2-0.4-2.2-2v-3.2h-0.8L91.1,61.5L91.1,61.5z"/>
		<path class="st5" d="M96.2,61.5H97V60h1.5v1.4h2.4v1.1h-2.4v3.2c0,0.6,0,0.8,0.6,0.8c0.9,0,0.8-0.7,0.8-1.3h1.3
			c0,1.9-0.5,2.5-2.1,2.5c-1.7,0-2.2-0.4-2.2-2v-3.2h-0.8L96.2,61.5L96.2,61.5z"/>
		<path class="st5" d="M107.6,65.8c0,2-1.1,2.1-2.9,2.1c-2.4,0-2.9-0.8-2.9-3.2c0-2.3,0.4-3.2,2.9-3.2c2.6,0,2.9,0.8,2.9,3.5h-4.3
			c0,1.4,0,1.8,1.4,1.8c0.8,0,1.4,0,1.4-0.9L107.6,65.8L107.6,65.8z M106.1,63.9c0-1.3-0.2-1.4-1.4-1.4c-1.3,0-1.4,0.3-1.4,1.4
			H106.1z"/>
		<path class="st5" d="M110.2,61.5l0,0.8h0.1c0.3-0.7,0.9-0.9,1.7-0.9c1.3,0,1.7,0.8,1.7,2v0.5h-1.4v-0.3c0-0.6-0.1-1-0.8-1
			c-0.9,0-1.2,0.5-1.1,1.3v3.9h-1.5v-6.3L110.2,61.5L110.2,61.5z"/>
		<path class="st5" d="M118.1,68c-0.4,1.4-0.6,2.5-2.4,2.5c-0.2,0-0.4,0-0.6,0v-1.1c0.1,0,0.2,0,0.3,0c0.9,0,1.1-0.9,1.2-1.6h-0.7
			l-2.1-6.3h1.6l1.6,5.4h0l1.2-5.4h1.5L118.1,68z"/>
	</g>
</g>
<path class="st6" d="M7,54.7c0,1.4,1.5,2.6,3.4,2.6h127.3c1.9,0,3.4-1,3.4-2.5v-7.7c0-1.4-1.5-2.7-3.4-2.7l-127.3,0
	C8.5,44.4,7,45.6,7,47L7,54.7L7,54.7z"/>
<path class="st0" d="M148,78.4c0,2.3,1.9,4.3,4.3,4.3h133.5c2.3,0,4.3-1.9,4.3-4.3l0-31.2c0-2.3-1.9-4.3-4.3-4.3l-133.5,0
	c-2.3,0-4.3,1.9-4.3,4.3V78.4z"/>
<path class="st1" d="M189.2,43h-36.9c-2.3,0-4.3,1.9-4.3,4.3v31.2c0,2.3,1.9,4.3,4.3,4.3h36.9L189.2,43z"/>
<path class="st2" d="M285.5,81.1c1.8,0,4-1.6,4-3.6v-8.9c0,1.9-2.2,5-4,5l-132.5,0c-1.8,0-4-3-4-5v8.9c0,1.9,2.2,3.6,4,3.6
	L285.5,81.1z"/>
<path class="st3" d="M148.1,62.6c0,8.9,0.3,16.1,0.8,16.1c0.4,0,0.4-32.2,0-32.2C148.5,46.5,148.1,53.7,148.1,62.6"/>
<path class="st4" d="M148.4,68.1c0.3,0,0.3-11.9,0-11.9l0,0c0,0.7-0.6,1.3-1.3,1.3l-0.6,0c-0.7,0-1.3,0.6-1.3,1.3v6.6
	c0,0.7,0.6,1.3,1.3,1.3h0.6C147.8,66.7,148.4,67.3,148.4,68.1L148.4,68.1L148.4,68.1z"/>
<g>
	<g>
		<path class="st5" d="M201.7,66.1l-0.6,1.7h-1.8l3-9h2.5l3,9h-1.8l-0.6-1.7H201.7z M203.6,60.1L203.6,60.1l-1.6,4.7h3.1L203.6,60.1
			z"/>
		<path class="st5" d="M210.2,66.1l-0.6,1.7h-1.8l3-9h2.5l3,9h-1.8l-0.6-1.7H210.2z M212.1,60.1L212.1,60.1l-1.6,4.7h3.1L212.1,60.1
			z"/>
		<path class="st5" d="M221.4,67.8v-9h4.5c1.8,0,2.6,0.4,2.6,2.3c0,1-0.2,1.7-1.3,2v0c1.3,0.1,1.5,1,1.5,2.1c0,2-0.8,2.5-2.7,2.5
			L221.4,67.8L221.4,67.8z M223.1,66.3h2.4c1,0,1.5-0.1,1.5-1.2c0-1-0.2-1.3-1.2-1.3h-2.6L223.1,66.3L223.1,66.3z M223.1,62.5h2.5
			c1,0,1.2-0.3,1.2-1.3s-0.4-1-1.2-1h-2.4L223.1,62.5L223.1,62.5z"/>
		<path class="st5" d="M234.1,67L234.1,67c-0.3,0.8-1.3,0.9-2,0.9c-1.4,0-2.4-0.3-2.4-2c0-1.5,0.8-1.9,2.4-1.9c0.8,0,1.5,0,1.9,0.7
			h0v-0.8c0-1-0.1-1.4-1.3-1.4c-0.7,0-1.2,0.1-1.2,0.9h-1.5c0-1.8,1.3-1.9,2.7-1.9c2,0,2.9,0.3,2.9,2.4v3.9H234L234.1,67z
			 M231.2,65.8c0,0.9,0.4,1,1.4,1c0.8,0,1.4-0.1,1.4-1c0-0.9-0.6-0.9-1.4-0.9C231.8,64.9,231.2,64.9,231.2,65.8z"/>
		<path class="st5" d="M236.2,61.5h0.8V60h1.5v1.4h2.4v1.1h-2.4v3.2c0,0.6,0,0.8,0.6,0.8c0.9,0,0.8-0.7,0.8-1.3h1.3
			c0,1.9-0.5,2.5-2.1,2.5c-1.7,0-2.2-0.4-2.2-2v-3.2h-0.8L236.2,61.5L236.2,61.5z"/>
		<path class="st5" d="M241.3,61.5h0.8V60h1.5v1.4h2.4v1.1h-2.4v3.2c0,0.6,0,0.8,0.6,0.8c0.9,0,0.8-0.7,0.8-1.3h1.3
			c0,1.9-0.5,2.5-2.1,2.5c-1.7,0-2.2-0.4-2.2-2v-3.2h-0.8L241.3,61.5L241.3,61.5z"/>
		<path class="st5" d="M252.8,65.8c0,2-1.1,2.1-2.9,2.1c-2.4,0-2.9-0.8-2.9-3.2c0-2.3,0.4-3.2,2.9-3.2c2.6,0,2.9,0.8,2.9,3.5h-4.3
			c0,1.4,0,1.8,1.4,1.8c0.8,0,1.4,0,1.4-0.9L252.8,65.8L252.8,65.8z M251.3,63.9c0-1.3-0.2-1.4-1.4-1.4c-1.3,0-1.4,0.3-1.4,1.4
			H251.3z"/>
		<path class="st5" d="M255.4,61.5l0,0.8h0.1c0.3-0.7,0.9-0.9,1.7-0.9c1.3,0,1.7,0.8,1.7,2v0.5h-1.4v-0.3c0-0.6-0.1-1-0.8-1
			c-0.9,0-1.2,0.5-1.1,1.3v3.9h-1.5v-6.3L255.4,61.5L255.4,61.5z"/>
		<path class="st5" d="M263.3,68c-0.4,1.4-0.6,2.5-2.4,2.5c-0.2,0-0.4,0-0.6,0v-1.1c0.1,0,0.2,0,0.3,0c0.9,0,1.1-0.9,1.2-1.6h-0.7
			l-2.1-6.3h1.6l1.6,5.4h0l1.2-5.4h1.5L263.3,68z"/>
	</g>
</g>
<path class="st6" d="M152.1,54.7c0,1.4,1.5,2.6,3.4,2.6h127.3c1.9,0,3.4-1,3.4-2.5v-7.7c0-1.4-1.5-2.7-3.4-2.7l-127.3,0
	c-1.9,0-3.4,1.1-3.4,2.6L152.1,54.7L152.1,54.7z"/>
</svg>
