<?xml version="1.0" encoding="utf-8"?>
<!-- Generator: Adobe Illustrator 23.0.3, SVG Export Plug-In . SVG Version: 6.00 Build 0)  -->
<svg version="1.1" id="Layer_1" xmlns:svg="http://www.w3.org/2000/svg"
	 xmlns="http://www.w3.org/2000/svg" xmlns:xlink="http://www.w3.org/1999/xlink" x="0px" y="0px" viewBox="0 0 101.8 151.9"
	 style="enable-background:new 0 0 101.8 151.9;" xml:space="preserve">
<style type="text/css">
	.st0{fill:none;stroke:#000000;stroke-width:3;stroke-linecap:round;stroke-linejoin:round;}
	.st1{fill:none;stroke:#FF0000;stroke-width:3;stroke-linecap:round;stroke-linejoin:round;}
	.st2{fill:none;}
	.st3{fill:#939393;}
	.st4{fill:#B2B2B2;}
	.st5{fill:#E6E6E6;}
	.st6{opacity:0.9;fill:#FFFFFF;enable-background:new    ;}
	.st7{opacity:0.1;enable-background:new    ;}
	.st8{fill:#919191;}
	.st9{fill:#F4F4F4;}
	.st10{fill:#B7B7B7;}
	.st11{fill:#999999;}
	.st12{fill:#353535;}
	.st13{opacity:0.35;enable-background:new    ;}
	.st14{fill:#D18D52;}
	.st15{opacity:0.15;fill:#FFFFFF;enable-background:new    ;}
	.st16{opacity:0.35;fill:#FFFFFF;enable-background:new    ;}
	.st17{opacity:0.2;}
	.st18{fill:none;stroke:#000000;stroke-width:3;}
	.st19{fill:none;stroke:#FF0000;stroke-width:3;}
	.st20{fill:#262626;}
	.st21{fill:#FFFFFF;}
	.st22{font-family:'ArialMT';}
	.st23{font-size:22px;}
</style>
<g>
	<path class="st0" d="M95.3,17.6h5"/>
	<path class="st1" d="M95.3,10.5h5"/>
	<g>
		<g id="breadboard">
			<rect id="connector0pin" x="95" y="16.2" class="st2" width="1.3" height="3"/>
			<rect id="connector1pin" x="95" y="9" class="st2" width="1.3" height="3"/>
			<g id="connector0leg">
			</g>
			<g id="connector1leg">
			</g>
			<g>
				<g>
					<path class="st3" d="M9.6,13.9H24c0.3,0,0.6-0.3,0.6-0.6V5.1c0-0.3-0.3-0.6-0.6-0.6h-7.2l-7.2,0C9.3,4.5,9,4.8,9,5.1v8.2
						C9,13.6,9.3,13.9,9.6,13.9z M9.9,5.2c0-0.3,0.2-0.6,0.6-0.6h6.4h6.4c0.3,0,0.6,0.2,0.6,0.6v8c0,0.3-0.2,0.6-0.6,0.6l-12.7,0
						c-0.3,0-0.6-0.2-0.6-0.6V5.2z"/>
					<path class="st4" d="M10.4,13.8h6.4h6.4c0.3,0,0.6-0.2,0.6-0.6v-8c0-0.3-0.2-0.6-0.6-0.6h-6.4h-6.4c-0.3,0-0.6,0.2-0.6,0.6v8
						C9.9,13.5,10.1,13.8,10.4,13.8z"/>
					<path class="st5" d="M11.7,13.7h5.1h5.1c0.3,0,0.5-0.2,0.5-0.5V5.5c0-0.3-0.2-0.5-0.5-0.5h-4c0.1,0.1,0.2,0.2,0.2,0.4v6.9
						c0,0.3-0.2,0.5-0.5,0.5h-0.9h-2.5c-0.3,0-0.5-0.2-0.5-0.5l0-6.9c0-0.2,0.1-0.3,0.2-0.4h-2.4c-0.3,0-0.5,0.2-0.5,0.5v7.6
						C11.2,13.4,11.4,13.7,11.7,13.7z"/>
					<path class="st6" d="M19.2,5.8c0-0.3-0.2-0.5-0.4-0.5H21c0.2,0,0.4,0.2,0.4,0.5V13c0,0.3-0.2,0.5-0.4,0.5h-2.2
						c0.2,0,0.4-0.2,0.4-0.5V5.8z"/>
				</g>
				<rect x="9" y="4.6" class="st7" width="15.5" height="1.5"/>
			</g>
			<g>
				<path class="st8" d="M27.1,7.8c-0.4,0-1.1,0.7-1.1,0.7s-0.4-0.7-1-0.8c-2.9-0.2-4.3-0.1-7.2-0.1c-0.4,0-0.8,0-1,0.5
					c-0.2-0.5-0.6-0.5-1-0.5c-2.9,0-4.4-0.1-7.4,0.1c-0.7,0.1-1,0.8-1,0.8S7,7.7,6.6,7.8c-0.5,0-1,0-1,0.4c-0.2,1.7-0.3,2.5-0.4,4.1
					c-0.1,1.3,0.4,1.9,0.4,3.4c0,1,0.9,2.2,1.7,2.2c2.7,0,4.1-0.1,6.8,0.1c1.2,0.1,2.5-0.1,2.8-1.2c0.3,1.1,1.6,1.3,2.8,1.2
					c2.7-0.2,4.1-0.1,6.8-0.1c0.8,0,1.5-1.2,1.5-2.2c0,0,0.7-2.1,0.6-3.7s-0.6-3.8-0.6-3.8C27.9,7.5,27.3,7.8,27.1,7.8z"/>
				<g>
					<path class="st9" d="M5.6,10.1c0.8-0.3,1.4-0.5,1.4-0.5c-0.2,1.8-0.3,2.6,0,4.2c-0.5-0.1-1-0.2-1.5-0.2
						C5.3,12.2,5.5,11.6,5.6,10.1z"/>
					<path class="st10" d="M5.9,8.2c0.7,0,1.3,0.6,1.2,1.4c0,0-0.6,0.2-1.4,0.5C5.7,9.3,5.8,9,5.9,8.2z"/>
					<path class="st11" d="M7,12.9c0,0.6,0.1,0.8,0.2,1.3c0.1,0.7-0.5,1.4-1.3,1.4c0-0.9-0.1-1.3-0.3-2.1C6.1,13.5,7,13.4,7,12.9z"
						/>
				</g>
				<g>
					<path class="st9" d="M7.8,9.6C7.9,8.7,8.4,8,8.9,8c2.6-0.2,3.9-0.1,6.5-0.1c0.5,0,0.9,0.7,0.9,1.5c0,0-0.2,1.4-0.2,2.2
						s0.2,2.2,0.2,2.2c0,1.2-0.4,2.1-0.9,2.1c-2.6-0.1-3.9-0.2-6.5-0.2c-0.5,0-0.9-0.7-1-1.4C7.7,12.5,7.7,11.6,7.8,9.6z"/>
					<g>
						<path class="st10" d="M8.9,8c2.6-0.2,3.9-0.1,6.5-0.1c0.5,0,0.9,0.7,0.9,1.5c0,0-2.7,0.1-4.4,0.1c-1.8,0-4.1,0.1-4.1,0.1
							C7.9,8.7,8.4,8,8.9,8z"/>
					</g>
					<g>
						<path class="st11" d="M8.9,15.6c2.6,0,3.9,0.1,6.5,0.2c0.5,0,0.9-0.6,0.9-1.5c0-0.2,0-0.4,0-0.6c-1.2-0.4-2.7-0.6-4.4-0.6
							c-1.8,0-3,0.6-4.2-0.4c0,0.6,0.1,0.9,0.1,1.4C8,14.9,8.4,15.6,8.9,15.6z"/>
					</g>
				</g>
				<g>
					<path class="st9" d="M27.9,10.1c-0.9-0.3-1.4-0.5-1.4-0.5c0.2,1.8,0.3,2.6,0,4.2c0.5-0.1,1-0.2,1.5-0.2
						C28.2,12.2,28,11.6,27.9,10.1z"/>
					<path class="st10" d="M27.7,8.2c-0.7,0-1.3,0.6-1.2,1.4c0,0,0.6,0.2,1.4,0.5C27.9,9.3,27.8,8.9,27.7,8.2z"/>
					<path class="st11" d="M26.6,12.5c0,0.7-0.1,1-0.2,1.7c-0.1,0.7,0.5,1.4,1.3,1.4c0-0.9,0.1-1.3,0.3-2.1
						C27.5,13.5,26.6,13.2,26.6,12.5z"/>
				</g>
				<g>
					<path class="st9" d="M25.7,9.6C25.7,8.7,25.2,8,24.7,8c-2.6-0.2-3.9-0.1-6.5-0.1c-0.5,0-0.9,0.7-0.9,1.5c0,0,0.2,1.5,0.2,2.4
						s-0.2,2-0.2,2c0,0.8,0.4,2.1,0.9,2.1c2.6-0.1,3.9-0.2,6.5-0.2c0.5,0,0.9-0.7,1-1.4C25.9,12.5,25.9,11.6,25.7,9.6z"/>
					<g>
						<path class="st10" d="M24.7,8c-2.6-0.2-3.9-0.1-6.5-0.1c-0.5,0-0.9,0.7-0.9,1.5c0,0,2.7,0.1,4.4,0.1c1.8,0,4.1,0,4.1,0
							C25.7,8.7,25.2,8,24.7,8z"/>
					</g>
					<g>
						<path class="st11" d="M24.7,15.6c-2.6,0-3.9,0.1-6.5,0.2c-0.5,0-0.9-0.6-0.9-1.5c0-0.2,0-0.4,0-0.6c1.2-0.4,2.7-0.6,4.4-0.6
							c1.8,0,3.2,0.3,4.2-0.6c0,0.7-0.1,1-0.1,1.6C25.6,14.9,25.2,15.6,24.7,15.6z"/>
					</g>
				</g>
			</g>
			<g>
				<path class="st3" d="M60.1,7.3H45.7c-0.3,0-0.6,0.3-0.6,0.6v8.2c0,0.3,0.3,0.6,0.6,0.6h7.2h7.2c0.3,0,0.6-0.3,0.6-0.6l0-8.2
					C60.7,7.6,60.4,7.3,60.1,7.3z M59.8,16c0,0.3-0.2,0.6-0.6,0.6h-6.4h-6.4c-0.3,0-0.6-0.2-0.6-0.6V8c0-0.3,0.2-0.6,0.6-0.6h12.7
					c0.3,0,0.6,0.2,0.6,0.6L59.8,16z"/>
				<path class="st4" d="M59.3,7.5h-6.4h-6.4C46.2,7.5,46,7.7,46,8v8c0,0.3,0.2,0.6,0.6,0.6h6.4h6.4c0.3,0,0.6-0.2,0.6-0.6V8
					C59.8,7.7,59.6,7.5,59.3,7.5z"/>
				<path class="st5" d="M58,7.5h-5.1h-5.1c-0.3,0-0.5,0.2-0.5,0.5v7.6c0,0.3,0.2,0.5,0.5,0.5h4c-0.1-0.1-0.2-0.2-0.2-0.4V8.9
					c0-0.3,0.2-0.5,0.5-0.5h0.9h2.5c0.3,0,0.5,0.2,0.5,0.5v6.9c0,0.2-0.1,0.3-0.2,0.4H58c0.3,0,0.5-0.2,0.5-0.5V8.1
					C58.5,7.8,58.3,7.5,58,7.5z"/>
				<path class="st6" d="M50.5,15.5c0,0.3,0.2,0.5,0.4,0.5h-2.2c-0.2,0-0.4-0.2-0.4-0.5V8.2c0-0.3,0.2-0.5,0.4-0.5h2.2
					c-0.2,0-0.4,0.2-0.4,0.5V15.5z"/>
			</g>
			<rect x="45.1" y="15.1" class="st2" width="15.5" height="1.5"/>
			<rect x="5.4" y="15.1" class="st7" width="22.6" height="1.5"/>
			<path class="st12" d="M5.7,151.9L5.7,151.9c0,0-0.1,0-0.2,0C5.5,151.9,5.6,151.9,5.7,151.9z"/>
			<path class="st12" d="M5.1,151.8C5.1,151.8,5.1,151.8,5.1,151.8C5.1,151.8,5.1,151.8,5.1,151.8z"/>
			<path class="st13" d="M5.4,151.9c-0.1,0-0.2,0-0.3,0C5.2,151.9,5.3,151.9,5.4,151.9z"/>
			<path class="st12" d="M70.7,148.3c-0.6,0.9-2.8,1.6-5.5,1.6H5.7c-3.1,0-5.7-0.9-5.7-2.1v0.1c0.4,2.1,2.4,3.7,5,4c0,0,0,0,0.1,0
				c0.1,0,0.2,0,0.3,0c0.1,0,0.2,0,0.3,0h59.5C67.9,151.9,70.2,150.3,70.7,148.3z"/>
			<path class="st13" d="M70.7,148.3c-0.6,0.9-2.8,1.6-5.5,1.6H5.7c-3.1,0-5.7-0.9-5.7-2.1v0.1c0.4,2.1,2.4,3.7,5,4c0,0,0,0,0.1,0
				c0.1,0,0.2,0,0.3,0c0.1,0,0.2,0,0.3,0h59.5C67.9,151.9,70.2,150.3,70.7,148.3z"/>
			<g>
				<g>
					<path class="st12" d="M66.3,15.8c2,0,4.5,1.7,4.5,3.8v127.7c0,2.5-2.6,4.6-5.7,4.6l-59.5,0c-3.1,0-5.7-2.1-5.7-4.6L0,19.6
						c0-2.1,2.6-3.8,6.8-3.8L66.3,15.8L66.3,15.8z"/>
					<path class="st14" d="M70.9,49.4H0V19.6c0-2.1,2.6-3.8,6.8-3.8h59.5c2,0,4.5,1.7,4.5,3.8V49.4z"/>
				</g>
				<path class="st15" d="M69.6,147.8c0,0.6-1.6,1.1-3.8,1.2V17.9c2.2,0.1,3.8,0.5,3.8,1V147.8z"/>
				<path class="st15" d="M1.1,147.8c0,0.6,1.6,1.1,3.8,1.2V17.9c-2.2,0.1-3.8,0.5-3.8,1V147.8z"/>
				<path class="st16" d="M1.1,18.9c0-0.6,2.5-1.1,5.5-1.1h57.5c3,0,5.5,0.5,5.5,1.1v-0.2c0-1.1-2.5-1.9-5.5-1.9l-57.5,0
					c-3,0-5.5,0.9-5.5,1.9L1.1,18.9L1.1,18.9z"/>
				<g class="st17">
					<path d="M69.6,18.5c0,0,0,128.9,0,130.5c0.6-0.3,0.6-0.3,1-0.6c0-0.6,0-126.2,0-126.7C70.6,20.7,69.9,19.2,69.6,18.5z"/>
				</g>
				<g class="st17">
					<path d="M1.1,18.5c0,0,0,128.9,0,130.5c-0.6-0.3-0.6-0.3-1-0.6c0-0.6,0-126.2,0-126.7C0.1,20.7,0.9,19.2,1.1,18.5z"/>
				</g>
			</g>
			<path class="st18" d="M67.7,4.4c14.5,0,13.9,13.2,27.6,13.2"/>
			<path class="st19" d="M67.7,4.4c17.3,0,16.1,6,27.6,6"/>
			<g>
				<path class="st8" d="M42.6,14.4c0.4,0,1.1-0.7,1.1-0.7s0.4,0.7,1,0.8c2.9,0.2,4.3,0.1,7.2,0.1c0.4,0,0.8,0,1-0.5
					c0.2,0.5,0.6,0.5,1,0.5c2.9,0,4.4,0.1,7.4-0.1c0.7-0.1,1-0.8,1-0.8s0.4,0.7,0.9,0.7c0.5,0,1,0,1-0.4c0.2-1.7,0.3-2.5,0.4-4.1
					c0.1-1.3-0.4-1.9-0.4-3.4c0-1-0.9-2.2-1.7-2.2c-2.7,0-4.1,0.1-6.8-0.1c-1.2-0.1-2.5,0.1-2.8,1.2c-0.3-1.1-1.6-1.3-2.8-1.2
					c-2.7,0.2-4.1,0.1-6.8,0.1c-0.8,0-1.5,1.2-1.5,2.2c0,0-0.7,2.1-0.6,3.7s0.6,3.8,0.6,3.8C41.8,14.6,42.4,14.4,42.6,14.4z"/>
				<g>
					<path class="st9" d="M64.1,12.1c-0.8,0.3-1.4,0.5-1.4,0.5c0.2-1.8,0.3-2.6,0-4.2c0.5,0.1,1,0.2,1.5,0.2
						C64.4,9.9,64.2,10.6,64.1,12.1z"/>
					<path class="st10" d="M63.8,14c-0.7,0-1.3-0.6-1.2-1.4c0,0,0.6-0.2,1.4-0.5C64,12.8,63.9,13.2,63.8,14z"/>
					<path class="st11" d="M62.7,9.3c0-0.6-0.1-0.8-0.2-1.3c-0.1-0.7,0.5-1.4,1.3-1.4c0,0.9,0.1,1.3,0.3,2.1
						C63.5,8.6,62.7,8.8,62.7,9.3z"/>
				</g>
				<g>
					<path class="st9" d="M61.9,12.6c-0.1,0.8-0.5,1.5-1.1,1.6c-2.6,0.2-3.9,0.1-6.5,0.1c-0.5,0-0.9-0.7-0.9-1.5
						c0,0,0.2-1.4,0.2-2.2s-0.2-2.2-0.2-2.2c0-1.2,0.4-2.1,0.9-2.1c2.6,0.1,3.9,0.2,6.5,0.2c0.5,0,0.9,0.7,1,1.4
						C62,9.7,62,10.6,61.9,12.6z"/>
					<g>
						<path class="st10" d="M60.8,14.2c-2.6,0.2-3.9,0.1-6.5,0.1c-0.5,0-0.9-0.7-0.9-1.5c0,0,2.7-0.1,4.4-0.1c1.8,0,4.1-0.1,4.1-0.1
							C61.8,13.4,61.3,14.1,60.8,14.2z"/>
					</g>
					<g>
						<path class="st11" d="M60.8,6.5c-2.6,0-3.9-0.1-6.5-0.2c-0.5,0-0.9,0.6-0.9,1.5c0,0.2,0,0.4,0,0.6C54.6,8.8,56.1,9,57.8,9
							c1.8,0,3-0.6,4.2,0.4c0-0.6-0.1-0.9-0.1-1.4C61.7,7.2,61.3,6.5,60.8,6.5z"/>
					</g>
				</g>
				<g>
					<path class="st9" d="M41.8,12.1c0.9,0.3,1.4,0.5,1.4,0.5c-0.2-1.8-0.3-2.6,0-4.2c-0.5,0.1-1,0.2-1.5,0.2
						C41.5,9.9,41.7,10.6,41.8,12.1z"/>
					<path class="st10" d="M42,14c0.7,0,1.3-0.6,1.2-1.4c0,0-0.6-0.2-1.4-0.5C41.8,12.8,41.9,13.2,42,14z"/>
					<path class="st11" d="M43.1,9.6c0-0.7,0.1-1,0.2-1.7c0.1-0.7-0.5-1.4-1.3-1.4c0,0.9-0.1,1.3-0.3,2.1C42.2,8.6,43.1,9,43.1,9.6z
						"/>
				</g>
				<g>
					<path class="st9" d="M44,12.6c0.1,0.8,0.5,1.5,1.1,1.6c2.6,0.2,3.9,0.1,6.5,0.1c0.5,0,0.9-0.7,0.9-1.5c0,0-0.2-1.5-0.2-2.4
						s0.2-2,0.2-2c0-0.8-0.4-2.1-0.9-2.1c-2.6,0.1-3.9,0.2-6.5,0.2c-0.5,0-0.9,0.7-1,1.4C43.8,9.7,43.8,10.6,44,12.6z"/>
					<g>
						<path class="st10" d="M45,14.2c2.6,0.2,3.9,0.1,6.5,0.1c0.5,0,0.9-0.7,0.9-1.5c0,0-2.7-0.1-4.4-0.1c-1.8,0-4.1,0-4.1,0
							C44,13.4,44.5,14.2,45,14.2z"/>
					</g>
					<g>
						<path class="st11" d="M45,6.5c2.6,0,3.9-0.1,6.5-0.2c0.5,0,0.9,0.6,0.9,1.5c0,0.2,0,0.4,0,0.6C51.2,8.8,49.7,9,48.1,9
							c-1.8,0-3.2-0.3-4.2,0.6c0-0.7,0.1-1,0.1-1.6C44.1,7.2,44.5,6.5,45,6.5z"/>
					</g>
				</g>
			</g>
			<path class="st20" d="M67.8,6.9c0,0,0-3.6,0-4.5c0-1.7-1.2-2.4-6.3-2.4H9.4C4.3,0,3.1,0.7,3.1,2.4c0,0.9,0,4.5,0,4.5L67.8,6.9z"
				/>
			<path class="st16" d="M62.8,0.6c3.6,0,4.3,0.9,4.3,1.9v0.2c0-0.6-1.4-1.1-4.3-1.1l-54.7,0c-2.8,0-4.3,0.5-4.3,1.1l0-0.2
				c0-1.1,0.6-1.9,4.3-1.9L62.8,0.6z"/>
			<path class="st15" d="M5.6,1.8C4.4,2,3.8,2.3,3.8,2.7v3.8h1.8V1.8z"/>
			<path class="st15" d="M65.3,1.8C66.4,2,67,2.3,67,2.7v3.8h-1.8V1.8z"/>
			<g>
				<g transform="matrix(1, 0, 0, 1, 22.6406, 75.9354)">
					<text transform="matrix(1 0 0 1 1.470703e-04 2.280469e-05)" class="st21 st22 st23">9</text>
				</g>
				<g transform="matrix(1, 0, 0, 1, 36.5776, 75.9359)">
					<text transform="matrix(1 0 0 1 1.597891e-04 1.508594e-05)" class="st21 st22 st23">v</text>
				</g>
			</g>
		</g>
	</g>
</g>
</svg>
