<?xml version="1.0" encoding="utf-8"?>
<!-- Generator: Adobe Illustrator 24.0.0, SVG Export Plug-In . SVG Version: 6.00 Build 0)  -->
<svg version="1.1" xmlns="http://www.w3.org/2000/svg" xmlns:xlink="http://www.w3.org/1999/xlink" x="0px" y="0px"
	 viewBox="0 0 169.8 185.9" style="enable-background:new 0 0 169.8 185.9;" xml:space="preserve">
<style type="text/css">
	.st0{fill:url(#SVGID_1_);stroke:#000000;stroke-miterlimit:10;}
	.st1{fill:#1A1A1A;stroke:#000000;stroke-miterlimit:10;}
	.st2{fill:none;stroke:#808080;stroke-miterlimit:10;}
	.st3{fill:#FFFFFF;stroke:#000000;stroke-miterlimit:10;}
	.st4{fill:#AEAEAE;stroke:#000000;stroke-width:0.25;stroke-miterlimit:10;}
	.st5{fill:url(#SVGID_2_);stroke:#000000;stroke-miterlimit:10;}
	.st6{fill:#606060;}
</style>
<g id="Layer_1">
</g>
<g id="Layer_2">
	<g>
		<linearGradient id="SVGID_1_" gradientUnits="userSpaceOnUse" x1="84.848" y1="93.812" x2="84.848" y2="0.5">
			<stop  offset="0" style="stop-color:#000000"/>
			<stop  offset="3.490698e-02" style="stop-color:#171717"/>
			<stop  offset="8.787429e-02" style="stop-color:#343434"/>
			<stop  offset="0.1447" style="stop-color:#4A4A4A"/>
			<stop  offset="0.2065" style="stop-color:#5A5A5A"/>
			<stop  offset="0.2768" style="stop-color:#636363"/>
			<stop  offset="0.3744" style="stop-color:#666666"/>
			<stop  offset="0.5169" style="stop-color:#666666"/>
			<stop  offset="0.6329" style="stop-color:#636363"/>
			<stop  offset="0.7249" style="stop-color:#595959"/>
			<stop  offset="0.8086" style="stop-color:#484848"/>
			<stop  offset="0.8873" style="stop-color:#313131"/>
			<stop  offset="0.962" style="stop-color:#121212"/>
			<stop  offset="1" style="stop-color:#000000"/>
		</linearGradient>
		<rect x="0.5" y="0.5" class="st0" width="168.7" height="93.3"/>
		<polygon class="st1" points="164.1,46 5.4,46 5.4,3.4 15.2,3.4 15.3,17.1 63.6,17.1 63.6,3.4 107.2,3.4 107.5,16.5 155,17.1 
			155.2,3.4 164.1,3.4 		"/>
		<polygon class="st2" points="70.3,17.9 70.3,21.6 64.1,21.6 64.1,28.2 70.3,28.2 70.3,32.1 105.8,32.1 105.8,17.9 		"/>
		<line class="st2" x1="110.7" y1="24.7" x2="117" y2="24.7"/>
		<g>
			<line class="st2" x1="53.6" y1="25.2" x2="60.5" y2="25.2"/>
			<line class="st2" x1="57" y1="22" x2="57" y2="28.5"/>
		</g>
		<circle class="st3" cx="85.5" cy="25.5" r="4.3"/>
		<path class="st4" d="M163,12.1c0-0.9-0.7-1.6-1.6-1.6h-0.3c-0.9,0-1.6,0.7-1.6,1.6v11.6c0,0-1.4-5.1-1.5-5.3
			c-0.1-0.3-0.4-0.6-0.7-0.7c-0.4-0.3-0.9-0.4-1.4-0.2l-0.3,0.1c-0.6,0.2-1.1,0.7-1.2,1.4c0,0.2-2,14.6-2,14.6l-5.1-13.1
			c-0.2-1-0.7-1.7-1.6-1.8l-0.2,0c-0.3-0.1-0.7-0.1-1,0.1l-0.2,0.1c-0.8,0.3-1.1,1.4-1.1,2.2l-1.1,9.8l-3.9-10.2
			c-0.3-0.8-1.1-1.2-1.9-1c-0.7,0-1.4,0.6-1.5,1.3c0,0,0,0,0,0.1c0,0,0,0,0,0l-2.1,14.6c-0.1,0.9,0.5,1.7,1.4,1.9l0.3,0
			c0.9,0.1,1.7-0.5,1.9-1.4l1.1-7.8l3.8,10c0.3,0.7,0.9,1.1,1.7,1l0,0c0.9,0.1,1.7-0.5,1.9-1.4l1.5-10.2c0,0,5.3,13.4,5.4,13.6
			c0.2,0.5,0.7,0.9,1.3,1l0.3,0c0.9,0.1,1.7-0.5,1.9-1.4l1.9-13.1l2.5,8.5v7c0,0.9,0.7,1.6,1.6,1.6h0.3c0.9,0,1.6-0.7,1.6-1.6V12.1z
			"/>
		<path class="st4" d="M5.4,44.1h1.6c0.9,0,1.6-0.7,1.6-1.6V17.9c0-0.9-0.7-1.6-1.6-1.6H5.4V44.1z"/>
		<polygon class="st1" points="5.6,48.3 164.3,48.3 164.3,90.9 154.5,90.9 154.4,77.2 106.1,77.2 106.1,90.9 62.5,90.9 62.2,77.8 
			14.7,77.2 14.5,90.9 5.6,90.9 		"/>
		<polygon class="st2" points="99.4,76.4 99.4,72.7 105.6,72.7 105.6,66.1 99.4,66.1 99.4,62.2 63.9,62.2 63.9,76.4 		"/>
		<line class="st2" x1="59" y1="69.6" x2="52.7" y2="69.6"/>
		<g>
			<line class="st2" x1="116.1" y1="69.1" x2="109.2" y2="69.1"/>
			<line class="st2" x1="112.6" y1="72.4" x2="112.6" y2="65.8"/>
		</g>
		<circle class="st3" cx="84.1" cy="68.8" r="4.3"/>
		<path class="st4" d="M6.7,82.2c0,0.9,0.7,1.6,1.6,1.6h0.3c0.9,0,1.6-0.7,1.6-1.6V70.6c0,0,1.4,5.1,1.5,5.3
			c0.1,0.3,0.4,0.6,0.7,0.7c0.4,0.3,0.9,0.4,1.4,0.2l0.3-0.1c0.6-0.2,1.1-0.7,1.2-1.4c0-0.2,2-14.6,2-14.6L22.3,74
			c0.2,1,0.7,1.7,1.6,1.8l0.2,0c0.3,0.1,0.7,0.1,1-0.1l0.2-0.1c0.8-0.3,1.1-1.4,1.1-2.2l1.1-9.8l3.9,10.2c0.3,0.8,1.1,1.2,1.9,1
			c0.7,0,1.4-0.6,1.5-1.3c0,0,0,0,0-0.1c0,0,0,0,0,0L37,58.9c0.1-0.9-0.5-1.7-1.4-1.9l-0.3,0c-0.9-0.1-1.7,0.5-1.9,1.4l-1.1,7.8
			l-3.8-10c-0.3-0.7-0.9-1.1-1.7-1l0,0c-0.9-0.1-1.7,0.5-1.9,1.4l-1.5,10.2c0,0-5.3-13.4-5.4-13.6c-0.2-0.5-0.7-0.9-1.3-1l-0.3,0
			c-0.9-0.1-1.7,0.5-1.9,1.4l-1.9,13.1l-2.5-8.5v-7c0-0.9-0.7-1.6-1.6-1.6H8.3c-0.9,0-1.6,0.7-1.6,1.6V82.2z"/>
		<path class="st4" d="M164.3,59h-2c-0.6,0-1.2,0.5-1.2,1.2v10.3c0,0.6,0.5,1.2,1.2,1.2h2V59z"/>
	</g>
	<g>
		<linearGradient id="SVGID_2_" gradientUnits="userSpaceOnUse" x1="84.9444" y1="149.8954" x2="84.9444" y2="103.0954">
			<stop  offset="0" style="stop-color:#000000"/>
			<stop  offset="0.448" style="stop-color:#020202"/>
			<stop  offset="0.6093" style="stop-color:#090909"/>
			<stop  offset="0.7243" style="stop-color:#141414"/>
			<stop  offset="0.8173" style="stop-color:#252525"/>
			<stop  offset="0.897" style="stop-color:#3B3B3B"/>
			<stop  offset="0.9662" style="stop-color:#565656"/>
			<stop  offset="1" style="stop-color:#666666"/>
		</linearGradient>
		<rect x="0.6" y="103.1" class="st5" width="168.7" height="46.8"/>
		<rect x="167.1" y="149.9" class="st6" width="0.7" height="36"/>
	</g>
</g>
</svg>
