<?xml version='1.0' encoding='UTF-8' standalone='no'?>
<!-- Created with Fritzing (http://www.fritzing.org/) -->
<svg xmlns:svg='http://www.w3.org/2000/svg' xmlns='http://www.w3.org/2000/svg' version='1.2' baseProfile='tiny' x='0in' y='0in' width='2.21322in' height='1.84399in' viewBox='0 0 159.352 132.767' >
<path stroke='#000000' stroke-width='2.5034' stroke-linecap='round' stroke-linejoin='round' fill='none' d='M153.1,102.505L158.1,102.505' />
<path stroke='#ff0000' stroke-width='2.5034' stroke-linecap='round' stroke-linejoin='round' fill='none' d='M153.1,25.906L158.1,25.906' />
<g partID='854249240'><g xmlns="http://www.w3.org/2000/svg" id="breadboard">
 <rect xmlns="http://www.w3.org/2000/svg" fill="none" width="2.999" height="1" x="147.467" y="102.505" id="connector0pin"/>
 <rect xmlns="http://www.w3.org/2000/svg" fill="none" width="3" height="1" x="150.426" y="25.906" id="connector1pin"/>
 <g xmlns="http://www.w3.org/2000/svg" stroke-width="2.5034" stroke-linecap="round" fill="none" stroke="#000000" id="connector0leg" y1="102.505" y2="102.505" x1="153.1" x2="158.1"/>
 <g xmlns="http://www.w3.org/2000/svg" stroke-width="2.5034" stroke-linecap="round" fill="none" stroke="#FF0000" id="connector1leg" y1="25.906" y2="25.906" x1="153.1" x2="158.1"/>
 <path xmlns="http://www.w3.org/2000/svg" fill="#1A1A1A" d="M147.45,131.049c0,1.014,-1.094,1.718,-2.055,1.718L2.059,132.767c-1.362,0,-2.057,-0.576,-2.057,-1.718L0.002,1.715C0.002,0.81,0.85,0,2.059,0l143.336,0c1.113,0,2.055,0.682,2.055,1.715l0,63.228L147.45,131.049z"/>
 <path xmlns="http://www.w3.org/2000/svg" stroke-width="0.8345" fill="none" stroke="#C9C9C9" d="M2.145,47.336L2.145,7.3c0,-0.59,0.388,-1.08,0.863,-1.08s0.86,0.489,0.86,1.08l0.913,19.527c0,0.594,0.391,1.08,0.863,1.08s0.863,-0.486,0.863,-1.08L7.42,11.699c0,-0.593,0.389,-1.08,0.861,-1.08c0.475,0,0.861,0.487,0.861,1.08l0,11.887"/>
 <path xmlns="http://www.w3.org/2000/svg" stroke-width="0.8345" fill="none" stroke="#C9C9C9" d="M144.715,10.371l0,14.456c0,0.594,0.583,1.08,1.295,1.08l1.465,0"/>
 <rect xmlns="http://www.w3.org/2000/svg" fill="#C9C9C9" width="3.46" height="12.025" x="1.706" y="43.059"/>
 <rect xmlns="http://www.w3.org/2000/svg" fill="#C9C9C9" width="2.95" height="12.029" x="141.869" y="10.435"/>
 <g xmlns="http://www.w3.org/2000/svg">
  <path xmlns="http://www.w3.org/2000/svg" fill="#353535" d="M139.273,28.955c0,1.784,-1.747,3.24,-3.883,3.24L13.464,32.195c-2.136,0,-3.883,-1.456,-3.883,-3.24L9.581,5.195c0,-1.781,1.747,-3.239,3.883,-3.239L135.39,1.956c2.137,0,3.884,1.458,3.884,3.239L139.273,28.955L139.273,28.955z"/>
  <path xmlns="http://www.w3.org/2000/svg" fill="#CE925D" d="M101.94,2.005l33.709,0c2.136,0,3.883,1.457,3.883,3.24l0,23.766c0,1.782,-1.747,3.24,-3.883,3.24L101.94,32.251L101.94,2.005z"/>
  <path xmlns="http://www.w3.org/2000/svg" d="M13.758,30.957c-1.607,0,-3.658,-1.242,-3.658,-2.714l0,-6.801c0,1.474,2.051,3.784,3.658,3.784l121.041,0c1.608,0,3.659,-2.31,3.659,-3.784l0,6.802c0,1.474,-2.051,2.714,-3.659,2.714L13.758,30.957L13.758,30.957z" opacity="0.35" enable-background="new    "/>
  <path xmlns="http://www.w3.org/2000/svg" fill="#B2B2B2" d="M139.164,16.875c0,6.774,-0.31,12.263,-0.691,12.263s-0.382,-24.524,0,-24.524S139.164,10.103,139.164,16.875"/>
  <path xmlns="http://www.w3.org/2000/svg" fill="#7C7C7C" d="M138.906,21.055c-0.254,0,-0.254,-9.061,0,-9.061l-0.008,0c0,0.559,0.543,1.011,1.212,1.011l0.549,0c0.668,0,1.211,0.453,1.211,1.012l0,5.011c0,0.557,-0.543,1.012,-1.211,1.012l-0.549,0c-0.669,0,-1.212,0.452,-1.212,1.01L138.906,21.055L138.906,21.055z"/>
  <g xmlns="http://www.w3.org/2000/svg">
   <g xmlns="http://www.w3.org/2000/svg">
    <path xmlns="http://www.w3.org/2000/svg" fill="#E0E0E0" d="M35.434,14.8l-0.515,1.295l-1.632,0l2.727,-6.852l2.322,0l2.781,6.852l-1.599,0L38.982,14.8L35.434,14.8zM37.218,10.25l-0.022,0l-1.401,3.555l2.836,0L37.218,10.25z"/>
    <path xmlns="http://www.w3.org/2000/svg" fill="#E0E0E0" d="M27.472,14.8l-0.515,1.295l-1.632,0l2.727,-6.852l2.322,0l2.781,6.852l-1.599,0L31.021,14.8L27.472,14.8zM29.256,10.25l-0.022,0l-1.401,3.555l2.836,0L29.256,10.25z"/>
    <path xmlns="http://www.w3.org/2000/svg" fill="#E0E0E0" d="M43.203,14.8l-0.515,1.295l-1.629,0l2.724,-6.852l2.322,0l2.782,6.852l-1.599,0L46.752,14.8L43.203,14.8zM44.987,10.25l-0.021,0l-1.403,3.555l2.836,0L44.987,10.25z"/>
    <path xmlns="http://www.w3.org/2000/svg" fill="#E0E0E0" d="M53.417,16.098L53.417,9.246l4.088,0c1.61,0,2.417,0.272,2.417,1.783c0,0.783,-0.173,1.316,-1.169,1.515l0,0.038c1.15,0.11,1.369,0.741,1.369,1.606c0,1.517,-0.745,1.911,-2.476,1.911L53.417,16.098L53.417,16.098zM54.994,12.114l2.264,0c0.891,0,1.085,-0.229,1.085,-0.959c0,-0.731,-0.351,-0.786,-1.128,-0.786l-2.224,0L54.994,12.114L54.994,12.114zM54.994,14.974l2.158,0c0.938,0,1.389,-0.055,1.389,-0.896c0,-0.749,-0.197,-0.968,-1.125,-0.968l-2.42,0L54.994,14.974L54.994,14.974z"/>
    <path xmlns="http://www.w3.org/2000/svg" fill="#E0E0E0" d="M64.998,15.494l-0.033,0c-0.274,0.642,-1.117,0.658,-1.786,0.658c-1.303,0,-2.146,-0.229,-2.146,-1.526c0,-1.151,0.723,-1.471,2.146,-1.471c0.702,0,1.391,0.009,1.72,0.548l0.044,0l0,-0.622c0,-0.777,-0.077,-1.051,-1.227,-1.051c-0.603,0,-1.085,0.048,-1.085,0.667L61.25,12.697c0,-1.398,1.153,-1.451,2.464,-1.451c1.843,0,2.606,0.238,2.606,1.846l0,3.004l-1.382,0L64.998,15.494zM62.413,14.626c0,0.676,0.326,0.741,1.259,0.741c0.733,0,1.271,-0.053,1.271,-0.741c0,-0.667,-0.59,-0.685,-1.271,-0.685C62.971,13.941,62.413,13.941,62.413,14.626z"/>
    <path xmlns="http://www.w3.org/2000/svg" fill="#E0E0E0" d="M66.994,11.3l0.724,0l0,-1.088l1.38,0L69.098,11.3l2.201,0l0,0.877l-2.201,0l0,2.458c0.013,0.439,0.013,0.639,0.59,0.639c0.778,0,0.69,-0.511,0.69,-1.011l1.216,0c0.022,1.45,-0.417,1.889,-1.906,1.889c-1.511,0,-1.972,-0.292,-1.972,-1.508l0,-2.467l-0.724,0L66.994,11.3L66.994,11.3z"/>
    <path xmlns="http://www.w3.org/2000/svg" fill="#E0E0E0" d="M71.652,11.3l0.723,0l0,-1.088l1.38,0L73.755,11.3l2.202,0l0,0.877l-2.202,0l0,2.458c0.011,0.439,0.011,0.639,0.59,0.639c0.779,0,0.691,-0.511,0.691,-1.011l1.216,0c0.021,1.45,-0.417,1.889,-1.907,1.889c-1.509,0,-1.969,-0.292,-1.969,-1.508l0,-2.467l-0.724,0L71.652,11.3L71.652,11.3z"/>
    <path xmlns="http://www.w3.org/2000/svg" fill="#E0E0E0" d="M82.125,14.572c0,1.508,-1.042,1.581,-2.683,1.581c-2.202,0,-2.647,-0.585,-2.647,-2.439c0,-1.719,0.326,-2.465,2.647,-2.465c2.368,0,2.683,0.576,2.683,2.668l-3.954,0c0,1.032,0.033,1.362,1.27,1.362c0.767,0,1.306,0.009,1.306,-0.706L82.125,14.572L82.125,14.572zM80.745,13.183c0,-0.987,-0.175,-1.062,-1.306,-1.062c-1.194,0,-1.27,0.21,-1.27,1.062L80.745,13.183z"/>
    <path xmlns="http://www.w3.org/2000/svg" fill="#E0E0E0" d="M84.505,11.3l-0.03,0.631l0.055,0c0.274,-0.53,0.866,-0.684,1.533,-0.684c1.216,0,1.512,0.604,1.512,1.508l0,0.384l-1.292,0l0,-0.247c0,-0.484,-0.056,-0.768,-0.702,-0.768c-0.821,0,-1.062,0.396,-1.042,1.015l0,2.961l-1.381,0l0,-4.798L84.505,11.3L84.505,11.3z"/>
    <path xmlns="http://www.w3.org/2000/svg" fill="#E0E0E0" d="M91.702,16.29c-0.32,1.088,-0.584,1.935,-2.19,1.935c-0.197,0,-0.394,-0.025,-0.591,-0.037L88.921,17.32c0.099,0.009,0.201,0.028,0.295,0.028c0.865,0,0.997,-0.695,1.12,-1.254l-0.667,0l-1.895,-4.798l1.427,0l1.456,4.085l0.02,0l1.119,-4.085l1.402,0L91.702,16.29z"/>
   </g>
  </g>
  <path xmlns="http://www.w3.org/2000/svg" fill="#FFFFFF" d="M135.506,10.888c0,1.08,-1.406,1.956,-3.141,1.956L16.089,12.844c-1.732,0,-3.14,-0.8,-3.14,-1.88L12.949,5.069c0,-1.081,1.406,-2.033,3.14,-2.033l116.275,0c1.735,0,3.143,0.876,3.143,1.957L135.507,10.888L135.506,10.888z" opacity="0.35" enable-background="new    "/>
 </g>
 <g xmlns="http://www.w3.org/2000/svg">
  <path xmlns="http://www.w3.org/2000/svg" fill="#353535" d="M7.764,61.726c0,1.781,1.746,3.24,3.883,3.24l121.924,0c2.136,0,3.883,-1.459,3.883,-3.24L137.454,37.963c0,-1.781,-1.747,-3.24,-3.883,-3.24L11.647,34.723c-2.137,0,-3.883,1.458,-3.883,3.24L7.764,61.726z"/>
  <path xmlns="http://www.w3.org/2000/svg" fill="#CE925D" d="M45.356,34.726L11.647,34.726c-2.137,0,-3.883,1.458,-3.883,3.239l0,23.763c0,1.781,1.746,3.24,3.883,3.24l33.709,0L45.356,34.726L45.356,34.726z"/>
  <path xmlns="http://www.w3.org/2000/svg" d="M133.278,63.729c1.607,0,3.657,-1.244,3.657,-2.715l0,-6.801c0,1.473,-2.05,3.782,-3.657,3.782L12.235,57.995c-1.607,0,-3.658,-2.309,-3.658,-3.782l0,6.801c0,1.474,2.051,2.715,3.658,2.715L133.278,63.729z" opacity="0.35" enable-background="new    "/>
  <path xmlns="http://www.w3.org/2000/svg" fill="#B2B2B2" d="M7.873,49.645c0,6.774,0.311,12.263,0.693,12.263c0.383,0,0.383,-24.524,0,-24.524C8.183,37.384,7.873,42.874,7.873,49.645"/>
  <path xmlns="http://www.w3.org/2000/svg" fill="#7C7C7C" d="M8.131,53.827c0.253,0,0.253,-9.062,0,-9.062l0.007,0.001c0,0.558,-0.542,1.011,-1.209,1.011L6.377,45.777c-0.666,0,-1.212,0.455,-1.212,1.012L5.165,51.8c0,0.557,0.546,1.012,1.212,1.012l0.551,0c0.667,0,1.209,0.452,1.209,1.012L8.131,53.827L8.131,53.827z"/>
  <g xmlns="http://www.w3.org/2000/svg">
   <g xmlns="http://www.w3.org/2000/svg">
    <path xmlns="http://www.w3.org/2000/svg" fill="#E0E0E0" d="M112.387,50.167l0.516,-1.297l1.632,0l-2.728,6.853l-2.322,0l-2.781,-6.853l1.6,0l0.537,1.297L112.387,50.167zM110.603,54.717l0.021,0l1.402,-3.555l-2.837,0L110.603,54.717z"/>
    <path xmlns="http://www.w3.org/2000/svg" fill="#E0E0E0" d="M120.387,50.167l0.516,-1.297l1.632,0l-2.728,6.853l-2.322,0l-2.781,-6.853l1.6,0l0.537,1.297L120.387,50.167zM118.603,54.717l0.021,0l1.402,-3.555l-2.837,0L118.603,54.717z"/>
    <path xmlns="http://www.w3.org/2000/svg" fill="#E0E0E0" d="M104.618,50.167l0.515,-1.297l1.633,0l-2.728,6.853l-2.322,0l-2.781,-6.853l1.599,0l0.537,1.297L104.618,50.167zM102.833,54.717l0.022,0l1.401,-3.555l-2.838,0L102.833,54.717z"/>
    <path xmlns="http://www.w3.org/2000/svg" fill="#E0E0E0" d="M94.406,48.867l0,6.853l-4.09,0c-1.609,0,-2.417,-0.271,-2.417,-1.782c0,-0.784,0.173,-1.316,1.169,-1.514l0,-0.039c-1.15,-0.11,-1.368,-0.741,-1.368,-1.606c0,-1.518,0.742,-1.91,2.477,-1.91L94.406,48.867L94.406,48.867zM92.828,49.992l-2.157,0c-0.939,0,-1.39,0.055,-1.39,0.895c0,0.749,0.198,0.969,1.127,0.969l2.418,0L92.828,49.992L92.828,49.992zM92.828,52.852l-2.266,0c-0.89,0,-1.084,0.228,-1.084,0.96c0,0.731,0.35,0.787,1.127,0.787l2.224,0L92.828,52.852L92.828,52.852z"/>
    <path xmlns="http://www.w3.org/2000/svg" fill="#E0E0E0" d="M82.824,49.471l0.033,0c0.273,-0.643,1.116,-0.658,1.785,-0.658c1.304,0,2.148,0.228,2.148,1.525c0,1.152,-0.723,1.472,-2.148,1.472c-0.701,0,-1.39,-0.009,-1.718,-0.549l-0.044,0l0,0.622c0,0.777,0.077,1.05,1.226,1.05c0.603,0,1.085,-0.046,1.085,-0.666l1.384,0c0,1.397,-1.151,1.45,-2.466,1.45c-1.838,0,-2.605,-0.238,-2.605,-1.847l0,-3.005l1.38,0L82.824,49.471zM85.408,50.339c0,-0.676,-0.326,-0.74,-1.259,-0.74c-0.735,0,-1.271,0.052,-1.271,0.74c0,0.667,0.589,0.686,1.271,0.686C84.851,51.025,85.408,51.025,85.408,50.339z"/>
    <path xmlns="http://www.w3.org/2000/svg" fill="#E0E0E0" d="M80.828,53.666l-0.723,0l0,1.087l-1.381,0l0,-1.087l-2.201,0L76.523,52.79l2.201,0L78.724,50.33c-0.013,-0.439,-0.013,-0.642,-0.59,-0.642c-0.778,0,-0.69,0.513,-0.69,1.016l-1.215,0c-0.022,-1.452,0.417,-1.89,1.906,-1.89c1.511,0,1.972,0.292,1.972,1.507l0,2.467l0.723,0L80.828,53.666L80.828,53.666z"/>
    <path xmlns="http://www.w3.org/2000/svg" fill="#E0E0E0" d="M76.17,53.666l-0.723,0l0,1.087l-1.38,0l0,-1.087l-2.202,0L71.865,52.79l2.202,0L74.067,50.33c-0.011,-0.439,-0.011,-0.642,-0.589,-0.642c-0.78,0,-0.691,0.513,-0.691,1.016l-1.217,0c-0.02,-1.452,0.418,-1.89,1.908,-1.89c1.508,0,1.969,0.292,1.969,1.507l0,2.467l0.723,0L76.17,53.666L76.17,53.666z"/>
    <path xmlns="http://www.w3.org/2000/svg" fill="#E0E0E0" d="M65.697,50.394c0,-1.508,1.042,-1.581,2.683,-1.581c2.202,0,2.647,0.585,2.647,2.44c0,1.72,-0.326,2.466,-2.647,2.466c-2.368,0,-2.683,-0.576,-2.683,-2.669l3.954,0c0,-1.032,-0.033,-1.362,-1.27,-1.362c-0.768,0,-1.306,-0.009,-1.306,0.706L65.697,50.394L65.697,50.394zM67.077,51.783c0,0.987,0.175,1.063,1.306,1.063c1.195,0,1.271,-0.209,1.271,-1.063L67.077,51.783z"/>
    <path xmlns="http://www.w3.org/2000/svg" fill="#E0E0E0" d="M63.317,53.666l0.03,-0.631l-0.055,0c-0.274,0.531,-0.866,0.684,-1.534,0.684c-1.215,0,-1.511,-0.604,-1.511,-1.508l0,-0.384l1.292,0l0,0.247c0,0.484,0.055,0.768,0.701,0.768c0.821,0,1.062,-0.396,1.043,-1.014l0,-2.961l1.38,0l0,4.797L63.317,53.666L63.317,53.666z"/>
    <path xmlns="http://www.w3.org/2000/svg" fill="#E0E0E0" d="M56.12,48.674c0.32,-1.088,0.583,-1.936,2.189,-1.936c0.197,0,0.395,0.025,0.592,0.036l0,0.869c-0.099,-0.009,-0.2,-0.027,-0.296,-0.027c-0.866,0,-0.997,0.695,-1.121,1.254l0.668,0l1.895,4.798l-1.427,0l-1.457,-4.085l-0.021,0l-1.118,4.085l-1.402,0L56.12,48.674z"/>
   </g>
  </g>
  <path xmlns="http://www.w3.org/2000/svg" fill="#FFFFFF" d="M11.53,43.658c0,1.082,1.406,1.955,3.139,1.955l116.276,0c1.732,0,3.141,-0.799,3.141,-1.879l0,-5.895c0,-1.081,-1.408,-2.033,-3.141,-2.033L14.671,35.806c-1.732,0,-3.14,0.876,-3.14,1.957L11.53,43.658L11.53,43.658z" opacity="0.35" enable-background="new    "/>
 </g>
 <path xmlns="http://www.w3.org/2000/svg" stroke-width="0.8345" fill="none" stroke="#C9C9C9" d="M2.145,113.432L2.145,73.396c0,-0.591,0.388,-1.079,0.863,-1.079s0.86,0.488,0.86,1.079l0.913,19.527c0,0.595,0.391,1.08,0.863,1.08s0.863,-0.485,0.863,-1.08L7.42,77.795c0,-0.594,0.389,-1.08,0.861,-1.08c0.475,0,0.861,0.486,0.861,1.08l0,11.887"/>
 <path xmlns="http://www.w3.org/2000/svg" stroke-width="0.8345" fill="none" stroke="#C9C9C9" d="M137.822,57.679L137.822,45.792c0,-0.594,0.386,-1.08,0.861,-1.08c0.471,0,0.86,0.486,0.86,1.08l0.913,15.128c0,0.595,0.391,1.08,0.863,1.08c0.472,0,0.863,-0.485,0.863,-1.08l0.912,-19.527c0,-0.591,0.387,-1.079,0.861,-1.079s0.862,0.488,0.862,1.079L144.817,81.43"/>
 <path xmlns="http://www.w3.org/2000/svg" stroke-width="0.8345" fill="none" stroke="#C9C9C9" d="M137.709,111.262l0,11.887c0,0.594,0.39,1.081,0.861,1.081c0.476,0,0.862,-0.487,0.862,-1.081l0.914,-15.128c0,-0.594,0.387,-1.08,0.861,-1.08s0.86,0.486,0.86,1.08l0.913,19.528c0,0.592,0.391,1.078,0.862,1.078c0.473,0,0.863,-0.486,0.863,-1.078l0,-23.965c0,-0.59,0.584,-1.079,1.295,-1.079l1.465,0"/>
 <rect xmlns="http://www.w3.org/2000/svg" fill="#C9C9C9" width="3.46" height="12.025" x="1.706" y="109.155"/>
 <rect xmlns="http://www.w3.org/2000/svg" fill="#C9C9C9" width="2.95" height="12.028" x="141.869" y="76.531"/>
 <g xmlns="http://www.w3.org/2000/svg">
  <path xmlns="http://www.w3.org/2000/svg" fill="#353535" d="M139.273,95.051c0,1.783,-1.747,3.24,-3.883,3.24L13.464,98.291c-2.136,0,-3.883,-1.457,-3.883,-3.24L9.581,71.291c0,-1.781,1.747,-3.239,3.883,-3.239L135.39,68.052c2.137,0,3.884,1.458,3.884,3.239L139.273,95.051L139.273,95.051z"/>
  <path xmlns="http://www.w3.org/2000/svg" fill="#CE925D" d="M101.94,68.101l33.709,0c2.136,0,3.883,1.456,3.883,3.239l0,23.766c0,1.782,-1.747,3.24,-3.883,3.24L101.94,98.346L101.94,68.101z"/>
  <path xmlns="http://www.w3.org/2000/svg" d="M13.758,97.052c-1.607,0,-3.658,-1.241,-3.658,-2.714l0,-6.801c0,1.474,2.051,3.783,3.658,3.783l121.041,0c1.608,0,3.659,-2.31,3.659,-3.783l0,6.802c0,1.474,-2.051,2.714,-3.659,2.714L13.758,97.052L13.758,97.052z" opacity="0.35" enable-background="new    "/>
  <path xmlns="http://www.w3.org/2000/svg" fill="#B2B2B2" d="M139.164,82.97c0,6.774,-0.31,12.263,-0.691,12.263s-0.382,-24.523,0,-24.523S139.164,76.199,139.164,82.97"/>
  <path xmlns="http://www.w3.org/2000/svg" fill="#7C7C7C" d="M138.906,87.151c-0.254,0,-0.254,-9.062,0,-9.062l-0.008,0.001c0,0.559,0.543,1.011,1.212,1.011l0.549,0c0.668,0,1.211,0.452,1.211,1.012l0,5.011c0,0.557,-0.543,1.013,-1.211,1.013l-0.549,0c-0.669,0,-1.212,0.452,-1.212,1.011L138.906,87.151L138.906,87.151z"/>
  <g xmlns="http://www.w3.org/2000/svg">
   <g xmlns="http://www.w3.org/2000/svg">
    <path xmlns="http://www.w3.org/2000/svg" fill="#E0E0E0" d="M35.434,80.895l-0.515,1.296l-1.632,0l2.727,-6.852l2.322,0l2.781,6.852l-1.599,0l-0.536,-1.296L35.434,80.895zM37.218,76.345l-0.022,0l-1.401,3.556l2.836,0L37.218,76.345z"/>
    <path xmlns="http://www.w3.org/2000/svg" fill="#E0E0E0" d="M27.472,80.895l-0.515,1.296l-1.632,0l2.727,-6.852l2.322,0l2.781,6.852l-1.599,0l-0.536,-1.296L27.472,80.895zM29.256,76.345l-0.022,0l-1.401,3.556l2.836,0L29.256,76.345z"/>
    <path xmlns="http://www.w3.org/2000/svg" fill="#E0E0E0" d="M43.203,80.895l-0.515,1.296l-1.629,0l2.724,-6.852l2.322,0l2.782,6.852l-1.599,0l-0.536,-1.296L43.203,80.895zM44.987,76.345l-0.021,0l-1.403,3.556l2.836,0L44.987,76.345z"/>
    <path xmlns="http://www.w3.org/2000/svg" fill="#E0E0E0" d="M53.417,82.194l0,-6.853l4.088,0c1.61,0,2.417,0.272,2.417,1.782c0,0.783,-0.173,1.316,-1.169,1.516l0,0.038c1.15,0.11,1.369,0.741,1.369,1.606c0,1.518,-0.745,1.91,-2.476,1.91L53.417,82.193L53.417,82.194zM54.994,78.209l2.264,0c0.891,0,1.085,-0.229,1.085,-0.959s-0.351,-0.786,-1.128,-0.786l-2.224,0L54.994,78.209L54.994,78.209zM54.994,81.069l2.158,0c0.938,0,1.389,-0.055,1.389,-0.895c0,-0.749,-0.197,-0.969,-1.125,-0.969l-2.42,0L54.994,81.069L54.994,81.069z"/>
    <path xmlns="http://www.w3.org/2000/svg" fill="#E0E0E0" d="M64.998,81.59l-0.033,0c-0.274,0.641,-1.117,0.657,-1.786,0.657c-1.303,0,-2.146,-0.229,-2.146,-1.526c0,-1.151,0.723,-1.471,2.146,-1.471c0.702,0,1.391,0.009,1.72,0.548l0.044,0l0,-0.622c0,-0.776,-0.077,-1.051,-1.227,-1.051c-0.603,0,-1.085,0.048,-1.085,0.667L61.25,78.792c0,-1.397,1.153,-1.45,2.464,-1.45c1.843,0,2.606,0.237,2.606,1.846l0,3.004l-1.382,0L64.998,81.59zM62.413,80.722c0,0.677,0.326,0.741,1.259,0.741c0.733,0,1.271,-0.053,1.271,-0.741c0,-0.667,-0.59,-0.685,-1.271,-0.685C62.971,80.037,62.413,80.037,62.413,80.722z"/>
    <path xmlns="http://www.w3.org/2000/svg" fill="#E0E0E0" d="M66.994,77.396l0.724,0l0,-1.088l1.38,0l0,1.088l2.201,0l0,0.877l-2.201,0l0,2.458c0.013,0.439,0.013,0.639,0.59,0.639c0.778,0,0.69,-0.51,0.69,-1.011l1.216,0c0.022,1.45,-0.417,1.889,-1.906,1.889c-1.511,0,-1.972,-0.292,-1.972,-1.509l0,-2.467l-0.724,0L66.994,77.396L66.994,77.396z"/>
    <path xmlns="http://www.w3.org/2000/svg" fill="#E0E0E0" d="M71.652,77.396l0.723,0l0,-1.088l1.38,0l0,1.088l2.202,0l0,0.877l-2.202,0l0,2.458c0.011,0.439,0.011,0.639,0.59,0.639c0.779,0,0.691,-0.51,0.691,-1.011l1.216,0c0.021,1.45,-0.417,1.889,-1.907,1.889c-1.509,0,-1.969,-0.292,-1.969,-1.509l0,-2.467l-0.724,0L71.652,77.396L71.652,77.396z"/>
    <path xmlns="http://www.w3.org/2000/svg" fill="#E0E0E0" d="M82.125,80.668c0,1.508,-1.042,1.58,-2.683,1.58c-2.202,0,-2.647,-0.584,-2.647,-2.439c0,-1.719,0.326,-2.465,2.647,-2.465c2.368,0,2.683,0.576,2.683,2.668l-3.954,0c0,1.032,0.033,1.361,1.27,1.361c0.767,0,1.306,0.01,1.306,-0.705L82.125,80.668L82.125,80.668zM80.745,79.279c0,-0.987,-0.175,-1.062,-1.306,-1.062c-1.194,0,-1.27,0.21,-1.27,1.062L80.745,79.279z"/>
    <path xmlns="http://www.w3.org/2000/svg" fill="#E0E0E0" d="M84.505,77.396l-0.03,0.631l0.055,0c0.274,-0.53,0.866,-0.684,1.533,-0.684c1.216,0,1.512,0.604,1.512,1.508l0,0.384l-1.292,0l0,-0.246c0,-0.484,-0.056,-0.769,-0.702,-0.769c-0.821,0,-1.062,0.396,-1.042,1.015l0,2.961l-1.381,0l0,-4.797L84.505,77.396L84.505,77.396z"/>
    <path xmlns="http://www.w3.org/2000/svg" fill="#E0E0E0" d="M91.702,82.385c-0.32,1.088,-0.584,1.936,-2.19,1.936c-0.197,0,-0.394,-0.025,-0.591,-0.037l0,-0.868c0.099,0.009,0.201,0.028,0.295,0.028c0.865,0,0.997,-0.695,1.12,-1.255l-0.667,0l-1.895,-4.798l1.427,0l1.456,4.085l0.02,0l1.119,-4.085l1.402,0L91.702,82.385z"/>
   </g>
  </g>
  <path xmlns="http://www.w3.org/2000/svg" fill="#FFFFFF" d="M135.506,76.983c0,1.08,-1.406,1.956,-3.141,1.956L16.089,78.939c-1.732,0,-3.14,-0.8,-3.14,-1.88l0,-5.895c0,-1.08,1.406,-2.033,3.14,-2.033l116.275,0c1.735,0,3.143,0.877,3.143,1.957L135.507,76.983L135.506,76.983z" opacity="0.35" enable-background="new    "/>
 </g>
 <g xmlns="http://www.w3.org/2000/svg">
  <path xmlns="http://www.w3.org/2000/svg" fill="#353535" d="M7.764,127.822c0,1.78,1.746,3.24,3.883,3.24l121.924,0c2.136,0,3.883,-1.46,3.883,-3.24l0,-23.763c0,-1.781,-1.747,-3.24,-3.883,-3.24L11.647,100.819c-2.137,0,-3.883,1.459,-3.883,3.24L7.764,127.822z"/>
  <path xmlns="http://www.w3.org/2000/svg" fill="#CE925D" d="M45.356,100.822L11.647,100.822c-2.137,0,-3.883,1.458,-3.883,3.239l0,23.764c0,1.781,1.746,3.239,3.883,3.239l33.709,0L45.356,100.822L45.356,100.822z"/>
  <path xmlns="http://www.w3.org/2000/svg" d="M133.278,129.825c1.607,0,3.657,-1.244,3.657,-2.715l0,-6.802c0,1.474,-2.05,3.782,-3.657,3.782L12.235,124.09c-1.607,0,-3.658,-2.309,-3.658,-3.782l0,6.802c0,1.474,2.051,2.715,3.658,2.715L133.278,129.825z" opacity="0.35" enable-background="new    "/>
  <path xmlns="http://www.w3.org/2000/svg" fill="#B2B2B2" d="M7.873,115.741c0,6.773,0.311,12.264,0.693,12.264c0.383,0,0.383,-24.525,0,-24.525C8.183,103.479,7.873,108.969,7.873,115.741"/>
  <path xmlns="http://www.w3.org/2000/svg" fill="#7C7C7C" d="M8.131,119.922c0.253,0,0.253,-9.062,0,-9.062l0.007,0.001c0,0.559,-0.542,1.011,-1.209,1.011L6.377,111.872c-0.666,0,-1.212,0.455,-1.212,1.012l0,5.012c0,0.557,0.546,1.012,1.212,1.012l0.551,0c0.667,0,1.209,0.452,1.209,1.013L8.131,119.922L8.131,119.922z"/>
  <g xmlns="http://www.w3.org/2000/svg">
   <g xmlns="http://www.w3.org/2000/svg">
    <path xmlns="http://www.w3.org/2000/svg" fill="#E0E0E0" d="M112.387,116.262l0.516,-1.297l1.632,0l-2.728,6.853l-2.322,0l-2.781,-6.853l1.6,0l0.537,1.297L112.387,116.262zM110.603,120.813l0.021,0l1.402,-3.555l-2.837,0L110.603,120.813z"/>
    <path xmlns="http://www.w3.org/2000/svg" fill="#E0E0E0" d="M120.387,116.262l0.516,-1.297l1.632,0l-2.728,6.853l-2.322,0l-2.781,-6.853l1.6,0l0.537,1.297L120.387,116.262zM118.603,120.813l0.021,0l1.402,-3.555l-2.837,0L118.603,120.813z"/>
    <path xmlns="http://www.w3.org/2000/svg" fill="#E0E0E0" d="M104.618,116.262l0.515,-1.297l1.633,0l-2.728,6.853l-2.322,0l-2.781,-6.853l1.599,0l0.537,1.297L104.618,116.262zM102.833,120.813l0.022,0l1.401,-3.555l-2.838,0L102.833,120.813z"/>
    <path xmlns="http://www.w3.org/2000/svg" fill="#E0E0E0" d="M94.406,114.963l0,6.852l-4.09,0c-1.609,0,-2.417,-0.271,-2.417,-1.781c0,-0.784,0.173,-1.316,1.169,-1.515l0,-0.039c-1.15,-0.11,-1.368,-0.741,-1.368,-1.606c0,-1.518,0.742,-1.91,2.477,-1.91L94.406,114.964L94.406,114.963zM92.828,116.088l-2.157,0c-0.939,0,-1.39,0.055,-1.39,0.895c0,0.749,0.198,0.969,1.127,0.969l2.418,0L92.828,116.088L92.828,116.088zM92.828,118.948l-2.266,0c-0.89,0,-1.084,0.229,-1.084,0.96s0.35,0.786,1.127,0.786l2.224,0L92.828,118.948L92.828,118.948z"/>
    <path xmlns="http://www.w3.org/2000/svg" fill="#E0E0E0" d="M82.824,115.567l0.033,0c0.273,-0.643,1.116,-0.658,1.785,-0.658c1.304,0,2.148,0.228,2.148,1.525c0,1.151,-0.723,1.472,-2.148,1.472c-0.701,0,-1.39,-0.009,-1.718,-0.55l-0.044,0l0,0.623c0,0.776,0.077,1.05,1.226,1.05c0.603,0,1.085,-0.046,1.085,-0.666l1.384,0c0,1.397,-1.151,1.45,-2.466,1.45c-1.838,0,-2.605,-0.238,-2.605,-1.847l0,-3.005l1.38,0L82.824,115.567zM85.408,116.434c0,-0.676,-0.326,-0.739,-1.259,-0.739c-0.735,0,-1.271,0.052,-1.271,0.739c0,0.668,0.589,0.686,1.271,0.686C84.851,117.122,85.408,117.122,85.408,116.434z"/>
    <path xmlns="http://www.w3.org/2000/svg" fill="#E0E0E0" d="M80.828,119.762l-0.723,0l0,1.087l-1.381,0l0,-1.087l-2.201,0l0,-0.877l2.201,0l0,-2.459c-0.013,-0.439,-0.013,-0.643,-0.59,-0.643c-0.778,0,-0.69,0.514,-0.69,1.016l-1.215,0c-0.022,-1.451,0.417,-1.89,1.906,-1.89c1.511,0,1.972,0.292,1.972,1.507l0,2.467l0.723,0L80.828,119.762L80.828,119.762z"/>
    <path xmlns="http://www.w3.org/2000/svg" fill="#E0E0E0" d="M76.17,119.762l-0.723,0l0,1.087l-1.38,0l0,-1.087l-2.202,0l0,-0.877l2.202,0l0,-2.459c-0.011,-0.439,-0.011,-0.643,-0.589,-0.643c-0.78,0,-0.691,0.514,-0.691,1.016l-1.217,0c-0.02,-1.451,0.418,-1.89,1.908,-1.89c1.508,0,1.969,0.292,1.969,1.507l0,2.467l0.723,0L76.17,119.762L76.17,119.762z"/>
    <path xmlns="http://www.w3.org/2000/svg" fill="#E0E0E0" d="M65.697,116.489c0,-1.508,1.042,-1.58,2.683,-1.58c2.202,0,2.647,0.585,2.647,2.439c0,1.721,-0.326,2.467,-2.647,2.467c-2.368,0,-2.683,-0.576,-2.683,-2.67l3.954,0c0,-1.031,-0.033,-1.361,-1.27,-1.361c-0.768,0,-1.306,-0.01,-1.306,0.705L65.697,116.489L65.697,116.489zM67.077,117.879c0,0.986,0.175,1.062,1.306,1.062c1.195,0,1.271,-0.209,1.271,-1.062L67.077,117.879z"/>
    <path xmlns="http://www.w3.org/2000/svg" fill="#E0E0E0" d="M63.317,119.762l0.03,-0.631l-0.055,0c-0.274,0.531,-0.866,0.684,-1.534,0.684c-1.215,0,-1.511,-0.604,-1.511,-1.508l0,-0.385l1.292,0l0,0.246c0,0.484,0.055,0.768,0.701,0.768c0.821,0,1.062,-0.396,1.043,-1.014l0,-2.961l1.38,0l0,4.797L63.317,119.762L63.317,119.762z"/>
    <path xmlns="http://www.w3.org/2000/svg" fill="#E0E0E0" d="M56.12,114.77c0.32,-1.088,0.583,-1.936,2.189,-1.936c0.197,0,0.395,0.025,0.592,0.036l0,0.868c-0.099,-0.009,-0.2,-0.027,-0.296,-0.027c-0.866,0,-0.997,0.695,-1.121,1.254l0.668,0l1.895,4.799l-1.427,0l-1.457,-4.086l-0.021,0l-1.118,4.086l-1.402,0L56.12,114.77z"/>
   </g>
  </g>
  <path xmlns="http://www.w3.org/2000/svg" fill="#FFFFFF" d="M11.53,109.753c0,1.082,1.406,1.955,3.139,1.955l116.276,0c1.732,0,3.141,-0.799,3.141,-1.88l0,-5.895c0,-1.08,-1.408,-2.033,-3.141,-2.033L14.671,101.9c-1.732,0,-3.14,0.877,-3.14,1.957L11.53,109.753L11.53,109.753z" opacity="0.35" enable-background="new    "/>
 </g>
 <g xmlns="http://www.w3.org/2000/svg">
  <path xmlns="http://www.w3.org/2000/svg" fill="#1A1A1A" d="M7.357,0.109l1.79,1.16c0,0,1.276,1.206,2.389,2.492c0.663,0.767,1.218,3.466,2.036,4.151c0.821,0.683,1.993,0.831,2.987,0.831c0.277,0,23.058,0,23.335,0c0.995,0,2.164,-0.145,2.986,-0.831c0.82,-0.685,1.378,-3.384,2.039,-4.151c1.111,-1.286,2.389,-2.492,2.389,-2.492l1.79,-1.16L7.357,0.109z"/>
  <path xmlns="http://www.w3.org/2000/svg" fill="#FFFFFF" d="M9.941,0.984l0.466,0.145c0,0,0,0.539,1.037,1.111c0.623,0.342,1.138,0.492,1.904,0.798c0.768,0.305,1.858,0.37,2.791,0.37c0.258,0,23.918,0,24.181,0c0.932,0,2.021,-0.065,2.787,-0.37c0.768,-0.306,1.286,-0.456,1.904,-0.798c1.041,-0.573,1.04,-1.111,1.04,-1.111l0.458,-0.144L9.941,0.984z" opacity="0.2" enable-background="new    "/>
 </g>
 <g xmlns="http://www.w3.org/2000/svg">
  <path xmlns="http://www.w3.org/2000/svg" fill="#1A1A1A" d="M98.374,0.109l1.79,1.16c0,0,1.276,1.206,2.389,2.492c0.663,0.767,1.219,3.466,2.036,4.151c0.82,0.683,1.993,0.831,2.987,0.831c0.278,0,23.058,0,23.334,0c0.996,0,2.165,-0.145,2.988,-0.831c0.818,-0.685,1.376,-3.384,2.036,-4.151c1.112,-1.286,2.39,-2.492,2.39,-2.492l1.79,-1.16L98.374,0.109z"/>
  <path xmlns="http://www.w3.org/2000/svg" fill="#FFFFFF" d="M100.958,0.984l0.468,0.145c0,0,0,0.539,1.036,1.111c0.623,0.342,1.138,0.492,1.904,0.798c0.771,0.305,1.858,0.37,2.791,0.37c0.258,0,23.919,0,24.182,0c0.932,0,2.021,-0.065,2.788,-0.37c0.768,-0.306,1.284,-0.456,1.905,-0.798c1.039,-0.573,1.038,-1.111,1.038,-1.111l0.458,-0.144L100.958,0.984z" opacity="0.2" enable-background="new    "/>
 </g>
 <g xmlns="http://www.w3.org/2000/svg">
  <path xmlns="http://www.w3.org/2000/svg" fill="#1A1A1A" d="M7.357,132.767l1.79,-1.161c0,0,1.276,-1.205,2.389,-2.492c0.663,-0.766,1.218,-3.466,2.036,-4.15c0.821,-0.685,1.993,-0.83,2.987,-0.83c0.277,0,23.058,0,23.335,0c0.995,0,2.164,0.143,2.986,0.83c0.82,0.685,1.378,3.385,2.039,4.15c1.111,1.287,2.389,2.492,2.389,2.492l1.79,1.161L7.357,132.767z"/>
  <path xmlns="http://www.w3.org/2000/svg" d="M9.941,131.893l0.466,-0.145c0,0,0,-0.539,1.037,-1.111c0.623,-0.344,1.138,-0.492,1.904,-0.798c0.768,-0.306,1.858,-0.37,2.791,-0.37c0.258,0,23.918,0,24.181,0c0.932,0,2.021,0.064,2.787,0.37c0.768,0.304,1.286,0.454,1.904,0.798c1.041,0.572,1.04,1.111,1.04,1.111l0.458,0.141L9.941,131.893z"/>
 </g>
 <g xmlns="http://www.w3.org/2000/svg">
  <path xmlns="http://www.w3.org/2000/svg" fill="#1A1A1A" d="M98.374,132.767l1.79,-1.161c0,0,1.276,-1.205,2.389,-2.492c0.663,-0.766,1.219,-3.466,2.036,-4.15c0.82,-0.685,1.993,-0.83,2.987,-0.83c0.278,0,23.058,0,23.334,0c0.996,0,2.165,0.143,2.988,0.83c0.819,0.686,1.376,3.385,2.036,4.15c1.112,1.287,2.39,2.492,2.39,2.492l1.79,1.161L98.374,132.767z"/>
  <path xmlns="http://www.w3.org/2000/svg" d="M100.958,131.893l0.468,-0.145c0,0,0,-0.539,1.036,-1.111c0.623,-0.344,1.138,-0.492,1.904,-0.798c0.771,-0.306,1.858,-0.37,2.791,-0.37c0.258,0,23.919,0,24.182,0c0.932,0,2.021,0.064,2.788,0.37c0.768,0.304,1.284,0.454,1.905,0.798c1.039,0.572,1.038,1.111,1.038,1.111l0.458,0.141L100.958,131.893z"/>
 </g>
 <path xmlns="http://www.w3.org/2000/svg" stroke-width="2.5034" fill="none" stroke="#000000" d="M147.467,102.505l5.633,0"/>
 <path xmlns="http://www.w3.org/2000/svg" stroke-width="2.5034" fill="none" stroke="#FF0000" d="M147.467,25.906l5.633,0"/>
</g>
</g></svg>