<?xml version="1.0" encoding="utf-8"?>
<!-- Generator: Adobe Illustrator 23.0.3, SVG Export Plug-In . SVG Version: 6.00 Build 0)  -->
<svg version="1.1" id="Layer_1" xmlns:svg="http://www.w3.org/2000/svg"
	 xmlns="http://www.w3.org/2000/svg" xmlns:xlink="http://www.w3.org/1999/xlink" x="0px" y="0px" viewBox="0 0 67.7 63.7"
	 style="enable-background:new 0 0 67.7 63.7;" xml:space="preserve">
<style type="text/css">
	.st0{fill:#4D4D4D;}
	.st1{fill:#9A916C;}
	.st2{fill:#666666;}
	.st3{fill:#CCCCCC;}
	.st4{fill:#1A1A1A;}
	.st5{fill:#B3B3B3;}
	.st6{fill:#FFFFFF;}
	.st7{fill:#F2F2F2;}
	.st8{fill:#333333;}
	.st9{opacity:0.41;enable-background:new    ;}
	.st10{fill:#E6E6E6;}
	.st11{fill:#999999;}
</style>
<g>
	<g id="breadboard">
		<g>
			<g>
				<path class="st0" d="M0,30.5c0,16.9,13.7,30.7,30.7,30.7c12.9,0,24-8,28.5-19.3v2.5c-4.5,11.3-15.6,19.3-28.5,19.3
					C13.7,63.7,0,50,0,33V30.5z"/>
			</g>
		</g>
		<g id="connector1pin">
			<path class="st1" d="M5.3,33.1c-1.3,0-2.3-1-2.3-2.3s1-2.3,2.3-2.3s2.3,1,2.3,2.3C7.6,32.1,6.6,33.1,5.3,33.1z M5.3,28.7
				c-1.1,0-2.1,0.9-2.1,2.1s0.9,2.1,2.1,2.1s2.1-0.9,2.1-2.1S6.5,28.7,5.3,28.7z"/>
		</g>
		<g id="connector0pin">
			<path class="st1" d="M62,33.1c-1.3,0-2.3-1-2.3-2.3s1-2.3,2.3-2.3s2.3,1,2.3,2.3C64.3,32.1,63.3,33.1,62,33.1z M62,28.7
				c-1.1,0-2.1,0.9-2.1,2.1s0.9,2.1,2.1,2.1s2.1-0.9,2.1-2.1S63.1,28.7,62,28.7z"/>
		</g>
		<g>
			<path class="st2" d="M59.2,19.5C54.8,8.1,43.7,0,30.7,0C13.7,0,0,13.7,0,30.7s13.7,30.7,30.7,30.7c12.9,0,24-8,28.5-19.3v0.1h8.5
				V19.5H59.2z"/>
		</g>
		<g>
			<path class="st3" d="M0,30.7C0,13.7,13.7,0,30.7,0C11.9,1,0.4,15.3,0,30.7z"/>
		</g>
		<g transform="matrix(1, 0, 0, 1, 100, 171.639)">
			<g>
				<g>
					<circle class="st4" cx="-69.4" cy="-140.8" r="29.7"/>
				</g>
				<g>
					<path class="st0" d="M-41.1-139.8c0,15.7-12.7,28.3-28.3,28.3s-28.3-12.7-28.3-28.3"/>
				</g>
				<g>
					<circle class="st5" cx="-69.4" cy="-140.8" r="28.3"/>
				</g>
				<g>
					<path class="st6" d="M-69-131.7v5.4h5.2v0.9H-69v5.4h-0.9v-5.4h-5.2v-0.9h5.2v-5.4H-69z"/>
				</g>
			</g>
		</g>
		<g>
			<path class="st7" d="M20.4,4.3c0,0,3.5-1.1,4.7-1.4c1.8-0.8,25.4-4.7,33.4,20.2c0.3,0.9,0.2,2.1,0.2,2.1l0.8-0.2
				c0,0-0.7-2.6-0.7-2.8C55.9,14.2,47.5-0.8,24.9,2.1L20.4,4.3z"/>
		</g>
		<g>
			<g>
				<path class="st7" d="M20.4,57.3c0,0,3.5,1.1,4.7,1.4c1.8,0.8,25.2,4.7,33.2-20.3c0.3-0.9,0.4-2.1,0.4-2.1l0.8,0.2
					c0,0-0.4,1.9-0.7,2.8C55.8,47.4,47.5,62.5,25,59.5L20.4,57.3z"/>
			</g>
			<g>
				<path class="st3" d="M58.9,25.6c-0.1,0-0.1,0-0.1-0.1c0,0-0.7-3.8-1.7-6C52,8.6,43.9,4.6,38.1,3.2c-6.5-1.6-12-0.6-13-0.1
					c-1.2,0.2-4.6,1.4-4.7,1.4c-0.1,0-0.1,0-0.2-0.1c0-0.1,0-0.1,0.1-0.2c0.1,0,3.5-1.2,4.7-1.4c1-0.4,6.6-1.5,13.1,0.1
					c5.9,1.4,14,5.5,19.1,16.5c1,2.2,1.7,6,1.7,6C59,25.5,59,25.6,58.9,25.6C58.9,25.6,58.9,25.6,58.9,25.6z"/>
			</g>
			<g>
				<path class="st5" d="M30.6,60c-1.8,0-3.7-0.1-5.7-0.4c0,0,0,0,0,0l-4.6-2.2c-0.1,0-0.1-0.1-0.1-0.2s0.1-0.1,0.2-0.1l4.5,2.2
					C47,62.3,55.5,48,58.6,39.2c0.3-0.9,0.7-2.7,0.7-2.8c0-0.1,0.1-0.1,0.1-0.1c0.1,0,0.1,0.1,0.1,0.1c0,0.1-0.4,1.9-0.7,2.8
					c-1.4,4.1-4.3,9.9-9.5,14.3C44.2,57.9,38,60,30.6,60z"/>
			</g>
			<g>
				<rect x="58.3" y="24.9" class="st7" width="2.5" height="11.9"/>
			</g>
			<g>
				<rect x="59.2" y="19.5" class="st2" width="8.5" height="22.7"/>
			</g>
		</g>
		<g>
			<rect x="59.2" y="42.2" class="st8" width="8.5" height="2.2"/>
		</g>
		<g class="st9">
			<path class="st10" d="M56.8,31.3c-0.3,0-0.5-0.2-0.5-0.5c0-14.2-11.6-25.8-25.8-25.8C16.4,5.1,4.8,16.6,4.8,30.8
				c0,0.3-0.2,0.5-0.5,0.5s-0.5-0.2-0.5-0.5c0-14.8,12-26.8,26.8-26.8c14.8,0,26.8,12,26.8,26.8C57.3,31.1,57.1,31.3,56.8,31.3z"/>
		</g>
		<g class="st9">
			<path class="st11" d="M30.6,57.6c-14.8,0-26.8-12-26.8-26.8c0-0.3,0.2-0.5,0.5-0.5s0.5,0.2,0.5,0.5c0,14.2,11.6,25.8,25.8,25.8
				c14.2,0,25.8-11.6,25.8-25.8c0-0.3,0.2-0.5,0.5-0.5s0.5,0.2,0.5,0.5C57.3,45.6,45.3,57.6,30.6,57.6z"/>
		</g>
		<g>
			<rect x="66.8" y="19.5" class="st0" width="0.9" height="22.7"/>
		</g>
		<g>
			<rect x="66.8" y="42.2" class="st4" width="0.9" height="2.2"/>
		</g>
	</g>
</g>
</svg>
