<?xml version="1.0" encoding="utf-8"?>
<!-- Generator: Adobe Illustrator 24.0.0, SVG Export Plug-In . SVG Version: 6.00 Build 0)  -->
<svg version="1.1" id="Layer_1" xmlns:svg="http://www.w3.org/2000/svg"
	 xmlns="http://www.w3.org/2000/svg" xmlns:xlink="http://www.w3.org/1999/xlink" x="0px" y="0px" viewBox="0 0 100.9 129.8"
	 style="enable-background:new 0 0 100.9 129.8;" xml:space="preserve">
<style type="text/css">
	.st0{fill:#D9D9D9;}
	.st1{fill:#CCC9C9;}
	.st2{fill:#BFBFBF;}
	.st3{fill:#E6E6E6;}
	.st4{fill:#383838;}
</style>
<g>
	<g id="breadboardbreadboard">
		<g id="background">
			<rect class="st0" width="100.9" height="129.8"/>
		</g>
		<rect x="46.8" y="19.7" class="st1" width="7.3" height="90.5"/>
		<g transform="matrix(1, 0, 0, 1, -4.5, -9)">
			<g id="sockets">
				<g id="A1pin">
					<path class="st2" d="M94.6,13.9c1.3,0,2.4,1.1,2.4,2.4s-1.1,2.4-2.4,2.4"/>
					<path class="st3" d="M94.6,18.7c-1.3,0-2.4-1.1-2.4-2.4s1.1-2.4,2.4-2.4"/>
					<circle class="st4" cx="94.6" cy="16.3" r="1.2"/>
				</g>
				<g id="B1pin">
					<path class="st2" d="M87.4,13.9c1.3,0,2.4,1.1,2.4,2.4s-1.1,2.4-2.4,2.4"/>
					<path class="st3" d="M87.4,18.7c-1.3,0-2.4-1.1-2.4-2.4s1.1-2.4,2.4-2.4l0,0"/>
					<circle class="st4" cx="87.4" cy="16.3" r="1.2"/>
				</g>
				<g id="C1pin">
					<path class="st2" d="M80.2,13.9c1.3,0,2.4,1.1,2.4,2.4s-1.1,2.4-2.4,2.4"/>
					<path class="st3" d="M80.2,18.7c-1.3,0-2.4-1.1-2.4-2.4s1.1-2.4,2.4-2.4"/>
					<circle class="st4" cx="80.2" cy="16.3" r="1.2"/>
				</g>
				<g id="D1pin">
					<path class="st2" d="M73,13.9c1.3,0,2.4,1.1,2.4,2.4s-1.1,2.4-2.4,2.4"/>
					<path class="st3" d="M73,18.7c-1.3,0-2.4-1.1-2.4-2.4s1.1-2.4,2.4-2.4l0,0"/>
					<circle class="st4" cx="73" cy="16.3" r="1.2"/>
				</g>
				<g id="E1pin">
					<path class="st2" d="M65.8,13.9c1.3,0,2.4,1.1,2.4,2.4s-1.1,2.4-2.4,2.4"/>
					<path class="st3" d="M65.8,18.7c-1.3,0-2.4-1.1-2.4-2.4s1.1-2.4,2.4-2.4l0,0"/>
					<circle class="st4" cx="65.8" cy="16.3" r="1.2"/>
				</g>
				<g id="A2pin">
					<path class="st2" d="M94.6,21.1c1.3,0,2.4,1.1,2.4,2.4c0,1.3-1.1,2.4-2.4,2.4"/>
					<path class="st3" d="M94.6,25.9c-1.3,0-2.4-1.1-2.4-2.4c0-1.3,1.1-2.4,2.4-2.4c0,0,0,0,0,0"/>
					<circle class="st4" cx="94.6" cy="23.5" r="1.2"/>
				</g>
				<g id="B2pin">
					<path class="st2" d="M87.4,21.1c1.3,0,2.4,1.1,2.4,2.4c0,1.3-1.1,2.4-2.4,2.4"/>
					<path class="st3" d="M87.4,25.9c-1.3,0-2.4-1.1-2.4-2.4c0-1.3,1.1-2.4,2.4-2.4h0"/>
					<circle class="st4" cx="87.4" cy="23.5" r="1.2"/>
				</g>
				<g id="C2pin">
					<path class="st2" d="M80.2,21.1c1.3,0,2.4,1.1,2.4,2.4c0,1.3-1.1,2.4-2.4,2.4"/>
					<path class="st3" d="M80.2,25.9c-1.3,0-2.4-1.1-2.4-2.4s1.1-2.4,2.4-2.4c0,0,0,0,0,0"/>
					<circle class="st4" cx="80.2" cy="23.5" r="1.2"/>
				</g>
				<g id="D2pin">
					<path class="st2" d="M73,21.1c1.3,0,2.4,1.1,2.4,2.4c0,1.3-1.1,2.4-2.4,2.4"/>
					<path class="st3" d="M73,25.9c-1.3,0-2.4-1.1-2.4-2.4s1.1-2.4,2.4-2.4h0"/>
					<circle class="st4" cx="73" cy="23.5" r="1.2"/>
				</g>
				<g id="E2pin">
					<path class="st2" d="M65.8,21.1c1.3,0,2.4,1.1,2.4,2.4c0,1.3-1.1,2.4-2.4,2.4"/>
					<path class="st3" d="M65.8,25.9c-1.3,0-2.4-1.1-2.4-2.4c0-1.3,1.1-2.4,2.4-2.4c0,0,0,0,0,0"/>
					<circle class="st4" cx="65.8" cy="23.5" r="1.2"/>
				</g>
				<g id="A3pin">
					<path class="st2" d="M94.6,28.3c1.3,0,2.4,1.1,2.4,2.4c0,1.3-1.1,2.4-2.4,2.4"/>
					<path class="st3" d="M94.6,33.1c-1.3,0-2.4-1.1-2.4-2.4c0-1.3,1.1-2.4,2.4-2.4l0,0"/>
					<circle class="st4" cx="94.6" cy="30.7" r="1.2"/>
				</g>
				<g id="B3pin">
					<path class="st2" d="M87.4,28.3c1.3,0,2.4,1.1,2.4,2.4c0,1.3-1.1,2.4-2.4,2.4"/>
					<path class="st3" d="M87.4,33.1C86,33.1,85,32,85,30.7c0-1.3,1.1-2.4,2.4-2.4"/>
					<circle class="st4" cx="87.4" cy="30.7" r="1.2"/>
				</g>
				<g id="C3pin">
					<path class="st2" d="M80.2,28.3c1.3,0,2.4,1.1,2.4,2.4c0,1.3-1.1,2.4-2.4,2.4"/>
					<path class="st3" d="M80.2,33.1c-1.3,0-2.4-1.1-2.4-2.4c0-1.3,1.1-2.4,2.4-2.4l0,0"/>
					<circle class="st4" cx="80.2" cy="30.7" r="1.2"/>
				</g>
				<g id="D3pin">
					<path class="st2" d="M73,28.3c1.3,0,2.4,1.1,2.4,2.4c0,1.3-1.1,2.4-2.4,2.4"/>
					<path class="st3" d="M73,33.1c-1.3,0-2.4-1.1-2.4-2.4c0-1.3,1.1-2.4,2.4-2.4"/>
					<circle class="st4" cx="73" cy="30.7" r="1.2"/>
				</g>
				<g id="E3pin">
					<path class="st2" d="M65.8,28.3c1.3,0,2.4,1.1,2.4,2.4c0,1.3-1.1,2.4-2.4,2.4"/>
					<path class="st3" d="M65.8,33.1c-1.3,0-2.4-1.1-2.4-2.4c0-1.3,1.1-2.4,2.4-2.4"/>
					<circle class="st4" cx="65.8" cy="30.7" r="1.2"/>
				</g>
				<g id="A4pin">
					<path class="st2" d="M94.6,35.5c1.3,0,2.4,1.1,2.4,2.4c0,1.3-1.1,2.4-2.4,2.4"/>
					<path class="st3" d="M94.6,40.3c-1.3,0-2.4-1.1-2.4-2.4c0-1.3,1.1-2.4,2.4-2.4l0,0"/>
					<circle class="st4" cx="94.6" cy="37.9" r="1.2"/>
				</g>
				<g id="B4pin">
					<path class="st2" d="M87.4,35.5c1.3,0,2.4,1.1,2.4,2.4c0,1.3-1.1,2.4-2.4,2.4"/>
					<path class="st3" d="M87.4,40.3c-1.3,0-2.4-1.1-2.4-2.4c0-1.3,1.1-2.4,2.4-2.4"/>
					<circle class="st4" cx="87.4" cy="37.9" r="1.2"/>
				</g>
				<g id="C4pin">
					<path class="st2" d="M80.2,35.5c1.3,0,2.4,1.1,2.4,2.4c0,1.3-1.1,2.4-2.4,2.4"/>
					<path class="st3" d="M80.2,40.3c-1.3,0-2.4-1.1-2.4-2.4c0-1.3,1.1-2.4,2.4-2.4l0,0"/>
					<circle class="st4" cx="80.2" cy="37.9" r="1.2"/>
				</g>
				<g id="D4pin">
					<path class="st2" d="M73,35.5c1.3,0,2.4,1.1,2.4,2.4c0,1.3-1.1,2.4-2.4,2.4"/>
					<path class="st3" d="M73,40.3c-1.3,0-2.4-1.1-2.4-2.4c0-1.3,1.1-2.4,2.4-2.4"/>
					<circle class="st4" cx="73" cy="37.9" r="1.2"/>
				</g>
				<g id="E4pin">
					<path class="st2" d="M65.8,35.5c1.3,0,2.4,1.1,2.4,2.4c0,1.3-1.1,2.4-2.4,2.4"/>
					<path class="st3" d="M65.8,40.3c-1.3,0-2.4-1.1-2.4-2.4c0-1.3,1.1-2.4,2.4-2.4"/>
					<circle class="st4" cx="65.8" cy="37.9" r="1.2"/>
				</g>
				<g id="A5pin">
					<path class="st2" d="M94.6,42.7c1.3,0,2.4,1.1,2.4,2.4s-1.1,2.4-2.4,2.4"/>
					<path class="st3" d="M94.6,47.5c-1.3,0-2.4-1.1-2.4-2.4s1.1-2.4,2.4-2.4l0,0"/>
					<circle class="st4" cx="94.6" cy="45.1" r="1.2"/>
				</g>
				<g id="B5pin">
					<path class="st2" d="M87.4,42.7c1.3,0,2.4,1.1,2.4,2.4s-1.1,2.4-2.4,2.4"/>
					<path class="st3" d="M87.4,47.5c-1.3,0-2.4-1.1-2.4-2.4s1.1-2.4,2.4-2.4"/>
					<circle class="st4" cx="87.4" cy="45.1" r="1.2"/>
				</g>
				<g id="C5pin">
					<path class="st2" d="M80.2,42.7c1.3,0,2.4,1.1,2.4,2.4s-1.1,2.4-2.4,2.4"/>
					<path class="st3" d="M80.2,47.5c-1.3,0-2.4-1.1-2.4-2.4s1.1-2.4,2.4-2.4l0,0"/>
					<circle class="st4" cx="80.2" cy="45.1" r="1.2"/>
				</g>
				<g id="D5pin">
					<path class="st2" d="M73,42.7c1.3,0,2.4,1.1,2.4,2.4s-1.1,2.4-2.4,2.4"/>
					<path class="st3" d="M73,47.5c-1.3,0-2.4-1.1-2.4-2.4s1.1-2.4,2.4-2.4"/>
					<circle class="st4" cx="73" cy="45.1" r="1.2"/>
				</g>
				<g id="E5pin">
					<path class="st2" d="M65.8,42.7c1.3,0,2.4,1.1,2.4,2.4s-1.1,2.4-2.4,2.4"/>
					<path class="st3" d="M65.8,47.5c-1.3,0-2.4-1.1-2.4-2.4s1.1-2.4,2.4-2.4"/>
					<circle class="st4" cx="65.8" cy="45.1" r="1.2"/>
				</g>
				<g id="A6pin">
					<path class="st2" d="M94.6,49.9c1.3,0,2.4,1.1,2.4,2.4s-1.1,2.4-2.4,2.4"/>
					<path class="st3" d="M94.6,54.7c-1.3,0-2.4-1.1-2.4-2.4s1.1-2.4,2.4-2.4l0,0"/>
					<circle class="st4" cx="94.6" cy="52.3" r="1.2"/>
				</g>
				<g id="B6pin">
					<path class="st2" d="M87.4,49.9c1.3,0,2.4,1.1,2.4,2.4s-1.1,2.4-2.4,2.4"/>
					<path class="st3" d="M87.4,54.7c-1.3,0-2.4-1.1-2.4-2.4s1.1-2.4,2.4-2.4"/>
					<circle class="st4" cx="87.4" cy="52.3" r="1.2"/>
				</g>
				<g id="C6pin">
					<path class="st2" d="M80.2,49.9c1.3,0,2.4,1.1,2.4,2.4s-1.1,2.4-2.4,2.4"/>
					<path class="st3" d="M80.2,54.7c-1.3,0-2.4-1.1-2.4-2.4s1.1-2.4,2.4-2.4l0,0"/>
					<circle class="st4" cx="80.2" cy="52.3" r="1.2"/>
				</g>
				<g id="D6pin">
					<path class="st2" d="M73,49.9c1.3,0,2.4,1.1,2.4,2.4s-1.1,2.4-2.4,2.4"/>
					<path class="st3" d="M73,54.7c-1.3,0-2.4-1.1-2.4-2.4s1.1-2.4,2.4-2.4"/>
					<circle class="st4" cx="73" cy="52.3" r="1.2"/>
				</g>
				<g id="E6pin">
					<path class="st2" d="M65.8,49.9c1.3,0,2.4,1.1,2.4,2.4s-1.1,2.4-2.4,2.4"/>
					<path class="st3" d="M65.8,54.7c-1.3,0-2.4-1.1-2.4-2.4s1.1-2.4,2.4-2.4"/>
					<circle class="st4" cx="65.8" cy="52.3" r="1.2"/>
				</g>
				<g id="A7pin">
					<path class="st2" d="M94.6,57.1c1.3,0,2.4,1.1,2.4,2.4c0,1.3-1.1,2.4-2.4,2.4"/>
					<path class="st3" d="M94.6,61.9c-1.3,0-2.4-1.1-2.4-2.4s1.1-2.4,2.4-2.4l0,0"/>
					<circle class="st4" cx="94.6" cy="59.5" r="1.2"/>
				</g>
				<g id="B7pin">
					<path class="st2" d="M87.4,57.1c1.3,0,2.4,1.1,2.4,2.4c0,1.3-1.1,2.4-2.4,2.4"/>
					<path class="st3" d="M87.4,61.9c-1.3,0-2.4-1.1-2.4-2.4s1.1-2.4,2.4-2.4"/>
					<circle class="st4" cx="87.4" cy="59.5" r="1.2"/>
				</g>
				<g id="C7pin">
					<path class="st2" d="M80.2,57.1c1.3,0,2.4,1.1,2.4,2.4c0,1.3-1.1,2.4-2.4,2.4"/>
					<path class="st3" d="M80.2,61.9c-1.3,0-2.4-1.1-2.4-2.4s1.1-2.4,2.4-2.4l0,0"/>
					<circle class="st4" cx="80.2" cy="59.5" r="1.2"/>
				</g>
				<g id="D7pin">
					<path class="st2" d="M73,57.1c1.3,0,2.4,1.1,2.4,2.4c0,1.3-1.1,2.4-2.4,2.4"/>
					<path class="st3" d="M73,61.9c-1.3,0-2.4-1.1-2.4-2.4s1.1-2.4,2.4-2.4"/>
					<circle class="st4" cx="73" cy="59.5" r="1.2"/>
				</g>
				<g id="E7pin">
					<path class="st2" d="M65.8,57.1c1.3,0,2.4,1.1,2.4,2.4c0,1.3-1.1,2.4-2.4,2.4"/>
					<path class="st3" d="M65.8,61.9c-1.3,0-2.4-1.1-2.4-2.4s1.1-2.4,2.4-2.4"/>
					<circle class="st4" cx="65.8" cy="59.5" r="1.2"/>
				</g>
				<g id="A8pin">
					<path class="st2" d="M94.6,64.3c1.3,0,2.4,1.1,2.4,2.4c0,1.3-1.1,2.4-2.4,2.4"/>
					<path class="st3" d="M94.6,69.1c-1.3,0-2.4-1.1-2.4-2.4c0-1.3,1.1-2.4,2.4-2.4l0,0"/>
					<circle class="st4" cx="94.6" cy="66.7" r="1.2"/>
				</g>
				<g id="B8pin">
					<path class="st2" d="M87.4,64.3c1.3,0,2.4,1.1,2.4,2.4c0,1.3-1.1,2.4-2.4,2.4"/>
					<path class="st3" d="M87.4,69.1C86,69.1,85,68,85,66.7c0-1.3,1.1-2.4,2.4-2.4"/>
					<circle class="st4" cx="87.4" cy="66.7" r="1.2"/>
				</g>
				<g id="C8pin">
					<path class="st2" d="M80.2,64.3c1.3,0,2.4,1.1,2.4,2.4c0,1.3-1.1,2.4-2.4,2.4"/>
					<path class="st3" d="M80.2,69.1c-1.3,0-2.4-1.1-2.4-2.4c0-1.3,1.1-2.4,2.4-2.4l0,0"/>
					<circle class="st4" cx="80.2" cy="66.7" r="1.2"/>
				</g>
				<g id="D8pin">
					<path class="st2" d="M73,64.3c1.3,0,2.4,1.1,2.4,2.4c0,1.3-1.1,2.4-2.4,2.4"/>
					<path class="st3" d="M73,69.1c-1.3,0-2.4-1.1-2.4-2.4c0-1.3,1.1-2.4,2.4-2.4"/>
					<circle class="st4" cx="73" cy="66.7" r="1.2"/>
				</g>
				<g id="E8pin">
					<path class="st2" d="M65.8,64.3c1.3,0,2.4,1.1,2.4,2.4c0,1.3-1.1,2.4-2.4,2.4"/>
					<path class="st3" d="M65.8,69.1c-1.3,0-2.4-1.1-2.4-2.4c0-1.3,1.1-2.4,2.4-2.4"/>
					<circle class="st4" cx="65.8" cy="66.7" r="1.2"/>
				</g>
				<g id="A9pin">
					<path class="st2" d="M94.6,71.5c1.3,0,2.4,1.1,2.4,2.4c0,1.3-1.1,2.4-2.4,2.4"/>
					<path class="st3" d="M94.6,76.3c-1.3,0-2.4-1.1-2.4-2.4c0-1.3,1.1-2.4,2.4-2.4l0,0"/>
					<circle class="st4" cx="94.6" cy="73.9" r="1.2"/>
				</g>
				<g id="B9pin">
					<path class="st2" d="M87.4,71.5c1.3,0,2.4,1.1,2.4,2.4c0,1.3-1.1,2.4-2.4,2.4"/>
					<path class="st3" d="M87.4,76.3c-1.3,0-2.4-1.1-2.4-2.4c0-1.3,1.1-2.4,2.4-2.4"/>
					<circle class="st4" cx="87.4" cy="73.9" r="1.2"/>
				</g>
				<g id="C9pin">
					<path class="st2" d="M80.2,71.5c1.3,0,2.4,1.1,2.4,2.4c0,1.3-1.1,2.4-2.4,2.4"/>
					<path class="st3" d="M80.2,76.3c-1.3,0-2.4-1.1-2.4-2.4c0-1.3,1.1-2.4,2.4-2.4l0,0"/>
					<circle class="st4" cx="80.2" cy="73.9" r="1.2"/>
				</g>
				<g id="D9pin">
					<path class="st2" d="M73,71.5c1.3,0,2.4,1.1,2.4,2.4c0,1.3-1.1,2.4-2.4,2.4"/>
					<path class="st3" d="M73,76.3c-1.3,0-2.4-1.1-2.4-2.4c0-1.3,1.1-2.4,2.4-2.4"/>
					<circle class="st4" cx="73" cy="73.9" r="1.2"/>
				</g>
				<g id="E9pin">
					<path class="st2" d="M65.8,71.5c1.3,0,2.4,1.1,2.4,2.4c0,1.3-1.1,2.4-2.4,2.4"/>
					<path class="st3" d="M65.8,76.3c-1.3,0-2.4-1.1-2.4-2.4c0-1.3,1.1-2.4,2.4-2.4"/>
					<circle class="st4" cx="65.8" cy="73.9" r="1.2"/>
				</g>
				<g id="A10pin">
					<path class="st2" d="M94.6,78.7c1.3,0,2.4,1.1,2.4,2.4c0,1.3-1.1,2.4-2.4,2.4"/>
					<path class="st3" d="M94.6,83.5c-1.3,0-2.4-1.1-2.4-2.4s1.1-2.4,2.4-2.4l0,0"/>
					<circle class="st4" cx="94.6" cy="81.1" r="1.2"/>
				</g>
				<g id="B10pin">
					<path class="st2" d="M87.4,78.7c1.3,0,2.4,1.1,2.4,2.4c0,1.3-1.1,2.4-2.4,2.4"/>
					<path class="st3" d="M87.4,83.5c-1.3,0-2.4-1.1-2.4-2.4s1.1-2.4,2.4-2.4"/>
					<circle class="st4" cx="87.4" cy="81.1" r="1.2"/>
				</g>
				<g id="C10pin">
					<path class="st2" d="M80.2,78.7c1.3,0,2.4,1.1,2.4,2.4c0,1.3-1.1,2.4-2.4,2.4"/>
					<path class="st3" d="M80.2,83.5c-1.3,0-2.4-1.1-2.4-2.4s1.1-2.4,2.4-2.4l0,0"/>
					<circle class="st4" cx="80.2" cy="81.1" r="1.2"/>
				</g>
				<g id="D10pin">
					<path class="st2" d="M73,78.7c1.3,0,2.4,1.1,2.4,2.4c0,1.3-1.1,2.4-2.4,2.4"/>
					<path class="st3" d="M73,83.5c-1.3,0-2.4-1.1-2.4-2.4s1.1-2.4,2.4-2.4"/>
					<circle class="st4" cx="73" cy="81.1" r="1.2"/>
				</g>
				<g id="E10pin">
					<path class="st2" d="M65.8,78.7c1.3,0,2.4,1.1,2.4,2.4c0,1.3-1.1,2.4-2.4,2.4"/>
					<path class="st3" d="M65.8,83.5c-1.3,0-2.4-1.1-2.4-2.4s1.1-2.4,2.4-2.4"/>
					<circle class="st4" cx="65.8" cy="81.1" r="1.2"/>
				</g>
				<g id="A11pin">
					<path class="st2" d="M94.6,85.9c1.3,0,2.4,1.1,2.4,2.4s-1.1,2.4-2.4,2.4"/>
					<path class="st3" d="M94.6,90.7c-1.3,0-2.4-1.1-2.4-2.4s1.1-2.4,2.4-2.4l0,0"/>
					<circle class="st4" cx="94.6" cy="88.3" r="1.2"/>
				</g>
				<g id="B11pin">
					<path class="st2" d="M87.4,85.9c1.3,0,2.4,1.1,2.4,2.4s-1.1,2.4-2.4,2.4"/>
					<path class="st3" d="M87.4,90.7c-1.3,0-2.4-1.1-2.4-2.4s1.1-2.4,2.4-2.4"/>
					<circle class="st4" cx="87.4" cy="88.3" r="1.2"/>
				</g>
				<g id="C11pin">
					<path class="st2" d="M80.2,85.9c1.3,0,2.4,1.1,2.4,2.4s-1.1,2.4-2.4,2.4"/>
					<path class="st3" d="M80.2,90.7c-1.3,0-2.4-1.1-2.4-2.4s1.1-2.4,2.4-2.4l0,0"/>
					<circle class="st4" cx="80.2" cy="88.3" r="1.2"/>
				</g>
				<g id="D11pin">
					<path class="st2" d="M73,85.9c1.3,0,2.4,1.1,2.4,2.4s-1.1,2.4-2.4,2.4"/>
					<path class="st3" d="M73,90.7c-1.3,0-2.4-1.1-2.4-2.4s1.1-2.4,2.4-2.4"/>
					<circle class="st4" cx="73" cy="88.3" r="1.2"/>
				</g>
				<g id="E11pin">
					<path class="st2" d="M65.8,85.9c1.3,0,2.4,1.1,2.4,2.4s-1.1,2.4-2.4,2.4"/>
					<path class="st3" d="M65.8,90.7c-1.3,0-2.4-1.1-2.4-2.4s1.1-2.4,2.4-2.4"/>
					<circle class="st4" cx="65.8" cy="88.3" r="1.2"/>
				</g>
				<g id="A12pin">
					<path class="st2" d="M94.6,93.1c1.3,0,2.4,1.1,2.4,2.4c0,1.3-1.1,2.4-2.4,2.4"/>
					<path class="st3" d="M94.6,97.9c-1.3,0-2.4-1.1-2.4-2.4c0-1.3,1.1-2.4,2.4-2.4l0,0"/>
					<circle class="st4" cx="94.6" cy="95.5" r="1.2"/>
				</g>
				<g id="B12pin">
					<path class="st2" d="M87.4,93.1c1.3,0,2.4,1.1,2.4,2.4c0,1.3-1.1,2.4-2.4,2.4"/>
					<path class="st3" d="M87.4,97.9c-1.3,0-2.4-1.1-2.4-2.4c0-1.3,1.1-2.4,2.4-2.4"/>
					<circle class="st4" cx="87.4" cy="95.5" r="1.2"/>
				</g>
				<g id="C12pin">
					<path class="st2" d="M80.2,93.1c1.3,0,2.4,1.1,2.4,2.4c0,1.3-1.1,2.4-2.4,2.4"/>
					<path class="st3" d="M80.2,97.9c-1.3,0-2.4-1.1-2.4-2.4c0-1.3,1.1-2.4,2.4-2.4l0,0"/>
					<circle class="st4" cx="80.2" cy="95.5" r="1.2"/>
				</g>
				<g id="D12pin">
					<path class="st2" d="M73,93.1c1.3,0,2.4,1.1,2.4,2.4c0,1.3-1.1,2.4-2.4,2.4"/>
					<path class="st3" d="M73,97.9c-1.3,0-2.4-1.1-2.4-2.4c0-1.3,1.1-2.4,2.4-2.4"/>
					<circle class="st4" cx="73" cy="95.5" r="1.2"/>
				</g>
				<g id="E12pin">
					<path class="st2" d="M65.8,93.1c1.3,0,2.4,1.1,2.4,2.4c0,1.3-1.1,2.4-2.4,2.4"/>
					<path class="st3" d="M65.8,97.9c-1.3,0-2.4-1.1-2.4-2.4c0-1.3,1.1-2.4,2.4-2.4"/>
					<circle class="st4" cx="65.8" cy="95.5" r="1.2"/>
				</g>
				<g id="A13pin">
					<path class="st2" d="M94.6,100.3c1.3,0,2.4,1.1,2.4,2.4c0,1.3-1.1,2.4-2.4,2.4"/>
					<path class="st3" d="M94.6,105.1c-1.3,0-2.4-1.1-2.4-2.4s1.1-2.4,2.4-2.4l0,0"/>
					<circle class="st4" cx="94.6" cy="102.7" r="1.2"/>
				</g>
				<g id="B13pin">
					<path class="st2" d="M87.4,100.3c1.3,0,2.4,1.1,2.4,2.4c0,1.3-1.1,2.4-2.4,2.4"/>
					<path class="st3" d="M87.4,105.1c-1.3,0-2.4-1.1-2.4-2.4s1.1-2.4,2.4-2.4"/>
					<circle class="st4" cx="87.4" cy="102.7" r="1.2"/>
				</g>
				<g id="C13pin">
					<path class="st2" d="M80.2,100.3c1.3,0,2.4,1.1,2.4,2.4c0,1.3-1.1,2.4-2.4,2.4"/>
					<path class="st3" d="M80.2,105.1c-1.3,0-2.4-1.1-2.4-2.4s1.1-2.4,2.4-2.4l0,0"/>
					<circle class="st4" cx="80.2" cy="102.7" r="1.2"/>
				</g>
				<g id="D13pin">
					<path class="st2" d="M73,100.3c1.3,0,2.4,1.1,2.4,2.4c0,1.3-1.1,2.4-2.4,2.4"/>
					<path class="st3" d="M73,105.1c-1.3,0-2.4-1.1-2.4-2.4s1.1-2.4,2.4-2.4"/>
					<circle class="st4" cx="73" cy="102.7" r="1.2"/>
				</g>
				<g id="E13pin">
					<path class="st2" d="M65.8,100.3c1.3,0,2.4,1.1,2.4,2.4c0,1.3-1.1,2.4-2.4,2.4"/>
					<path class="st3" d="M65.8,105.1c-1.3,0-2.4-1.1-2.4-2.4s1.1-2.4,2.4-2.4"/>
					<circle class="st4" cx="65.8" cy="102.7" r="1.2"/>
				</g>
				<g id="A14pin">
					<path class="st2" d="M94.6,107.5c1.3,0,2.4,1.1,2.4,2.4c0,1.3-1.1,2.4-2.4,2.4"/>
					<path class="st3" d="M94.6,112.3c-1.3,0-2.4-1.1-2.4-2.4c0-1.3,1.1-2.4,2.4-2.4l0,0"/>
					<circle class="st4" cx="94.6" cy="109.9" r="1.2"/>
				</g>
				<g id="B14pin">
					<path class="st2" d="M87.4,107.5c1.3,0,2.4,1.1,2.4,2.4c0,1.3-1.1,2.4-2.4,2.4"/>
					<path class="st3" d="M87.4,112.3c-1.3,0-2.4-1.1-2.4-2.4c0-1.3,1.1-2.4,2.4-2.4"/>
					<circle class="st4" cx="87.4" cy="109.9" r="1.2"/>
				</g>
				<g id="C14pin">
					<path class="st2" d="M80.2,107.5c1.3,0,2.4,1.1,2.4,2.4c0,1.3-1.1,2.4-2.4,2.4"/>
					<path class="st3" d="M80.2,112.3c-1.3,0-2.4-1.1-2.4-2.4c0-1.3,1.1-2.4,2.4-2.4l0,0"/>
					<circle class="st4" cx="80.2" cy="109.9" r="1.2"/>
				</g>
				<g id="D14pin">
					<path class="st2" d="M73,107.5c1.3,0,2.4,1.1,2.4,2.4c0,1.3-1.1,2.4-2.4,2.4"/>
					<path class="st3" d="M73,112.3c-1.3,0-2.4-1.1-2.4-2.4c0-1.3,1.1-2.4,2.4-2.4"/>
					<circle class="st4" cx="73" cy="109.9" r="1.2"/>
				</g>
				<g id="E14pin">
					<path class="st2" d="M65.8,107.5c1.3,0,2.4,1.1,2.4,2.4c0,1.3-1.1,2.4-2.4,2.4"/>
					<path class="st3" d="M65.8,112.3c-1.3,0-2.4-1.1-2.4-2.4c0-1.3,1.1-2.4,2.4-2.4"/>
					<circle class="st4" cx="65.8" cy="109.9" r="1.2"/>
				</g>
				<g id="A15pin">
					<path class="st2" d="M94.6,114.7c1.3,0,2.4,1.1,2.4,2.4c0,1.3-1.1,2.4-2.4,2.4"/>
					<path class="st3" d="M94.6,119.5c-1.3,0-2.4-1.1-2.4-2.4c0-1.3,1.1-2.4,2.4-2.4c0,0,0,0,0,0"/>
					<circle class="st4" cx="94.6" cy="117.1" r="1.2"/>
				</g>
				<g id="B15pin">
					<path class="st2" d="M87.4,114.7c1.3,0,2.4,1.1,2.4,2.4c0,1.3-1.1,2.4-2.4,2.4"/>
					<path class="st3" d="M87.4,119.5c-1.3,0-2.4-1.1-2.4-2.4c0-1.3,1.1-2.4,2.4-2.4c0,0,0,0,0,0"/>
					<circle class="st4" cx="87.4" cy="117.1" r="1.2"/>
				</g>
				<g id="C15pin">
					<path class="st2" d="M80.2,114.7c1.3,0,2.4,1.1,2.4,2.4c0,1.3-1.1,2.4-2.4,2.4"/>
					<path class="st3" d="M80.2,119.5c-1.3,0-2.4-1.1-2.4-2.4c0-1.3,1.1-2.4,2.4-2.4c0,0,0,0,0,0"/>
					<circle class="st4" cx="80.2" cy="117.1" r="1.2"/>
				</g>
				<g id="D15pin">
					<path class="st2" d="M73,114.7c1.3,0,2.4,1.1,2.4,2.4c0,1.3-1.1,2.4-2.4,2.4"/>
					<path class="st3" d="M73,119.5c-1.3,0-2.4-1.1-2.4-2.4c0-1.3,1.1-2.4,2.4-2.4c0,0,0,0,0,0"/>
					<circle class="st4" cx="73" cy="117.1" r="1.2"/>
				</g>
				<g id="E15pin">
					<path class="st2" d="M65.8,114.7c1.3,0,2.4,1.1,2.4,2.4c0,1.3-1.1,2.4-2.4,2.4"/>
					<path class="st3" d="M65.8,119.5c-1.3,0-2.4-1.1-2.4-2.4c0-1.3,1.1-2.4,2.4-2.4c0,0,0,0,0,0"/>
					<circle class="st4" cx="65.8" cy="117.1" r="1.2"/>
				</g>
				<g id="A16pin">
					<path class="st2" d="M94.6,121.9c1.3,0,2.4,1.1,2.4,2.4c0,1.3-1.1,2.4-2.4,2.4"/>
					<path class="st3" d="M94.6,126.7c-1.3,0-2.4-1.1-2.4-2.4s1.1-2.4,2.4-2.4c0,0,0,0,0,0"/>
					<circle class="st4" cx="94.6" cy="124.3" r="1.2"/>
				</g>
				<g id="B16pin">
					<path class="st2" d="M87.4,121.9c1.3,0,2.4,1.1,2.4,2.4c0,1.3-1.1,2.4-2.4,2.4"/>
					<path class="st3" d="M87.4,126.7c-1.3,0-2.4-1.1-2.4-2.4s1.1-2.4,2.4-2.4c0,0,0,0,0,0"/>
					<circle class="st4" cx="87.4" cy="124.3" r="1.2"/>
				</g>
				<g id="C16pin">
					<path class="st2" d="M80.2,121.9c1.3,0,2.4,1.1,2.4,2.4c0,1.3-1.1,2.4-2.4,2.4"/>
					<path class="st3" d="M80.2,126.7c-1.3,0-2.4-1.1-2.4-2.4s1.1-2.4,2.4-2.4c0,0,0,0,0,0"/>
					<circle class="st4" cx="80.2" cy="124.3" r="1.2"/>
				</g>
				<g id="D16pin">
					<path class="st2" d="M73,121.9c1.3,0,2.4,1.1,2.4,2.4c0,1.3-1.1,2.4-2.4,2.4"/>
					<path class="st3" d="M73,126.7c-1.3,0-2.4-1.1-2.4-2.4c0-1.3,1.1-2.4,2.4-2.4c0,0,0,0,0,0"/>
					<circle class="st4" cx="73" cy="124.3" r="1.2"/>
				</g>
				<g id="E16pin">
					<path class="st2" d="M65.8,121.9c1.3,0,2.4,1.1,2.4,2.4c0,1.3-1.1,2.4-2.4,2.4"/>
					<path class="st3" d="M65.8,126.7c-1.3,0-2.4-1.1-2.4-2.4c0-1.3,1.1-2.4,2.4-2.4c0,0,0,0,0,0"/>
					<circle class="st4" cx="65.8" cy="124.3" r="1.2"/>
				</g>
				<g id="A17pin">
					<path class="st2" d="M94.6,129.1c1.3,0,2.4,1.1,2.4,2.4c0,1.3-1.1,2.4-2.4,2.4"/>
					<path class="st3" d="M94.6,133.9c-1.3,0-2.4-1.1-2.4-2.4c0-1.3,1.1-2.4,2.4-2.4c0,0,0,0,0,0"/>
					<circle class="st4" cx="94.6" cy="131.5" r="1.2"/>
				</g>
				<g id="B17pin">
					<path class="st2" d="M87.4,129.1c1.3,0,2.4,1.1,2.4,2.4c0,1.3-1.1,2.4-2.4,2.4"/>
					<path class="st3" d="M87.4,133.9c-1.3,0-2.4-1.1-2.4-2.4c0-1.3,1.1-2.4,2.4-2.4c0,0,0,0,0,0"/>
					<circle class="st4" cx="87.4" cy="131.5" r="1.2"/>
				</g>
				<g id="C17pin">
					<path class="st2" d="M80.2,129.1c1.3,0,2.4,1.1,2.4,2.4c0,1.3-1.1,2.4-2.4,2.4"/>
					<path class="st3" d="M80.2,133.9c-1.3,0-2.4-1.1-2.4-2.4c0-1.3,1.1-2.4,2.4-2.4c0,0,0,0,0,0"/>
					<circle class="st4" cx="80.2" cy="131.5" r="1.2"/>
				</g>
				<g id="D17pin">
					<path class="st2" d="M73,129.1c1.3,0,2.4,1.1,2.4,2.4c0,1.3-1.1,2.4-2.4,2.4"/>
					<path class="st3" d="M73,133.9c-1.3,0-2.4-1.1-2.4-2.4c0-1.3,1.1-2.4,2.4-2.4c0,0,0,0,0,0"/>
					<circle class="st4" cx="73" cy="131.5" r="1.2"/>
				</g>
				<g id="E17pin">
					<path class="st2" d="M65.8,129.1c1.3,0,2.4,1.1,2.4,2.4c0,1.3-1.1,2.4-2.4,2.4"/>
					<path class="st3" d="M65.8,133.9c-1.3,0-2.4-1.1-2.4-2.4c0-1.3,1.1-2.4,2.4-2.4c0,0,0,0,0,0"/>
					<circle class="st4" cx="65.8" cy="131.5" r="1.2"/>
				</g>
				<g id="F1pin">
					<path class="st2" d="M44.2,13.9c1.3,0,2.4,1.1,2.4,2.4s-1.1,2.4-2.4,2.4"/>
					<path class="st3" d="M44.2,18.7c-1.3,0-2.4-1.1-2.4-2.4s1.1-2.4,2.4-2.4l0,0"/>
					<circle class="st4" cx="44.2" cy="16.3" r="1.2"/>
				</g>
				<g id="G1pin">
					<path class="st2" d="M37,13.9c1.3,0,2.4,1.1,2.4,2.4s-1.1,2.4-2.4,2.4"/>
					<path class="st3" d="M37,18.7c-1.3,0-2.4-1.1-2.4-2.4s1.1-2.4,2.4-2.4l0,0"/>
					<circle class="st4" cx="37" cy="16.3" r="1.2"/>
				</g>
				<g id="H1pin">
					<path class="st2" d="M29.8,13.9c1.3,0,2.4,1.1,2.4,2.4s-1.1,2.4-2.4,2.4"/>
					<path class="st3" d="M29.8,18.7c-1.3,0-2.4-1.1-2.4-2.4s1.1-2.4,2.4-2.4"/>
					<circle class="st4" cx="29.8" cy="16.3" r="1.2"/>
				</g>
				<g id="I1pin">
					<path class="st2" d="M22.6,13.9c1.3,0,2.4,1.1,2.4,2.4s-1.1,2.4-2.4,2.4"/>
					<path class="st3" d="M22.6,18.7c-1.3,0-2.4-1.1-2.4-2.4s1.1-2.4,2.4-2.4l0,0"/>
					<circle class="st4" cx="22.6" cy="16.3" r="1.2"/>
				</g>
				<g id="J1pin">
					<path class="st2" d="M15.4,13.9c1.3,0,2.4,1.1,2.4,2.4s-1.1,2.4-2.4,2.4"/>
					<path class="st3" d="M15.4,18.7c-1.3,0-2.4-1.1-2.4-2.4s1.1-2.4,2.4-2.4l0,0"/>
					<circle class="st4" cx="15.4" cy="16.3" r="1.2"/>
				</g>
				<g id="F2pin">
					<path class="st2" d="M44.2,21.1c1.3,0,2.4,1.1,2.4,2.4c0,1.3-1.1,2.4-2.4,2.4"/>
					<path class="st3" d="M44.2,25.9c-1.3,0-2.4-1.1-2.4-2.4s1.1-2.4,2.4-2.4c0,0,0,0,0,0"/>
					<circle class="st4" cx="44.2" cy="23.5" r="1.2"/>
				</g>
				<g id="G2pin">
					<path class="st2" d="M37,21.1c1.3,0,2.4,1.1,2.4,2.4c0,1.3-1.1,2.4-2.4,2.4"/>
					<path class="st3" d="M37,25.9c-1.3,0-2.4-1.1-2.4-2.4s1.1-2.4,2.4-2.4h0"/>
					<circle class="st4" cx="37" cy="23.5" r="1.2"/>
				</g>
				<g id="H2pin">
					<path class="st2" d="M29.8,21.1c1.3,0,2.4,1.1,2.4,2.4c0,1.3-1.1,2.4-2.4,2.4"/>
					<path class="st3" d="M29.8,25.9c-1.3,0-2.4-1.1-2.4-2.4c0-1.3,1.1-2.4,2.4-2.4c0,0,0,0,0,0"/>
					<circle class="st4" cx="29.8" cy="23.5" r="1.2"/>
				</g>
				<g id="I2pin">
					<path class="st2" d="M22.6,21.1c1.3,0,2.4,1.1,2.4,2.4c0,1.3-1.1,2.4-2.4,2.4"/>
					<path class="st3" d="M22.6,25.9c-1.3,0-2.4-1.1-2.4-2.4c0-1.3,1.1-2.4,2.4-2.4c0,0,0,0,0,0"/>
					<circle class="st4" cx="22.6" cy="23.5" r="1.2"/>
				</g>
				<g id="J2pin">
					<path class="st2" d="M15.4,21.1c1.3,0,2.4,1.1,2.4,2.4c0,1.3-1.1,2.4-2.4,2.4"/>
					<path class="st3" d="M15.4,25.9c-1.3,0-2.4-1.1-2.4-2.4s1.1-2.4,2.4-2.4h0"/>
					<circle class="st4" cx="15.4" cy="23.5" r="1.2"/>
				</g>
				<g id="F3pin">
					<path class="st2" d="M44.2,28.3c1.3,0,2.4,1.1,2.4,2.4c0,1.3-1.1,2.4-2.4,2.4"/>
					<path class="st3" d="M44.2,33.1c-1.3,0-2.4-1.1-2.4-2.4c0-1.3,1.1-2.4,2.4-2.4"/>
					<circle class="st4" cx="44.2" cy="30.7" r="1.2"/>
				</g>
				<g id="G3pin">
					<path class="st2" d="M37,28.3c1.3,0,2.4,1.1,2.4,2.4c0,1.3-1.1,2.4-2.4,2.4"/>
					<path class="st3" d="M37,33.1c-1.3,0-2.4-1.1-2.4-2.4c0-1.3,1.1-2.4,2.4-2.4"/>
					<circle class="st4" cx="37" cy="30.7" r="1.2"/>
				</g>
				<g id="H3pin">
					<path class="st2" d="M29.8,28.3c1.3,0,2.4,1.1,2.4,2.4c0,1.3-1.1,2.4-2.4,2.4"/>
					<path class="st3" d="M29.8,33.1c-1.3,0-2.4-1.1-2.4-2.4c0-1.3,1.1-2.4,2.4-2.4l0,0"/>
					<circle class="st4" cx="29.8" cy="30.7" r="1.2"/>
				</g>
				<g id="I3pin">
					<path class="st2" d="M22.6,28.3c1.3,0,2.4,1.1,2.4,2.4c0,1.3-1.1,2.4-2.4,2.4"/>
					<path class="st3" d="M22.6,33.1c-1.3,0-2.4-1.1-2.4-2.4c0-1.3,1.1-2.4,2.4-2.4"/>
					<circle class="st4" cx="22.6" cy="30.7" r="1.2"/>
				</g>
				<g id="J3pin">
					<path class="st2" d="M15.4,28.3c1.3,0,2.4,1.1,2.4,2.4c0,1.3-1.1,2.4-2.4,2.4"/>
					<path class="st3" d="M15.4,33.1C14,33.1,13,32,13,30.7c0-1.3,1.1-2.4,2.4-2.4l0,0"/>
					<circle class="st4" cx="15.4" cy="30.7" r="1.2"/>
				</g>
				<g id="F4pin">
					<path class="st2" d="M44.2,35.5c1.3,0,2.4,1.1,2.4,2.4c0,1.3-1.1,2.4-2.4,2.4"/>
					<path class="st3" d="M44.2,40.3c-1.3,0-2.4-1.1-2.4-2.4c0-1.3,1.1-2.4,2.4-2.4"/>
					<circle class="st4" cx="44.2" cy="37.9" r="1.2"/>
				</g>
				<g id="G4pin">
					<path class="st2" d="M37,35.5c1.3,0,2.4,1.1,2.4,2.4c0,1.3-1.1,2.4-2.4,2.4"/>
					<path class="st3" d="M37,40.3c-1.3,0-2.4-1.1-2.4-2.4c0-1.3,1.1-2.4,2.4-2.4"/>
					<circle class="st4" cx="37" cy="37.9" r="1.2"/>
				</g>
				<g id="H4pin">
					<path class="st2" d="M29.8,35.5c1.3,0,2.4,1.1,2.4,2.4c0,1.3-1.1,2.4-2.4,2.4"/>
					<path class="st3" d="M29.8,40.3c-1.3,0-2.4-1.1-2.4-2.4c0-1.3,1.1-2.4,2.4-2.4l0,0"/>
					<circle class="st4" cx="29.8" cy="37.9" r="1.2"/>
				</g>
				<g id="I4pin">
					<path class="st2" d="M22.6,35.5c1.3,0,2.4,1.1,2.4,2.4c0,1.3-1.1,2.4-2.4,2.4"/>
					<path class="st3" d="M22.6,40.3c-1.3,0-2.4-1.1-2.4-2.4c0-1.3,1.1-2.4,2.4-2.4"/>
					<circle class="st4" cx="22.6" cy="37.9" r="1.2"/>
				</g>
				<g id="J4pin">
					<path class="st2" d="M15.4,35.5c1.3,0,2.4,1.1,2.4,2.4c0,1.3-1.1,2.4-2.4,2.4"/>
					<path class="st3" d="M15.4,40.3c-1.3,0-2.4-1.1-2.4-2.4c0-1.3,1.1-2.4,2.4-2.4l0,0"/>
					<circle class="st4" cx="15.4" cy="37.9" r="1.2"/>
				</g>
				<g id="F5pin">
					<path class="st2" d="M44.2,42.7c1.3,0,2.4,1.1,2.4,2.4s-1.1,2.4-2.4,2.4"/>
					<path class="st3" d="M44.2,47.5c-1.3,0-2.4-1.1-2.4-2.4s1.1-2.4,2.4-2.4"/>
					<circle class="st4" cx="44.2" cy="45.1" r="1.2"/>
				</g>
				<g id="G5pin">
					<path class="st2" d="M37,42.7c1.3,0,2.4,1.1,2.4,2.4s-1.1,2.4-2.4,2.4"/>
					<path class="st3" d="M37,47.5c-1.3,0-2.4-1.1-2.4-2.4s1.1-2.4,2.4-2.4"/>
					<circle class="st4" cx="37" cy="45.1" r="1.2"/>
				</g>
				<g id="H5pin">
					<path class="st2" d="M29.8,42.7c1.3,0,2.4,1.1,2.4,2.4s-1.1,2.4-2.4,2.4"/>
					<path class="st3" d="M29.8,47.5c-1.3,0-2.4-1.1-2.4-2.4s1.1-2.4,2.4-2.4l0,0"/>
					<circle class="st4" cx="29.8" cy="45.1" r="1.2"/>
				</g>
				<g id="I5pin">
					<path class="st2" d="M22.6,42.7c1.3,0,2.4,1.1,2.4,2.4s-1.1,2.4-2.4,2.4"/>
					<path class="st3" d="M22.6,47.5c-1.3,0-2.4-1.1-2.4-2.4s1.1-2.4,2.4-2.4"/>
					<circle class="st4" cx="22.6" cy="45.1" r="1.2"/>
				</g>
				<g id="J5pin">
					<path class="st2" d="M15.4,42.7c1.3,0,2.4,1.1,2.4,2.4s-1.1,2.4-2.4,2.4"/>
					<path class="st3" d="M15.4,47.5c-1.3,0-2.4-1.1-2.4-2.4s1.1-2.4,2.4-2.4l0,0"/>
					<circle class="st4" cx="15.4" cy="45.1" r="1.2"/>
				</g>
				<g id="F6pin">
					<path class="st2" d="M44.2,49.9c1.3,0,2.4,1.1,2.4,2.4s-1.1,2.4-2.4,2.4"/>
					<path class="st3" d="M44.2,54.7c-1.3,0-2.4-1.1-2.4-2.4s1.1-2.4,2.4-2.4"/>
					<circle class="st4" cx="44.2" cy="52.3" r="1.2"/>
				</g>
				<g id="G6pin">
					<path class="st2" d="M37,49.9c1.3,0,2.4,1.1,2.4,2.4s-1.1,2.4-2.4,2.4"/>
					<path class="st3" d="M37,54.7c-1.3,0-2.4-1.1-2.4-2.4s1.1-2.4,2.4-2.4"/>
					<circle class="st4" cx="37" cy="52.3" r="1.2"/>
				</g>
				<g id="H6pin">
					<path class="st2" d="M29.8,49.9c1.3,0,2.4,1.1,2.4,2.4s-1.1,2.4-2.4,2.4"/>
					<path class="st3" d="M29.8,54.7c-1.3,0-2.4-1.1-2.4-2.4s1.1-2.4,2.4-2.4l0,0"/>
					<circle class="st4" cx="29.8" cy="52.3" r="1.2"/>
				</g>
				<g id="I6pin">
					<path class="st2" d="M22.6,49.9c1.3,0,2.4,1.1,2.4,2.4s-1.1,2.4-2.4,2.4"/>
					<path class="st3" d="M22.6,54.7c-1.3,0-2.4-1.1-2.4-2.4s1.1-2.4,2.4-2.4"/>
					<circle class="st4" cx="22.6" cy="52.3" r="1.2"/>
				</g>
				<g id="J6pin">
					<path class="st2" d="M15.4,49.9c1.3,0,2.4,1.1,2.4,2.4s-1.1,2.4-2.4,2.4"/>
					<path class="st3" d="M15.4,54.7c-1.3,0-2.4-1.1-2.4-2.4s1.1-2.4,2.4-2.4l0,0"/>
					<circle class="st4" cx="15.4" cy="52.3" r="1.2"/>
				</g>
				<g id="F7pin">
					<path class="st2" d="M44.2,57.1c1.3,0,2.4,1.1,2.4,2.4c0,1.3-1.1,2.4-2.4,2.4"/>
					<path class="st3" d="M44.2,61.9c-1.3,0-2.4-1.1-2.4-2.4s1.1-2.4,2.4-2.4"/>
					<circle class="st4" cx="44.2" cy="59.5" r="1.2"/>
				</g>
				<g id="G7pin">
					<path class="st2" d="M37,57.1c1.3,0,2.4,1.1,2.4,2.4c0,1.3-1.1,2.4-2.4,2.4"/>
					<path class="st3" d="M37,61.9c-1.3,0-2.4-1.1-2.4-2.4s1.1-2.4,2.4-2.4"/>
					<circle class="st4" cx="37" cy="59.5" r="1.2"/>
				</g>
				<g id="H7pin">
					<path class="st2" d="M29.8,57.1c1.3,0,2.4,1.1,2.4,2.4c0,1.3-1.1,2.4-2.4,2.4"/>
					<path class="st3" d="M29.8,61.9c-1.3,0-2.4-1.1-2.4-2.4s1.1-2.4,2.4-2.4l0,0"/>
					<circle class="st4" cx="29.8" cy="59.5" r="1.2"/>
				</g>
				<g id="I7pin">
					<path class="st2" d="M22.6,57.1c1.3,0,2.4,1.1,2.4,2.4c0,1.3-1.1,2.4-2.4,2.4"/>
					<path class="st3" d="M22.6,61.9c-1.3,0-2.4-1.1-2.4-2.4s1.1-2.4,2.4-2.4"/>
					<circle class="st4" cx="22.6" cy="59.5" r="1.2"/>
				</g>
				<g id="J7pin">
					<path class="st2" d="M15.4,57.1c1.3,0,2.4,1.1,2.4,2.4c0,1.3-1.1,2.4-2.4,2.4"/>
					<path class="st3" d="M15.4,61.9c-1.3,0-2.4-1.1-2.4-2.4s1.1-2.4,2.4-2.4l0,0"/>
					<circle class="st4" cx="15.4" cy="59.5" r="1.2"/>
				</g>
				<g id="F8pin">
					<path class="st2" d="M44.2,64.3c1.3,0,2.4,1.1,2.4,2.4c0,1.3-1.1,2.4-2.4,2.4"/>
					<path class="st3" d="M44.2,69.1c-1.3,0-2.4-1.1-2.4-2.4c0-1.3,1.1-2.4,2.4-2.4"/>
					<circle class="st4" cx="44.2" cy="66.7" r="1.2"/>
				</g>
				<g id="G8pin">
					<path class="st2" d="M37,64.3c1.3,0,2.4,1.1,2.4,2.4c0,1.3-1.1,2.4-2.4,2.4"/>
					<path class="st3" d="M37,69.1c-1.3,0-2.4-1.1-2.4-2.4c0-1.3,1.1-2.4,2.4-2.4"/>
					<circle class="st4" cx="37" cy="66.7" r="1.2"/>
				</g>
				<g id="H8pin">
					<path class="st2" d="M29.8,64.3c1.3,0,2.4,1.1,2.4,2.4c0,1.3-1.1,2.4-2.4,2.4"/>
					<path class="st3" d="M29.8,69.1c-1.3,0-2.4-1.1-2.4-2.4c0-1.3,1.1-2.4,2.4-2.4l0,0"/>
					<circle class="st4" cx="29.8" cy="66.7" r="1.2"/>
				</g>
				<g id="I8pin">
					<path class="st2" d="M22.6,64.3c1.3,0,2.4,1.1,2.4,2.4c0,1.3-1.1,2.4-2.4,2.4"/>
					<path class="st3" d="M22.6,69.1c-1.3,0-2.4-1.1-2.4-2.4c0-1.3,1.1-2.4,2.4-2.4"/>
					<circle class="st4" cx="22.6" cy="66.7" r="1.2"/>
				</g>
				<g id="J8pin">
					<path class="st2" d="M15.4,64.3c1.3,0,2.4,1.1,2.4,2.4c0,1.3-1.1,2.4-2.4,2.4"/>
					<path class="st3" d="M15.4,69.1C14,69.1,13,68,13,66.7c0-1.3,1.1-2.4,2.4-2.4l0,0"/>
					<circle class="st4" cx="15.4" cy="66.7" r="1.2"/>
				</g>
				<g id="F9pin">
					<path class="st2" d="M44.2,71.5c1.3,0,2.4,1.1,2.4,2.4c0,1.3-1.1,2.4-2.4,2.4"/>
					<path class="st3" d="M44.2,76.3c-1.3,0-2.4-1.1-2.4-2.4c0-1.3,1.1-2.4,2.4-2.4"/>
					<circle class="st4" cx="44.2" cy="73.9" r="1.2"/>
				</g>
				<g id="G9pin">
					<path class="st2" d="M37,71.5c1.3,0,2.4,1.1,2.4,2.4c0,1.3-1.1,2.4-2.4,2.4"/>
					<path class="st3" d="M37,76.3c-1.3,0-2.4-1.1-2.4-2.4c0-1.3,1.1-2.4,2.4-2.4"/>
					<circle class="st4" cx="37" cy="73.9" r="1.2"/>
				</g>
				<g id="H9pin">
					<path class="st2" d="M29.8,71.5c1.3,0,2.4,1.1,2.4,2.4c0,1.3-1.1,2.4-2.4,2.4"/>
					<path class="st3" d="M29.8,76.3c-1.3,0-2.4-1.1-2.4-2.4c0-1.3,1.1-2.4,2.4-2.4l0,0"/>
					<circle class="st4" cx="29.8" cy="73.9" r="1.2"/>
				</g>
				<g id="I9pin">
					<path class="st2" d="M22.6,71.5c1.3,0,2.4,1.1,2.4,2.4c0,1.3-1.1,2.4-2.4,2.4"/>
					<path class="st3" d="M22.6,76.3c-1.3,0-2.4-1.1-2.4-2.4c0-1.3,1.1-2.4,2.4-2.4"/>
					<circle class="st4" cx="22.6" cy="73.9" r="1.2"/>
				</g>
				<g id="J9pin">
					<path class="st2" d="M15.4,71.5c1.3,0,2.4,1.1,2.4,2.4c0,1.3-1.1,2.4-2.4,2.4"/>
					<path class="st3" d="M15.4,76.3c-1.3,0-2.4-1.1-2.4-2.4c0-1.3,1.1-2.4,2.4-2.4l0,0"/>
					<circle class="st4" cx="15.4" cy="73.9" r="1.2"/>
				</g>
				<g id="F10pin">
					<path class="st2" d="M44.2,78.7c1.3,0,2.4,1.1,2.4,2.4c0,1.3-1.1,2.4-2.4,2.4"/>
					<path class="st3" d="M44.2,83.5c-1.3,0-2.4-1.1-2.4-2.4s1.1-2.4,2.4-2.4"/>
					<circle class="st4" cx="44.2" cy="81.1" r="1.2"/>
				</g>
				<g id="G10pin">
					<path class="st2" d="M37,78.7c1.3,0,2.4,1.1,2.4,2.4c0,1.3-1.1,2.4-2.4,2.4"/>
					<path class="st3" d="M37,83.5c-1.3,0-2.4-1.1-2.4-2.4s1.1-2.4,2.4-2.4"/>
					<circle class="st4" cx="37" cy="81.1" r="1.2"/>
				</g>
				<g id="H10pin">
					<path class="st2" d="M29.8,78.7c1.3,0,2.4,1.1,2.4,2.4c0,1.3-1.1,2.4-2.4,2.4"/>
					<path class="st3" d="M29.8,83.5c-1.3,0-2.4-1.1-2.4-2.4s1.1-2.4,2.4-2.4l0,0"/>
					<circle class="st4" cx="29.8" cy="81.1" r="1.2"/>
				</g>
				<g id="I10pin">
					<path class="st2" d="M22.6,78.7c1.3,0,2.4,1.1,2.4,2.4c0,1.3-1.1,2.4-2.4,2.4"/>
					<path class="st3" d="M22.6,83.5c-1.3,0-2.4-1.1-2.4-2.4s1.1-2.4,2.4-2.4"/>
					<circle class="st4" cx="22.6" cy="81.1" r="1.2"/>
				</g>
				<g id="J10pin">
					<path class="st2" d="M15.4,78.7c1.3,0,2.4,1.1,2.4,2.4c0,1.3-1.1,2.4-2.4,2.4"/>
					<path class="st3" d="M15.4,83.5c-1.3,0-2.4-1.1-2.4-2.4s1.1-2.4,2.4-2.4l0,0"/>
					<circle class="st4" cx="15.4" cy="81.1" r="1.2"/>
				</g>
				<g id="F11pin">
					<path class="st2" d="M44.2,85.9c1.3,0,2.4,1.1,2.4,2.4s-1.1,2.4-2.4,2.4"/>
					<path class="st3" d="M44.2,90.7c-1.3,0-2.4-1.1-2.4-2.4s1.1-2.4,2.4-2.4"/>
					<circle class="st4" cx="44.2" cy="88.3" r="1.2"/>
				</g>
				<g id="G11pin">
					<path class="st2" d="M37,85.9c1.3,0,2.4,1.1,2.4,2.4s-1.1,2.4-2.4,2.4"/>
					<path class="st3" d="M37,90.7c-1.3,0-2.4-1.1-2.4-2.4s1.1-2.4,2.4-2.4"/>
					<circle class="st4" cx="37" cy="88.3" r="1.2"/>
				</g>
				<g id="H11pin">
					<path class="st2" d="M29.8,85.9c1.3,0,2.4,1.1,2.4,2.4s-1.1,2.4-2.4,2.4"/>
					<path class="st3" d="M29.8,90.7c-1.3,0-2.4-1.1-2.4-2.4s1.1-2.4,2.4-2.4l0,0"/>
					<circle class="st4" cx="29.8" cy="88.3" r="1.2"/>
				</g>
				<g id="I11pin">
					<path class="st2" d="M22.6,85.9c1.3,0,2.4,1.1,2.4,2.4s-1.1,2.4-2.4,2.4"/>
					<path class="st3" d="M22.6,90.7c-1.3,0-2.4-1.1-2.4-2.4s1.1-2.4,2.4-2.4"/>
					<circle class="st4" cx="22.6" cy="88.3" r="1.2"/>
				</g>
				<g id="J11pin">
					<path class="st2" d="M15.4,85.9c1.3,0,2.4,1.1,2.4,2.4s-1.1,2.4-2.4,2.4"/>
					<path class="st3" d="M15.4,90.7c-1.3,0-2.4-1.1-2.4-2.4s1.1-2.4,2.4-2.4l0,0"/>
					<circle class="st4" cx="15.4" cy="88.3" r="1.2"/>
				</g>
				<g id="F12pin">
					<path class="st2" d="M44.2,93.1c1.3,0,2.4,1.1,2.4,2.4c0,1.3-1.1,2.4-2.4,2.4"/>
					<path class="st3" d="M44.2,97.9c-1.3,0-2.4-1.1-2.4-2.4c0-1.3,1.1-2.4,2.4-2.4"/>
					<circle class="st4" cx="44.2" cy="95.5" r="1.2"/>
				</g>
				<g id="G12pin">
					<path class="st2" d="M37,93.1c1.3,0,2.4,1.1,2.4,2.4c0,1.3-1.1,2.4-2.4,2.4"/>
					<path class="st3" d="M37,97.9c-1.3,0-2.4-1.1-2.4-2.4c0-1.3,1.1-2.4,2.4-2.4"/>
					<circle class="st4" cx="37" cy="95.5" r="1.2"/>
				</g>
				<g id="H12pin">
					<path class="st2" d="M29.8,93.1c1.3,0,2.4,1.1,2.4,2.4c0,1.3-1.1,2.4-2.4,2.4"/>
					<path class="st3" d="M29.8,97.9c-1.3,0-2.4-1.1-2.4-2.4c0-1.3,1.1-2.4,2.4-2.4l0,0"/>
					<circle class="st4" cx="29.8" cy="95.5" r="1.2"/>
				</g>
				<g id="I12pin">
					<path class="st2" d="M22.6,93.1c1.3,0,2.4,1.1,2.4,2.4c0,1.3-1.1,2.4-2.4,2.4"/>
					<path class="st3" d="M22.6,97.9c-1.3,0-2.4-1.1-2.4-2.4c0-1.3,1.1-2.4,2.4-2.4"/>
					<circle class="st4" cx="22.6" cy="95.5" r="1.2"/>
				</g>
				<g id="J12pin">
					<path class="st2" d="M15.4,93.1c1.3,0,2.4,1.1,2.4,2.4c0,1.3-1.1,2.4-2.4,2.4"/>
					<path class="st3" d="M15.4,97.9c-1.3,0-2.4-1.1-2.4-2.4c0-1.3,1.1-2.4,2.4-2.4l0,0"/>
					<circle class="st4" cx="15.4" cy="95.5" r="1.2"/>
				</g>
				<g id="F13pin">
					<path class="st2" d="M44.2,100.3c1.3,0,2.4,1.1,2.4,2.4c0,1.3-1.1,2.4-2.4,2.4"/>
					<path class="st3" d="M44.2,105.1c-1.3,0-2.4-1.1-2.4-2.4s1.1-2.4,2.4-2.4"/>
					<circle class="st4" cx="44.2" cy="102.7" r="1.2"/>
				</g>
				<g id="G13pin">
					<path class="st2" d="M37,100.3c1.3,0,2.4,1.1,2.4,2.4c0,1.3-1.1,2.4-2.4,2.4"/>
					<path class="st3" d="M37,105.1c-1.3,0-2.4-1.1-2.4-2.4s1.1-2.4,2.4-2.4"/>
					<circle class="st4" cx="37" cy="102.7" r="1.2"/>
				</g>
				<g id="H13pin">
					<path class="st2" d="M29.8,100.3c1.3,0,2.4,1.1,2.4,2.4c0,1.3-1.1,2.4-2.4,2.4"/>
					<path class="st3" d="M29.8,105.1c-1.3,0-2.4-1.1-2.4-2.4s1.1-2.4,2.4-2.4l0,0"/>
					<circle class="st4" cx="29.8" cy="102.7" r="1.2"/>
				</g>
				<g id="I13pin">
					<path class="st2" d="M22.6,100.3c1.3,0,2.4,1.1,2.4,2.4c0,1.3-1.1,2.4-2.4,2.4"/>
					<path class="st3" d="M22.6,105.1c-1.3,0-2.4-1.1-2.4-2.4s1.1-2.4,2.4-2.4"/>
					<circle class="st4" cx="22.6" cy="102.7" r="1.2"/>
				</g>
				<g id="J13pin">
					<path class="st2" d="M15.4,100.3c1.3,0,2.4,1.1,2.4,2.4c0,1.3-1.1,2.4-2.4,2.4"/>
					<path class="st3" d="M15.4,105.1c-1.3,0-2.4-1.1-2.4-2.4s1.1-2.4,2.4-2.4l0,0"/>
					<circle class="st4" cx="15.4" cy="102.7" r="1.2"/>
				</g>
				<g id="F14pin">
					<path class="st2" d="M44.2,107.5c1.3,0,2.4,1.1,2.4,2.4c0,1.3-1.1,2.4-2.4,2.4"/>
					<path class="st3" d="M44.2,112.3c-1.3,0-2.4-1.1-2.4-2.4c0-1.3,1.1-2.4,2.4-2.4"/>
					<circle class="st4" cx="44.2" cy="109.9" r="1.2"/>
				</g>
				<g id="G14pin">
					<path class="st2" d="M37,107.5c1.3,0,2.4,1.1,2.4,2.4c0,1.3-1.1,2.4-2.4,2.4"/>
					<path class="st3" d="M37,112.3c-1.3,0-2.4-1.1-2.4-2.4c0-1.3,1.1-2.4,2.4-2.4"/>
					<circle class="st4" cx="37" cy="109.9" r="1.2"/>
				</g>
				<g id="H14pin">
					<path class="st2" d="M29.8,107.5c1.3,0,2.4,1.1,2.4,2.4c0,1.3-1.1,2.4-2.4,2.4"/>
					<path class="st3" d="M29.8,112.3c-1.3,0-2.4-1.1-2.4-2.4c0-1.3,1.1-2.4,2.4-2.4l0,0"/>
					<circle class="st4" cx="29.8" cy="109.9" r="1.2"/>
				</g>
				<g id="I14pin">
					<path class="st2" d="M22.6,107.5c1.3,0,2.4,1.1,2.4,2.4c0,1.3-1.1,2.4-2.4,2.4"/>
					<path class="st3" d="M22.6,112.3c-1.3,0-2.4-1.1-2.4-2.4c0-1.3,1.1-2.4,2.4-2.4"/>
					<circle class="st4" cx="22.6" cy="109.9" r="1.2"/>
				</g>
				<g id="J14pin">
					<path class="st2" d="M15.4,107.5c1.3,0,2.4,1.1,2.4,2.4c0,1.3-1.1,2.4-2.4,2.4"/>
					<path class="st3" d="M15.4,112.3c-1.3,0-2.4-1.1-2.4-2.4c0-1.3,1.1-2.4,2.4-2.4l0,0"/>
					<circle class="st4" cx="15.4" cy="109.9" r="1.2"/>
				</g>
				<g id="F15pin">
					<path class="st2" d="M44.2,114.7c1.3,0,2.4,1.1,2.4,2.4c0,1.3-1.1,2.4-2.4,2.4"/>
					<path class="st3" d="M44.2,119.5c-1.3,0-2.4-1.1-2.4-2.4c0-1.3,1.1-2.4,2.4-2.4c0,0,0,0,0,0"/>
					<circle class="st4" cx="44.2" cy="117.1" r="1.2"/>
				</g>
				<g id="G15pin">
					<path class="st2" d="M37,114.7c1.3,0,2.4,1.1,2.4,2.4c0,1.3-1.1,2.4-2.4,2.4"/>
					<path class="st3" d="M37,119.5c-1.3,0-2.4-1.1-2.4-2.4c0-1.3,1.1-2.4,2.4-2.4c0,0,0,0,0,0"/>
					<circle class="st4" cx="37" cy="117.1" r="1.2"/>
				</g>
				<g id="H15pin">
					<path class="st2" d="M29.8,114.7c1.3,0,2.4,1.1,2.4,2.4c0,1.3-1.1,2.4-2.4,2.4"/>
					<path class="st3" d="M29.8,119.5c-1.3,0-2.4-1.1-2.4-2.4c0-1.3,1.1-2.4,2.4-2.4c0,0,0,0,0,0"/>
					<circle class="st4" cx="29.8" cy="117.1" r="1.2"/>
				</g>
				<g id="I15pin">
					<path class="st2" d="M22.6,114.7c1.3,0,2.4,1.1,2.4,2.4c0,1.3-1.1,2.4-2.4,2.4"/>
					<path class="st3" d="M22.6,119.5c-1.3,0-2.4-1.1-2.4-2.4c0-1.3,1.1-2.4,2.4-2.4c0,0,0,0,0,0"/>
					<circle class="st4" cx="22.6" cy="117.1" r="1.2"/>
				</g>
				<g id="J15pin">
					<path class="st2" d="M15.4,114.7c1.3,0,2.4,1.1,2.4,2.4c0,1.3-1.1,2.4-2.4,2.4"/>
					<path class="st3" d="M15.4,119.5c-1.3,0-2.4-1.1-2.4-2.4c0-1.3,1.1-2.4,2.4-2.4c0,0,0,0,0,0"/>
					<circle class="st4" cx="15.4" cy="117.1" r="1.2"/>
				</g>
				<g id="F16pin">
					<path class="st2" d="M44.2,121.9c1.3,0,2.4,1.1,2.4,2.4c0,1.3-1.1,2.4-2.4,2.4"/>
					<path class="st3" d="M44.2,126.7c-1.3,0-2.4-1.1-2.4-2.4c0-1.3,1.1-2.4,2.4-2.4c0,0,0,0,0,0"/>
					<circle class="st4" cx="44.2" cy="124.3" r="1.2"/>
				</g>
				<g id="G16pin">
					<path class="st2" d="M37,121.9c1.3,0,2.4,1.1,2.4,2.4c0,1.3-1.1,2.4-2.4,2.4"/>
					<path class="st3" d="M37,126.7c-1.3,0-2.4-1.1-2.4-2.4c0-1.3,1.1-2.4,2.4-2.4c0,0,0,0,0,0"/>
					<circle class="st4" cx="37" cy="124.3" r="1.2"/>
				</g>
				<g id="H16pin">
					<path class="st2" d="M29.8,121.9c1.3,0,2.4,1.1,2.4,2.4c0,1.3-1.1,2.4-2.4,2.4"/>
					<path class="st3" d="M29.8,126.7c-1.3,0-2.4-1.1-2.4-2.4c0-1.3,1.1-2.4,2.4-2.4c0,0,0,0,0,0"/>
					<circle class="st4" cx="29.8" cy="124.3" r="1.2"/>
				</g>
				<g id="I16pin">
					<path class="st2" d="M22.6,121.9c1.3,0,2.4,1.1,2.4,2.4c0,1.3-1.1,2.4-2.4,2.4"/>
					<path class="st3" d="M22.6,126.7c-1.3,0-2.4-1.1-2.4-2.4s1.1-2.4,2.4-2.4c0,0,0,0,0,0"/>
					<circle class="st4" cx="22.6" cy="124.3" r="1.2"/>
				</g>
				<g id="J16pin">
					<path class="st2" d="M15.4,121.9c1.3,0,2.4,1.1,2.4,2.4c0,1.3-1.1,2.4-2.4,2.4"/>
					<path class="st3" d="M15.4,126.7c-1.3,0-2.4-1.1-2.4-2.4s1.1-2.4,2.4-2.4c0,0,0,0,0,0"/>
					<circle class="st4" cx="15.4" cy="124.3" r="1.2"/>
				</g>
				<g id="F17pin">
					<path class="st2" d="M44.2,129.1c1.3,0,2.4,1.1,2.4,2.4c0,1.3-1.1,2.4-2.4,2.4"/>
					<path class="st3" d="M44.2,133.9c-1.3,0-2.4-1.1-2.4-2.4c0-1.3,1.1-2.4,2.4-2.4c0,0,0,0,0,0"/>
					<circle class="st4" cx="44.2" cy="131.5" r="1.2"/>
				</g>
				<g id="G17pin">
					<path class="st2" d="M37,129.1c1.3,0,2.4,1.1,2.4,2.4c0,1.3-1.1,2.4-2.4,2.4"/>
					<path class="st3" d="M37,133.9c-1.3,0-2.4-1.1-2.4-2.4c0-1.3,1.1-2.4,2.4-2.4c0,0,0,0,0,0"/>
					<circle class="st4" cx="37" cy="131.5" r="1.2"/>
				</g>
				<g id="H17pin">
					<path class="st2" d="M29.8,129.1c1.3,0,2.4,1.1,2.4,2.4c0,1.3-1.1,2.4-2.4,2.4"/>
					<path class="st3" d="M29.8,133.9c-1.3,0-2.4-1.1-2.4-2.4c0-1.3,1.1-2.4,2.4-2.4c0,0,0,0,0,0"/>
					<circle class="st4" cx="29.8" cy="131.5" r="1.2"/>
				</g>
				<g id="I17pin">
					<path class="st2" d="M22.6,129.1c1.3,0,2.4,1.1,2.4,2.4c0,1.3-1.1,2.4-2.4,2.4"/>
					<path class="st3" d="M22.6,133.9c-1.3,0-2.4-1.1-2.4-2.4c0-1.3,1.1-2.4,2.4-2.4c0,0,0,0,0,0"/>
					<circle class="st4" cx="22.6" cy="131.5" r="1.2"/>
				</g>
				<g id="J17pin">
					<path class="st2" d="M15.4,129.1c1.3,0,2.4,1.1,2.4,2.4c0,1.3-1.1,2.4-2.4,2.4"/>
					<path class="st3" d="M15.4,133.9c-1.3,0-2.4-1.1-2.4-2.4c0-1.3,1.1-2.4,2.4-2.4c0,0,0,0,0,0"/>
					<circle class="st4" cx="15.4" cy="131.5" r="1.2"/>
				</g>
			</g>
		</g>
	</g>
</g>
</svg>
