<?xml version='1.0' encoding='UTF-8' standalone='no'?>
<!-- Created with Fritzing (http://www.fritzing.org/) -->
<svg xmlns:svg='http://www.w3.org/2000/svg' xmlns='http://www.w3.org/2000/svg' version='1.2' baseProfile='tiny' x='0in' y='0in' width='2.20333in' height='1.5in' viewBox='0 0 158.64 108' >
<g partID='854521640'><g  id="breadboardbreadboard">
 <g  id="background">
  <rect  width="158.64" height="108" fill="#D9D9D9"/>
 </g>
 <rect  width="158.64" height="7.25" y="50.375" fill="#CCC9C9"/>
 <g  id="text">
  <g transform="matrix(1, 0, 0, 1, 10.0596, 9.3945)">
   <text  font-family="'DroidSans'" font-size="4.6036" fill="#B3B0B0">1</text>
  </g>
  <g transform="matrix(1, 0, 0, 1, 38.7144, 9.3945)">
   <text  font-family="'DroidSans'" font-size="4.6036" fill="#B3B0B0">5</text>
  </g>
  <g transform="matrix(1, 0, 0, 1, 73.1099, 9.3945)">
   <text  font-family="'DroidSans'" font-size="4.6036" fill="#B3B0B0">10</text>
  </g>
  <g transform="matrix(1, 0, 0, 1, 109.119, 9.3945)">
   <text  font-family="'DroidSans'" font-size="4.6036" fill="#B3B0B0">15</text>
  </g>
  <g transform="matrix(1, 0, 0, 1, 145.296, 9.3945)">
   <text  font-family="'DroidSans'" font-size="4.6036" fill="#B3B0B0">20</text>
  </g>
  <g transform="matrix(1, 0, 0, 1, 10.0596, 100.795)">
   <text  font-family="'DroidSans'" font-size="4.6036" fill="#B3B0B0">1</text>
  </g>
  <g transform="matrix(1, 0, 0, 1, 38.7144, 100.795)">
   <text  font-family="'DroidSans'" font-size="4.6036" fill="#B3B0B0">5</text>
  </g>
  <g transform="matrix(1, 0, 0, 1, 73.1099, 100.795)">
   <text  font-family="'DroidSans'" font-size="4.6036" fill="#B3B0B0">10</text>
  </g>
  <g transform="matrix(1, 0, 0, 1, 109.119, 100.795)">
   <text  font-family="'DroidSans'" font-size="4.6036" fill="#B3B0B0">15</text>
  </g>
  <g transform="matrix(1, 0, 0, 1, 145.296, 100.795)">
   <text  font-family="'DroidSans'" font-size="4.6036" fill="#B3B0B0">20</text>
  </g>
  <g transform="matrix(1, 0, 0, 1, 3.2612, 15.6143)">
   <text  font-family="'DroidSans'" font-size="4.6036" fill="#B3B0B0">A</text>
  </g>
  <g transform="matrix(1, 0, 0, 1, 3.2612, 22.8672)">
   <text  font-family="'DroidSans'" font-size="4.6036" fill="#B3B0B0">B</text>
  </g>
  <g transform="matrix(1, 0, 0, 1, 3.3052, 30.1187)">
   <text  font-family="'DroidSans'" font-size="4.6036" fill="#B3B0B0">C</text>
  </g>
  <g transform="matrix(1, 0, 0, 1, 3.2197, 37.3696)">
   <text  font-family="'DroidSans'" font-size="4.6036" fill="#B3B0B0">D</text>
  </g>
  <g transform="matrix(1, 0, 0, 1, 3.4341, 44.6211)">
   <text  font-family="'DroidSans'" font-size="4.6036" fill="#B3B0B0">E</text>
  </g>
  <g transform="matrix(1, 0, 0, 1, 3.4756, 66.377)">
   <text  font-family="'DroidSans'" font-size="4.6036" fill="#B3B0B0">F</text>
  </g>
  <g transform="matrix(1, 0, 0, 1, 3.2612, 73.627)">
   <text  font-family="'DroidSans'" font-size="4.6036" fill="#B3B0B0">G</text>
  </g>
  <g transform="matrix(1, 0, 0, 1, 3.2612, 80.8789)">
   <text  font-family="'DroidSans'" font-size="4.6036" fill="#B3B0B0">H</text>
  </g>
  <g transform="matrix(1, 0, 0, 1, 3.9473, 88.1318)">
   <text  font-family="'DroidSans'" font-size="4.6036" fill="#B3B0B0">I</text>
  </g>
  <g transform="matrix(1, 0, 0, 1, 3.4756, 95.3828)">
   <text  font-family="'DroidSans'" font-size="4.6036" fill="#B3B0B0">J</text>
  </g>
 </g>
 <g  id="sockets">
  <g  id="A1pin">
   <path  d="M8.526,14.4c0,-1.322,1.072,-2.394,2.394,-2.394s2.394,1.072,2.394,2.394" fill="#BFBFBF"/>
   <path  d="M13.313,14.4c0,1.322,-1.072,2.394,-2.394,2.394S8.526,15.722,8.526,14.4" fill="#E6E6E6"/>
   <circle  cx="10.92" cy="14.4" r="1.197" fill="#383838"/>
  </g>
  <g  id="B1pin">
   <path  d="M8.526,21.6c0,-1.322,1.072,-2.394,2.394,-2.394s2.394,1.072,2.394,2.394" fill="#BFBFBF"/>
   <path  d="M13.313,21.6c0,1.322,-1.072,2.394,-2.394,2.394S8.526,22.922,8.526,21.6l0,0" fill="#E6E6E6"/>
   <circle  cx="10.92" cy="21.6" r="1.197" fill="#383838"/>
  </g>
  <g  id="C1pin">
   <path  d="M8.526,28.8c0,-1.322,1.072,-2.394,2.394,-2.394s2.394,1.072,2.394,2.394" fill="#BFBFBF"/>
   <path  d="M13.313,28.8c0,1.322,-1.072,2.394,-2.394,2.394S8.526,30.122,8.526,28.8" fill="#E6E6E6"/>
   <circle  cx="10.92" cy="28.8" r="1.197" fill="#383838"/>
  </g>
  <g  id="D1pin">
   <path  d="M8.526,36c0,-1.322,1.072,-2.394,2.394,-2.394s2.394,1.072,2.394,2.394" fill="#BFBFBF"/>
   <path  d="M13.313,36c0,1.322,-1.072,2.394,-2.394,2.394S8.526,37.322,8.526,36l0,0" fill="#E6E6E6"/>
   <circle  cx="10.92" cy="36" r="1.197" fill="#383838"/>
  </g>
  <g  id="E1pin">
   <path  d="M8.526,43.2c0,-1.322,1.072,-2.394,2.394,-2.394s2.394,1.071,2.394,2.394" fill="#BFBFBF"/>
   <path  d="M13.313,43.2c0,1.322,-1.072,2.394,-2.394,2.394S8.526,44.522,8.526,43.2l0,0" fill="#E6E6E6"/>
   <circle  cx="10.92" cy="43.2" r="1.197" fill="#383838"/>
  </g>
  <g  id="A2pin">
   <path  d="M15.727,14.4c0,-1.322,1.071,-2.394,2.394,-2.394c1.322,0,2.394,1.072,2.394,2.394" fill="#BFBFBF"/>
   <path  d="M20.514,14.4c0,1.322,-1.07,2.395,-2.393,2.395c-1.322,0.001,-2.394,-1.07,-2.395,-2.392c0,-0.001,0,-0.002,0,-0.003" fill="#E6E6E6"/>
   <circle  cx="18.12" cy="14.4" r="1.197" fill="#383838"/>
  </g>
  <g  id="B2pin">
   <path  d="M15.727,21.6c0,-1.322,1.071,-2.394,2.394,-2.394c1.322,0,2.394,1.072,2.394,2.394" fill="#BFBFBF"/>
   <path  d="M20.514,21.6c0,1.322,-1.07,2.394,-2.393,2.395c-1.322,0,-2.394,-1.07,-2.395,-2.393c0,-0.001,0,-0.001,0,-0.002" fill="#E6E6E6"/>
   <circle  cx="18.12" cy="21.6" r="1.197" fill="#383838"/>
  </g>
  <g  id="C2pin">
   <path  d="M15.727,28.8c0,-1.322,1.071,-2.394,2.394,-2.394c1.322,0,2.394,1.072,2.394,2.394" fill="#BFBFBF"/>
   <path  d="M20.514,28.8c0,1.322,-1.07,2.395,-2.393,2.395c-1.322,0.001,-2.394,-1.07,-2.395,-2.392c0,-0.001,0,-0.002,0,-0.003" fill="#E6E6E6"/>
   <circle  cx="18.12" cy="28.8" r="1.197" fill="#383838"/>
  </g>
  <g  id="D2pin">
   <path  d="M15.727,36c0,-1.322,1.071,-2.394,2.394,-2.394c1.322,0,2.394,1.072,2.394,2.394" fill="#BFBFBF"/>
   <path  d="M20.514,36c0,1.322,-1.07,2.394,-2.393,2.395c-1.322,0,-2.394,-1.07,-2.395,-2.392c0,-0.001,0,-0.002,0,-0.003" fill="#E6E6E6"/>
   <circle  cx="18.12" cy="36" r="1.197" fill="#383838"/>
  </g>
  <g  id="E2pin">
   <path  d="M15.727,43.2c0,-1.322,1.071,-2.394,2.394,-2.394c1.322,0,2.394,1.071,2.394,2.394" fill="#BFBFBF"/>
   <path  d="M20.514,43.2c0,1.322,-1.07,2.394,-2.393,2.395c-1.322,0.001,-2.394,-1.07,-2.395,-2.392c0,-0.001,0,-0.002,0,-0.002" fill="#E6E6E6"/>
   <circle  cx="18.12" cy="43.2" r="1.197" fill="#383838"/>
  </g>
  <g  id="A3pin">
   <path  d="M22.926,14.4c0,-1.322,1.072,-2.394,2.394,-2.394c1.322,0,2.394,1.072,2.394,2.394" fill="#BFBFBF"/>
   <path  d="M27.713,14.4c0,1.322,-1.071,2.394,-2.394,2.394c-1.322,0,-2.394,-1.071,-2.394,-2.394l0,0" fill="#E6E6E6"/>
   <circle  cx="25.32" cy="14.4" r="1.197" fill="#383838"/>
  </g>
  <g  id="B3pin">
   <path  d="M22.926,21.6c0,-1.322,1.072,-2.394,2.394,-2.394c1.322,0,2.394,1.072,2.394,2.394" fill="#BFBFBF"/>
   <path  d="M27.713,21.6c0,1.322,-1.071,2.394,-2.394,2.394c-1.322,0,-2.394,-1.072,-2.394,-2.394" fill="#E6E6E6"/>
   <circle  cx="25.32" cy="21.6" r="1.197" fill="#383838"/>
  </g>
  <g  id="C3pin">
   <path  d="M22.926,28.8c0,-1.322,1.072,-2.394,2.394,-2.394c1.322,0,2.394,1.072,2.394,2.394" fill="#BFBFBF"/>
   <path  d="M27.713,28.8c0,1.322,-1.071,2.394,-2.394,2.394c-1.322,0,-2.394,-1.071,-2.394,-2.394l0,0" fill="#E6E6E6"/>
   <circle  cx="25.32" cy="28.8" r="1.197" fill="#383838"/>
  </g>
  <g  id="D3pin">
   <path  d="M22.926,36c0,-1.322,1.072,-2.394,2.394,-2.394c1.322,0,2.394,1.072,2.394,2.394" fill="#BFBFBF"/>
   <path  d="M27.713,36c0,1.322,-1.071,2.394,-2.394,2.394c-1.322,0,-2.394,-1.072,-2.394,-2.394" fill="#E6E6E6"/>
   <circle  cx="25.32" cy="36" r="1.197" fill="#383838"/>
  </g>
  <g  id="E3pin">
   <path  d="M22.926,43.2c0,-1.322,1.072,-2.394,2.394,-2.394c1.322,0,2.394,1.071,2.394,2.394" fill="#BFBFBF"/>
   <path  d="M27.713,43.2c0,1.322,-1.071,2.394,-2.394,2.394c-1.322,0,-2.394,-1.072,-2.394,-2.394" fill="#E6E6E6"/>
   <circle  cx="25.32" cy="43.2" r="1.197" fill="#383838"/>
  </g>
  <g  id="A4pin">
   <path  d="M30.126,14.4c0,-1.322,1.072,-2.394,2.394,-2.394s2.394,1.072,2.394,2.394" fill="#BFBFBF"/>
   <path  d="M34.914,14.4c0,1.322,-1.072,2.394,-2.394,2.394s-2.394,-1.071,-2.394,-2.394l0,0" fill="#E6E6E6"/>
   <circle  cx="32.52" cy="14.4" r="1.197" fill="#383838"/>
  </g>
  <g  id="B4pin">
   <path  d="M30.126,21.6c0,-1.322,1.072,-2.394,2.394,-2.394s2.394,1.072,2.394,2.394" fill="#BFBFBF"/>
   <path  d="M34.914,21.6c0,1.322,-1.072,2.394,-2.394,2.394s-2.394,-1.072,-2.394,-2.394" fill="#E6E6E6"/>
   <circle  cx="32.52" cy="21.6" r="1.197" fill="#383838"/>
  </g>
  <g  id="C4pin">
   <path  d="M30.126,28.8c0,-1.322,1.072,-2.394,2.394,-2.394s2.394,1.072,2.394,2.394" fill="#BFBFBF"/>
   <path  d="M34.914,28.8c0,1.322,-1.072,2.394,-2.394,2.394s-2.394,-1.071,-2.394,-2.394l0,0" fill="#E6E6E6"/>
   <circle  cx="32.52" cy="28.8" r="1.197" fill="#383838"/>
  </g>
  <g  id="D4pin">
   <path  d="M30.126,36c0,-1.322,1.072,-2.394,2.394,-2.394s2.394,1.072,2.394,2.394" fill="#BFBFBF"/>
   <path  d="M34.914,36c0,1.322,-1.072,2.394,-2.394,2.394S30.126,37.322,30.126,36" fill="#E6E6E6"/>
   <circle  cx="32.52" cy="36" r="1.197" fill="#383838"/>
  </g>
  <g  id="E4pin">
   <path  d="M30.126,43.2c0,-1.322,1.072,-2.394,2.394,-2.394s2.394,1.071,2.394,2.394" fill="#BFBFBF"/>
   <path  d="M34.914,43.2c0,1.322,-1.072,2.394,-2.394,2.394s-2.394,-1.072,-2.394,-2.394" fill="#E6E6E6"/>
   <circle  cx="32.52" cy="43.2" r="1.197" fill="#383838"/>
  </g>
  <g  id="A5pin">
   <path  d="M37.326,14.4c0,-1.322,1.072,-2.394,2.394,-2.394c1.322,0,2.394,1.072,2.394,2.394" fill="#BFBFBF"/>
   <path  d="M42.114,14.4c0,1.322,-1.072,2.394,-2.394,2.394c-1.322,0,-2.394,-1.071,-2.394,-2.394l0,0" fill="#E6E6E6"/>
   <circle  cx="39.72" cy="14.4" r="1.197" fill="#383838"/>
  </g>
  <g  id="B5pin">
   <path  d="M37.326,21.6c0,-1.322,1.072,-2.394,2.394,-2.394c1.322,0,2.394,1.072,2.394,2.394" fill="#BFBFBF"/>
   <path  d="M42.114,21.6c0,1.322,-1.072,2.394,-2.394,2.394c-1.322,0,-2.394,-1.072,-2.394,-2.394" fill="#E6E6E6"/>
   <circle  cx="39.72" cy="21.6" r="1.197" fill="#383838"/>
  </g>
  <g  id="C5pin">
   <path  d="M37.326,28.8c0,-1.322,1.072,-2.394,2.394,-2.394c1.322,0,2.394,1.072,2.394,2.394" fill="#BFBFBF"/>
   <path  d="M42.114,28.8c0,1.322,-1.072,2.394,-2.394,2.394c-1.322,0,-2.394,-1.071,-2.394,-2.394l0,0" fill="#E6E6E6"/>
   <circle  cx="39.72" cy="28.8" r="1.197" fill="#383838"/>
  </g>
  <g  id="D5pin">
   <path  d="M37.326,36c0,-1.322,1.072,-2.394,2.394,-2.394c1.322,0,2.394,1.072,2.394,2.394" fill="#BFBFBF"/>
   <path  d="M42.114,36c0,1.322,-1.072,2.394,-2.394,2.394c-1.322,0,-2.394,-1.072,-2.394,-2.394" fill="#E6E6E6"/>
   <circle  cx="39.72" cy="36" r="1.197" fill="#383838"/>
  </g>
  <g  id="E5pin">
   <path  d="M37.326,43.2c0,-1.322,1.072,-2.394,2.394,-2.394c1.322,0,2.394,1.071,2.394,2.394" fill="#BFBFBF"/>
   <path  d="M42.114,43.2c0,1.322,-1.072,2.394,-2.394,2.394c-1.322,0,-2.394,-1.072,-2.394,-2.394" fill="#E6E6E6"/>
   <circle  cx="39.72" cy="43.2" r="1.197" fill="#383838"/>
  </g>
  <g  id="A6pin">
   <path  d="M44.526,14.4c0,-1.322,1.072,-2.394,2.394,-2.394s2.394,1.072,2.394,2.394" fill="#BFBFBF"/>
   <path  d="M49.313,14.4c0,1.322,-1.072,2.394,-2.394,2.394s-2.394,-1.071,-2.394,-2.394l0,0" fill="#E6E6E6"/>
   <circle  cx="46.92" cy="14.4" r="1.197" fill="#383838"/>
  </g>
  <g  id="B6pin">
   <path  d="M44.526,21.6c0,-1.322,1.072,-2.394,2.394,-2.394s2.394,1.072,2.394,2.394" fill="#BFBFBF"/>
   <path  d="M49.313,21.6c0,1.322,-1.072,2.394,-2.394,2.394s-2.394,-1.072,-2.394,-2.394" fill="#E6E6E6"/>
   <circle  cx="46.92" cy="21.6" r="1.197" fill="#383838"/>
  </g>
  <g  id="C6pin">
   <path  d="M44.526,28.8c0,-1.322,1.072,-2.394,2.394,-2.394s2.394,1.072,2.394,2.394" fill="#BFBFBF"/>
   <path  d="M49.313,28.8c0,1.322,-1.072,2.394,-2.394,2.394s-2.394,-1.071,-2.394,-2.394l0,0" fill="#E6E6E6"/>
   <circle  cx="46.92" cy="28.8" r="1.197" fill="#383838"/>
  </g>
  <g  id="D6pin">
   <path  d="M44.526,36c0,-1.322,1.072,-2.394,2.394,-2.394s2.394,1.072,2.394,2.394" fill="#BFBFBF"/>
   <path  d="M49.313,36c0,1.322,-1.072,2.394,-2.394,2.394S44.526,37.322,44.526,36" fill="#E6E6E6"/>
   <circle  cx="46.92" cy="36" r="1.197" fill="#383838"/>
  </g>
  <g  id="E6pin">
   <path  d="M44.526,43.2c0,-1.322,1.072,-2.394,2.394,-2.394s2.394,1.071,2.394,2.394" fill="#BFBFBF"/>
   <path  d="M49.313,43.2c0,1.322,-1.072,2.394,-2.394,2.394s-2.394,-1.072,-2.394,-2.394" fill="#E6E6E6"/>
   <circle  cx="46.92" cy="43.2" r="1.197" fill="#383838"/>
  </g>
  <g  id="A7pin">
   <path  d="M51.727,14.4c0,-1.322,1.071,-2.394,2.394,-2.394c1.322,0,2.394,1.072,2.394,2.394" fill="#BFBFBF"/>
   <path  d="M56.514,14.4c0,1.322,-1.072,2.394,-2.394,2.394c-1.322,0,-2.394,-1.071,-2.394,-2.394l0,0" fill="#E6E6E6"/>
   <circle  cx="54.12" cy="14.4" r="1.197" fill="#383838"/>
  </g>
  <g  id="B7pin">
   <path  d="M51.727,21.6c0,-1.322,1.071,-2.394,2.394,-2.394c1.322,0,2.394,1.072,2.394,2.394" fill="#BFBFBF"/>
   <path  d="M56.514,21.6c0,1.322,-1.072,2.394,-2.394,2.394c-1.322,0,-2.394,-1.072,-2.394,-2.394" fill="#E6E6E6"/>
   <circle  cx="54.12" cy="21.6" r="1.197" fill="#383838"/>
  </g>
  <g  id="C7pin">
   <path  d="M51.727,28.8c0,-1.322,1.071,-2.394,2.394,-2.394c1.322,0,2.394,1.072,2.394,2.394" fill="#BFBFBF"/>
   <path  d="M56.514,28.8c0,1.322,-1.072,2.394,-2.394,2.394c-1.322,0,-2.394,-1.071,-2.394,-2.394l0,0" fill="#E6E6E6"/>
   <circle  cx="54.12" cy="28.8" r="1.197" fill="#383838"/>
  </g>
  <g  id="D7pin">
   <path  d="M51.727,36c0,-1.322,1.071,-2.394,2.394,-2.394c1.322,0,2.394,1.072,2.394,2.394" fill="#BFBFBF"/>
   <path  d="M56.514,36c0,1.322,-1.072,2.394,-2.394,2.394c-1.322,0,-2.394,-1.072,-2.394,-2.394" fill="#E6E6E6"/>
   <circle  cx="54.12" cy="36" r="1.197" fill="#383838"/>
  </g>
  <g  id="E7pin">
   <path  d="M51.727,43.2c0,-1.322,1.071,-2.394,2.394,-2.394c1.322,0,2.394,1.071,2.394,2.394" fill="#BFBFBF"/>
   <path  d="M56.514,43.2c0,1.322,-1.072,2.394,-2.394,2.394c-1.322,0,-2.394,-1.072,-2.394,-2.394" fill="#E6E6E6"/>
   <circle  cx="54.12" cy="43.2" r="1.197" fill="#383838"/>
  </g>
  <g  id="A8pin">
   <path  d="M58.926,14.4c0,-1.322,1.072,-2.394,2.394,-2.394c1.322,0,2.394,1.072,2.394,2.394" fill="#BFBFBF"/>
   <path  d="M63.713,14.4c0,1.322,-1.071,2.394,-2.394,2.394c-1.322,0,-2.394,-1.071,-2.394,-2.394l0,0" fill="#E6E6E6"/>
   <circle  cx="61.32" cy="14.4" r="1.197" fill="#383838"/>
  </g>
  <g  id="B8pin">
   <path  d="M58.926,21.6c0,-1.322,1.072,-2.394,2.394,-2.394c1.322,0,2.394,1.072,2.394,2.394" fill="#BFBFBF"/>
   <path  d="M63.713,21.6c0,1.322,-1.071,2.394,-2.394,2.394c-1.322,0,-2.394,-1.072,-2.394,-2.394" fill="#E6E6E6"/>
   <circle  cx="61.32" cy="21.6" r="1.197" fill="#383838"/>
  </g>
  <g  id="C8pin">
   <path  d="M58.926,28.8c0,-1.322,1.072,-2.394,2.394,-2.394c1.322,0,2.394,1.072,2.394,2.394" fill="#BFBFBF"/>
   <path  d="M63.713,28.8c0,1.322,-1.071,2.394,-2.394,2.394c-1.322,0,-2.394,-1.071,-2.394,-2.394l0,0" fill="#E6E6E6"/>
   <circle  cx="61.32" cy="28.8" r="1.197" fill="#383838"/>
  </g>
  <g  id="D8pin">
   <path  d="M58.926,36c0,-1.322,1.072,-2.394,2.394,-2.394c1.322,0,2.394,1.072,2.394,2.394" fill="#BFBFBF"/>
   <path  d="M63.713,36c0,1.322,-1.071,2.394,-2.394,2.394c-1.322,0,-2.394,-1.072,-2.394,-2.394" fill="#E6E6E6"/>
   <circle  cx="61.32" cy="36" r="1.197" fill="#383838"/>
  </g>
  <g  id="E8pin">
   <path  d="M58.926,43.2c0,-1.322,1.072,-2.394,2.394,-2.394c1.322,0,2.394,1.071,2.394,2.394" fill="#BFBFBF"/>
   <path  d="M63.713,43.2c0,1.322,-1.071,2.394,-2.394,2.394c-1.322,0,-2.394,-1.072,-2.394,-2.394" fill="#E6E6E6"/>
   <circle  cx="61.32" cy="43.2" r="1.197" fill="#383838"/>
  </g>
  <g  id="A9pin">
   <path  d="M66.126,14.4c0,-1.322,1.071,-2.394,2.394,-2.394c1.322,0,2.394,1.072,2.394,2.394" fill="#BFBFBF"/>
   <path  d="M70.914,14.4c0,1.322,-1.072,2.394,-2.394,2.394c-1.322,0,-2.394,-1.071,-2.394,-2.394l0,0" fill="#E6E6E6"/>
   <circle  cx="68.52" cy="14.4" r="1.197" fill="#383838"/>
  </g>
  <g  id="B9pin">
   <path  d="M66.126,21.6c0,-1.322,1.071,-2.394,2.394,-2.394c1.322,0,2.394,1.072,2.394,2.394" fill="#BFBFBF"/>
   <path  d="M70.914,21.6c0,1.322,-1.072,2.394,-2.394,2.394c-1.322,0,-2.394,-1.072,-2.394,-2.394" fill="#E6E6E6"/>
   <circle  cx="68.52" cy="21.6" r="1.197" fill="#383838"/>
  </g>
  <g  id="C9pin">
   <path  d="M66.126,28.8c0,-1.322,1.071,-2.394,2.394,-2.394c1.322,0,2.394,1.072,2.394,2.394" fill="#BFBFBF"/>
   <path  d="M70.914,28.8c0,1.322,-1.072,2.394,-2.394,2.394c-1.322,0,-2.394,-1.071,-2.394,-2.394l0,0" fill="#E6E6E6"/>
   <circle  cx="68.52" cy="28.8" r="1.197" fill="#383838"/>
  </g>
  <g  id="D9pin">
   <path  d="M66.126,36c0,-1.322,1.071,-2.394,2.394,-2.394c1.322,0,2.394,1.072,2.394,2.394" fill="#BFBFBF"/>
   <path  d="M70.914,36c0,1.322,-1.072,2.394,-2.394,2.394c-1.322,0,-2.394,-1.072,-2.394,-2.394" fill="#E6E6E6"/>
   <circle  cx="68.52" cy="36" r="1.197" fill="#383838"/>
  </g>
  <g  id="E9pin">
   <path  d="M66.126,43.2c0,-1.322,1.071,-2.394,2.394,-2.394c1.322,0,2.394,1.071,2.394,2.394" fill="#BFBFBF"/>
   <path  d="M70.914,43.2c0,1.322,-1.072,2.394,-2.394,2.394c-1.322,0,-2.394,-1.072,-2.394,-2.394" fill="#E6E6E6"/>
   <circle  cx="68.52" cy="43.2" r="1.197" fill="#383838"/>
  </g>
  <g  id="A10pin">
   <path  d="M73.326,14.4c0,-1.322,1.072,-2.394,2.394,-2.394c1.322,0,2.394,1.072,2.394,2.394" fill="#BFBFBF"/>
   <path  d="M78.113,14.4c0,1.322,-1.071,2.394,-2.394,2.394c-1.322,0,-2.394,-1.071,-2.394,-2.394l0,0" fill="#E6E6E6"/>
   <circle  cx="75.72" cy="14.4" r="1.197" fill="#383838"/>
  </g>
  <g  id="B10pin">
   <path  d="M73.326,21.6c0,-1.322,1.072,-2.394,2.394,-2.394c1.322,0,2.394,1.072,2.394,2.394" fill="#BFBFBF"/>
   <path  d="M78.113,21.6c0,1.322,-1.071,2.394,-2.394,2.394c-1.322,0,-2.394,-1.072,-2.394,-2.394" fill="#E6E6E6"/>
   <circle  cx="75.72" cy="21.6" r="1.197" fill="#383838"/>
  </g>
  <g  id="C10pin">
   <path  d="M73.326,28.8c0,-1.322,1.072,-2.394,2.394,-2.394c1.322,0,2.394,1.072,2.394,2.394" fill="#BFBFBF"/>
   <path  d="M78.113,28.8c0,1.322,-1.071,2.394,-2.394,2.394c-1.322,0,-2.394,-1.071,-2.394,-2.394l0,0" fill="#E6E6E6"/>
   <circle  cx="75.72" cy="28.8" r="1.197" fill="#383838"/>
  </g>
  <g  id="D10pin">
   <path  d="M73.326,36c0,-1.322,1.072,-2.394,2.394,-2.394c1.322,0,2.394,1.072,2.394,2.394" fill="#BFBFBF"/>
   <path  d="M78.113,36c0,1.322,-1.071,2.394,-2.394,2.394c-1.322,0,-2.394,-1.072,-2.394,-2.394" fill="#E6E6E6"/>
   <circle  cx="75.72" cy="36" r="1.197" fill="#383838"/>
  </g>
  <g  id="E10pin">
   <path  d="M73.326,43.2c0,-1.322,1.072,-2.394,2.394,-2.394c1.322,0,2.394,1.071,2.394,2.394" fill="#BFBFBF"/>
   <path  d="M78.113,43.2c0,1.322,-1.071,2.394,-2.394,2.394c-1.322,0,-2.394,-1.072,-2.394,-2.394" fill="#E6E6E6"/>
   <circle  cx="75.72" cy="43.2" r="1.197" fill="#383838"/>
  </g>
  <g  id="A11pin">
   <path  d="M80.527,14.4c0,-1.322,1.071,-2.394,2.393,-2.394c1.322,0,2.395,1.072,2.395,2.394" fill="#BFBFBF"/>
   <path  d="M85.314,14.4c0,1.322,-1.072,2.394,-2.395,2.394c-1.321,0,-2.393,-1.071,-2.393,-2.394l0,0" fill="#E6E6E6"/>
   <circle  cx="82.919" cy="14.4" r="1.197" fill="#383838"/>
  </g>
  <g  id="B11pin">
   <path  d="M80.527,21.6c0,-1.322,1.071,-2.394,2.393,-2.394c1.322,0,2.395,1.072,2.395,2.394" fill="#BFBFBF"/>
   <path  d="M85.314,21.6c0,1.322,-1.072,2.394,-2.395,2.394c-1.321,0,-2.393,-1.072,-2.393,-2.394" fill="#E6E6E6"/>
   <circle  cx="82.919" cy="21.6" r="1.197" fill="#383838"/>
  </g>
  <g  id="C11pin">
   <path  d="M80.527,28.8c0,-1.322,1.071,-2.394,2.393,-2.394c1.322,0,2.395,1.072,2.395,2.394" fill="#BFBFBF"/>
   <path  d="M85.314,28.8c0,1.322,-1.072,2.394,-2.395,2.394c-1.321,0,-2.393,-1.071,-2.393,-2.394l0,0" fill="#E6E6E6"/>
   <circle  cx="82.919" cy="28.8" r="1.197" fill="#383838"/>
  </g>
  <g  id="D11pin">
   <path  d="M80.527,36c0,-1.322,1.071,-2.394,2.393,-2.394c1.322,0,2.395,1.072,2.395,2.394" fill="#BFBFBF"/>
   <path  d="M85.314,36c0,1.322,-1.072,2.394,-2.395,2.394c-1.321,0,-2.393,-1.072,-2.393,-2.394" fill="#E6E6E6"/>
   <circle  cx="82.919" cy="36" r="1.197" fill="#383838"/>
  </g>
  <g  id="E11pin">
   <path  d="M80.527,43.2c0,-1.322,1.071,-2.394,2.393,-2.394c1.322,0,2.395,1.071,2.395,2.394" fill="#BFBFBF"/>
   <path  d="M85.314,43.2c0,1.322,-1.072,2.394,-2.395,2.394c-1.321,0,-2.393,-1.072,-2.393,-2.394" fill="#E6E6E6"/>
   <circle  cx="82.919" cy="43.2" r="1.197" fill="#383838"/>
  </g>
  <g  id="A12pin">
   <path  d="M87.726,14.4c0,-1.322,1.072,-2.394,2.394,-2.394c1.322,0,2.394,1.072,2.394,2.394" fill="#BFBFBF"/>
   <path  d="M92.513,14.4c0,1.322,-1.071,2.394,-2.394,2.394c-1.321,0,-2.394,-1.071,-2.394,-2.394l0,0" fill="#E6E6E6"/>
   <circle  cx="90.12" cy="14.4" r="1.197" fill="#383838"/>
  </g>
  <g  id="B12pin">
   <path  d="M87.726,21.6c0,-1.322,1.072,-2.394,2.394,-2.394c1.322,0,2.394,1.072,2.394,2.394" fill="#BFBFBF"/>
   <path  d="M92.513,21.6c0,1.322,-1.071,2.394,-2.394,2.394c-1.321,0,-2.394,-1.072,-2.394,-2.394" fill="#E6E6E6"/>
   <circle  cx="90.12" cy="21.6" r="1.197" fill="#383838"/>
  </g>
  <g  id="C12pin">
   <path  d="M87.726,28.8c0,-1.322,1.072,-2.394,2.394,-2.394c1.322,0,2.394,1.072,2.394,2.394" fill="#BFBFBF"/>
   <path  d="M92.513,28.8c0,1.322,-1.071,2.394,-2.394,2.394c-1.321,0,-2.394,-1.071,-2.394,-2.394l0,0" fill="#E6E6E6"/>
   <circle  cx="90.12" cy="28.8" r="1.197" fill="#383838"/>
  </g>
  <g  id="D12pin">
   <path  d="M87.726,36c0,-1.322,1.072,-2.394,2.394,-2.394c1.322,0,2.394,1.072,2.394,2.394" fill="#BFBFBF"/>
   <path  d="M92.513,36c0,1.322,-1.071,2.394,-2.394,2.394c-1.321,0,-2.394,-1.072,-2.394,-2.394" fill="#E6E6E6"/>
   <circle  cx="90.12" cy="36" r="1.197" fill="#383838"/>
  </g>
  <g  id="E12pin">
   <path  d="M87.726,43.2c0,-1.322,1.072,-2.394,2.394,-2.394c1.322,0,2.394,1.071,2.394,2.394" fill="#BFBFBF"/>
   <path  d="M92.513,43.2c0,1.322,-1.071,2.394,-2.394,2.394c-1.321,0,-2.394,-1.072,-2.394,-2.394" fill="#E6E6E6"/>
   <circle  cx="90.12" cy="43.2" r="1.197" fill="#383838"/>
  </g>
  <g  id="A13pin">
   <path  d="M94.926,14.4c0,-1.322,1.071,-2.394,2.394,-2.394s2.394,1.072,2.394,2.394" fill="#BFBFBF"/>
   <path  d="M99.713,14.4c0,1.322,-1.071,2.394,-2.394,2.394s-2.394,-1.071,-2.394,-2.394l0,0" fill="#E6E6E6"/>
   <circle  cx="97.32" cy="14.4" r="1.197" fill="#383838"/>
  </g>
  <g  id="B13pin">
   <path  d="M94.926,21.6c0,-1.322,1.071,-2.394,2.394,-2.394s2.394,1.072,2.394,2.394" fill="#BFBFBF"/>
   <path  d="M99.713,21.6c0,1.322,-1.071,2.394,-2.394,2.394s-2.394,-1.072,-2.394,-2.394" fill="#E6E6E6"/>
   <circle  cx="97.32" cy="21.6" r="1.197" fill="#383838"/>
  </g>
  <g  id="C13pin">
   <path  d="M94.926,28.8c0,-1.322,1.071,-2.394,2.394,-2.394s2.394,1.072,2.394,2.394" fill="#BFBFBF"/>
   <path  d="M99.713,28.8c0,1.322,-1.071,2.394,-2.394,2.394s-2.394,-1.071,-2.394,-2.394l0,0" fill="#E6E6E6"/>
   <circle  cx="97.32" cy="28.8" r="1.197" fill="#383838"/>
  </g>
  <g  id="D13pin">
   <path  d="M94.926,36c0,-1.322,1.071,-2.394,2.394,-2.394s2.394,1.072,2.394,2.394" fill="#BFBFBF"/>
   <path  d="M99.713,36c0,1.322,-1.071,2.394,-2.394,2.394S94.926,37.322,94.926,36" fill="#E6E6E6"/>
   <circle  cx="97.32" cy="36" r="1.197" fill="#383838"/>
  </g>
  <g  id="E13pin">
   <path  d="M94.926,43.2c0,-1.322,1.071,-2.394,2.394,-2.394s2.394,1.071,2.394,2.394" fill="#BFBFBF"/>
   <path  d="M99.713,43.2c0,1.322,-1.071,2.394,-2.394,2.394s-2.394,-1.072,-2.394,-2.394" fill="#E6E6E6"/>
   <circle  cx="97.32" cy="43.2" r="1.197" fill="#383838"/>
  </g>
  <g  id="A14pin">
   <path  d="M102.126,14.4c0,-1.322,1.071,-2.394,2.394,-2.394c1.321,0,2.394,1.072,2.394,2.394" fill="#BFBFBF"/>
   <path  d="M106.914,14.4c0,1.322,-1.072,2.394,-2.394,2.394c-1.322,0,-2.394,-1.071,-2.394,-2.394l0,0" fill="#E6E6E6"/>
   <circle  cx="104.52" cy="14.4" r="1.197" fill="#383838"/>
  </g>
  <g  id="B14pin">
   <path  d="M102.126,21.6c0,-1.322,1.071,-2.394,2.394,-2.394c1.321,0,2.394,1.072,2.394,2.394" fill="#BFBFBF"/>
   <path  d="M106.914,21.6c0,1.322,-1.072,2.394,-2.394,2.394c-1.322,0,-2.394,-1.072,-2.394,-2.394" fill="#E6E6E6"/>
   <circle  cx="104.52" cy="21.6" r="1.197" fill="#383838"/>
  </g>
  <g  id="C14pin">
   <path  d="M102.126,28.8c0,-1.322,1.071,-2.394,2.394,-2.394c1.321,0,2.394,1.072,2.394,2.394" fill="#BFBFBF"/>
   <path  d="M106.914,28.8c0,1.322,-1.072,2.394,-2.394,2.394c-1.322,0,-2.394,-1.071,-2.394,-2.394l0,0" fill="#E6E6E6"/>
   <circle  cx="104.52" cy="28.8" r="1.197" fill="#383838"/>
  </g>
  <g  id="D14pin">
   <path  d="M102.126,36c0,-1.322,1.071,-2.394,2.394,-2.394c1.321,0,2.394,1.072,2.394,2.394" fill="#BFBFBF"/>
   <path  d="M106.914,36c0,1.322,-1.072,2.394,-2.394,2.394c-1.322,0,-2.394,-1.072,-2.394,-2.394" fill="#E6E6E6"/>
   <circle  cx="104.52" cy="36" r="1.197" fill="#383838"/>
  </g>
  <g  id="E14pin">
   <path  d="M102.126,43.2c0,-1.322,1.071,-2.394,2.394,-2.394c1.321,0,2.394,1.071,2.394,2.394" fill="#BFBFBF"/>
   <path  d="M106.914,43.2c0,1.322,-1.072,2.394,-2.394,2.394c-1.322,0,-2.394,-1.072,-2.394,-2.394" fill="#E6E6E6"/>
   <circle  cx="104.52" cy="43.2" r="1.197" fill="#383838"/>
  </g>
  <g  id="A15pin">
   <path  d="M109.326,14.4c0.002,-1.322,1.076,-2.392,2.398,-2.39c1.318,0.002,2.387,1.071,2.389,2.39" fill="#BFBFBF"/>
   <path  d="M114.113,14.4c0.002,1.322,-1.067,2.396,-2.389,2.397c-1.322,0.002,-2.396,-1.068,-2.398,-2.39c0,-0.002,0,-0.005,0,-0.007" fill="#E6E6E6"/>
   <circle  cx="111.72" cy="14.4" r="1.197" fill="#383838"/>
  </g>
  <g  id="B15pin">
   <path  d="M109.326,21.6c0.002,-1.322,1.076,-2.392,2.398,-2.39c1.318,0.002,2.387,1.071,2.389,2.39" fill="#BFBFBF"/>
   <path  d="M114.113,21.6c0.002,1.322,-1.067,2.395,-2.389,2.397c-1.322,0.002,-2.396,-1.068,-2.398,-2.39c0,-0.002,0,-0.005,0,-0.007" fill="#E6E6E6"/>
   <circle  cx="111.72" cy="21.6" r="1.197" fill="#383838"/>
  </g>
  <g  id="C15pin">
   <path  d="M109.326,28.8c0.002,-1.322,1.076,-2.392,2.398,-2.39c1.318,0.002,2.387,1.071,2.389,2.39" fill="#BFBFBF"/>
   <path  d="M114.113,28.8c0.002,1.322,-1.067,2.396,-2.389,2.397c-1.322,0.002,-2.396,-1.068,-2.398,-2.39c0,-0.002,0,-0.005,0,-0.007" fill="#E6E6E6"/>
   <circle  cx="111.72" cy="28.8" r="1.197" fill="#383838"/>
  </g>
  <g  id="D15pin">
   <path  d="M109.326,36c0.002,-1.322,1.076,-2.392,2.398,-2.39c1.318,0.002,2.387,1.071,2.389,2.39" fill="#BFBFBF"/>
   <path  d="M114.113,36c0.002,1.322,-1.067,2.395,-2.389,2.397c-1.322,0.002,-2.396,-1.068,-2.398,-2.39c0,-0.002,0,-0.005,0,-0.007" fill="#E6E6E6"/>
   <circle  cx="111.72" cy="36" r="1.197" fill="#383838"/>
  </g>
  <g  id="E15pin">
   <path  d="M109.326,43.2c0.002,-1.322,1.076,-2.392,2.398,-2.39c1.318,0.002,2.387,1.071,2.389,2.39" fill="#BFBFBF"/>
   <path  d="M114.113,43.2c0.002,1.322,-1.067,2.395,-2.389,2.397c-1.322,0.002,-2.396,-1.068,-2.398,-2.39c0,-0.002,0,-0.005,0,-0.007" fill="#E6E6E6"/>
   <circle  cx="111.72" cy="43.2" r="1.197" fill="#383838"/>
  </g>
  <g  id="A16pin">
   <path  d="M116.527,14.4c0.002,-1.322,1.074,-2.392,2.396,-2.39c1.319,0.002,2.389,1.071,2.391,2.39" fill="#BFBFBF"/>
   <path  d="M121.314,14.4c0.002,1.322,-1.068,2.396,-2.391,2.397s-2.395,-1.068,-2.396,-2.39c0,-0.002,0,-0.005,0,-0.007" fill="#E6E6E6"/>
   <circle  cx="118.919" cy="14.4" r="1.197" fill="#383838"/>
  </g>
  <g  id="B16pin">
   <path  d="M116.527,21.6c0.002,-1.322,1.074,-2.392,2.396,-2.39c1.319,0.002,2.389,1.071,2.391,2.39" fill="#BFBFBF"/>
   <path  d="M121.314,21.6c0.002,1.322,-1.068,2.395,-2.391,2.397s-2.395,-1.068,-2.396,-2.39c0,-0.002,0,-0.005,0,-0.007" fill="#E6E6E6"/>
   <circle  cx="118.919" cy="21.6" r="1.197" fill="#383838"/>
  </g>
  <g  id="C16pin">
   <path  d="M116.527,28.8c0.002,-1.322,1.074,-2.392,2.396,-2.39c1.319,0.002,2.389,1.071,2.391,2.39" fill="#BFBFBF"/>
   <path  d="M121.314,28.8c0.002,1.322,-1.068,2.396,-2.391,2.397s-2.395,-1.068,-2.396,-2.39c0,-0.002,0,-0.005,0,-0.007" fill="#E6E6E6"/>
   <circle  cx="118.919" cy="28.8" r="1.197" fill="#383838"/>
  </g>
  <g  id="D16pin">
   <path  d="M116.527,36c0.002,-1.322,1.074,-2.392,2.396,-2.39c1.319,0.002,2.389,1.071,2.391,2.39" fill="#BFBFBF"/>
   <path  d="M121.314,36c0.002,1.322,-1.068,2.395,-2.391,2.397c-1.322,0.002,-2.395,-1.068,-2.396,-2.39c0,-0.002,0,-0.005,0,-0.007" fill="#E6E6E6"/>
   <circle  cx="118.919" cy="36" r="1.197" fill="#383838"/>
  </g>
  <g  id="E16pin">
   <path  d="M116.527,43.2c0.002,-1.322,1.074,-2.392,2.396,-2.39c1.319,0.002,2.389,1.071,2.391,2.39" fill="#BFBFBF"/>
   <path  d="M121.314,43.2c0.002,1.322,-1.068,2.395,-2.391,2.397s-2.395,-1.068,-2.396,-2.39c0,-0.002,0,-0.005,0,-0.007" fill="#E6E6E6"/>
   <circle  cx="118.919" cy="43.2" r="1.197" fill="#383838"/>
  </g>
  <g  id="A17pin">
   <path  d="M123.726,14.4c0.002,-1.322,1.075,-2.392,2.397,-2.39c1.319,0.002,2.388,1.071,2.39,2.39" fill="#BFBFBF"/>
   <path  d="M128.513,14.4c0.002,1.322,-1.068,2.396,-2.39,2.397c-1.322,0.002,-2.396,-1.068,-2.397,-2.39c0,-0.002,0,-0.005,0,-0.007" fill="#E6E6E6"/>
   <circle  cx="126.12" cy="14.4" r="1.197" fill="#383838"/>
  </g>
  <g  id="B17pin">
   <path  d="M123.726,21.6c0.002,-1.322,1.075,-2.392,2.397,-2.39c1.319,0.002,2.388,1.071,2.39,2.39" fill="#BFBFBF"/>
   <path  d="M128.513,21.6c0.002,1.322,-1.068,2.395,-2.39,2.397c-1.322,0.002,-2.396,-1.068,-2.397,-2.39c0,-0.002,0,-0.005,0,-0.007" fill="#E6E6E6"/>
   <circle  cx="126.12" cy="21.6" r="1.197" fill="#383838"/>
  </g>
  <g  id="C17pin">
   <path  d="M123.726,28.8c0.002,-1.322,1.075,-2.392,2.397,-2.39c1.319,0.002,2.388,1.071,2.39,2.39" fill="#BFBFBF"/>
   <path  d="M128.513,28.8c0.002,1.322,-1.068,2.396,-2.39,2.397c-1.322,0.002,-2.396,-1.068,-2.397,-2.39c0,-0.002,0,-0.005,0,-0.007" fill="#E6E6E6"/>
   <circle  cx="126.12" cy="28.8" r="1.197" fill="#383838"/>
  </g>
  <g  id="D17pin">
   <path  d="M123.726,36c0.002,-1.322,1.075,-2.392,2.397,-2.39c1.319,0.002,2.388,1.071,2.39,2.39" fill="#BFBFBF"/>
   <path  d="M128.513,36c0.002,1.322,-1.068,2.395,-2.39,2.397c-1.322,0.002,-2.396,-1.068,-2.397,-2.39c0,-0.002,0,-0.005,0,-0.007" fill="#E6E6E6"/>
   <circle  cx="126.12" cy="36" r="1.197" fill="#383838"/>
  </g>
  <g  id="E17pin">
   <path  d="M123.726,43.2c0.002,-1.322,1.075,-2.392,2.397,-2.39c1.319,0.002,2.388,1.071,2.39,2.39" fill="#BFBFBF"/>
   <path  d="M128.513,43.2c0.002,1.322,-1.068,2.395,-2.39,2.397c-1.322,0.002,-2.396,-1.068,-2.397,-2.39c0,-0.002,0,-0.005,0,-0.007" fill="#E6E6E6"/>
   <circle  cx="126.12" cy="43.2" r="1.197" fill="#383838"/>
  </g>
  <g  id="A18pin">
   <path  d="M130.926,14.4c0.002,-1.322,1.075,-2.392,2.397,-2.39c1.318,0.002,2.388,1.071,2.39,2.39" fill="#BFBFBF"/>
   <path  d="M135.713,14.4c0.002,1.322,-1.067,2.396,-2.39,2.397s-2.396,-1.068,-2.397,-2.39c0,-0.002,0,-0.005,0,-0.007" fill="#E6E6E6"/>
   <circle  cx="133.32" cy="14.4" r="1.197" fill="#383838"/>
  </g>
  <g  id="B18pin">
   <path  d="M130.926,21.6c0.002,-1.322,1.075,-2.392,2.397,-2.39c1.318,0.002,2.388,1.071,2.39,2.39" fill="#BFBFBF"/>
   <path  d="M135.713,21.6c0.002,1.322,-1.067,2.395,-2.39,2.397s-2.396,-1.068,-2.397,-2.39c0,-0.002,0,-0.005,0,-0.007" fill="#E6E6E6"/>
   <circle  cx="133.32" cy="21.6" r="1.197" fill="#383838"/>
  </g>
  <g  id="C18pin">
   <path  d="M130.926,28.8c0.002,-1.322,1.075,-2.392,2.397,-2.39c1.318,0.002,2.388,1.071,2.39,2.39" fill="#BFBFBF"/>
   <path  d="M135.713,28.8c0.002,1.322,-1.067,2.396,-2.39,2.397s-2.396,-1.068,-2.397,-2.39c0,-0.002,0,-0.005,0,-0.007" fill="#E6E6E6"/>
   <circle  cx="133.32" cy="28.8" r="1.197" fill="#383838"/>
  </g>
  <g  id="D18pin">
   <path  d="M130.926,36c0.002,-1.322,1.075,-2.392,2.397,-2.39c1.318,0.002,2.388,1.071,2.39,2.39" fill="#BFBFBF"/>
   <path  d="M135.713,36c0.002,1.322,-1.067,2.395,-2.39,2.397c-1.322,0.002,-2.396,-1.068,-2.397,-2.39c0,-0.002,0,-0.005,0,-0.007" fill="#E6E6E6"/>
   <circle  cx="133.32" cy="36" r="1.197" fill="#383838"/>
  </g>
  <g  id="E18pin">
   <path  d="M130.926,43.2c0.002,-1.322,1.075,-2.392,2.397,-2.39c1.318,0.002,2.388,1.071,2.39,2.39" fill="#BFBFBF"/>
   <path  d="M135.713,43.2c0.002,1.322,-1.067,2.395,-2.39,2.397s-2.396,-1.068,-2.397,-2.39c0,-0.002,0,-0.005,0,-0.007" fill="#E6E6E6"/>
   <circle  cx="133.32" cy="43.2" r="1.197" fill="#383838"/>
  </g>
  <g  id="A19pin">
   <path  d="M138.126,14.4c0.002,-1.322,1.075,-2.392,2.396,-2.39c1.319,0.002,2.389,1.071,2.391,2.39" fill="#BFBFBF"/>
   <path  d="M142.914,14.4c0.002,1.322,-1.068,2.396,-2.391,2.397c-1.321,0.002,-2.395,-1.068,-2.396,-2.39c0,-0.002,0,-0.005,0,-0.007" fill="#E6E6E6"/>
   <circle  cx="140.52" cy="14.4" r="1.197" fill="#383838"/>
  </g>
  <g  id="B19pin">
   <path  d="M138.126,21.6c0.002,-1.322,1.075,-2.392,2.396,-2.39c1.319,0.002,2.389,1.071,2.391,2.39" fill="#BFBFBF"/>
   <path  d="M142.914,21.6c0.002,1.322,-1.068,2.395,-2.391,2.397c-1.321,0.002,-2.395,-1.068,-2.396,-2.39c0,-0.002,0,-0.005,0,-0.007" fill="#E6E6E6"/>
   <circle  cx="140.52" cy="21.6" r="1.197" fill="#383838"/>
  </g>
  <g  id="C19pin">
   <path  d="M138.126,28.8c0.002,-1.322,1.075,-2.392,2.396,-2.39c1.319,0.002,2.389,1.071,2.391,2.39" fill="#BFBFBF"/>
   <path  d="M142.914,28.8c0.002,1.322,-1.068,2.396,-2.391,2.397c-1.321,0.002,-2.395,-1.068,-2.396,-2.39c0,-0.002,0,-0.005,0,-0.007" fill="#E6E6E6"/>
   <circle  cx="140.52" cy="28.8" r="1.197" fill="#383838"/>
  </g>
  <g  id="D19pin">
   <path  d="M138.126,36c0.002,-1.322,1.075,-2.392,2.396,-2.39c1.319,0.002,2.389,1.071,2.391,2.39" fill="#BFBFBF"/>
   <path  d="M142.914,36c0.002,1.322,-1.068,2.395,-2.391,2.397c-1.321,0.002,-2.395,-1.068,-2.396,-2.39c0,-0.002,0,-0.005,0,-0.007" fill="#E6E6E6"/>
   <circle  cx="140.52" cy="36" r="1.197" fill="#383838"/>
  </g>
  <g  id="E19pin">
   <path  d="M138.126,43.2c0.002,-1.322,1.075,-2.392,2.396,-2.39c1.319,0.002,2.389,1.071,2.391,2.39" fill="#BFBFBF"/>
   <path  d="M142.914,43.2c0.002,1.322,-1.068,2.395,-2.391,2.397c-1.321,0.002,-2.395,-1.068,-2.396,-2.39c0,-0.002,0,-0.005,0,-0.007" fill="#E6E6E6"/>
   <circle  cx="140.52" cy="43.2" r="1.197" fill="#383838"/>
  </g>
  <g  id="A20pin">
   <path  d="M145.326,14.4c0.002,-1.322,1.076,-2.392,2.397,-2.39c1.319,0.002,2.388,1.071,2.39,2.39" fill="#BFBFBF"/>
   <path  d="M150.113,14.4c0.002,1.322,-1.067,2.396,-2.39,2.397c-1.321,0.002,-2.396,-1.068,-2.397,-2.39c0,-0.002,0,-0.005,0,-0.007" fill="#E6E6E6"/>
   <circle  cx="147.72" cy="14.4" r="1.197" fill="#383838"/>
  </g>
  <g  id="B20pin">
   <path  d="M145.326,21.6c0.002,-1.322,1.076,-2.392,2.397,-2.39c1.319,0.002,2.388,1.071,2.39,2.39" fill="#BFBFBF"/>
   <path  d="M150.113,21.6c0.002,1.322,-1.067,2.395,-2.39,2.397c-1.321,0.002,-2.396,-1.068,-2.397,-2.39c0,-0.002,0,-0.005,0,-0.007" fill="#E6E6E6"/>
   <circle  cx="147.72" cy="21.6" r="1.197" fill="#383838"/>
  </g>
  <g  id="C20pin">
   <path  d="M145.326,28.8c0.002,-1.322,1.076,-2.392,2.397,-2.39c1.319,0.002,2.388,1.071,2.39,2.39" fill="#BFBFBF"/>
   <path  d="M150.113,28.8c0.002,1.322,-1.067,2.396,-2.39,2.397c-1.321,0.002,-2.396,-1.068,-2.397,-2.39c0,-0.002,0,-0.005,0,-0.007" fill="#E6E6E6"/>
   <circle  cx="147.72" cy="28.8" r="1.197" fill="#383838"/>
  </g>
  <g  id="D20pin">
   <path  d="M145.326,36c0.002,-1.322,1.076,-2.392,2.397,-2.39c1.319,0.002,2.388,1.071,2.39,2.39" fill="#BFBFBF"/>
   <path  d="M150.113,36c0.002,1.322,-1.067,2.395,-2.39,2.397c-1.321,0.002,-2.396,-1.068,-2.397,-2.39c0,-0.002,0,-0.005,0,-0.007" fill="#E6E6E6"/>
   <circle  cx="147.72" cy="36" r="1.197" fill="#383838"/>
  </g>
  <g  id="E20pin">
   <path  d="M145.326,43.2c0.002,-1.322,1.076,-2.392,2.397,-2.39c1.319,0.002,2.388,1.071,2.39,2.39" fill="#BFBFBF"/>
   <path  d="M150.113,43.2c0.002,1.322,-1.067,2.395,-2.39,2.397c-1.321,0.002,-2.396,-1.068,-2.397,-2.39c0,-0.002,0,-0.005,0,-0.007" fill="#E6E6E6"/>
   <circle  cx="147.72" cy="43.2" r="1.197" fill="#383838"/>
  </g>
  <g  id="F1pin">
   <path  d="M8.526,64.8c0,-1.321,1.072,-2.394,2.394,-2.394s2.394,1.072,2.394,2.394" fill="#BFBFBF"/>
   <path  d="M13.313,64.8c0,1.322,-1.072,2.394,-2.394,2.394S8.526,66.122,8.526,64.8l0,0" fill="#E6E6E6"/>
   <circle  cx="10.92" cy="64.8" r="1.196" fill="#383838"/>
  </g>
  <g  id="G1pin">
   <path  d="M8.526,72c0,-1.322,1.072,-2.394,2.394,-2.394s2.394,1.071,2.394,2.394" fill="#BFBFBF"/>
   <path  d="M13.313,72c0,1.322,-1.072,2.394,-2.394,2.394S8.526,73.322,8.526,72l0,0" fill="#E6E6E6"/>
   <circle  cx="10.92" cy="72" r="1.197" fill="#383838"/>
  </g>
  <g  id="H1pin">
   <path  d="M8.526,79.2c0,-1.322,1.072,-2.394,2.394,-2.394s2.394,1.071,2.394,2.394" fill="#BFBFBF"/>
   <path  d="M13.313,79.2c0,1.321,-1.072,2.394,-2.394,2.394S8.526,80.521,8.526,79.2" fill="#E6E6E6"/>
   <circle  cx="10.92" cy="79.2" r="1.197" fill="#383838"/>
  </g>
  <g  id="I1pin">
   <path  d="M8.526,86.4c0,-1.322,1.072,-2.395,2.394,-2.395s2.394,1.072,2.394,2.395" fill="#BFBFBF"/>
   <path  d="M13.313,86.4c0,1.321,-1.072,2.393,-2.394,2.393S8.526,87.722,8.526,86.4l0,0" fill="#E6E6E6"/>
   <circle  cx="10.92" cy="86.4" r="1.197" fill="#383838"/>
  </g>
  <g  id="J1pin">
   <path  d="M8.526,93.6c0,-1.322,1.072,-2.394,2.394,-2.394s2.394,1.071,2.394,2.394" fill="#BFBFBF"/>
   <path  d="M13.313,93.6c0,1.322,-1.072,2.395,-2.394,2.395S8.526,94.922,8.526,93.6l0,0" fill="#E6E6E6"/>
   <circle  cx="10.92" cy="93.6" r="1.197" fill="#383838"/>
  </g>
  <g  id="F2pin">
   <path  d="M15.727,64.8c0,-1.321,1.071,-2.394,2.394,-2.394c1.322,0,2.394,1.072,2.394,2.394" fill="#BFBFBF"/>
   <path  d="M20.514,64.8c0,1.322,-1.07,2.395,-2.393,2.396c-1.322,0,-2.394,-1.07,-2.395,-2.393c0,-0.001,0,-0.002,0,-0.003" fill="#E6E6E6"/>
   <circle  cx="18.12" cy="64.8" r="1.196" fill="#383838"/>
  </g>
  <g  id="G2pin">
   <path  d="M15.727,72c0,-1.322,1.071,-2.394,2.394,-2.394c1.322,0,2.394,1.071,2.394,2.394" fill="#BFBFBF"/>
   <path  d="M20.514,72c0,1.322,-1.07,2.395,-2.393,2.395c-1.322,0.001,-2.394,-1.07,-2.395,-2.393c0,0,0,-0.001,0,-0.002" fill="#E6E6E6"/>
   <circle  cx="18.12" cy="72" r="1.197" fill="#383838"/>
  </g>
  <g  id="H2pin">
   <path  d="M15.727,79.2c0,-1.322,1.071,-2.394,2.394,-2.394c1.322,0,2.394,1.071,2.394,2.394" fill="#BFBFBF"/>
   <path  d="M20.514,79.2c0,1.321,-1.07,2.394,-2.393,2.395c-1.322,0.001,-2.394,-1.07,-2.395,-2.392c0,-0.002,0,-0.002,0,-0.003" fill="#E6E6E6"/>
   <circle  cx="18.12" cy="79.2" r="1.197" fill="#383838"/>
  </g>
  <g  id="I2pin">
   <path  d="M15.727,86.4c0,-1.322,1.071,-2.395,2.394,-2.395c1.322,0,2.394,1.072,2.394,2.395" fill="#BFBFBF"/>
   <path  d="M20.514,86.4c0,1.321,-1.07,2.394,-2.393,2.395c-1.322,0,-2.394,-1.07,-2.395,-2.393L15.726,86.4" fill="#E6E6E6"/>
   <circle  cx="18.12" cy="86.4" r="1.197" fill="#383838"/>
  </g>
  <g  id="J2pin">
   <path  d="M15.727,93.6c0,-1.322,1.071,-2.394,2.394,-2.394c1.322,0,2.394,1.071,2.394,2.394" fill="#BFBFBF"/>
   <path  d="M20.514,93.6c0,1.322,-1.07,2.395,-2.393,2.396c-1.322,0.001,-2.394,-1.071,-2.395,-2.393c0,-0.001,0,-0.002,0,-0.003" fill="#E6E6E6"/>
   <circle  cx="18.12" cy="93.6" r="1.197" fill="#383838"/>
  </g>
  <g  id="F3pin">
   <path  d="M22.926,64.8c0,-1.321,1.072,-2.394,2.394,-2.394c1.322,0,2.394,1.072,2.394,2.394" fill="#BFBFBF"/>
   <path  d="M27.713,64.8c0,1.322,-1.071,2.394,-2.394,2.394c-1.322,0,-2.394,-1.071,-2.394,-2.394" fill="#E6E6E6"/>
   <circle  cx="25.32" cy="64.8" r="1.196" fill="#383838"/>
  </g>
  <g  id="G3pin">
   <path  d="M22.926,72c0,-1.322,1.072,-2.394,2.394,-2.394c1.322,0,2.394,1.071,2.394,2.394" fill="#BFBFBF"/>
   <path  d="M27.713,72c0,1.322,-1.071,2.394,-2.394,2.394c-1.322,0,-2.394,-1.071,-2.394,-2.394" fill="#E6E6E6"/>
   <circle  cx="25.32" cy="72" r="1.197" fill="#383838"/>
  </g>
  <g  id="H3pin">
   <path  d="M22.926,79.2c0,-1.322,1.072,-2.394,2.394,-2.394c1.322,0,2.394,1.071,2.394,2.394" fill="#BFBFBF"/>
   <path  d="M27.713,79.2c0,1.321,-1.071,2.394,-2.394,2.394c-1.322,0,-2.394,-1.072,-2.394,-2.394l0,0" fill="#E6E6E6"/>
   <circle  cx="25.32" cy="79.2" r="1.197" fill="#383838"/>
  </g>
  <g  id="I3pin">
   <path  d="M22.926,86.4c0,-1.322,1.072,-2.395,2.394,-2.395c1.322,0,2.394,1.072,2.394,2.395" fill="#BFBFBF"/>
   <path  d="M27.713,86.4c0,1.321,-1.071,2.393,-2.394,2.393c-1.322,0,-2.394,-1.071,-2.394,-2.393" fill="#E6E6E6"/>
   <circle  cx="25.32" cy="86.4" r="1.197" fill="#383838"/>
  </g>
  <g  id="J3pin">
   <path  d="M22.926,93.6c0,-1.322,1.072,-2.394,2.394,-2.394c1.322,0,2.394,1.071,2.394,2.394" fill="#BFBFBF"/>
   <path  d="M27.713,93.6c0,1.322,-1.071,2.395,-2.394,2.395c-1.322,0,-2.394,-1.072,-2.394,-2.395l0,0" fill="#E6E6E6"/>
   <circle  cx="25.32" cy="93.6" r="1.197" fill="#383838"/>
  </g>
  <g  id="F4pin">
   <path  d="M30.126,64.8c0,-1.321,1.072,-2.394,2.394,-2.394s2.394,1.072,2.394,2.394" fill="#BFBFBF"/>
   <path  d="M34.914,64.8c0,1.322,-1.072,2.394,-2.394,2.394s-2.394,-1.071,-2.394,-2.394" fill="#E6E6E6"/>
   <circle  cx="32.52" cy="64.8" r="1.196" fill="#383838"/>
  </g>
  <g  id="G4pin">
   <path  d="M30.126,72c0,-1.322,1.072,-2.394,2.394,-2.394s2.394,1.071,2.394,2.394" fill="#BFBFBF"/>
   <path  d="M34.914,72c0,1.322,-1.072,2.394,-2.394,2.394S30.126,73.322,30.126,72" fill="#E6E6E6"/>
   <circle  cx="32.52" cy="72" r="1.197" fill="#383838"/>
  </g>
  <g  id="H4pin">
   <path  d="M30.126,79.2c0,-1.322,1.072,-2.394,2.394,-2.394s2.394,1.071,2.394,2.394" fill="#BFBFBF"/>
   <path  d="M34.914,79.2c0,1.321,-1.072,2.394,-2.394,2.394s-2.394,-1.072,-2.394,-2.394l0,0" fill="#E6E6E6"/>
   <circle  cx="32.52" cy="79.2" r="1.197" fill="#383838"/>
  </g>
  <g  id="I4pin">
   <path  d="M30.126,86.4c0,-1.322,1.072,-2.395,2.394,-2.395s2.394,1.072,2.394,2.395" fill="#BFBFBF"/>
   <path  d="M34.914,86.4c0,1.321,-1.072,2.393,-2.394,2.393s-2.394,-1.071,-2.394,-2.393" fill="#E6E6E6"/>
   <circle  cx="32.52" cy="86.4" r="1.197" fill="#383838"/>
  </g>
  <g  id="J4pin">
   <path  d="M30.126,93.6c0,-1.322,1.072,-2.394,2.394,-2.394s2.394,1.071,2.394,2.394" fill="#BFBFBF"/>
   <path  d="M34.914,93.6c0,1.322,-1.072,2.395,-2.394,2.395s-2.394,-1.072,-2.394,-2.395l0,0" fill="#E6E6E6"/>
   <circle  cx="32.52" cy="93.6" r="1.197" fill="#383838"/>
  </g>
  <g  id="F5pin">
   <path  d="M37.326,64.8c0,-1.321,1.072,-2.394,2.394,-2.394c1.322,0,2.394,1.072,2.394,2.394" fill="#BFBFBF"/>
   <path  d="M42.114,64.8c0,1.322,-1.072,2.394,-2.394,2.394c-1.322,0,-2.394,-1.071,-2.394,-2.394" fill="#E6E6E6"/>
   <circle  cx="39.72" cy="64.8" r="1.196" fill="#383838"/>
  </g>
  <g  id="G5pin">
   <path  d="M37.326,72c0,-1.322,1.072,-2.394,2.394,-2.394c1.322,0,2.394,1.071,2.394,2.394" fill="#BFBFBF"/>
   <path  d="M42.114,72c0,1.322,-1.072,2.394,-2.394,2.394c-1.322,0,-2.394,-1.071,-2.394,-2.394" fill="#E6E6E6"/>
   <circle  cx="39.72" cy="72" r="1.197" fill="#383838"/>
  </g>
  <g  id="H5pin">
   <path  d="M37.326,79.2c0,-1.322,1.072,-2.394,2.394,-2.394c1.322,0,2.394,1.071,2.394,2.394" fill="#BFBFBF"/>
   <path  d="M42.114,79.2c0,1.321,-1.072,2.394,-2.394,2.394c-1.322,0,-2.394,-1.072,-2.394,-2.394l0,0" fill="#E6E6E6"/>
   <circle  cx="39.72" cy="79.2" r="1.197" fill="#383838"/>
  </g>
  <g  id="I5pin">
   <path  d="M37.326,86.4c0,-1.322,1.072,-2.395,2.394,-2.395c1.322,0,2.394,1.072,2.394,2.395" fill="#BFBFBF"/>
   <path  d="M42.114,86.4c0,1.321,-1.072,2.393,-2.394,2.393c-1.322,0,-2.394,-1.071,-2.394,-2.393" fill="#E6E6E6"/>
   <circle  cx="39.72" cy="86.4" r="1.197" fill="#383838"/>
  </g>
  <g  id="J5pin">
   <path  d="M37.326,93.6c0,-1.322,1.072,-2.394,2.394,-2.394c1.322,0,2.394,1.071,2.394,2.394" fill="#BFBFBF"/>
   <path  d="M42.114,93.6c0,1.322,-1.072,2.395,-2.394,2.395c-1.322,0,-2.394,-1.072,-2.394,-2.395l0,0" fill="#E6E6E6"/>
   <circle  cx="39.72" cy="93.6" r="1.197" fill="#383838"/>
  </g>
  <g  id="F6pin">
   <path  d="M44.526,64.8c0,-1.321,1.072,-2.394,2.394,-2.394s2.394,1.072,2.394,2.394" fill="#BFBFBF"/>
   <path  d="M49.313,64.8c0,1.322,-1.072,2.394,-2.394,2.394s-2.394,-1.071,-2.394,-2.394" fill="#E6E6E6"/>
   <circle  cx="46.92" cy="64.8" r="1.196" fill="#383838"/>
  </g>
  <g  id="G6pin">
   <path  d="M44.526,72c0,-1.322,1.072,-2.394,2.394,-2.394s2.394,1.071,2.394,2.394" fill="#BFBFBF"/>
   <path  d="M49.313,72c0,1.322,-1.072,2.394,-2.394,2.394S44.526,73.322,44.526,72" fill="#E6E6E6"/>
   <circle  cx="46.92" cy="72" r="1.197" fill="#383838"/>
  </g>
  <g  id="H6pin">
   <path  d="M44.526,79.2c0,-1.322,1.072,-2.394,2.394,-2.394s2.394,1.071,2.394,2.394" fill="#BFBFBF"/>
   <path  d="M49.313,79.2c0,1.321,-1.072,2.394,-2.394,2.394s-2.394,-1.072,-2.394,-2.394l0,0" fill="#E6E6E6"/>
   <circle  cx="46.92" cy="79.2" r="1.197" fill="#383838"/>
  </g>
  <g  id="I6pin">
   <path  d="M44.526,86.4c0,-1.322,1.072,-2.395,2.394,-2.395s2.394,1.072,2.394,2.395" fill="#BFBFBF"/>
   <path  d="M49.313,86.4c0,1.321,-1.072,2.393,-2.394,2.393s-2.394,-1.071,-2.394,-2.393" fill="#E6E6E6"/>
   <circle  cx="46.92" cy="86.4" r="1.197" fill="#383838"/>
  </g>
  <g  id="J6pin">
   <path  d="M44.526,93.6c0,-1.322,1.072,-2.394,2.394,-2.394s2.394,1.071,2.394,2.394" fill="#BFBFBF"/>
   <path  d="M49.313,93.6c0,1.322,-1.072,2.395,-2.394,2.395s-2.394,-1.072,-2.394,-2.395l0,0" fill="#E6E6E6"/>
   <circle  cx="46.92" cy="93.6" r="1.197" fill="#383838"/>
  </g>
  <g  id="F7pin">
   <path  d="M51.727,64.8c0,-1.321,1.071,-2.394,2.394,-2.394c1.322,0,2.394,1.072,2.394,2.394" fill="#BFBFBF"/>
   <path  d="M56.514,64.8c0,1.322,-1.072,2.394,-2.394,2.394c-1.322,0,-2.394,-1.071,-2.394,-2.394" fill="#E6E6E6"/>
   <circle  cx="54.12" cy="64.8" r="1.196" fill="#383838"/>
  </g>
  <g  id="G7pin">
   <path  d="M51.727,72c0,-1.322,1.071,-2.394,2.394,-2.394c1.322,0,2.394,1.071,2.394,2.394" fill="#BFBFBF"/>
   <path  d="M56.514,72c0,1.322,-1.072,2.394,-2.394,2.394c-1.322,0,-2.394,-1.071,-2.394,-2.394" fill="#E6E6E6"/>
   <circle  cx="54.12" cy="72" r="1.197" fill="#383838"/>
  </g>
  <g  id="H7pin">
   <path  d="M51.727,79.2c0,-1.322,1.071,-2.394,2.394,-2.394c1.322,0,2.394,1.071,2.394,2.394" fill="#BFBFBF"/>
   <path  d="M56.514,79.2c0,1.321,-1.072,2.394,-2.394,2.394c-1.322,0,-2.394,-1.072,-2.394,-2.394l0,0" fill="#E6E6E6"/>
   <circle  cx="54.12" cy="79.2" r="1.197" fill="#383838"/>
  </g>
  <g  id="I7pin">
   <path  d="M51.727,86.4c0,-1.322,1.071,-2.395,2.394,-2.395c1.322,0,2.394,1.072,2.394,2.395" fill="#BFBFBF"/>
   <path  d="M56.514,86.4c0,1.321,-1.072,2.393,-2.394,2.393c-1.322,0,-2.394,-1.071,-2.394,-2.393" fill="#E6E6E6"/>
   <circle  cx="54.12" cy="86.4" r="1.197" fill="#383838"/>
  </g>
  <g  id="J7pin">
   <path  d="M51.727,93.6c0,-1.322,1.071,-2.394,2.394,-2.394c1.322,0,2.394,1.071,2.394,2.394" fill="#BFBFBF"/>
   <path  d="M56.514,93.6c0,1.322,-1.072,2.395,-2.394,2.395c-1.322,0,-2.394,-1.072,-2.394,-2.395l0,0" fill="#E6E6E6"/>
   <circle  cx="54.12" cy="93.6" r="1.197" fill="#383838"/>
  </g>
  <g  id="F8pin">
   <path  d="M58.926,64.8c0,-1.321,1.072,-2.394,2.394,-2.394c1.322,0,2.394,1.072,2.394,2.394" fill="#BFBFBF"/>
   <path  d="M63.713,64.8c0,1.322,-1.071,2.394,-2.394,2.394c-1.322,0,-2.394,-1.071,-2.394,-2.394" fill="#E6E6E6"/>
   <circle  cx="61.32" cy="64.8" r="1.196" fill="#383838"/>
  </g>
  <g  id="G8pin">
   <path  d="M58.926,72c0,-1.322,1.072,-2.394,2.394,-2.394c1.322,0,2.394,1.071,2.394,2.394" fill="#BFBFBF"/>
   <path  d="M63.713,72c0,1.322,-1.071,2.394,-2.394,2.394c-1.322,0,-2.394,-1.071,-2.394,-2.394" fill="#E6E6E6"/>
   <circle  cx="61.32" cy="72" r="1.197" fill="#383838"/>
  </g>
  <g  id="H8pin">
   <path  d="M58.926,79.2c0,-1.322,1.072,-2.394,2.394,-2.394c1.322,0,2.394,1.071,2.394,2.394" fill="#BFBFBF"/>
   <path  d="M63.713,79.2c0,1.321,-1.071,2.394,-2.394,2.394c-1.322,0,-2.394,-1.072,-2.394,-2.394l0,0" fill="#E6E6E6"/>
   <circle  cx="61.32" cy="79.2" r="1.197" fill="#383838"/>
  </g>
  <g  id="I8pin">
   <path  d="M58.926,86.4c0,-1.322,1.072,-2.395,2.394,-2.395c1.322,0,2.394,1.072,2.394,2.395" fill="#BFBFBF"/>
   <path  d="M63.713,86.4c0,1.321,-1.071,2.393,-2.394,2.393c-1.322,0,-2.394,-1.071,-2.394,-2.393" fill="#E6E6E6"/>
   <circle  cx="61.32" cy="86.4" r="1.197" fill="#383838"/>
  </g>
  <g  id="J8pin">
   <path  d="M58.926,93.6c0,-1.322,1.072,-2.394,2.394,-2.394c1.322,0,2.394,1.071,2.394,2.394" fill="#BFBFBF"/>
   <path  d="M63.713,93.6c0,1.322,-1.071,2.395,-2.394,2.395c-1.322,0,-2.394,-1.072,-2.394,-2.395l0,0" fill="#E6E6E6"/>
   <circle  cx="61.32" cy="93.6" r="1.197" fill="#383838"/>
  </g>
  <g  id="F9pin">
   <path  d="M66.126,64.8c0,-1.321,1.071,-2.394,2.394,-2.394c1.322,0,2.394,1.072,2.394,2.394" fill="#BFBFBF"/>
   <path  d="M70.914,64.8c0,1.322,-1.072,2.394,-2.394,2.394c-1.322,0,-2.394,-1.071,-2.394,-2.394" fill="#E6E6E6"/>
   <circle  cx="68.52" cy="64.8" r="1.196" fill="#383838"/>
  </g>
  <g  id="G9pin">
   <path  d="M66.126,72c0,-1.322,1.071,-2.394,2.394,-2.394c1.322,0,2.394,1.071,2.394,2.394" fill="#BFBFBF"/>
   <path  d="M70.914,72c0,1.322,-1.072,2.394,-2.394,2.394c-1.322,0,-2.394,-1.071,-2.394,-2.394" fill="#E6E6E6"/>
   <circle  cx="68.52" cy="72" r="1.197" fill="#383838"/>
  </g>
  <g  id="H9pin">
   <path  d="M66.126,79.2c0,-1.322,1.071,-2.394,2.394,-2.394c1.322,0,2.394,1.071,2.394,2.394" fill="#BFBFBF"/>
   <path  d="M70.914,79.2c0,1.321,-1.072,2.394,-2.394,2.394c-1.322,0,-2.394,-1.072,-2.394,-2.394l0,0" fill="#E6E6E6"/>
   <circle  cx="68.52" cy="79.2" r="1.197" fill="#383838"/>
  </g>
  <g  id="I9pin">
   <path  d="M66.126,86.4c0,-1.322,1.071,-2.395,2.394,-2.395c1.322,0,2.394,1.072,2.394,2.395" fill="#BFBFBF"/>
   <path  d="M70.914,86.4c0,1.321,-1.072,2.393,-2.394,2.393c-1.322,0,-2.394,-1.071,-2.394,-2.393" fill="#E6E6E6"/>
   <circle  cx="68.52" cy="86.4" r="1.197" fill="#383838"/>
  </g>
  <g  id="J9pin">
   <path  d="M66.126,93.6c0,-1.322,1.071,-2.394,2.394,-2.394c1.322,0,2.394,1.071,2.394,2.394" fill="#BFBFBF"/>
   <path  d="M70.914,93.6c0,1.322,-1.072,2.395,-2.394,2.395c-1.322,0,-2.394,-1.072,-2.394,-2.395l0,0" fill="#E6E6E6"/>
   <circle  cx="68.52" cy="93.6" r="1.197" fill="#383838"/>
  </g>
  <g  id="F10pin">
   <path  d="M73.326,64.8c0,-1.321,1.072,-2.394,2.394,-2.394c1.322,0,2.394,1.072,2.394,2.394" fill="#BFBFBF"/>
   <path  d="M78.113,64.8c0,1.322,-1.071,2.394,-2.394,2.394c-1.322,0,-2.394,-1.071,-2.394,-2.394" fill="#E6E6E6"/>
   <circle  cx="75.72" cy="64.8" r="1.196" fill="#383838"/>
  </g>
  <g  id="G10pin">
   <path  d="M73.326,72c0,-1.322,1.072,-2.394,2.394,-2.394c1.322,0,2.394,1.071,2.394,2.394" fill="#BFBFBF"/>
   <path  d="M78.113,72c0,1.322,-1.071,2.394,-2.394,2.394c-1.322,0,-2.394,-1.071,-2.394,-2.394" fill="#E6E6E6"/>
   <circle  cx="75.72" cy="72" r="1.197" fill="#383838"/>
  </g>
  <g  id="H10pin">
   <path  d="M73.326,79.2c0,-1.322,1.072,-2.394,2.394,-2.394c1.322,0,2.394,1.071,2.394,2.394" fill="#BFBFBF"/>
   <path  d="M78.113,79.2c0,1.321,-1.071,2.394,-2.394,2.394c-1.322,0,-2.394,-1.072,-2.394,-2.394l0,0" fill="#E6E6E6"/>
   <circle  cx="75.72" cy="79.2" r="1.197" fill="#383838"/>
  </g>
  <g  id="I10pin">
   <path  d="M73.326,86.4c0,-1.322,1.072,-2.395,2.394,-2.395c1.322,0,2.394,1.072,2.394,2.395" fill="#BFBFBF"/>
   <path  d="M78.113,86.4c0,1.321,-1.071,2.393,-2.394,2.393c-1.322,0,-2.394,-1.071,-2.394,-2.393" fill="#E6E6E6"/>
   <circle  cx="75.72" cy="86.4" r="1.197" fill="#383838"/>
  </g>
  <g  id="J10pin">
   <path  d="M73.326,93.6c0,-1.322,1.072,-2.394,2.394,-2.394c1.322,0,2.394,1.071,2.394,2.394" fill="#BFBFBF"/>
   <path  d="M78.113,93.6c0,1.322,-1.071,2.395,-2.394,2.395c-1.322,0,-2.394,-1.072,-2.394,-2.395l0,0" fill="#E6E6E6"/>
   <circle  cx="75.72" cy="93.6" r="1.197" fill="#383838"/>
  </g>
  <g  id="F11pin">
   <path  d="M80.527,64.8c0,-1.321,1.071,-2.394,2.393,-2.394c1.322,0,2.395,1.072,2.395,2.394" fill="#BFBFBF"/>
   <path  d="M85.314,64.8c0,1.322,-1.072,2.394,-2.395,2.394c-1.321,0,-2.393,-1.071,-2.393,-2.394" fill="#E6E6E6"/>
   <circle  cx="82.919" cy="64.8" r="1.196" fill="#383838"/>
  </g>
  <g  id="G11pin">
   <path  d="M80.527,72c0,-1.322,1.071,-2.394,2.393,-2.394c1.322,0,2.395,1.071,2.395,2.394" fill="#BFBFBF"/>
   <path  d="M85.314,72c0,1.322,-1.072,2.394,-2.395,2.394c-1.321,0,-2.393,-1.071,-2.393,-2.394" fill="#E6E6E6"/>
   <circle  cx="82.919" cy="72" r="1.197" fill="#383838"/>
  </g>
  <g  id="H11pin">
   <path  d="M80.527,79.2c0,-1.322,1.071,-2.394,2.393,-2.394c1.322,0,2.395,1.071,2.395,2.394" fill="#BFBFBF"/>
   <path  d="M85.314,79.2c0,1.321,-1.072,2.394,-2.395,2.394c-1.321,0,-2.393,-1.072,-2.393,-2.394l0,0" fill="#E6E6E6"/>
   <circle  cx="82.919" cy="79.2" r="1.197" fill="#383838"/>
  </g>
  <g  id="I11pin">
   <path  d="M80.527,86.4c0,-1.322,1.071,-2.395,2.393,-2.395c1.322,0,2.395,1.072,2.395,2.395" fill="#BFBFBF"/>
   <path  d="M85.314,86.4c0,1.321,-1.072,2.393,-2.395,2.393c-1.321,0,-2.393,-1.071,-2.393,-2.393" fill="#E6E6E6"/>
   <circle  cx="82.919" cy="86.4" r="1.197" fill="#383838"/>
  </g>
  <g  id="J11pin">
   <path  d="M80.527,93.6c0,-1.322,1.071,-2.394,2.393,-2.394c1.322,0,2.395,1.071,2.395,2.394" fill="#BFBFBF"/>
   <path  d="M85.314,93.6c0,1.322,-1.072,2.395,-2.395,2.395c-1.321,0,-2.393,-1.072,-2.393,-2.395l0,0" fill="#E6E6E6"/>
   <circle  cx="82.919" cy="93.6" r="1.197" fill="#383838"/>
  </g>
  <g  id="F12pin">
   <path  d="M87.726,64.8c0,-1.321,1.072,-2.394,2.394,-2.394c1.322,0,2.394,1.072,2.394,2.394" fill="#BFBFBF"/>
   <path  d="M92.513,64.8c0,1.322,-1.071,2.394,-2.394,2.394c-1.321,0,-2.394,-1.071,-2.394,-2.394" fill="#E6E6E6"/>
   <circle  cx="90.12" cy="64.8" r="1.196" fill="#383838"/>
  </g>
  <g  id="G12pin">
   <path  d="M87.726,72c0,-1.322,1.072,-2.394,2.394,-2.394c1.322,0,2.394,1.071,2.394,2.394" fill="#BFBFBF"/>
   <path  d="M92.513,72c0,1.322,-1.071,2.394,-2.394,2.394c-1.321,0,-2.394,-1.071,-2.394,-2.394" fill="#E6E6E6"/>
   <circle  cx="90.12" cy="72" r="1.197" fill="#383838"/>
  </g>
  <g  id="H12pin">
   <path  d="M87.726,79.2c0,-1.322,1.072,-2.394,2.394,-2.394c1.322,0,2.394,1.071,2.394,2.394" fill="#BFBFBF"/>
   <path  d="M92.513,79.2c0,1.321,-1.071,2.394,-2.394,2.394c-1.321,0,-2.394,-1.072,-2.394,-2.394l0,0" fill="#E6E6E6"/>
   <circle  cx="90.12" cy="79.2" r="1.197" fill="#383838"/>
  </g>
  <g  id="I12pin">
   <path  d="M87.726,86.4c0,-1.322,1.072,-2.395,2.394,-2.395c1.322,0,2.394,1.072,2.394,2.395" fill="#BFBFBF"/>
   <path  d="M92.513,86.4c0,1.321,-1.071,2.393,-2.394,2.393c-1.321,0,-2.394,-1.071,-2.394,-2.393" fill="#E6E6E6"/>
   <circle  cx="90.12" cy="86.4" r="1.197" fill="#383838"/>
  </g>
  <g  id="J12pin">
   <path  d="M87.726,93.6c0,-1.322,1.072,-2.394,2.394,-2.394c1.322,0,2.394,1.071,2.394,2.394" fill="#BFBFBF"/>
   <path  d="M92.513,93.6c0,1.322,-1.071,2.395,-2.394,2.395c-1.321,0,-2.394,-1.072,-2.394,-2.395l0,0" fill="#E6E6E6"/>
   <circle  cx="90.12" cy="93.6" r="1.197" fill="#383838"/>
  </g>
  <g  id="F13pin">
   <path  d="M94.926,64.8c0,-1.321,1.071,-2.394,2.394,-2.394s2.394,1.072,2.394,2.394" fill="#BFBFBF"/>
   <path  d="M99.713,64.8c0,1.322,-1.071,2.394,-2.394,2.394s-2.394,-1.071,-2.394,-2.394" fill="#E6E6E6"/>
   <circle  cx="97.32" cy="64.8" r="1.196" fill="#383838"/>
  </g>
  <g  id="G13pin">
   <path  d="M94.926,72c0,-1.322,1.071,-2.394,2.394,-2.394s2.394,1.071,2.394,2.394" fill="#BFBFBF"/>
   <path  d="M99.713,72c0,1.322,-1.071,2.394,-2.394,2.394S94.926,73.322,94.926,72" fill="#E6E6E6"/>
   <circle  cx="97.32" cy="72" r="1.197" fill="#383838"/>
  </g>
  <g  id="H13pin">
   <path  d="M94.926,79.2c0,-1.322,1.071,-2.394,2.394,-2.394s2.394,1.071,2.394,2.394" fill="#BFBFBF"/>
   <path  d="M99.713,79.2c0,1.321,-1.071,2.394,-2.394,2.394s-2.394,-1.072,-2.394,-2.394l0,0" fill="#E6E6E6"/>
   <circle  cx="97.32" cy="79.2" r="1.197" fill="#383838"/>
  </g>
  <g  id="I13pin">
   <path  d="M94.926,86.4c0,-1.322,1.071,-2.395,2.394,-2.395s2.394,1.072,2.394,2.395" fill="#BFBFBF"/>
   <path  d="M99.713,86.4c0,1.321,-1.071,2.393,-2.394,2.393s-2.394,-1.071,-2.394,-2.393" fill="#E6E6E6"/>
   <circle  cx="97.32" cy="86.4" r="1.197" fill="#383838"/>
  </g>
  <g  id="J13pin">
   <path  d="M94.926,93.6c0,-1.322,1.071,-2.394,2.394,-2.394s2.394,1.071,2.394,2.394" fill="#BFBFBF"/>
   <path  d="M99.713,93.6c0,1.322,-1.071,2.395,-2.394,2.395s-2.394,-1.072,-2.394,-2.395l0,0" fill="#E6E6E6"/>
   <circle  cx="97.32" cy="93.6" r="1.197" fill="#383838"/>
  </g>
  <g  id="F14pin">
   <path  d="M102.126,64.8c0,-1.321,1.071,-2.394,2.394,-2.394c1.321,0,2.394,1.072,2.394,2.394" fill="#BFBFBF"/>
   <path  d="M106.914,64.8c0,1.322,-1.072,2.394,-2.394,2.394c-1.322,0,-2.394,-1.071,-2.394,-2.394" fill="#E6E6E6"/>
   <circle  cx="104.52" cy="64.8" r="1.196" fill="#383838"/>
  </g>
  <g  id="G14pin">
   <path  d="M102.126,72c0,-1.322,1.071,-2.394,2.394,-2.394c1.321,0,2.394,1.071,2.394,2.394" fill="#BFBFBF"/>
   <path  d="M106.914,72c0,1.322,-1.072,2.394,-2.394,2.394c-1.322,0,-2.394,-1.071,-2.394,-2.394" fill="#E6E6E6"/>
   <circle  cx="104.52" cy="72" r="1.197" fill="#383838"/>
  </g>
  <g  id="H14pin">
   <path  d="M102.126,79.2c0,-1.322,1.071,-2.394,2.394,-2.394c1.321,0,2.394,1.071,2.394,2.394" fill="#BFBFBF"/>
   <path  d="M106.914,79.2c0,1.321,-1.072,2.394,-2.394,2.394c-1.322,0,-2.394,-1.072,-2.394,-2.394l0,0" fill="#E6E6E6"/>
   <circle  cx="104.52" cy="79.2" r="1.197" fill="#383838"/>
  </g>
  <g  id="I14pin">
   <path  d="M102.126,86.4c0,-1.322,1.071,-2.395,2.394,-2.395c1.321,0,2.394,1.072,2.394,2.395" fill="#BFBFBF"/>
   <path  d="M106.914,86.4c0,1.321,-1.072,2.393,-2.394,2.393c-1.322,0,-2.394,-1.071,-2.394,-2.393" fill="#E6E6E6"/>
   <circle  cx="104.52" cy="86.4" r="1.197" fill="#383838"/>
  </g>
  <g  id="J14pin">
   <path  d="M102.126,93.6c0,-1.322,1.071,-2.394,2.394,-2.394c1.321,0,2.394,1.071,2.394,2.394" fill="#BFBFBF"/>
   <path  d="M106.914,93.6c0,1.322,-1.072,2.395,-2.394,2.395c-1.322,0,-2.394,-1.072,-2.394,-2.395l0,0" fill="#E6E6E6"/>
   <circle  cx="104.52" cy="93.6" r="1.197" fill="#383838"/>
  </g>
  <g  id="F15pin">
   <path  d="M109.326,64.8c0.002,-1.321,1.076,-2.392,2.398,-2.39c1.318,0.002,2.387,1.07,2.389,2.39" fill="#BFBFBF"/>
   <path  d="M114.113,64.8c0.002,1.322,-1.067,2.396,-2.389,2.397c-1.322,0.002,-2.396,-1.068,-2.398,-2.391c0,-0.002,0,-0.004,0,-0.007" fill="#E6E6E6"/>
   <circle  cx="111.72" cy="64.8" r="1.196" fill="#383838"/>
  </g>
  <g  id="G15pin">
   <path  d="M109.326,72c0.002,-1.322,1.076,-2.393,2.398,-2.391c1.318,0.002,2.387,1.071,2.389,2.391" fill="#BFBFBF"/>
   <path  d="M114.113,72c0.002,1.322,-1.067,2.395,-2.389,2.396c-1.322,0.002,-2.396,-1.067,-2.398,-2.39c0,-0.002,0,-0.005,0,-0.007" fill="#E6E6E6"/>
   <circle  cx="111.72" cy="72" r="1.197" fill="#383838"/>
  </g>
  <g  id="H15pin">
   <path  d="M109.326,79.2c0.002,-1.322,1.076,-2.392,2.398,-2.39c1.318,0.002,2.387,1.07,2.389,2.39" fill="#BFBFBF"/>
   <path  d="M114.113,79.2c0.002,1.321,-1.067,2.396,-2.389,2.397c-1.322,0.002,-2.396,-1.068,-2.398,-2.391c0,-0.002,0,-0.005,0,-0.007" fill="#E6E6E6"/>
   <circle  cx="111.72" cy="79.2" r="1.197" fill="#383838"/>
  </g>
  <g  id="I15pin">
   <path  d="M109.326,86.4c0.002,-1.322,1.076,-2.393,2.398,-2.391c1.318,0.002,2.387,1.07,2.389,2.391" fill="#BFBFBF"/>
   <path  d="M114.113,86.4c0.002,1.321,-1.067,2.395,-2.389,2.396c-1.322,0.002,-2.396,-1.068,-2.398,-2.39c0,-0.003,0,-0.005,0,-0.007" fill="#E6E6E6"/>
   <circle  cx="111.72" cy="86.4" r="1.197" fill="#383838"/>
  </g>
  <g  id="J15pin">
   <path  d="M109.326,93.6c0.002,-1.322,1.076,-2.392,2.398,-2.39c1.318,0.002,2.387,1.071,2.389,2.39" fill="#BFBFBF"/>
   <path  d="M114.113,93.6c0.002,1.322,-1.067,2.396,-2.389,2.397c-1.322,0.002,-2.396,-1.067,-2.398,-2.39c0,-0.003,0,-0.005,0,-0.008" fill="#E6E6E6"/>
   <circle  cx="111.72" cy="93.6" r="1.197" fill="#383838"/>
  </g>
  <g  id="F16pin">
   <path  d="M116.527,64.8c0.002,-1.321,1.074,-2.392,2.396,-2.39c1.319,0.002,2.389,1.07,2.391,2.39" fill="#BFBFBF"/>
   <path  d="M121.314,64.8c0.002,1.322,-1.068,2.396,-2.391,2.397s-2.395,-1.068,-2.396,-2.391c0,-0.002,0,-0.004,0,-0.007" fill="#E6E6E6"/>
   <circle  cx="118.919" cy="64.8" r="1.196" fill="#383838"/>
  </g>
  <g  id="G16pin">
   <path  d="M116.527,72c0.002,-1.322,1.074,-2.393,2.396,-2.391c1.319,0.002,2.389,1.071,2.391,2.391" fill="#BFBFBF"/>
   <path  d="M121.314,72c0.002,1.322,-1.068,2.395,-2.391,2.396s-2.395,-1.067,-2.396,-2.39c0,-0.002,0,-0.005,0,-0.007" fill="#E6E6E6"/>
   <circle  cx="118.919" cy="72" r="1.197" fill="#383838"/>
  </g>
  <g  id="H16pin">
   <path  d="M116.527,79.2c0.002,-1.322,1.074,-2.392,2.396,-2.39c1.319,0.002,2.389,1.07,2.391,2.39" fill="#BFBFBF"/>
   <path  d="M121.314,79.2c0.002,1.321,-1.068,2.396,-2.391,2.397s-2.395,-1.068,-2.396,-2.391c0,-0.002,0,-0.005,0,-0.007" fill="#E6E6E6"/>
   <circle  cx="118.919" cy="79.2" r="1.197" fill="#383838"/>
  </g>
  <g  id="I16pin">
   <path  d="M116.527,86.4c0.002,-1.322,1.074,-2.393,2.396,-2.391c1.319,0.002,2.389,1.07,2.391,2.391" fill="#BFBFBF"/>
   <path  d="M121.314,86.4c0.002,1.321,-1.068,2.395,-2.391,2.396s-2.395,-1.068,-2.396,-2.39c0,-0.003,0,-0.005,0,-0.007" fill="#E6E6E6"/>
   <circle  cx="118.919" cy="86.4" r="1.197" fill="#383838"/>
  </g>
  <g  id="J16pin">
   <path  d="M116.527,93.6c0.002,-1.322,1.074,-2.392,2.396,-2.39c1.319,0.002,2.389,1.071,2.391,2.39" fill="#BFBFBF"/>
   <path  d="M121.314,93.6c0.002,1.322,-1.068,2.396,-2.391,2.397s-2.395,-1.067,-2.396,-2.39c0,-0.003,0,-0.005,0,-0.008" fill="#E6E6E6"/>
   <circle  cx="118.919" cy="93.6" r="1.197" fill="#383838"/>
  </g>
  <g  id="F17pin">
   <path  d="M123.726,64.8c0.002,-1.321,1.075,-2.392,2.397,-2.39c1.319,0.002,2.388,1.07,2.39,2.39" fill="#BFBFBF"/>
   <path  d="M128.513,64.8c0.002,1.322,-1.068,2.396,-2.39,2.397c-1.322,0.002,-2.396,-1.068,-2.397,-2.391c0,-0.002,0,-0.004,0,-0.007" fill="#E6E6E6"/>
   <circle  cx="126.12" cy="64.8" r="1.196" fill="#383838"/>
  </g>
  <g  id="G17pin">
   <path  d="M123.726,72c0.002,-1.322,1.075,-2.393,2.397,-2.391c1.319,0.002,2.388,1.071,2.39,2.391" fill="#BFBFBF"/>
   <path  d="M128.513,72c0.002,1.322,-1.068,2.395,-2.39,2.396c-1.322,0.002,-2.396,-1.067,-2.397,-2.39c0,-0.002,0,-0.005,0,-0.007" fill="#E6E6E6"/>
   <circle  cx="126.12" cy="72" r="1.197" fill="#383838"/>
  </g>
  <g  id="H17pin">
   <path  d="M123.726,79.2c0.002,-1.322,1.075,-2.392,2.397,-2.39c1.319,0.002,2.388,1.07,2.39,2.39" fill="#BFBFBF"/>
   <path  d="M128.513,79.2c0.002,1.321,-1.068,2.396,-2.39,2.397c-1.322,0.002,-2.396,-1.068,-2.397,-2.391c0,-0.002,0,-0.005,0,-0.007" fill="#E6E6E6"/>
   <circle  cx="126.12" cy="79.2" r="1.197" fill="#383838"/>
  </g>
  <g  id="I17pin">
   <path  d="M123.726,86.4c0.002,-1.322,1.075,-2.393,2.397,-2.391c1.319,0.002,2.388,1.07,2.39,2.391" fill="#BFBFBF"/>
   <path  d="M128.513,86.4c0.002,1.321,-1.068,2.395,-2.39,2.396c-1.322,0.002,-2.396,-1.068,-2.397,-2.39c0,-0.003,0,-0.005,0,-0.007" fill="#E6E6E6"/>
   <circle  cx="126.12" cy="86.4" r="1.197" fill="#383838"/>
  </g>
  <g  id="J17pin">
   <path  d="M123.726,93.6c0.002,-1.322,1.075,-2.392,2.397,-2.39c1.319,0.002,2.388,1.071,2.39,2.39" fill="#BFBFBF"/>
   <path  d="M128.513,93.6c0.002,1.322,-1.068,2.396,-2.39,2.397c-1.322,0.002,-2.396,-1.067,-2.397,-2.39c0,-0.003,0,-0.005,0,-0.008" fill="#E6E6E6"/>
   <circle  cx="126.12" cy="93.6" r="1.197" fill="#383838"/>
  </g>
  <g  id="F18pin">
   <path  d="M130.926,64.8c0.002,-1.321,1.075,-2.392,2.397,-2.39c1.318,0.002,2.388,1.07,2.39,2.39" fill="#BFBFBF"/>
   <path  d="M135.713,64.8c0.002,1.322,-1.067,2.396,-2.39,2.397s-2.396,-1.068,-2.397,-2.391c0,-0.002,0,-0.004,0,-0.007" fill="#E6E6E6"/>
   <circle  cx="133.32" cy="64.8" r="1.196" fill="#383838"/>
  </g>
  <g  id="G18pin">
   <path  d="M130.926,72c0.002,-1.322,1.075,-2.393,2.397,-2.391c1.318,0.002,2.388,1.071,2.39,2.391" fill="#BFBFBF"/>
   <path  d="M135.713,72c0.002,1.322,-1.067,2.395,-2.39,2.396s-2.396,-1.067,-2.397,-2.39c0,-0.002,0,-0.005,0,-0.007" fill="#E6E6E6"/>
   <circle  cx="133.32" cy="72" r="1.197" fill="#383838"/>
  </g>
  <g  id="H18pin">
   <path  d="M130.926,79.2c0.002,-1.322,1.075,-2.392,2.397,-2.39c1.318,0.002,2.388,1.07,2.39,2.39" fill="#BFBFBF"/>
   <path  d="M135.713,79.2c0.002,1.321,-1.067,2.396,-2.39,2.397s-2.396,-1.068,-2.397,-2.391c0,-0.002,0,-0.005,0,-0.007" fill="#E6E6E6"/>
   <circle  cx="133.32" cy="79.2" r="1.197" fill="#383838"/>
  </g>
  <g  id="I18pin">
   <path  d="M130.926,86.4c0.002,-1.322,1.075,-2.393,2.397,-2.391c1.318,0.002,2.388,1.07,2.39,2.391" fill="#BFBFBF"/>
   <path  d="M135.713,86.4c0.002,1.321,-1.067,2.395,-2.39,2.396s-2.396,-1.068,-2.397,-2.39c0,-0.003,0,-0.005,0,-0.007" fill="#E6E6E6"/>
   <circle  cx="133.32" cy="86.4" r="1.197" fill="#383838"/>
  </g>
  <g  id="J18pin">
   <path  d="M130.926,93.6c0.002,-1.322,1.075,-2.392,2.397,-2.39c1.318,0.002,2.388,1.071,2.39,2.39" fill="#BFBFBF"/>
   <path  d="M135.713,93.6c0.002,1.322,-1.067,2.396,-2.39,2.397s-2.396,-1.067,-2.397,-2.39c0,-0.003,0,-0.005,0,-0.008" fill="#E6E6E6"/>
   <circle  cx="133.32" cy="93.6" r="1.197" fill="#383838"/>
  </g>
  <g  id="F19pin">
   <path  d="M138.126,64.8c0.002,-1.321,1.075,-2.392,2.396,-2.39c1.319,0.002,2.389,1.07,2.391,2.39" fill="#BFBFBF"/>
   <path  d="M142.914,64.8c0.002,1.322,-1.068,2.396,-2.391,2.397c-1.321,0.002,-2.395,-1.068,-2.396,-2.391c0,-0.002,0,-0.004,0,-0.007" fill="#E6E6E6"/>
   <circle  cx="140.52" cy="64.8" r="1.196" fill="#383838"/>
  </g>
  <g  id="G19pin">
   <path  d="M138.126,72c0.002,-1.322,1.075,-2.393,2.396,-2.391c1.319,0.002,2.389,1.071,2.391,2.391" fill="#BFBFBF"/>
   <path  d="M142.914,72c0.002,1.322,-1.068,2.395,-2.391,2.396c-1.321,0.002,-2.395,-1.067,-2.396,-2.39c0,-0.002,0,-0.005,0,-0.007" fill="#E6E6E6"/>
   <circle  cx="140.52" cy="72" r="1.197" fill="#383838"/>
  </g>
  <g  id="H19pin">
   <path  d="M138.126,79.2c0.002,-1.322,1.075,-2.392,2.396,-2.39c1.319,0.002,2.389,1.07,2.391,2.39" fill="#BFBFBF"/>
   <path  d="M142.914,79.2c0.002,1.321,-1.068,2.396,-2.391,2.397c-1.321,0.002,-2.395,-1.068,-2.396,-2.391c0,-0.002,0,-0.005,0,-0.007" fill="#E6E6E6"/>
   <circle  cx="140.52" cy="79.2" r="1.197" fill="#383838"/>
  </g>
  <g  id="I19pin">
   <path  d="M138.126,86.4c0.002,-1.322,1.075,-2.393,2.396,-2.391c1.319,0.002,2.389,1.07,2.391,2.391" fill="#BFBFBF"/>
   <path  d="M142.914,86.4c0.002,1.321,-1.068,2.395,-2.391,2.396c-1.321,0.002,-2.395,-1.068,-2.396,-2.39c0,-0.003,0,-0.005,0,-0.007" fill="#E6E6E6"/>
   <circle  cx="140.52" cy="86.4" r="1.197" fill="#383838"/>
  </g>
  <g  id="J19pin">
   <path  d="M138.126,93.6c0.002,-1.322,1.075,-2.392,2.396,-2.39c1.319,0.002,2.389,1.071,2.391,2.39" fill="#BFBFBF"/>
   <path  d="M142.914,93.6c0.002,1.322,-1.068,2.396,-2.391,2.397c-1.321,0.002,-2.395,-1.067,-2.396,-2.39c0,-0.003,0,-0.005,0,-0.008" fill="#E6E6E6"/>
   <circle  cx="140.52" cy="93.6" r="1.197" fill="#383838"/>
  </g>
  <g  id="F20pin">
   <path  d="M145.326,64.8c0.002,-1.321,1.076,-2.392,2.397,-2.39c1.319,0.002,2.388,1.07,2.39,2.39" fill="#BFBFBF"/>
   <path  d="M150.113,64.8c0.002,1.322,-1.067,2.396,-2.39,2.397c-1.321,0.002,-2.396,-1.068,-2.397,-2.391c0,-0.002,0,-0.004,0,-0.007" fill="#E6E6E6"/>
   <circle  cx="147.72" cy="64.8" r="1.196" fill="#383838"/>
  </g>
  <g  id="G20pin">
   <path  d="M145.326,72c0.002,-1.322,1.076,-2.393,2.397,-2.391c1.319,0.002,2.388,1.071,2.39,2.391" fill="#BFBFBF"/>
   <path  d="M150.113,72c0.002,1.322,-1.067,2.395,-2.39,2.396c-1.321,0.002,-2.396,-1.067,-2.397,-2.39c0,-0.002,0,-0.005,0,-0.007" fill="#E6E6E6"/>
   <circle  cx="147.72" cy="72" r="1.197" fill="#383838"/>
  </g>
  <g  id="H20pin">
   <path  d="M145.326,79.2c0.002,-1.322,1.076,-2.392,2.397,-2.39c1.319,0.002,2.388,1.07,2.39,2.39" fill="#BFBFBF"/>
   <path  d="M150.113,79.2c0.002,1.321,-1.067,2.396,-2.39,2.397c-1.321,0.002,-2.396,-1.068,-2.397,-2.391c0,-0.002,0,-0.005,0,-0.007" fill="#E6E6E6"/>
   <circle  cx="147.72" cy="79.2" r="1.197" fill="#383838"/>
  </g>
  <g  id="I20pin">
   <path  d="M145.326,86.4c0.002,-1.322,1.076,-2.393,2.397,-2.391c1.319,0.002,2.388,1.07,2.39,2.391" fill="#BFBFBF"/>
   <path  d="M150.113,86.4c0.002,1.321,-1.067,2.395,-2.39,2.396c-1.321,0.002,-2.396,-1.068,-2.397,-2.39c0,-0.003,0,-0.005,0,-0.007" fill="#E6E6E6"/>
   <circle  cx="147.72" cy="86.4" r="1.197" fill="#383838"/>
  </g>
  <g  id="J20pin">
   <path  d="M145.326,93.6c0.002,-1.322,1.076,-2.392,2.397,-2.39c1.319,0.002,2.388,1.071,2.39,2.39" fill="#BFBFBF"/>
   <path  d="M150.113,93.6c0.002,1.322,-1.067,2.396,-2.39,2.397c-1.321,0.002,-2.396,-1.067,-2.397,-2.39c0,-0.003,0,-0.005,0,-0.008" fill="#E6E6E6"/>
   <circle  cx="147.72" cy="93.6" r="1.197" fill="#383838"/>
  </g>
 </g>
</g>
</g></svg>