<?xml version="1.0" encoding="utf-8"?>
<!-- Generator: Adobe Illustrator 23.0.3, SVG Export Plug-In . SVG Version: 6.00 Build 0)  -->
<svg version="1.1" id="Layer_1" xmlns="http://www.w3.org/2000/svg" xmlns:xlink="http://www.w3.org/1999/xlink" x="0px" y="0px"
	 viewBox="0 0 18.4 42" style="enable-background:new 0 0 18.4 42;" xml:space="preserve">
<style type="text/css">
	.st0{fill:#8D8D8C;}
	.st1{fill:#C38134;}
	.st2{fill:#878686;}
	.st3{fill:#CF8736;}
	.st4{fill:#B0722E;}
	.st5{fill:#303030;}
	.st6{font-family:'ArialMT';}
	.st7{font-size:6.2356px;}
	.st8{fill:none;stroke:#303030;stroke-miterlimit:10;}
	.st9{fill:#FFFFFF;}
	.st10{font-size:3.9263px;}
</style>
<g>
	<g>
		<g>
			<path class="st0" d="M17.3,20.2c0.3,0,0.6,0,1.1,0c0.3,0.9,0.1,0.7,0.1,3.2c0,0.5-1.3,0.4-1.3,0c0-3.5,0,0.5,0-3
				C17.3,20.2,17.3,20.5,17.3,20.2z"/>
			<path class="st1" d="M0.2,20.3c0-0.5,0-1.3,0-1.5c0-0.8,0.2-1.5,0.8-1.9c1.2-0.8,1-1.7,0.4-2.7c-1.9-3.3-1.8-6.7,0.2-10
				C3.3,1.5,6-0.1,9.8,0c3.6,0.2,6,2.1,7.5,4.8C19,8,18.9,11.3,17,14.4c-0.6,0.9-0.5,1.6,0.4,2.3c1.2,1,1.2,2.2,1,3.5
				c-0.6,0.1-1,0.3-1.1,0c-0.1-0.2,0.1-0.8,0-1c-0.5-2.1-1.6-2.4-3.9-1.6c-2.5,0.9-5.1,1.2-7.6,0.1c-3-1.3-4.5-0.3-4.5,2.5
				C0.8,20.3,0.5,20.3,0.2,20.3z M9.4,1.9C7.3,1.8,5.7,2.8,4.1,3.8C3.7,4,3.3,4.5,3.7,5c0.4,0.5,0.8,0.1,1.2,0
				c1.4-0.4,2.7-1.2,4.5-1c1.5,0.2,2.9,0.3,4.2,1c0.4,0.2,0.8,0.2,1.1-0.1c0.4-0.4,0.1-0.7-0.2-0.9C13.1,2.9,11.5,1.9,9.4,1.9z
				 M8.9,16.7c2.7,0,4.2-1.1,5.7-2.2c0.3-0.2,0.6-0.6,0.2-0.9c-0.4-0.3-0.8-0.4-1.3-0.1c-2.8,1.9-5.7,1.3-8.6,0.1
				c-0.4-0.2-0.8-0.5-1.2,0C3.3,14,3.5,14.4,4,14.7C5.6,15.7,7.2,16.7,8.9,16.7z"/>
			<path class="st2" d="M0.3,20.2c0.3,0,0.7,0,1,0c0,3.4,0-0.2,0.1,3.2c0,0.4-1.2,0.4-1.2,0c0-3.5,0,0.6,0-2.9
				C0.2,20.4,0.2,20.3,0.3,20.2z"/>
			<path class="st3" d="M9.4,1.9c2.1,0.1,3.7,1,5.1,2.1c0.3,0.2,0.6,0.5,0.2,0.9C14.4,5.3,14,5.3,13.6,5c-1.3-0.7-2.7-0.8-4.2-1
				c-1.8-0.2-3,0.5-4.5,1C4.5,5.1,4.1,5.5,3.7,5c-0.4-0.5,0-1,0.4-1.3C5.7,2.8,7.3,1.8,9.4,1.9z"/>
			<path class="st4" d="M8.9,16.7c-1.7,0.1-3.3-1-4.9-2c-0.5-0.3-0.6-0.7-0.3-1.2c0.4-0.4,0.8-0.2,1.2,0c2.9,1.2,5.8,1.8,8.6-0.1
				c0.5-0.3,0.9-0.2,1.3,0.1c0.5,0.3,0.1,0.7-0.2,0.9C13.1,15.6,11.5,16.7,8.9,16.7z"/>
		</g>
	</g>
	<g>
		<text transform="matrix(1 0 0 1 3.998 9.7871)" class="st5 st6 st7">102</text>
		<line class="st8" x1="4.5" y1="11.3" x2="13.9" y2="11.3"/>
		<text transform="matrix(1 0 0 1 4.1411 16.1763)" class="st9 st6 st10">0.1µF</text>
	</g>
</g>
</svg>
