<?xml version="1.0" encoding="utf-8"?>
<!-- Generator: Adobe Illustrator 23.0.3, SVG Export Plug-In . SVG Version: 6.00 Build 0)  -->
<svg version="1.1" id="Layer_1" xmlns="http://www.w3.org/2000/svg" xmlns:xlink="http://www.w3.org/1999/xlink" x="0px" y="0px"
	 viewBox="0 0 15 37.2" style="enable-background:new 0 0 15 37.2;" xml:space="preserve">
<style type="text/css">
	.st0{fill:#868686;}
	.st1{fill:#404040;}
	.st2{fill:#212121;}
	.st3{fill:#989E9E;}
	.st4{fill:#FFFFFF;}
	.st5{font-family:'ArialMT';}
	.st6{font-size:5.5199px;}
</style>
<g>
	<g>
		<g>
			<path class="st0" d="M10.7,31.3c0.4,0,0.7,0,0.8,0c0,1.6,0,4,0,5.3c0,0.7-0.8,0.4-0.8,0C10.7,34.7,10.7,32.2,10.7,31.3z"/>
			<path class="st1" d="M11.8,0.1C12.2,0,12.6,0,13,0c1.5,0,2,0.5,2,2c0,8.1,0,16.3,0,24.4c0,0.1,0,0.1,0,0.2
				c-0.3,1.1-0.7,2-0.1,3.2c0.3,0.7-0.5,1.4-1.3,1.5c-0.6,0.1-1.2,0-1.8,0.1c0-0.1,0-0.1,0-0.2C11.8,20.8,11.8,10.4,11.8,0.1z"/>
			<path class="st2" d="M11.8,0.1C11.1,0,2.3,0,1.9,0C0.5,0.1,0,0.5,0,2c0,8.2,0,16.3,0,24.5c0,0.5,0.1,1,0.4,1.3
				c0.4,0.4,0.4,0.7,0,1c-0.5,0.4-0.5,1-0.3,1.5c0.2,0.6,0.7,0.9,1.3,1c0.5,0,1,0,1.6,0c1.1,0,3.2,0.1,5.2,0c0.5,0,1,0,1.5,0
				c0.4,0,0.8,0,1.3,0c0.3,0,0.5,0,0.8,0C11.8,21,11.8,10.4,11.8,0.1z"/>
			<path class="st0" d="M3.5,31.3c0.3,0,0.6,0,0.9,0c0,2.4,0,3.4,0,5.4c0,0.6-0.8,0.6-0.8,0C3.5,34.5,3.5,31.9,3.5,31.3z"/>
		</g>
		<g>
			<path class="st3" d="M5.3,11.2L3,9.7V5c0-0.1,0.1-0.1,0.1-0.1l2.5,1.8l2.3-1.5c0.1-0.1,0.3,0,0.3,0.2v4.5l-2.3,1.3
				C5.7,11.4,5.5,11.3,5.3,11.2z"/>
			<path class="st3" d="M8.2,1.2V0.1c0,0-3.5-0.1-5.2,0c0,0.1,0-0.1,0,0v3.6l2.3,1.5c0.2,0.1,0.4,0.2,0.6,0.1L8.2,4V2.5
				C8.2,2.1,8.2,1.6,8.2,1.2z"/>
			<path class="st3" d="M5.3,17.2L3,15.8V11h0.1l2.5,1.8l2.3-1.5c0.1-0.1,0.3,0,0.3,0.2V16l-2.3,1.3C5.7,17.4,5.5,17.4,5.3,17.2z"/>
			<path class="st3" d="M5.3,23.3L3,21.8v-4.7C3,17,3.1,17,3.1,17l2.5,1.8l2.3-1.5c0.1-0.1,0.3,0,0.3,0.2V22l-2.3,1.3
				C5.7,23.4,5.5,23.4,5.3,23.3z"/>
			<path class="st3" d="M3,31.3v-8.1c0-0.1,0.1-0.1,0.1-0.1l2.5,1.8l2.3-1.5c0.1-0.1,0.3,0,0.3,0.2v7.7H3z"/>
		</g>
	</g>
</g>
<g>
	<text transform="matrix(0 1 -1 0 10.1617 9.5022)" class="st4 st5 st6">22µF</text>
</g>
</svg>
