<?xml version="1.0" encoding="utf-8"?>
<!-- Generator: Adobe Illustrator 24.0.0, SVG Export Plug-In . SVG Version: 6.00 Build 0)  -->
<svg version="1.1" id="Layer_1" xmlns="http://www.w3.org/2000/svg" xmlns:xlink="http://www.w3.org/1999/xlink" x="0px" y="0px"
	 viewBox="0 0 18.4 11.3" style="enable-background:new 0 0 18.4 11.3;" xml:space="preserve">
<style type="text/css">
	.st0{fill:#C38134;}
	.st1{fill:#B0722E;}
	.st2{fill:#CF8736;}
	.st3{fill:#303030;}
	.st4{font-family:'ArialMT';}
	.st5{font-size:3px;}
	.st6{fill:#FFFFFF;}
	.st7{fill:none;stroke:#303030;stroke-width:0.25;}
	.st8{opacity:0.5;}
	.st9{fill:none;stroke:#000000;stroke-width:0.75;}
</style>
<g>
	<g>
		<g>
			<ellipse class="st0" cx="9.2" cy="5.7" rx="9.2" ry="5.7"/>
			<path class="st1" d="M8.8,10.5c-1.7,0.1-3.3-1-4.9-2C3.4,8.2,3.3,7.8,3.6,7.3c0.4-0.4,0.8-0.2,1.2,0c2.9,1.2,5.8,1.8,8.6-0.1
				c0.5-0.3,0.9-0.2,1.3,0.1c0.5,0.3,0.1,0.7-0.2,0.9C13,9.4,11.4,10.5,8.8,10.5z"/>
			<path class="st2" d="M9.4,0.7c2.1,0.1,3.7,1,5.1,2.1c0.3,0.2,0.6,0.5,0.2,0.9c-0.3,0.4-0.7,0.4-1.1,0.1c-1.3-0.7-2.7-0.8-4.2-1
				c-1.8-0.2-3,0.5-4.5,1c-0.4,0.1-0.8,0.5-1.2,0s0-1,0.4-1.3C5.7,1.6,7.3,0.6,9.4,0.7z"/>
			<text transform="matrix(1 0 0 1 6.6973 9.585)" class="st3 st4 st5">103</text>
			<text transform="matrix(1 0 0 1 5.7811 3.4927)" class="st6 st4 st5">10nF</text>
		</g>
		<line class="st7" x1="6.9" y1="10.2" x2="11.5" y2="10.2"/>
	</g>
	<g>
		<g class="st8">
			<circle id="connector3024pin" class="st9" cx="1.9" cy="5.7" r="1"/>
		</g>
		<g class="st8">
			<circle id="connector2024pin_1_" class="st9" cx="16.3" cy="5.7" r="1"/>
		</g>
	</g>
</g>
</svg>
