<?xml version="1.0" encoding="utf-8"?>
<!-- Generator: Adobe Illustrator 23.0.1, SVG Export Plug-In . SVG Version: 6.00 Build 0)  -->
<svg version="1.1" id="Layer_1" xmlns="http://www.w3.org/2000/svg" xmlns:xlink="http://www.w3.org/1999/xlink" x="0px" y="0px"
	 viewBox="0 0 57.6 7.2" style="enable-background:new 0 0 57.6 7.2;" xml:space="preserve">
<style type="text/css">
	.st0{fill:#373737;}
	.st1{fill:#474747;stroke:#333333;stroke-width:5.000000e-02;stroke-miterlimit:10;}
	.st2{fill:#2A2A29;}
	.st3{fill:#FFDC64;stroke:#000000;stroke-width:5.000000e-02;stroke-miterlimit:10;}
	.st4{fill:#FFC83C;stroke:#000000;stroke-width:5.000000e-02;stroke-miterlimit:10;}
	.st5{fill:none;stroke:#000000;stroke-width:5.000000e-02;stroke-miterlimit:10;}
	.st6{fill:#FFF08C;stroke:#000000;stroke-width:5.000000e-02;stroke-miterlimit:10;}
</style>
<g>
	<g>
		<g>
			<rect x="8.1" y="0.1" class="st0" width="5.5" height="7"/>
			<polygon class="st1" points="13.6,0.1 13.6,7.1 14.4,6.3 14.4,0.9 			"/>
			<polygon class="st2" points="7.2,6.3 8.1,7.1 8.1,0.1 7.2,0.9 			"/>
		</g>
		<g>
			<g>
				<polygon class="st3" points="11.4,4.1 10.3,4.1 10.3,4.1 10.3,3.1 10.3,3.1 11.4,3.1 				"/>
			</g>
			<g>
				<polygon class="st4" points="11.4,3.1 11.7,2.7 9.9,2.7 10.3,3.1 				"/>
				<line class="st5" x1="11.4" y1="3.1" x2="10.3" y2="3.1"/>
			</g>
			<g>
				<polygon class="st6" points="10.3,4.1 9.9,4.5 11.7,4.5 11.4,4.1 				"/>
				<line class="st5" x1="10.3" y1="4.1" x2="11.4" y2="4.1"/>
			</g>
			<g>
				<polygon class="st6" points="11.4,4.1 11.7,4.5 11.7,2.7 11.4,3.1 				"/>
				<line class="st5" x1="11.4" y1="4.1" x2="11.4" y2="3.1"/>
			</g>
			<g>
				<polygon class="st4" points="10.3,3.1 9.9,2.7 9.9,4.5 10.3,4.1 				"/>
				<line class="st5" x1="10.3" y1="3.1" x2="10.3" y2="4.1"/>
			</g>
		</g>
	</g>
	<g>
		<g>
			<rect x="0.9" y="0.1" class="st0" width="5.5" height="7"/>
			<polygon class="st1" points="6.4,0.1 6.4,7.1 7.2,6.3 7.2,0.9 			"/>
			<polygon class="st2" points="0,6.3 0.9,7.1 0.9,0.1 0,0.9 			"/>
		</g>
		<g>
			<g>
				<polygon class="st3" points="4.2,4.1 3.1,4.1 3.1,4.1 3.1,3.1 3.1,3.1 4.2,3.1 				"/>
			</g>
			<g>
				<polygon class="st4" points="4.2,3.1 4.5,2.7 2.7,2.7 3.1,3.1 				"/>
				<line class="st5" x1="4.2" y1="3.1" x2="3.1" y2="3.1"/>
			</g>
			<g>
				<polygon class="st6" points="3.1,4.1 2.7,4.5 4.5,4.5 4.2,4.1 				"/>
				<line class="st5" x1="3.1" y1="4.1" x2="4.2" y2="4.1"/>
			</g>
			<g>
				<polygon class="st6" points="4.2,4.1 4.5,4.5 4.5,2.7 4.2,3.1 				"/>
				<line class="st5" x1="4.2" y1="4.1" x2="4.2" y2="3.1"/>
			</g>
			<g>
				<polygon class="st4" points="3.1,3.1 2.7,2.7 2.7,4.5 3.1,4.1 				"/>
				<line class="st5" x1="3.1" y1="3.1" x2="3.1" y2="4.1"/>
			</g>
		</g>
	</g>
	<g>
		<g>
			<rect x="15.3" y="0.1" class="st0" width="5.5" height="7"/>
			<polygon class="st1" points="20.8,0.1 20.8,7.1 21.6,6.3 21.6,0.9 			"/>
			<polygon class="st2" points="14.4,6.3 15.3,7.1 15.3,0.1 14.4,0.9 			"/>
		</g>
		<g>
			<g>
				<polygon class="st3" points="18.6,4.1 17.5,4.1 17.5,4.1 17.5,3.1 17.5,3.1 18.6,3.1 				"/>
			</g>
			<g>
				<polygon class="st4" points="18.6,3.1 18.9,2.7 17.1,2.7 17.5,3.1 				"/>
				<line class="st5" x1="18.6" y1="3.1" x2="17.5" y2="3.1"/>
			</g>
			<g>
				<polygon class="st6" points="17.5,4.1 17.1,4.5 18.9,4.5 18.6,4.1 				"/>
				<line class="st5" x1="17.5" y1="4.1" x2="18.6" y2="4.1"/>
			</g>
			<g>
				<polygon class="st6" points="18.6,4.1 18.9,4.5 18.9,2.7 18.6,3.1 				"/>
				<line class="st5" x1="18.6" y1="4.1" x2="18.6" y2="3.1"/>
			</g>
			<g>
				<polygon class="st4" points="17.5,3.1 17.1,2.7 17.1,4.5 17.5,4.1 				"/>
				<line class="st5" x1="17.5" y1="3.1" x2="17.5" y2="4.1"/>
			</g>
		</g>
	</g>
	<g>
		<g>
			<rect x="22.5" y="0.1" class="st0" width="5.5" height="7"/>
			<polygon class="st1" points="28,0.1 28,7.1 28.8,6.3 28.8,0.9 			"/>
			<polygon class="st2" points="21.6,6.3 22.5,7.1 22.5,0.1 21.6,0.9 			"/>
		</g>
		<g>
			<g>
				<polygon class="st3" points="25.8,4.1 24.7,4.1 24.7,4.1 24.7,3.1 24.7,3.1 25.8,3.1 				"/>
			</g>
			<g>
				<polygon class="st4" points="25.8,3.1 26.1,2.7 24.3,2.7 24.7,3.1 				"/>
				<line class="st5" x1="25.8" y1="3.1" x2="24.7" y2="3.1"/>
			</g>
			<g>
				<polygon class="st6" points="24.7,4.1 24.3,4.5 26.1,4.5 25.8,4.1 				"/>
				<line class="st5" x1="24.7" y1="4.1" x2="25.8" y2="4.1"/>
			</g>
			<g>
				<polygon class="st6" points="25.8,4.1 26.1,4.5 26.1,2.7 25.8,3.1 				"/>
				<line class="st5" x1="25.8" y1="4.1" x2="25.8" y2="3.1"/>
			</g>
			<g>
				<polygon class="st4" points="24.7,3.1 24.3,2.7 24.3,4.5 24.7,4.1 				"/>
				<line class="st5" x1="24.7" y1="3.1" x2="24.7" y2="4.1"/>
			</g>
		</g>
	</g>
	<g>
		<g>
			<rect x="29.7" y="0.1" class="st0" width="5.5" height="7"/>
			<polygon class="st1" points="35.2,0.1 35.2,7.1 36,6.3 36,0.9 			"/>
			<polygon class="st2" points="28.8,6.3 29.7,7.1 29.7,0.1 28.8,0.9 			"/>
		</g>
		<g>
			<g>
				<polygon class="st3" points="33,4.1 31.9,4.1 31.9,4.1 31.9,3.1 31.9,3.1 33,3.1 				"/>
			</g>
			<g>
				<polygon class="st4" points="33,3.1 33.3,2.7 31.5,2.7 31.9,3.1 				"/>
				<line class="st5" x1="33" y1="3.1" x2="31.9" y2="3.1"/>
			</g>
			<g>
				<polygon class="st6" points="31.9,4.1 31.5,4.5 33.3,4.5 33,4.1 				"/>
				<line class="st5" x1="31.9" y1="4.1" x2="33" y2="4.1"/>
			</g>
			<g>
				<polygon class="st6" points="33,4.1 33.3,4.5 33.3,2.7 33,3.1 				"/>
				<line class="st5" x1="33" y1="4.1" x2="33" y2="3.1"/>
			</g>
			<g>
				<polygon class="st4" points="31.9,3.1 31.5,2.7 31.5,4.5 31.9,4.1 				"/>
				<line class="st5" x1="31.9" y1="3.1" x2="31.9" y2="4.1"/>
			</g>
		</g>
	</g>
	<g>
		<g>
			<rect x="36.9" y="0.1" class="st0" width="5.5" height="7"/>
			<polygon class="st1" points="42.4,0.1 42.4,7.1 43.2,6.3 43.2,0.9 			"/>
			<polygon class="st2" points="36,6.3 36.9,7.1 36.9,0.1 36,0.9 			"/>
		</g>
		<g>
			<g>
				<polygon class="st3" points="40.2,4.1 39.1,4.1 39.1,4.1 39.1,3.1 39.1,3.1 40.2,3.1 				"/>
			</g>
			<g>
				<polygon class="st4" points="40.2,3.1 40.5,2.7 38.7,2.7 39.1,3.1 				"/>
				<line class="st5" x1="40.2" y1="3.1" x2="39.1" y2="3.1"/>
			</g>
			<g>
				<polygon class="st6" points="39.1,4.1 38.7,4.5 40.5,4.5 40.2,4.1 				"/>
				<line class="st5" x1="39.1" y1="4.1" x2="40.2" y2="4.1"/>
			</g>
			<g>
				<polygon class="st6" points="40.2,4.1 40.5,4.5 40.5,2.7 40.2,3.1 				"/>
				<line class="st5" x1="40.2" y1="4.1" x2="40.2" y2="3.1"/>
			</g>
			<g>
				<polygon class="st4" points="39.1,3.1 38.7,2.7 38.7,4.5 39.1,4.1 				"/>
				<line class="st5" x1="39.1" y1="3.1" x2="39.1" y2="4.1"/>
			</g>
		</g>
	</g>
	<g>
		<g>
			<rect x="44.1" y="0.1" class="st0" width="5.5" height="7"/>
			<polygon class="st1" points="49.6,0.1 49.6,7.1 50.4,6.3 50.4,0.9 			"/>
			<polygon class="st2" points="43.2,6.3 44.1,7.1 44.1,0.1 43.2,0.9 			"/>
		</g>
		<g>
			<g>
				<polygon class="st3" points="47.4,4.1 46.3,4.1 46.3,4.1 46.3,3.1 46.3,3.1 47.4,3.1 				"/>
			</g>
			<g>
				<polygon class="st4" points="47.4,3.1 47.7,2.7 45.9,2.7 46.3,3.1 				"/>
				<line class="st5" x1="47.4" y1="3.1" x2="46.3" y2="3.1"/>
			</g>
			<g>
				<polygon class="st6" points="46.3,4.1 45.9,4.5 47.7,4.5 47.4,4.1 				"/>
				<line class="st5" x1="46.3" y1="4.1" x2="47.4" y2="4.1"/>
			</g>
			<g>
				<polygon class="st6" points="47.4,4.1 47.7,4.5 47.7,2.7 47.4,3.1 				"/>
				<line class="st5" x1="47.4" y1="4.1" x2="47.4" y2="3.1"/>
			</g>
			<g>
				<polygon class="st4" points="46.3,3.1 45.9,2.7 45.9,4.5 46.3,4.1 				"/>
				<line class="st5" x1="46.3" y1="3.1" x2="46.3" y2="4.1"/>
			</g>
		</g>
	</g>
	<g>
		<g>
			<rect x="51.3" y="0.1" class="st0" width="5.5" height="7"/>
			<polygon class="st1" points="56.8,0.1 56.8,7.1 57.6,6.3 57.6,0.9 			"/>
			<polygon class="st2" points="50.4,6.3 51.3,7.1 51.3,0.1 50.4,0.9 			"/>
		</g>
		<g>
			<g>
				<polygon class="st3" points="54.6,4.1 53.5,4.1 53.5,4.1 53.5,3.1 53.5,3.1 54.6,3.1 				"/>
			</g>
			<g>
				<polygon class="st4" points="54.6,3.1 54.9,2.7 53.1,2.7 53.5,3.1 				"/>
				<line class="st5" x1="54.6" y1="3.1" x2="53.5" y2="3.1"/>
			</g>
			<g>
				<polygon class="st6" points="53.5,4.1 53.1,4.5 54.9,4.5 54.6,4.1 				"/>
				<line class="st5" x1="53.5" y1="4.1" x2="54.6" y2="4.1"/>
			</g>
			<g>
				<polygon class="st6" points="54.6,4.1 54.9,4.5 54.9,2.7 54.6,3.1 				"/>
				<line class="st5" x1="54.6" y1="4.1" x2="54.6" y2="3.1"/>
			</g>
			<g>
				<polygon class="st4" points="53.5,3.1 53.1,2.7 53.1,4.5 53.5,4.1 				"/>
				<line class="st5" x1="53.5" y1="3.1" x2="53.5" y2="4.1"/>
			</g>
		</g>
	</g>
</g>
</svg>
