<?xml version="1.0" encoding="utf-8"?>
<!-- Generator: Adobe Illustrator 23.0.1, SVG Export Plug-In . SVG Version: 6.00 Build 0)  -->
<svg version="1.1" id="Layer_1" xmlns:svg="http://www.w3.org/2000/svg"
	 xmlns="http://www.w3.org/2000/svg" xmlns:xlink="http://www.w3.org/1999/xlink" x="0px" y="0px" viewBox="0 0 29 7.2"
	 style="enable-background:new 0 0 29 7.2;" xml:space="preserve">
<style type="text/css">
	.st0{fill:#404040;}
	.st1{fill:none;}
	.st2{fill:#2A2A29;}
	.st3{fill:#474747;}
	.st4{fill:#595959;}
	.st5{fill:#373737;}
</style>
<g>
	<g id="breadboard">
		<rect class="st0" width="29" height="7.2"/>
		<rect id="connector0pin" x="2.2" y="2.2" class="st1" width="2.8" height="2.8"/>
		<rect id="connector0terminal" x="2.5" y="2.5" class="st1" width="2.2" height="2.3"/>
		<rect x="2.2" y="2.2" width="2.8" height="2.8"/>
		<polygon class="st2" points="1.2,1.2 2.2,2.2 5,2.2 6.1,1.2 		"/>
		<polygon class="st3" points="6.1,1.2 5,2.2 5,5 6.1,6 		"/>
		<polygon class="st4" points="6.1,6 5,5 2.2,5 1.2,6 		"/>
		<polygon class="st5" points="1.2,6 2.2,5 2.2,2.2 1.2,1.2 		"/>
		<rect id="connector1pin" x="9.5" y="2.2" class="st1" width="2.8" height="2.8"/>
		<rect id="connector1terminal" x="9.8" y="2.5" class="st1" width="2.2" height="2.3"/>
		<rect x="9.5" y="2.2" width="2.8" height="2.8"/>
		<polygon class="st2" points="8.4,1.2 9.5,2.2 12.3,2.2 13.3,1.2 		"/>
		<polygon class="st3" points="13.3,1.2 12.3,2.2 12.3,5 13.3,6 		"/>
		<polygon class="st4" points="13.3,6 12.3,5 9.5,5 8.4,6 		"/>
		<polygon class="st5" points="8.4,6 9.5,5 9.5,2.2 8.4,1.2 		"/>
		<rect id="connector2pin" x="16.7" y="2.2" class="st1" width="2.8" height="2.8"/>
		<rect id="connector2terminal" x="17" y="2.5" class="st1" width="2.2" height="2.3"/>
		<rect x="16.7" y="2.2" width="2.8" height="2.8"/>
		<polygon class="st2" points="15.7,1.2 16.7,2.2 19.5,2.2 20.6,1.2 		"/>
		<polygon class="st3" points="20.6,1.2 19.5,2.2 19.5,5 20.6,6 		"/>
		<polygon class="st4" points="20.6,6 19.5,5 16.7,5 15.7,6 		"/>
		<polygon class="st5" points="15.7,6 16.7,5 16.7,2.2 15.7,1.2 		"/>
		<rect id="connector3pin" x="24" y="2.2" class="st1" width="2.8" height="2.8"/>
		<rect id="connector3terminal" x="24.3" y="2.5" class="st1" width="2.2" height="2.3"/>
		<rect x="24" y="2.2" width="2.8" height="2.8"/>
		<polygon class="st2" points="23,1.2 24,2.2 26.8,2.2 27.8,1.2 		"/>
		<polygon class="st3" points="27.8,1.2 26.8,2.2 26.8,5 27.8,6 		"/>
		<polygon class="st4" points="27.8,6 26.8,5 24,5 23,6 		"/>
		<polygon class="st5" points="23,6 24,5 24,2.2 23,1.2 		"/>
	</g>
</g>
</svg>
