<?xml version="1.0" encoding="utf-8"?>
<!-- Generator: Adobe Illustrator 24.0.0, SVG Export Plug-In . SVG Version: 6.00 Build 0)  -->
<svg version="1.1" id="Layer_1" xmlns="http://www.w3.org/2000/svg" xmlns:xlink="http://www.w3.org/1999/xlink" x="0px" y="0px"
	 viewBox="0 0 14.4 13.6" style="enable-background:new 0 0 14.4 13.6;" xml:space="preserve">
<style type="text/css">
	.st0{fill:#373737;}
	.st1{fill:#474747;stroke:#333333;stroke-width:5.000000e-02;stroke-miterlimit:10;}
	.st2{fill:#2A2A29;}
	.st3{fill:#FFDC64;stroke:#000000;stroke-width:5.000000e-02;stroke-miterlimit:10;}
	.st4{fill:#FFC83C;stroke:#000000;stroke-width:5.000000e-02;stroke-miterlimit:10;}
</style>
<g>
	<g>
		<rect x="0.9" y="0.1" class="st0" width="5.5" height="7"/>
		<polygon class="st1" points="6.4,0.1 6.4,7.1 7.2,6.3 7.2,0.9 		"/>
		<polygon class="st2" points="0,6.3 0.9,7.1 0.9,0.1 0,0.9 		"/>
	</g>
	<g>
		<rect x="8.1" y="0.1" class="st0" width="5.5" height="7"/>
		<polygon class="st1" points="13.6,0.1 13.6,7.1 14.4,6.3 14.4,0.9 		"/>
		<polygon class="st2" points="7.2,6.3 8.1,7.1 8.1,0.1 7.2,0.9 		"/>
	</g>
	<g>
		<g>
			<polygon class="st3" points="11.7,13.1 9.9,13.1 9.9,13.1 9.9,2.7 9.9,2.7 11.7,2.7 			"/>
		</g>
		<g>
			<polygon class="st4" points="11.4,13.5 11.7,13.1 9.9,13.1 10.3,13.5 			"/>
		</g>
	</g>
	<g>
		<g>
			<polygon class="st3" points="4.5,13.1 2.7,13.1 2.7,13.1 2.7,2.7 2.7,2.7 4.5,2.7 			"/>
		</g>
		<g>
			<polygon class="st4" points="4.2,13.5 4.5,13.1 2.7,13.1 3.1,13.5 			"/>
		</g>
	</g>
</g>
</svg>
