<?xml version="1.0" encoding="utf-8"?>
<!-- Generator: Adobe Illustrator 23.0.1, SVG Export Plug-In . SVG Version: 6.00 Build 0)  -->
<svg version="1.1" id="Layer_1" xmlns="http://www.w3.org/2000/svg" xmlns:xlink="http://www.w3.org/1999/xlink" x="0px" y="0px"
	 viewBox="0 0 7.2 7.2" style="enable-background:new 0 0 7.2 7.2;" xml:space="preserve">
<style type="text/css">
	.st0{fill:#373737;}
	.st1{fill:#474747;stroke:#333333;stroke-width:5.000000e-02;stroke-miterlimit:10;}
	.st2{fill:#2A2A29;}
	.st3{fill:#FFDC64;stroke:#000000;stroke-width:5.000000e-02;stroke-miterlimit:10;}
	.st4{fill:#FFC83C;stroke:#000000;stroke-width:5.000000e-02;stroke-miterlimit:10;}
	.st5{fill:none;stroke:#000000;stroke-width:5.000000e-02;stroke-miterlimit:10;}
	.st6{fill:#FFF08C;stroke:#000000;stroke-width:5.000000e-02;stroke-miterlimit:10;}
</style>
<g>
	<g>
		<rect x="0.9" y="0.1" class="st0" width="5.5" height="7"/>
		<polygon class="st1" points="6.4,0.1 6.4,7.1 7.2,6.3 7.2,0.9 		"/>
		<polygon class="st2" points="0,6.3 0.9,7.1 0.9,0.1 0,0.9 		"/>
	</g>
	<g>
		<g>
			<polygon class="st3" points="4.2,4.1 3.1,4.1 3.1,4.1 3.1,3.1 3.1,3.1 4.2,3.1 			"/>
		</g>
		<g>
			<polygon class="st4" points="4.2,3.1 4.5,2.7 2.7,2.7 3.1,3.1 			"/>
			<line class="st5" x1="4.2" y1="3.1" x2="3.1" y2="3.1"/>
		</g>
		<g>
			<polygon class="st6" points="3.1,4.1 2.7,4.5 4.5,4.5 4.2,4.1 			"/>
			<line class="st5" x1="3.1" y1="4.1" x2="4.2" y2="4.1"/>
		</g>
		<g>
			<polygon class="st6" points="4.2,4.1 4.5,4.5 4.5,2.7 4.2,3.1 			"/>
			<line class="st5" x1="4.2" y1="4.1" x2="4.2" y2="3.1"/>
		</g>
		<g>
			<polygon class="st4" points="3.1,3.1 2.7,2.7 2.7,4.5 3.1,4.1 			"/>
			<line class="st5" x1="3.1" y1="3.1" x2="3.1" y2="4.1"/>
		</g>
	</g>
</g>
</svg>
