<?xml version="1.0" encoding="utf-8"?>
<!-- Generator: Adobe Illustrator 23.0.3, SVG Export Plug-In . SVG Version: 6.00 Build 0)  -->
<svg version="1.1" id="Layer_1" xmlns="http://www.w3.org/2000/svg" xmlns:xlink="http://www.w3.org/1999/xlink" x="0px" y="0px"
	 viewBox="0 0 36.7 54.9" style="enable-background:new 0 0 36.7 54.9;" xml:space="preserve">
<style type="text/css">
	.st0{stroke:#000000;stroke-miterlimit:10;}
	.st1{fill:#FFFFFF;}
	.st2{opacity:0.5;fill:none;stroke:#A8A8A8;stroke-width:0.5;stroke-miterlimit:10;enable-background:new    ;}
	.st3{font-family:'ArialMT';}
	.st4{font-size:4.0092px;}
	.st5{font-size:4.01px;}
</style>
<g>
	<g>
		<rect x="0.5" y="0.5" class="st0" width="35.7" height="53.9"/>
		<g>
			<path d="M8.2,47.6c-2.8-0.5-3.8-2.7-3.4-5.4c0.3-2.2,0.6-4.3,0.9-6.5c0.4-2.6,0.8-5.2,1.2-7.8c0.3-2,0.5-4,0.8-6.1
				c0.3-2.2,0.6-4.4,1-6.6c0.2-1.5,0.5-3,0.6-4.5c0.3-2.3,2.1-3.8,4.5-3.7c1.5,0.1,12.4,0,12.6,0c1.1,0.1,2.2,0,3.3,0.2
				c2,0.4,3.2,2.4,2.9,4.4c-0.4,2.6-0.7,5.3-1,8c-0.4,2.5-0.8,5.1-1.1,7.6c-0.3,2.1-0.5,4.3-0.8,6.4c-0.3,2.2-0.6,4.3-0.9,6.5
				c-0.2,1.2-0.3,2.3-0.4,3.5c-0.2,2.1-2.2,4-4.2,4 M23.8,43.3c0.6-4.5,1.3-9.2,1.9-13.8c-5,0-9.9,0-14.7,0
				c-0.6,4.6-1.3,9.1-1.9,13.8C14,43.3,18.9,43.3,23.8,43.3z M26.3,25.3c0.6-4.6,1.3-9.2,1.9-13.9c-4.9,0-9.8,0-14.7,0
				c-0.6,4.6-1.3,9.2-1.9,13.9C16.6,25.3,21.4,25.3,26.3,25.3z M23.8,47.1c1.6,0.1,3.2-0.9,3.5-2.3c0.6-2.9,1-5.9,1.4-8.9
				c0.4-2.6,0.7-5.3,1.1-7.9c-1.8-0.2-3.5,1.1-3.7,2.9c-0.1,1-0.3,2.1-0.4,3.1c-0.3,2.2-0.6,4.3-0.9,6.5
				C24.4,42.6,24.1,44.8,23.8,47.1z M13.6,7.6c-0.2,0.1-0.4,0.1-0.5,0.2c-1.8,0.1-2.9,1.2-3.2,3c-0.2,1.1-0.4,2.1-0.5,3.2
				c-0.6,4.3-1.2,8.6-1.7,12.9c1.5,0.3,3.3-0.8,3.6-2.3c0.4-2.3,0.6-4.6,0.9-6.9C12.6,14.3,13.1,11,13.6,7.6z M7.4,28
				c-0.4,2.4-0.7,4.8-1.1,7.3s-0.6,5.1-1,7.6C5,44.6,6.2,46.9,8,47c0.4-2.5,0.7-5,1.1-7.5c0.4-2.7,0.8-5.4,1.2-8.1
				c0.1-0.7,0.3-1.5,0-2C9.7,28.5,8.9,27.4,7.4,28z M29.3,7.7c-0.1,0.7-0.2,1.4-0.3,2.1c-0.3,2.2-0.6,4.4-1,6.7
				c-0.3,2.1-0.6,4.2-0.9,6.3c-0.2,1.4-0.7,2.9,1,3.9c0.8,0.5,1.8,0.3,1.9-0.5c0.2-1.4,0.4-2.8,0.6-4.2c0.4-3.1,0.6-6.3,1.3-9.4
				C32.3,10.4,31.5,8.5,29.3,7.7z M10,27.5c0.1,0.2,0.3,0.3,0.4,0.5c0.4,0.8,1.1,1.1,2,1.1c3.8-0.1,7.6-0.1,11.3,0
				c1.6,0.1,2.5-0.8,3.4-1.7c-0.7-1.5-1.9-1.6-3.3-1.6c-3.4,0.1-6.8,0.1-10.3,0C12.1,25.7,11,26.3,10,27.5z M28.2,7.6
				c-4.5,0-9,0-13.6,0c-0.1,1.1-0.3,2.2-0.4,3.3c4.6,0,9.1,0,13.6,0C27.9,9.8,28.1,8.7,28.2,7.6z M9.1,47c4.6,0,9.1,0,13.6,0
				c0.2-1.1,0.3-2.1,0.5-3.1c-4.6,0-9.1,0-13.6,0C9.4,45,9.2,46,9.1,47z"/>
			<path d="M32.6,47.5c-0.6,0-1.1,0-1.7-0.1c-1.1-0.2-1.8-1.8-1.2-2.8c0.6-1.2,1.8-1.7,2.9-1.1c1.2,0.7,1.6,2,0.9,3.1
				C33.1,47,32.8,47.2,32.6,47.5C32.6,47.6,32.6,47.5,32.6,47.5z M31.6,47.1c0.8,0,1.7-0.9,1.7-1.6c0-0.9-0.7-1.6-1.6-1.6
				s-1.6,0.7-1.6,1.6C30.1,46.4,30.7,47.1,31.6,47.1z"/>
			<path class="st1" d="M23.8,47.1c0.3-2.3,0.6-4.5,0.9-6.7s0.6-4.3,0.9-6.5c0.1-1,0.3-2.1,0.4-3.1c0.2-1.7,1.9-3,3.7-2.9
				c-0.4,2.6-0.7,5.3-1.1,7.9c-0.4,3-0.8,5.9-1.4,8.9C27,46.2,25.4,47.1,23.8,47.1z"/>
			<path class="st1" d="M13.6,7.6c-0.5,3.4-1,6.7-1.5,10c-0.3,2.3-0.5,4.6-0.9,6.9C10.9,26,9.1,27,7.6,26.7
				c0.6-4.3,1.1-8.6,1.7-12.9c0.1-1.1,0.3-2.1,0.5-3.2c0.3-1.8,1.4-2.8,3.2-3C13.2,7.7,13.3,7.6,13.6,7.6z"/>
			<path class="st1" d="M7.4,28c1.5-0.5,2.3,0.5,2.9,1.5c0.3,0.5,0.1,1.3,0,2c-0.4,2.7-0.8,5.4-1.2,8.1C8.7,42,8.4,44.5,8,47
				c-1.8-0.1-3.1-2.4-2.7-4.2c0.4-2.5,0.7-5,1-7.6C6.7,32.8,7.1,30.4,7.4,28z"/>
			<path class="st1" d="M29.3,7.7c2.2,0.8,3,2.7,2.6,4.7c-0.6,3.1-0.9,6.3-1.3,9.4c-0.2,1.4-0.4,2.8-0.6,4.2c-0.1,0.8-1.1,1-1.9,0.5
				c-1.6-1-1.2-2.5-1-3.9c0.3-2.1,0.6-4.2,0.9-6.3c0.3-2.2,0.6-4.4,1-6.7C29.1,9.1,29.2,8.5,29.3,7.7z"/>
			<path class="st1" d="M10,27.5c1-1.1,2-1.7,3.6-1.7c3.4,0.1,6.8,0.1,10.3,0c1.4,0,2.6,0.1,3.3,1.6c-0.9,0.9-1.8,1.7-3.4,1.7
				c-3.8-0.1-7.6-0.1-11.3,0c-1,0-1.6-0.2-2-1.1C10.3,27.8,10.2,27.6,10,27.5z"/>
			<path class="st1" d="M28.2,7.6c-0.1,1.1-0.3,2.2-0.4,3.3c-4.5,0-9.1,0-13.6,0c0.1-1.1,0.3-2.2,0.4-3.3
				C19.2,7.6,23.7,7.6,28.2,7.6z"/>
			<path class="st1" d="M9.1,47c0.1-1,0.3-2,0.4-3.1c4.5,0,9,0,13.6,0c-0.2,1-0.3,2-0.5,3.1C18.2,47,13.7,47,9.1,47z"/>
			<path class="st1" d="M31.6,47.1c-0.8,0-1.5-0.7-1.5-1.6c0-0.9,0.6-1.6,1.6-1.6c0.9,0,1.6,0.7,1.6,1.6
				C33.2,46.2,32.3,47.1,31.6,47.1z"/>
		</g>
		<g>
			<circle class="st2" cx="4" cy="49.1" r="0.7"/>
			<circle class="st2" cx="11.2" cy="49.1" r="0.7"/>
			<circle class="st2" cx="18.4" cy="49.1" r="0.7"/>
			<circle class="st2" cx="25.6" cy="49.1" r="0.7"/>
			<circle class="st2" cx="32.8" cy="49.1" r="0.7"/>
		</g>
		<g>
			<circle class="st2" cx="4" cy="5.9" r="0.7"/>
			<circle class="st2" cx="11.2" cy="5.9" r="0.7"/>
			<circle class="st2" cx="18.4" cy="5.9" r="0.7"/>
			<circle class="st2" cx="25.6" cy="5.9" r="0.7"/>
			<circle class="st2" cx="32.8" cy="5.9" r="0.7"/>
		</g>
	</g>
	<text transform="matrix(1 0 0 1 1.5439 4.0088)" class="st1 st3 st4">10    9    8     7    6</text>
	<text transform="matrix(1 0 0 1 2.6557 53.5884)" class="st1 st3 st5">1     2    3     4    5</text>
</g>
</svg>
