<?xml version="1.0" encoding="utf-8"?>
<!-- Generator: Adobe Illustrator 24.0.0, SVG Export Plug-In . SVG Version: 6.00 Build 0)  -->
<svg version="1.1" id="Layer_1" xmlns:svg="http://www.w3.org/2000/svg"
	 xmlns="http://www.w3.org/2000/svg" xmlns:xlink="http://www.w3.org/1999/xlink" x="0px" y="0px" viewBox="0 0 15.5 54.9"
	 style="enable-background:new 0 0 15.5 54.9;" xml:space="preserve">
<style type="text/css">
	.st0{fill:none;stroke:#8C8C8C;stroke-width:2.1514;stroke-linecap:round;stroke-linejoin:round;}
	.st1{fill:none;}
	.st2{fill:#8C8C8C;}
	.st3{opacity:0.3;fill:#FF0000;enable-background:new    ;}
	.st4{opacity:0.5;fill:#E6E6E6;enable-background:new    ;}
	.st5{opacity:0.9;fill:#D1D1D1;enable-background:new    ;}
	.st6{opacity:0.7;fill:#FF0000;enable-background:new    ;}
	.st7{opacity:0.25;fill:#E6E6E6;enable-background:new    ;}
	.st8{opacity:0.25;fill:#FF0000;enable-background:new    ;}
	.st9{fill:#666666;}
	.st10{opacity:0.65;fill:#FF0000;stroke:#700000;stroke-width:0.25;stroke-miterlimit:10;enable-background:new    ;}
	.st11{opacity:0.5;fill:#FFFFFF;enable-background:new    ;}
	.st12{opacity:0.25;fill:#FF0000;stroke:#700000;stroke-width:0.25;stroke-miterlimit:10;enable-background:new    ;}
</style>
<g>
	<path class="st0" d="M10.9,53.8V29.2"/>
	<path class="st0" d="M3.7,53.8V29.2"/>
	<g>
		<g id="breadboard_2_">
			<rect id="connector0pin_1_" x="9.9" y="25.4" class="st1" width="2.2" height="0.7"/>
			<rect id="connector1pin_1_" x="2.7" y="25.4" class="st1" width="2.2" height="0.7"/>
			<g id="connector0leg_1_">
			</g>
			<g id="connector1leg_1_">
			</g>
			<rect x="9.9" y="19.4" class="st2" width="2.2" height="9.8"/>
			<path class="st2" d="M4.8,29.6c0-0.5,0.9-1.4,1.3-1.8c1-0.9,1.9-1.7,1.9-2.7v-5.8H5.9v5.5c0,0.4-0.8,1.1-1.2,1.4
				c-1,0.9-2.1,1.8-2.1,3"/>
			<g id="g12">
				<path id="color_path14" class="st3" d="M0,16.1l0,1.5c0,3.2,3.7,5.9,8.4,5.9c3,0,5.6-1.1,7.1-2.8V7.1c0-3.9-3.2-7.1-7.1-7.1
					C4.5,0,1.3,3.2,1.3,7.1V13C0.5,13.9,0,15,0,16.1z"/>
				<path id="path16" class="st4" d="M0,16.1l0,1.5c0,3.2,3.7,5.9,8.4,5.9c3,0,5.6-1.1,7.1-2.8V7.1c0-3.9-3.2-7.1-7.1-7.1
					C4.5,0,1.3,3.2,1.3,7.1V13C0.5,13.9,0,15,0,16.1z"/>
				<path id="path18" class="st5" d="M0,16.1l0,1.5c0,3.2,3.7,5.9,8.4,5.9c3,0,5.6-1.1,7.1-2.8v-1.5v-3.1c0,2.7-3.2,5-7.1,5
					c-3.9,0-7.1-2.2-7.1-5V13C0.5,13.9,0,15,0,16.1z"/>
				<path id="color_path20" class="st6" d="M0,16.1l0,1.5c0,3.2,3.7,5.9,8.4,5.9c3,0,5.6-1.1,7.1-2.8v-1.5v-3.1c0,2.7-3.2,5-7.1,5
					c-3.9,0-7.1-2.2-7.1-5V13C0.5,13.9,0,15,0,16.1z"/>
				<ellipse id="ellipse24" class="st7" cx="8.4" cy="16.1" rx="7.1" ry="5"/>
				<ellipse id="color_ellipse26" class="st8" cx="8.4" cy="16.1" rx="7.1" ry="5"/>
				<polygon id="polygon28" class="st9" points="12,8.8 5.4,8.8 9.4,13.1 12.3,13.1 12.3,16.1 13.3,16.1 13.3,9.6 				"/>
				<polygon id="polygon30" class="st9" points="3.5,8.5 3.5,16.1 4.4,16.1 4.4,13.1 8,13.1 4.2,9 4.7,8.5 				"/>
				<path id="color_path32" class="st10" d="M0,16.1l0,1.5c0,3.2,3.7,5.9,8.4,5.9c3,0,5.6-1.1,7.1-2.8V7.1c0-3.9-3.2-7.1-7.1-7.1
					C4.5,0,1.3,3.2,1.3,7.1V13C0.5,13.9,0,15,0,16.1z"/>
				<path id="path34" class="st11" d="M6.9,2.3l0.3-1.1C5.7,1.5,4.5,2.3,3.6,3.5l1.4,0.3C5.5,3.1,6.2,2.6,6.9,2.3z"/>
				<path id="path36" class="st11" d="M12.4,21.2v1.5c0.9-0.3,1.7-0.8,2.3-1.3v-1.5C14,20.5,13.3,20.9,12.4,21.2z"/>
				<path id="path38" class="st11" d="M4.4,20.2l-0.5,0.4c1.3,0.6,2.8,1,4.5,1c2.7,0,5.1-1,6.5-2.5l-0.3-0.7
					c-0.2,0.2-0.4,0.5-0.5,0.5V7.1c0-2.1-1.1-3.9-2.8-4.9l-1.2,1.5l0,0.1c1.2,0.6,2.1,1.9,2.1,3.3v4.8l0,8.4c-1,0.4-2.1,0.7-3.3,0.7
					c-0.2,0-0.3,0-0.5,0c-0.3,0-0.7,0-1-0.1c-0.1,0-0.1,0-0.2,0c-0.6-0.1-1.2-0.2-1.8-0.4c-0.1,0-0.1,0-0.2-0.1
					C4.9,20.4,4.6,20.3,4.4,20.2C4.4,20.2,4.4,20.2,4.4,20.2z"/>
				<path id="color_path22" class="st12" d="M0,16.1C0,19.3,3.7,22,8.4,22c3,0,5.6-1.1,7.1-2.8v-3.1c0,2.7-3.2,5-7.1,5
					c-3.9,0-7.1-2.2-7.1-5V13C0.5,13.9,0,15,0,16.1z"/>
			</g>
		</g>
	</g>
</g>
</svg>
