<?xml version="1.0" encoding="utf-8"?>
<!-- Generator: Adobe Illustrator 23.0.1, SVG Export Plug-In . SVG Version: 6.00 Build 0)  -->
<svg version="1.1" id="Layer_2" xmlns="http://www.w3.org/2000/svg" xmlns:xlink="http://www.w3.org/1999/xlink" x="0px" y="0px"
	 viewBox="0 0 28.4 28.4" style="enable-background:new 0 0 28.4 28.4;" xml:space="preserve">
<style type="text/css">
	.st0{fill:#0000FF;stroke:#000000;stroke-width:2.000000e-02;stroke-miterlimit:10;}
	.st1{fill:url(#SVGID_1_);stroke:#000000;stroke-width:2.000000e-02;stroke-miterlimit:10;}
	.st2{opacity:0.5;}
	.st3{fill:#D9D9D9;stroke:#000000;stroke-width:5.000000e-02;stroke-miterlimit:10;}
	.st4{fill:#B3B3B3;stroke:#000000;stroke-width:5.000000e-02;stroke-miterlimit:10;}
	.st5{fill:none;stroke:#000000;stroke-width:5.000000e-02;stroke-miterlimit:10;}
	.st6{fill:#EDEDED;stroke:#000000;stroke-width:5.000000e-02;stroke-miterlimit:10;}
	.st7{opacity:0.4;}
	.st8{font-family:'MyriadPro-Regular';}
	.st9{font-size:12px;}
	.st10{font-size:5.7965px;}
</style>
<circle class="st0" cx="14.2" cy="14.2" r="14.2"/>
<radialGradient id="SVGID_1_" cx="14.1982" cy="14.1982" r="12.7559" gradientUnits="userSpaceOnUse">
	<stop  offset="0" style="stop-color:#FFFFFF"/>
	<stop  offset="0.8544" style="stop-color:#0F00FF"/>
	<stop  offset="0.9763" style="stop-color:#0095FF"/>
</radialGradient>
<circle class="st1" cx="14.2" cy="14.2" r="12.8"/>
<g class="st2">
	<g>
		<polygon class="st3" points="11.2,14.7 10.1,14.7 10.1,14.7 10.1,13.7 10.1,13.7 11.2,13.7 		"/>
	</g>
	<g>
		<polygon class="st4" points="11.2,13.7 11.5,13.3 9.7,13.3 10.1,13.7 		"/>
		<line class="st5" x1="11.2" y1="13.7" x2="10.1" y2="13.7"/>
	</g>
	<g>
		<polygon class="st6" points="10.1,14.7 9.7,15.1 11.5,15.1 11.2,14.7 		"/>
		<line class="st5" x1="10.1" y1="14.7" x2="11.2" y2="14.7"/>
	</g>
	<g>
		<polygon class="st6" points="11.2,14.7 11.5,15.1 11.5,13.3 11.2,13.7 		"/>
		<line class="st5" x1="11.2" y1="14.7" x2="11.2" y2="13.7"/>
	</g>
	<g>
		<polygon class="st4" points="10.1,13.7 9.7,13.3 9.7,15.1 10.1,14.7 		"/>
		<line class="st5" x1="10.1" y1="13.7" x2="10.1" y2="14.7"/>
	</g>
</g>
<g class="st2">
	<g>
		<polygon class="st3" points="18.4,14.7 17.3,14.7 17.3,14.7 17.3,13.7 17.3,13.7 18.4,13.7 		"/>
	</g>
	<g>
		<polygon class="st4" points="18.4,13.7 18.7,13.3 16.9,13.3 17.3,13.7 		"/>
		<line class="st5" x1="18.4" y1="13.7" x2="17.3" y2="13.7"/>
	</g>
	<g>
		<polygon class="st6" points="17.3,14.7 16.9,15.1 18.7,15.1 18.4,14.7 		"/>
		<line class="st5" x1="17.3" y1="14.7" x2="18.4" y2="14.7"/>
	</g>
	<g>
		<polygon class="st6" points="18.4,14.7 18.7,15.1 18.7,13.3 18.4,13.7 		"/>
		<line class="st5" x1="18.4" y1="14.7" x2="18.4" y2="13.7"/>
	</g>
	<g>
		<polygon class="st4" points="17.3,13.7 16.9,13.3 16.9,15.1 17.3,14.7 		"/>
		<line class="st5" x1="17.3" y1="13.7" x2="17.3" y2="14.7"/>
	</g>
</g>
<text transform="matrix(1 0 0 1 20.7597 17.7202)" class="st7 st8 st9">-</text>
<text transform="matrix(1 0 0 1 4.5312 15.8994)" class="st7 st8 st10">+</text>
</svg>
