<?xml version="1.0" encoding="utf-8"?>
<!-- Generator: Adobe Illustrator 24.0.0, SVG Export Plug-In . SVG Version: 6.00 Build 0)  -->
<svg version="1.1" id="Layer_1" xmlns="http://www.w3.org/2000/svg" xmlns:xlink="http://www.w3.org/1999/xlink" x="0px" y="0px"
	 viewBox="0 0 375.3 54" style="enable-background:new 0 0 375.3 54;" xml:space="preserve">
<g transform="translate(0.000000,640.000000) scale(0.100000,-0.100000)">
	<path d="M8,6308.1l66.8-12.1l66.4-12l-4-19.5c-5-24.7-2.1-43.7,10.4-63.1c14.3-22.8,29-33.5,54.1-38.6c32.1-6.5,58.4,3.6,79.5,31.3
		c15.1,19.7,17.2,25.1,16.6,43.6l-0.6,21l57.9-8.4c66.8-9.7,62.4-7.9,127.7-48.3c27.1-16.7,52.2-31.5,55.3-33
		c3-1.6,3.5-11.4,0.5-26.3c-4.4-21.4-7-24.7-24.6-35.2c-34-19.3-49.4-52.5-42.1-90.2c5-25.2,12.7-37.4,33-52.2
		c21.9-16.1,39.1-19.6,66.2-12.5c56.2,14.3,80.2,77.6,49.1,129.5c-10.3,18.1-11.6,24.1-7.3,45.1c4,19.5,3.4,24-3,25.8
		c-4.7,1,3.8,4.6,18.6,7.8c14.7,3.3,43.9,13.3,65.1,22.6c37.2,16.2,39.6,16.2,87.5,11.3c74.1-7.3,72.3-6.5,62.8-22.5
		c-4.4-7.3-8.4-22.5-9.4-34.4c-7.2-80.9,93.9-121.8,145.1-58.1c13.4,16.2,21.3,54.8,15.3,75.3c-6.1,20.1-4.6,20.3,51.2,13.3
		c38.2-5.3,45-7.7,82.3-28.8c22.1-12.7,48-26.2,57.4-29.6c15.7-6.1,17.2-8.4,20.1-32.2c2.9-23.8,2.8-26.7-6.3-36
		c-23.2-23.4-27.8-67.5-10.9-99c37.8-68.7,136.2-54.4,151.8,22.4c7.3,35.8-7.9,70.9-39.8,92.4c-10.7,7-16.6,16-19.9,30.7
		c-2.5,11.6-3.5,21.1-2.3,21.8c1.1,0.8,22.6,8.5,47.7,17.4c43.2,14.9,49.3,16.1,104.5,13.6c32.6-1.8,64.8-3,72.5-3.1
		c12-0.5,12.8-1.6,9.5-17.4c-9-44.2,20.8-88,66-97.2c50.7-10.3,100.6,34.8,96.6,86.9c-1.1,11.3,0.6,17.3,4.3,19
		c3.1,0.8,33.1,1,66.7-0.5l61.2-1.8l42.2-26c23.3-14,54.6-29.1,69.6-34c26.9-8.4,27.7-9,32.2-29.8c4.5-20.8,4.3-21.7-8-37.1
		c-22.8-28.8-25.7-69.4-6.7-99.4c14.3-22.8,29-33.5,54.2-38.6c73-14.9,124.3,65.8,81.6,129.7c-7.8,11.8-19.8,23.9-27,26.8
		c-10.3,4-14.8,10.8-19.1,27.6l-5.7,22l32.4,11.8c17.7,6.1,50.9,19.2,74.2,29c40.3,17,44.7,17.5,127.5,19.6
		c47.2,1,89.1,2.2,93.6,2.8c5.4,0.3,8.2-5.1,9.7-19c3.5-40,28.1-69.2,64.8-76.7c49.8-10.1,95.6,27.1,99.3,81l1.7,22.4l85,5.9
		c78.6,5.3,86.2,4.7,106.2-4.2c25.4-11,81-18.4,105.7-13.7c9,1.5,29.4,11,45.4,20.8c36.1,22.7,31.9,21.1,138.8,34.7
		c49.2,6,92.9,11.6,97.5,12.6c7,1,7.5-1.5,1.9-19.3c-9.9-30-8.8-52.5,4.1-75c26.5-46.1,80.7-58.1,121.1-26.1
		c35.9,28.5,41.9,74.8,14,116.3l-15.1,23.4l38.1,6.3c37.2,6.5,39.9,5.9,104.7-9.2c45.3-10.7,64-16.4,57.7-18.6
		c-7.3-2.4-7.4-5.3,3.1-25.4c10.7-21.1,11.1-24.1,3.5-40c-10.3-22.1-8.1-49.2,6.9-75.5c26.5-46.1,80.7-58.1,121.1-26.1
		c17.9,14.3,32.1,41.4,31.6,59.9c-1.1,42.4-29.3,80-64.6,87.3c-13,2.6-19.4,6.9-22.3,14.2c-2.5,6.8-1.8,10.1,1,9.5
		c10.7-2.2,61.3,34.5,98.3,71.1c35.9,35.8,41.5,39.5,70.5,46.7c16.9,4.3,65.7,9.6,66.2,11.9c1.1,5.6-35.4,2.7-64.3-2.6
		c-9.8-2.6-24.4-6.1-24.4-6.1s2.4,3.7,3.3,4.6c31.4,35.3,76.4,70.7,87.1,68.5c3.3-0.7,6.5,1.1,7,3.4c1.4,8.8-11.9,7.1-33.3-5
		c-11.6-6.8-35-26.8-52.2-44.6l-30.8-32.5l-84.3-21.6c-46.5-11.9-120.2-28.8-163.6-37.5l-79.4-16.3l-73.8,16l-73.8,15.5l-62-16.5
		c-65.1-17.3-129-39.1-178.2-61.6c-24-10.6-47-14.7-127.5-22l-98.3-9.1l-32.4,21.6c-27.3,18.2-38.9,23-74.2,30.6
		c-22.7,5.1-51.9,9.1-64.4,9.7c-19.3,0.5-22.9,1.7-21.7,7.8c1.2,6.1-5,8.8-35.7,15l-37.2,7.6l-4.1-20c-3.9-19.1-5.1-20.3-22.5-22.5
		c-44.9-6.4-139.9-33.1-187.5-52.4l-51.8-21.4l-88.8-0.8c-48.5-0.3-127.9-0.1-175.8-0.1l-87.4,1.3l-46.5,30.8
		c-25.5,17.3-57.6,36-71,41.6c-13.4,5.6-27.9,12.9-31.6,16.1c-4.2,3.3-23.4,9.1-42.4,13c-27.9,5.7-35.2,5.7-36.3,0.1
		c-0.8-3.7-13.7-10.3-28.1-14.1c-14.9-4.3-62.5-21.7-106.2-38.5l-79-31.4l-109.9,7.4c-180.1,12.4-168,10-229.4,46.2
		c-32.8,19.8-52.2,33.9-51.4,37.6c1.1,5.1-8.9,8.6-45.2,16c-42.3,8.6-49.6,8.6-76.2,1.5c-15.9-4.5-51.6-18.1-78.8-30l-49-22
		l-91.2,11.3c-49.6,6.2-118.1,14.8-152.1,19.3l-61.3,8.1l-40.3,28.1c-54,36.7-105.5,67-131.3,76.1c-11.7,4.3-22.4,11.3-23.9,16
		c-2,6.7-6.8,7.2-36.9,1.7c-19.2-3.8-36-7.7-37.7-9.3c-1.7-1.6-15.6-5.1-30.7-8.3c-15.2-3.2-49.9-12.1-76.9-20.7l-49-14.7
		 M3605.1,6278.2c-29-30.5-66.5-60.1-86.6-68.6l-19.6-8.1l-4.8,12.1l-4.4,11.5l-20.5-10.4c-20.5-10.4-21-10.2-80.1,1.8
		c-33.5,6.8-57.3,13.6-54,15.3c2.7,1.4,30.2,7.9,60.5,13.8c71.6,14,211.6,47,218.3,51.5c6.5,1.6,12.5,3.6,12.5,3.6
		S3614.4,6287.8,3605.1,6278.2z M3278.5,6232.2c-1.1-0.8-18.6-3.5-38.7-6.7c-35.9-5.3-35.9-5.3-43.4,5.9
		c-13,19.6-7.4,20.9,39.6,11.3C3260.7,6237.8,3279.6,6232.9,3278.5,6232.2z M3116.4,6225.9c2.4-9.7,3.6-18.2,2-18.8
		c-5.6-3.7-180.4-24.8-182.3-22.5c-3.7,5.6,159.4,62,172.5,59.8C3110.4,6244.1,3114,6235.6,3116.4,6225.9z M2852.6,6150.8
		c-32.3-18.1-40.3-19.4-86.6-13.9c-66.3,7.7-58.4,15.3,25,23c41,3.8,77.8,6.5,81.2,6.3C2875.4,6165.5,2866.9,6159,2852.6,6150.8z
		 M2654,6177.2c13.2-9,23.7-16.9,22.6-17.7c-1.1-0.8-37.1-3.6-79.8-6.5l-77.7-5.5l-12.5,19.5c-7.6,12.7-11,24.5-9.4,32.4
		c2.3,11.6,5.1,13,25.9,13.1C2560.6,6213.1,2625.3,6195.6,2654,6177.2z M2396.2,6188.4c-10.6-7-23.6-20.9-28.4-30
		c-5-10.1-12.4-17.9-17.3-18.3c-4.5-0.6-38.1-1.5-74.1-2.4c-36-0.9-70.1-1.7-75.5-2.1l-9.8-0.4l10.8,5.6
		c27.6,14.3,92.5,35.5,146.9,48.1c32.5,7.4,61.3,13.2,63.2,12.8C2413.9,6201.8,2406.9,6195.5,2396.2,6188.4z M2138.1,6124.7
		c-0.8-4.2-85.9-36.3-125.9-47.5c-35.4-9.7-41.8-10.4-75.8-3.5c-29.3,6-44.9,12.5-73.9,29.5c-20.4,11.9-33.4,21.8-29.4,22
		c3.9,0.2,73.7,0.5,155.2,0.9c81.4-0.1,148.3,0.4,149.3,0.6C2138.1,6126.6,2138.4,6126.1,2138.1,6124.7z M1711,6189.3
		c16.3-8.1,41.2-23.9,56-34.2l26.6-19l-61.2,1.3l-61.6,1.9l-10.8,15.8c-9.4,13.1-10.5,19.6-6.8,38.2
		C1658.3,6218.4,1654.9,6218.6,1711,6189.3z M1557.3,6181.8c-10.3-5.2-22.6-15.7-27.4-22.5c-5.5-8.1-12.8-12.9-21-12.7
		c-23.8,0-108.4,5.1-109.6,6.8s52.7,23.2,124.8,49.2l54.8,19.4l-1.6-15.2C1576.4,6194.4,1572.5,6189.8,1557.3,6181.8z M901.6,6237.2
		c-3.6-17.7-6.8-21.4-24.1-30.5c-18.4-9.3-25.7-9.8-72.7-5.1c-28.6,2.4-52.7,5.4-53.4,6.5c-1.5,2.3,78.4,35.4,106.9,44.6
		c14.5,4.3,31,7.2,37.1,6C904.2,6257.1,905.1,6254.5,901.6,6237.2z M1024,6201.2c20-11.3,34.9-21.1,33.3-22.3
		c-6.2-4.5-71.4,3.9-78.8,10.2c-9.2,7.2-5,42.2,4.5,36.4C985.5,6223.6,1004.2,6213,1024,6201.2z M1339.8,6141.3
		c-5.9-2.7-33.8-11.5-62.1-19.3c-48.6-12.9-52.6-13.5-78.7-5.8c-15.1,4.5-42.1,16.8-60,26.7c-39,22.5-44.1,21.6,94.2,10.9
		c56.3-4.2,103.7-7.1,104.8-6.3c1.1,0.8,4.6,1,7.3,0.5C1348.3,6147.3,1345.7,6144,1339.8,6141.3z M274.6,6334.3
		c14.5-7.3,49.5-28,77.8-46.3l50.9-33.1l-25.8,1.9c-14.2,1.4-38.2,4.9-53.2,7.4c-25.7,4.7-27.8,6.1-41,27.2
		c-7.7,12.2-19.7,24.8-27.3,27.8c-8.5,3.7-14.9,10.3-16.7,17.9C236.1,6351.8,238.5,6351.8,274.6,6334.3z M162.8,6332.4
		c3.3-17.1,2.9-19-8.9-29.7l-12.1-11.6l-59,12.5l-59.1,12l66.2,18c36.4,9.6,66.5,17.5,67.5,17.3
		C158.3,6350.7,161,6342.4,162.8,6332.4z M710.3,6202.1c-0.8-4.2-70.1-30.3-91.2-34.2c-32.3-6.5-69.9,4.1-121.4,34.4
		c-25.1,14.8-47.5,28.5-48.9,31.3c-1.9,2.3,22.9,0.7,54.9-3.9c45.1-6.8,159.1-20.3,201.4-24.5
		C707.9,6204.5,710.6,6203.5,710.3,6202.1z"/>
	<path d="M2821.8,6115.9c-2.4,0-19.1,1.5-36.2,3l-31.3,3.5l-2.4-23.7c-2.2-20.4-4-24.4-14.1-28.6c-28.2-12.6-51.9-67-42.8-98.8
		c14.3-48.9,60-74.2,105.8-58.8c28.2,9.8,46.8,32.2,53.3,64.3c5.8,28.4,1.2,46.2-16.7,70.2c-11.1,14.4-13,21.5-10.7,35.6
		C2830.4,6103.5,2828.7,6116.4,2821.8,6115.9z"/>
</g>
</svg>
