<?xml version="1.0" encoding="utf-8"?>
<!-- Generator: Adobe Illustrator 23.0.3, SVG Export Plug-In . SVG Version: 6.00 Build 0)  -->
<svg version="1.1" id="Layer_1" xmlns:svg="http://www.w3.org/2000/svg"
	 xmlns="http://www.w3.org/2000/svg" xmlns:xlink="http://www.w3.org/1999/xlink" x="0px" y="0px" viewBox="0 0 24.3 10.9"
	 style="enable-background:new 0 0 24.3 10.9;" xml:space="preserve">
<style type="text/css">
	.st0{fill:none;stroke:#8C8C8C;stroke-width:2.1;stroke-linecap:round;stroke-linejoin:round;}
	.st1{fill:none;}
	.st2{fill:none;stroke:#8C8C8C;stroke-width:2.1;stroke-linecap:round;}
	.st3{fill:#CCCCCC;}
	.st4{fill:#8F0000;}
	.st5{fill:#8C8C8C;}
	.st6{opacity:0.2;enable-background:new    ;}
	.st7{opacity:0.8;fill:#FFFFFF;enable-background:new    ;}
</style>
<path class="st0" d="M1.1,5.4v4.5"/>
<path class="st0" d="M23.3,5.4v3.7"/>
<g>
	<g id="breadboard">
		<rect id="connector0pin" x="0.3" y="4.3" class="st1" width="1" height="1"/>
		<rect id="connector1pin" x="21.9" y="4.3" class="st1" width="1" height="1"/>
		<g id="connector0leg">
		</g>
		<g id="connector1leg">
		</g>
		<g>
			<path class="st2" d="M23.3,5.4H1.1"/>
			<path d="M4.9,5.5c0,2.2,1,4.1,2.5,5.5H17c1.5-1.3,2.5-3.3,2.5-5.5c0-2.2-1-4.1-2.5-5.5H7.3C5.8,1.3,4.9,3.3,4.9,5.5z"/>
			<rect x="7.3" width="9.7" height="10.9"/>
			<path class="st3" d="M17,10.3c0,0-2.3,0.2-4.8,0.2s-4.8-0.2-4.8-0.2S7.1,8,7.1,5.5c0-2.5,0.2-4.8,0.2-4.8s2.3-0.2,4.8-0.2
				c2.5,0,4.8,0.2,4.8,0.2s0.2,2.3,0.2,4.8C17.2,8,17,10.3,17,10.3z"/>
			<path class="st4" d="M16.5,1.4l0-0.2l-0.2,0c0,0-2-0.3-4.1-0.3C11.1,0.8,10,0.9,9.3,1C8.6,1.1,8.3,1.1,8.1,1.1
				C8,1.1,8,1.2,7.9,1.2c-0.1,0-0.1,0.1-0.1,0.1C7.8,1.5,7.7,1.9,7.7,2.6C7.6,3.1,7.5,4.2,7.5,5.5c0,2.1,0.3,4.1,0.3,4.1l0,0.2
				l0.2,0c0,0,2,0.3,4.1,0.3c2.1,0,4.1-0.3,4.1-0.3l0.2,0l0-0.2c0,0,0.3-2,0.3-4.1S16.5,1.4,16.5,1.4z M8.3,9.3C8.2,8.8,8,7.2,8,5.5
				c0-1.8,0.2-3.4,0.3-3.8c0.2,0,0.5-0.1,1-0.1c0,0,0,0.1,0,0.1c0,0.3,0.2,0.8,0.2,0.9c0,0.1,0.2,0.2,0.3,0.2c0,0,1.2-0.2,2.4-0.2
				c1.2,0,2.3,0.2,2.4,0.2c0,0,0,0,0,0.1c0,0.1,0,0.3-0.1,0.4C14.2,3.1,13.6,3,13,3c-0.9,0-1.7,0.2-1.8,0.2c-0.1,0-0.1,0.1-0.2,0.1
				c0,0-0.1,0.2-0.1,0.5c0,0.3,0.1,0.6,0.1,0.7c0,0.1,0.1,0.1,0.1,0.2c0.1,0,0.1,0.1,0.2,0c0,0,0.4-0.1,0.8-0.1c0.3,0,0.5,0,0.6,0
				c0,0.1,0,0.1,0,0.2c0,0.1,0,0.2,0,0.3h-0.6h-0.9c-0.1,0-0.2,0.1-0.2,0.2c0,0-0.1,0.3-0.1,0.6c0,0.3,0.1,0.5,0.1,0.6
				c0,0.1,0.1,0.2,0.2,0.2c0,0,0.4,0.1,0.9,0.1c0.2,0,0.5,0,0.6,0c0,0.1,0,0.2,0,0.3c0,0.1,0,0.1,0,0.2c-0.3,0-0.9,0.1-1.5,0.1
				c-0.8,0-1.5-0.1-1.5-0.1c-0.1,0-0.2,0-0.3,0.1c0,0-0.2,0.3-0.2,0.7c0,0.3,0.2,0.6,0.2,0.7c0,0,0.1,0.1,0.2,0.1
				c0,0,1.2,0.2,2.5,0.2c1,0,1.9-0.1,2.3-0.2c0.1,0.2,0.1,0.4,0.1,0.5c0,0.1,0,0.1-0.1,0.2c-0.7,0.1-1.5,0.1-2.3,0.1
				C10.4,9.6,8.9,9.4,8.3,9.3z M16,9.3c-0.2,0-0.5,0.1-0.9,0.1c0,0,0-0.1,0-0.1c0-0.3-0.2-0.8-0.2-0.9c0-0.1-0.2-0.2-0.3-0.2
				c0,0-1.2,0.2-2.4,0.2c-1,0-2-0.2-2.3-0.2c0-0.1-0.1-0.2-0.1-0.3c0-0.1,0-0.2,0.1-0.2c0.3,0,0.8,0.1,1.5,0.1
				c0.9,0,1.7-0.2,1.8-0.2c0.1,0,0.1-0.1,0.2-0.1c0,0,0.1-0.2,0.1-0.5c0-0.3-0.1-0.7-0.1-0.7c0-0.1-0.1-0.1-0.1-0.2
				c-0.1,0-0.1-0.1-0.2,0c0,0-0.4,0.1-0.8,0.1c-0.3,0-0.5,0-0.6,0c0-0.1,0-0.1,0-0.2c0-0.1,0-0.2,0-0.3h0.6H13
				c0.1,0,0.2-0.1,0.3-0.2c0,0,0.1-0.3,0.1-0.6c0-0.3-0.1-0.5-0.1-0.6c0-0.1-0.1-0.2-0.2-0.2c0,0-0.4-0.1-0.9-0.1
				c-0.2,0-0.5,0-0.6,0.1c0-0.1,0-0.2,0-0.4c0-0.1,0-0.1,0-0.1c0.3,0,0.9-0.1,1.5-0.1c0.8,0,1.5,0.2,1.5,0.2c0.1,0,0.2,0,0.3-0.1
				c0-0.1,0.2-0.5,0.2-0.8c0-0.4-0.3-0.5-0.4-0.6c-0.1,0-1.2-0.2-2.5-0.2c-1,0-1.9,0.1-2.3,0.2C9.8,1.9,9.8,1.7,9.8,1.6
				c0-0.1,0-0.1,0.1-0.2c0.7-0.1,1.5-0.1,2.3-0.1c1.7,0,3.3,0.2,3.8,0.3c0.1,0.5,0.3,2.1,0.3,3.8C16.3,7.2,16.1,8.8,16,9.3z"/>
			<circle class="st5" cx="6.4" cy="5.5" r="1.4"/>
			<circle class="st5" cx="17.9" cy="5.5" r="1.4"/>
			<path class="st6" d="M17,0H7.3C5.8,1.3,4.9,3.3,4.9,5.5s1,4.1,2.5,5.5H17c1.5-1.3,2.5-3.3,2.5-5.5C19.5,3.3,18.5,1.3,17,0z
				 M11.9,9.7c-2.5,0-4.5-2-4.5-4.5c0-2.5,2-4.5,4.5-4.5c2.5,0,4.5,2,4.5,4.5C16.4,7.6,14.4,9.7,11.9,9.7z"/>
			<circle class="st7" cx="10.4" cy="3.4" r="1.2"/>
		</g>
	</g>
</g>
</svg>
