<?xml version="1.0" encoding="utf-8"?>
<!-- Generator: Adobe Illustrator 24.0.0, SVG Export Plug-In . SVG Version: 6.00 Build 0)  -->
<svg version="1.1" id="Layer_1" xmlns="http://www.w3.org/2000/svg" xmlns:xlink="http://www.w3.org/1999/xlink" x="0px" y="0px"
	 viewBox="0 0 176.5 241.6" style="enable-background:new 0 0 176.5 241.6;" xml:space="preserve">
<style type="text/css">
	.st0{fill:#FFFFFF;}
	.st1{fill:#1A1A1A;}
	.st2{fill:#333333;}
	.st3{fill:#CCCCCC;}
	.st4{fill:none;stroke:#000000;stroke-miterlimit:10;}
	.st5{fill:url(#SVGID_1_);stroke:#000000;stroke-miterlimit:10;}
	.st6{fill:url(#SVGID_2_);stroke:#000000;stroke-miterlimit:10;}
	.st7{stroke:#000000;stroke-miterlimit:10;}
	.st8{fill:url(#SVGID_3_);stroke:#000000;stroke-miterlimit:10;}
	.st9{fill:url(#SVGID_4_);stroke:#000000;stroke-miterlimit:10;}
	.st10{fill:url(#SVGID_5_);stroke:#000000;stroke-miterlimit:10;}
	.st11{fill:url(#SVGID_6_);stroke:#000000;stroke-miterlimit:10;}
	.st12{fill:url(#SVGID_7_);stroke:#000000;stroke-miterlimit:10;}
	.st13{fill:url(#SVGID_8_);stroke:#000000;stroke-miterlimit:10;}
	.st14{fill:url(#SVGID_9_);stroke:#000000;stroke-miterlimit:10;}
	.st15{fill:url(#SVGID_10_);stroke:#000000;stroke-miterlimit:10;}
	.st16{fill:url(#SVGID_11_);stroke:#000000;stroke-miterlimit:10;}
	.st17{fill:url(#SVGID_12_);stroke:#000000;stroke-miterlimit:10;}
	.st18{stroke:#000000;stroke-width:0.25;stroke-miterlimit:10;}
	.st19{fill:url(#SVGID_13_);stroke:#000000;stroke-width:0.25;stroke-miterlimit:10;}
	.st20{fill:url(#SVGID_14_);stroke:#000000;stroke-width:0.25;stroke-miterlimit:10;}
	.st21{fill:url(#SVGID_15_);stroke:#000000;stroke-width:0.25;stroke-miterlimit:10;}
	.st22{fill:url(#SVGID_16_);stroke:#000000;stroke-width:0.25;stroke-miterlimit:10;}
</style>
<g>
	<path class="st0" d="M129,78.7c0-10.3,0-20.1,0-30.2c16,0,31.7,0,47.6,0c0-1.8,0-3.3,0-5.1c-15.9,0-31.7,0-47.8,0
		c0-7.6,0-14.8,0-22c-4.7-0.3-9.1-0.6-13.6-0.9c0-4.7,0-9,0-13.4c0-3.1-2.2-5.7-4.9-5.9c-2.7-0.2-5.5-0.9-8.1-0.4
		c-2.6,0.4-5.4-2.1-7.7,0.5c-1.1-2.7-3.1-0.6-4.5-0.6c-8.2,0.2-16.4,0.7-24.6,1C56.7,2.2,48.1,2.6,39.5,3
		c-6.8,0.3-13.6,0.4-20.4,0.6c-4,0.1-7.9,0.3-11.9,0.6C5.2,4.3,3.2,4.8,2.9,7.3c-1,9.9-2.4,19.7-2.8,29.6c-0.4,10.4,0,20.8,0.5,31.2
		C1,75.5,1.9,82.9,3,90.2c1.5,9.9,3.6,19.6,4.9,29.5c1.5,10.7,2.6,21.4,3.4,32.1c0.7,9.4,0.9,18.8,1.2,28.3c0.2,5-0.1,10.1,0.1,15.1
		c0.2,6.3,3.9,10.3,10.6,10.6c6.4,0.3,12.8,0.8,19.2,1.1c10.4,0.5,20.8,0.8,31.1,1.2c3.8,0.1,7.7-0.5,10.8,2.5
		c0.3,0.3,0.9,0.3,1.3,0.4c2.7,0,5.5,0,8.2,0c0.1-1.1,0.3-1.9,0.4-2.8c0.1,0,0.2,0,0.3,0c0.1,0.9,0.2,1.8,0.2,2.8c3,0,5.7,0,8.5,0
		c0.7,0,1.9-0.4,1.9-0.7c0.3-1.9,1.6-1.6,2.8-1.5c4.4,0.5,7.3-2.5,7.3-7.4c-0.2-30.4-0.1-60.8-0.1-91.1c0-1.1,0-2.2,0-3.3
		c4.7-0.3,9.1-0.6,13.8-1c0-7.5,0-14.7,0-22.2c16,0,31.8,0,47.5,0c0-1.8,0-3.3,0-5.1C160.5,78.7,144.8,78.7,129,78.7z"/>
	<path d="M129,78.7c15.9,0,31.6,0,47.5,0c0,1.8,0,3.3,0,5.1c-15.8,0-31.5,0-47.5,0c0,7.4,0,14.7,0,22.2c-4.7,0.3-9.1,0.6-13.8,1
		c0,1.1,0,2.2,0,3.3c0,30.4-0.1,60.8,0.1,91.1c0,4.9-2.9,7.9-7.3,7.4c-1.1-0.1-2.5-0.4-2.8,1.5c-0.1,0.4-1.2,0.7-1.9,0.7
		c-2.7,0.1-5.5,0-8.5,0c-0.1-1-0.2-1.9-0.2-2.8c-0.1,0-0.2,0-0.3,0c-0.1,0.9-0.2,1.7-0.4,2.8c-2.7,0-5.5,0-8.2,0
		c-0.5,0-1-0.1-1.3-0.4c-3.1-3-7-2.3-10.8-2.5c-10.4-0.4-20.8-0.7-31.1-1.2c-6.4-0.3-12.8-0.8-19.2-1.1c-6.7-0.3-10.4-4.3-10.6-10.6
		c-0.2-5,0.1-10.1-0.1-15.1c-0.3-9.4-0.5-18.9-1.2-28.3c-0.8-10.7-2-21.5-3.4-32.1c-1.3-9.9-3.5-19.6-4.9-29.5
		c-1.1-7.3-2-14.7-2.3-22.1C0.2,57.7-0.2,47.3,0.2,36.9C0.5,27,1.9,17.1,2.9,7.3c0.3-2.5,2.3-3,4.3-3.1c4-0.2,7.9-0.4,11.9-0.6
		C25.9,3.3,32.7,3.2,39.5,3c8.6-0.3,17.2-0.7,25.7-1.1c8.2-0.4,16.4-0.8,24.6-1c1.4,0,3.4-2.1,4.5,0.6c2.4-2.7,5.1-0.1,7.7-0.5
		c2.6-0.4,5.4,0.2,8.1,0.4c2.7,0.2,4.9,2.8,4.9,5.9c0.1,4.4,0,8.7,0,13.4c4.5,0.3,8.9,0.6,13.6,0.9c0,7.1,0,14.4,0,22
		c16.1,0,31.9,0,47.8,0c0,1.8,0,3.3,0,5.1c-15.8,0-31.6,0-47.6,0C129,58.6,129,68.5,129,78.7z M92.7,193.1c0-33.1,0-66,0-99
		c-4.9,0-9.7,0.1-14.4,0c-4.6-0.1-7.6-3-7.6-7.6c-0.1-13.9,0-27.7,0-41.6c0-4.8,3.1-7.7,7.8-7.8c4.2,0,8.4,0,12.5,0
		c0.7,0,1.3-0.5,2-0.7c-0.1-0.3-0.1-0.5-0.2-0.8c-28.2,0-56.4,0-84.3,0c0,6.7-0.4,13.3,0.1,19.9c0.6,7.9,1.6,15.8,2.8,23.6
		c2.1,13.2,4.7,26.4,6.7,39.7c1.8,11.9,3.4,23.9,4.5,35.9c0.9,9.3,0.9,18.6,1.3,28c0.1,3.4,0.3,6.9,0.5,10.4
		C47.4,193.1,69.9,193.1,92.7,193.1z M92.7,34.2c0-10.9,0-21.5,0-32.6c-4.5,0.3-8.8,0.6-13.1,0.8c-8.1,0.4-16.2,0.8-24.3,1.1
		c-8.5,0.4-16.9,0.8-25.4,1.1C22.7,4.9,15.5,5.1,8.3,5.3c-0.4,0-0.8,0.1-0.6,0.1c0,9.7,0,19.2,0,28.8C36.4,34.2,64.4,34.2,92.7,34.2
		z M95.9,94.2c0,33.1,0,66,0,98.8c4.4,0,8.6,0,12.7,0c0-63.7,0-127.1,0-190.9c-4.4,0-8.6,0-12.8,0c0,11.7,0,23.2,0,34.9
		c1.5,0.1,2.9,0.2,4.3,0.3c0,19,0,37.7,0,56.6C98.7,94.1,97.4,94.1,95.9,94.2z M127.5,97.9c0-23,0-45.8,0-68.5c-4.2,0-8.2,0-12.1,0
		c0,23.2,0,46.2,0,69.1C119.5,98.3,123.4,98.1,127.5,97.9z M92.9,194.6c-23,0-45.6,0-68.3,0c-0.2,3.4-0.5,6.6-0.7,9.8
		c3.1,0.3,5.7,0.7,8.3,0.9c8.7,0.4,17.3,0.8,26,1.2c7,0.3,14,0.4,21,0.6c0.4,0,0.8,0,1.1,0c4.1,0.2,8.2,0.5,12.4,0.7
		c0.1-0.8,0.2-1.2,0.2-1.6C92.9,202.4,92.9,198.6,92.9,194.6z M6.5,94.9c5.7,32.5,8.9,65.2,8.4,98.2c2.9,0,5.3,0,8,0
		c0.6-33.7-4.1-66.6-9.8-99.4C10.6,94.1,8.5,94.5,6.5,94.9z M114,193.2c0-1.3,0-2.4,0-3.4c0-53.5,0-107,0-160.6c0-6.9,0-13.9,0-20.8
		c0-2.3-0.7-4.3-3.3-5.6c0,63.6,0,126.9,0,190.3C111.8,193.2,112.7,193.2,114,193.2z M92.7,90.7c0-16.9,0-33.5,0-50.1
		c-5,0-9.9,0-14.7,0c-2.6,0-4.1,2.2-3.6,4.9c2.2-0.9,3.1-0.1,3.1,2.3c0,12-0.1,23.9,0,35.9c0,2.6-1.2,3-3.3,2.2
		c-0.1,2.8,1.3,4.8,3.5,4.9C82.7,90.8,87.6,90.7,92.7,90.7z M12.5,92.3C11,82.7,9.2,73.4,8.1,64.1C7,54.7,6.7,45.2,6,35.6
		c-3.7-0.4-3.8-0.4-3.7,3.6c0.1,8,0.1,16.1,0.6,24.1c0.5,8.2,1.4,16.4,2.3,24.6c0.2,1.9,0.8,3.8,1.3,5.8
		C8.7,93.1,10.5,92.7,12.5,92.3z M95.9,194.5c0,4.5,0,8.6,0,12.8c4.4,0,8.6,0,12.8,0c0-4.4,0-8.6,0-12.8
		C104.3,194.5,100.2,194.5,95.9,194.5z M128.9,47.2c14.7,0,29.2,0,43.8,0c-0.1-1-0.2-1.8-0.3-2.5c-14.6,0-29,0-43.5,0
		C128.9,45.6,128.9,46.3,128.9,47.2z M128.8,80c0,1,0.1,1.8,0.1,2.5c14.7,0,29.2,0,43.6,0c0-0.9,0-1.7,0-2.5
		C158,80,143.6,80,128.8,80z M7.1,34.2C6.8,24.7,6.5,15.3,6.2,6C5.7,6,5.1,6,4.6,6c-0.6,9.3-1.3,18.7-2,28.2
		C4.2,34.2,5.4,34.2,7.1,34.2z M127.5,104.8c0-1.9,0-3.6,0-5.7c-4.2,0.3-8.3,0.6-12.3,0.8c0,2,0,3.7,0,5.7
		C119.4,105.3,123.4,105.1,127.5,104.8z M115.3,22.2c0,1.6,0,3.4,0,5.5c4.1,0,8.1,0,12.2,0c0-1.6,0-3.4,0-5.5
		C123.4,22.2,119.4,22.2,115.3,22.2z M15,194.5c-0.4,5.1,2.8,9.1,7.6,9.6c0-3.2,0-6.3,0-9.6C20,194.5,17.5,194.5,15,194.5z
		 M94.4,36.1c-0.1,0-0.1,0-0.2,0c0,33.1,0,66.3,0,99.4c0.1,0,0.1,0,0.2,0C94.4,102.4,94.4,69.2,94.4,36.1z M72.9,42.9
		c-0.2,0-0.4-0.1-0.6-0.1c-0.2,0.9-0.5,1.7-0.5,2.6c0,13.6,0,27.1,0,40.7c0,0.8,0.4,1.6,0.6,2.5c0.2,0,0.3-0.1,0.5-0.1
		C72.9,73.2,72.9,58,72.9,42.9z M110.6,207.4c5.3-3.8,2.7-8.7,3.4-13.1c-1.4,0.1-2.4,0.1-3.4,0.2
		C110.6,198.8,110.6,202.7,110.6,207.4z M99,92.9c0-18.4,0-36.4,0-54.5c-1,0-1.9,0-2.7,0c2.3,0.5,2.4,2,2.3,3.9
		c-0.1,15.5,0,30.9-0.1,46.4c0,1.5-1,2.9-1.5,4.2C97.2,92.9,98,92.9,99,92.9z M94.2,193.1c0.1,0,0.2,0,0.3,0c0-18.4,0-36.7,0-55.1
		c-0.1,0-0.2,0-0.3,0C94.2,156.4,94.2,174.7,94.2,193.1z M94.1,33c0.1,0,0.2,0.1,0.3,0.1c0-9.8,0-19.5,0-29.3c-0.1,0-0.2,0-0.3,0
		C94.1,13.5,94.1,23.2,94.1,33z M76.3,92.2c5.3,1.2,10.6,0.6,15.9,0.8c0-0.3,0-0.5,0-0.8C86.9,92.2,81.6,92.2,76.3,92.2z M76.2,38.7
		c0,0.1,0,0.2,0,0.3c5.4,0,10.7,0,16.1,0c0-0.1,0-0.2,0-0.3C86.9,38.7,81.6,38.7,76.2,38.7z"/>
	<path class="st1" d="M92.7,193.1c-22.8,0-45.3,0-68.2,0c-0.2-3.5-0.4-7-0.5-10.4c-0.4-9.3-0.4-18.7-1.3-28
		c-1.1-12-2.7-23.9-4.5-35.9c-2-13.3-4.6-26.4-6.7-39.7c-1.2-7.8-2.3-15.7-2.8-23.6C8.2,49,8.5,42.4,8.5,35.7c27.9,0,56.1,0,84.3,0
		c0.1,0.3,0.1,0.5,0.2,0.8c-0.7,0.2-1.3,0.7-2,0.7c-4.2,0.1-8.4,0-12.5,0c-4.7,0-7.8,3-7.8,7.8c0,13.9,0,27.7,0,41.6
		c0,4.6,3,7.6,7.6,7.6c4.7,0.1,9.5,0,14.4,0C92.7,127.2,92.7,160,92.7,193.1z"/>
	<path class="st1" d="M92.7,34.2c-28.3,0-56.3,0-85,0c0-9.6,0-19.1,0-28.8c-0.2,0,0.2-0.1,0.6-0.1c7.2-0.2,14.4-0.3,21.5-0.6
		c8.5-0.3,16.9-0.7,25.4-1.1c8.1-0.4,16.2-0.7,24.3-1.1c4.3-0.2,8.6-0.5,13.1-0.8C92.7,12.7,92.7,23.3,92.7,34.2z"/>
	<path class="st2" d="M95.9,94.2c1.5-0.1,2.8-0.2,4.2-0.3c0-18.9,0-37.7,0-56.6c-1.4-0.1-2.8-0.2-4.3-0.3c0-11.7,0-23.2,0-34.9
		c4.2,0,8.3,0,12.8,0c0,63.8,0,127.2,0,190.9c-4.1,0-8.3,0-12.7,0C95.9,160.2,95.9,127.3,95.9,94.2z"/>
	<path class="st2" d="M127.5,97.9c-4.1,0.2-8,0.4-12.1,0.6c0-22.9,0-45.9,0-69.1c3.9,0,7.9,0,12.1,0
		C127.5,52.1,127.5,74.9,127.5,97.9z"/>
	<path class="st1" d="M92.9,194.6c0,4,0,7.8,0,11.6c0,0.4-0.1,0.7-0.2,1.6c-4.2-0.2-8.3-0.5-12.4-0.7c-0.4,0-0.8,0-1.1,0
		c-7-0.2-14-0.3-21-0.6c-8.7-0.3-17.3-0.7-26-1.2c-2.6-0.1-5.2-0.5-8.3-0.9c0.2-3.1,0.5-6.4,0.7-9.8
		C47.3,194.6,69.9,194.6,92.9,194.6z"/>
	<path class="st1" d="M6.5,94.9c2-0.4,4.1-0.8,6.5-1.3c5.8,32.8,10.5,65.8,9.8,99.4c-2.6,0-5.1,0-8,0
		C15.4,160.2,12.2,127.5,6.5,94.9z"/>
	<path class="st1" d="M114,193.2c-1.3,0-2.2,0-3.3,0c0-63.4,0-126.7,0-190.3c2.6,1.2,3.3,3.2,3.3,5.6c0,6.9,0,13.9,0,20.8
		c0,53.5,0,107,0,160.6C114,190.8,114,191.8,114,193.2z"/>
	<path class="st2" d="M92.7,90.7c-5.1,0-10,0.1-14.9,0c-2.3,0-3.6-2-3.5-4.9c2.1,0.7,3.3,0.4,3.3-2.2c-0.1-12-0.1-23.9,0-35.9
		c0-2.4-0.9-3.1-3.1-2.3c-0.5-2.7,1-4.9,3.6-4.9c4.8-0.1,9.7,0,14.7,0C92.7,57.3,92.7,73.8,92.7,90.7z M81.9,42.5
		c-2.7-0.7-2.7,0.9-2.7,2.7c0,13.8,0,27.7,0,41.5c0,0.7,0.1,1.5,0.2,2.2c0.9,0,1.6,0,2.5,0C81.9,73.3,81.9,57.9,81.9,42.5z
		 M85.1,88.8c2,0.5,2.7-0.2,2.7-2.1c0-14,0-28.1,0-42.1c0-1.9-0.7-2.6-2.7-2.1C85.1,57.9,85.1,73.4,85.1,88.8z M92.2,42.5
		c-1.8-0.4-2.7,0.1-2.7,1.9c0,14.1,0,28.3,0,42.4c0,1.9,0.8,2.5,2.7,2C92.2,73.4,92.2,58,92.2,42.5z"/>
	<path class="st1" d="M12.5,92.3c-2,0.5-3.7,0.9-6.1,1.4c-0.4-2-1.1-3.9-1.3-5.8c-0.8-8.2-1.8-16.4-2.3-24.6
		c-0.5-8-0.5-16.1-0.6-24.1c-0.1-4,0-4,3.7-3.6c0.7,9.6,1,19.1,2.1,28.5C9.2,73.4,11,82.7,12.5,92.3z"/>
	<path class="st1" d="M95.9,194.5c4.3,0,8.4,0,12.8,0c0,4.2,0,8.4,0,12.8c-4.2,0-8.4,0-12.8,0C95.9,203.1,95.9,199,95.9,194.5z"/>
	<path class="st3" d="M128.9,47.2c0-0.9,0-1.7,0-2.5c14.5,0,28.9,0,43.5,0c0.1,0.7,0.2,1.5,0.3,2.5
		C158.1,47.2,143.6,47.2,128.9,47.2z"/>
	<path class="st3" d="M128.8,80c14.8,0,29.2,0,43.7,0c0,0.9,0,1.6,0,2.5c-14.4,0-28.9,0-43.6,0C128.9,81.8,128.9,81,128.8,80z"/>
	<path class="st1" d="M7.1,34.2c-1.7,0-2.9,0-4.5,0c0.7-9.5,1.3-18.9,2-28.2c0.5,0,1.1,0,1.6,0C6.5,15.3,6.8,24.7,7.1,34.2z"/>
	<path class="st1" d="M127.5,104.8c-4.1,0.3-8.1,0.6-12.3,0.8c0-2,0-3.7,0-5.7c4-0.3,8-0.6,12.3-0.8
		C127.5,101.2,127.5,102.8,127.5,104.8z"/>
	<path class="st1" d="M115.3,22.2c4.1,0,8.1,0,12.2,0c0,2.1,0,3.9,0,5.5c-4.1,0-8.1,0-12.2,0C115.3,25.5,115.3,23.8,115.3,22.2z"/>
	<path class="st1" d="M15,194.5c2.5,0,5,0,7.6,0c0,3.3,0,6.5,0,9.6C17.8,203.6,14.6,199.6,15,194.5z"/>
	<ellipse class="st2" cx="94.3" cy="85.8" rx="0.1" ry="70.2"/>
	<path class="st2" d="M72.9,42.9c0,15.2,0,30.3,0,45.5c-0.2,0-0.3,0.1-0.5,0.1c-0.2-0.8-0.6-1.6-0.6-2.5c0-13.6,0-27.1,0-40.7
		c0-0.9,0.3-1.7,0.5-2.6C72.5,42.8,72.7,42.8,72.9,42.9z"/>
	<path class="st1" d="M110.6,207.4c0-4.7,0-8.6,0-12.9c1-0.1,2-0.1,3.4-0.2C113.3,198.7,115.9,203.6,110.6,207.4z"/>
	<path class="st2" d="M99,92.9c-1,0-1.8,0-1.9,0c0.5-1.3,1.5-2.8,1.5-4.2c0.1-15.5,0-30.9,0.1-46.4c0-1.9-0.1-3.4-2.3-3.9
		c0.9,0,1.7,0,2.7,0C99,56.5,99,74.6,99,92.9z"/>
	<path class="st2" d="M94.2,193.1c0-18.3,0-36.7,0-55c0.1,0,0.2,0,0.3,0c0,18.4,0,36.7,0,55.1C94.4,193.1,94.3,193.1,94.2,193.1z"/>
	<path class="st2" d="M94.1,33c0-9.7,0-19.5,0-29.2c0.1,0,0.2,0,0.3,0c0,9.8,0,19.5,0,29.3C94.3,33,94.2,33,94.1,33z"/>
	<path class="st2" d="M76.3,92.2c5.3,0,10.6,0,15.9,0c0,0.3,0,0.5,0,0.8C86.9,92.8,81.5,93.4,76.3,92.2z"/>
	<path class="st2" d="M76.2,38.7c5.4,0,10.7,0,16.1,0c0,0.1,0,0.2,0,0.3c-5.4,0-10.7,0-16.1,0C76.2,38.9,76.2,38.8,76.2,38.7z"/>
	<path d="M81.9,42.5c0,15.4,0,30.8,0,46.3c-0.8,0-1.6,0-2.5,0c-0.1-0.7-0.2-1.4-0.2-2.2c0-13.8,0-27.7,0-41.5
		C79.2,43.4,79.3,41.8,81.9,42.5z"/>
	<path d="M85.1,88.8c0-15.4,0-30.9,0-46.3c2-0.6,2.7,0.2,2.7,2.1c0,14,0,28.1,0,42.1C87.8,88.6,87.1,89.3,85.1,88.8z"/>
	<path d="M92.2,42.5c0,15.6,0,30.9,0,46.3c-1.9,0.5-2.7,0-2.7-2c0-14.1,0-28.3,0-42.4C89.5,42.5,90.4,42.1,92.2,42.5z"/>
</g>
<g>
	<g>
		<path class="st4" d="M167.3,208.4l3.5-34.8v-43.3c0-1.4-1.2-2.6-2.6-2.6h-20.2c-1.4,0-2.6,1.2-2.6,2.6V173l3.2,35.3
			c0.2,2.4,2.2,4.2,4.6,4.2h9.6C165.1,212.5,167.1,210.7,167.3,208.4z"/>
		
			<linearGradient id="SVGID_1_" gradientUnits="userSpaceOnUse" x1="265.7625" y1="99.3578" x2="265.7625" y2="73.9523" gradientTransform="matrix(0 -1 1 0 71.5013 435.8362)">
			<stop  offset="6.647793e-03" style="stop-color:#1A1A1A"/>
			<stop  offset="0.5103" style="stop-color:#333333"/>
			<stop  offset="1" style="stop-color:#1A1A1A"/>
		</linearGradient>
		<path class="st5" d="M167.3,208.4l3.5-34.8v-43.3c0-1.4-1.2-2.6-2.6-2.6h-20.2c-1.4,0-2.6,1.2-2.6,2.6V173l3.2,35.3
			c0.2,2.4,2.2,4.2,4.6,4.2h9.6C165.1,212.5,167.1,210.7,167.3,208.4z"/>
		
			<linearGradient id="SVGID_2_" gradientUnits="userSpaceOnUse" x1="323.3625" y1="92.6171" x2="323.3625" y2="80.5751" gradientTransform="matrix(0 -1 1 0 71.5013 435.8362)">
			<stop  offset="6.647793e-03" style="stop-color:#000000"/>
			<stop  offset="0.5103" style="stop-color:#FFFFFF"/>
			<stop  offset="1" style="stop-color:#000000"/>
		</linearGradient>
		<polygon class="st6" points="152.1,127.6 152.1,97.3 164.1,97.3 164.1,127.6 		"/>
		
			<rect x="156.5" y="92.9" transform="matrix(6.123234e-17 -1 1 6.123234e-17 59.2035 256.9914)" class="st7" width="3.2" height="12"/>
		
			<linearGradient id="SVGID_3_" gradientUnits="userSpaceOnUse" x1="255.428" y1="98.6814" x2="255.428" y2="74.6288" gradientTransform="matrix(0 -1 1 0 71.5013 435.8362)">
			<stop  offset="6.647793e-03" style="stop-color:#000000"/>
			<stop  offset="0.5103" style="stop-color:#1A1A1A"/>
			<stop  offset="1" style="stop-color:#000000"/>
		</linearGradient>
		<polygon class="st8" points="170,181.7 170.2,180.3 170.2,179.1 146.1,179.1 146.1,180.4 146.2,181.7 		"/>
		
			<linearGradient id="SVGID_4_" gradientUnits="userSpaceOnUse" x1="241.8313" y1="97.4209" x2="241.8313" y2="75.756" gradientTransform="matrix(0 -1 1 0 71.5013 435.8362)">
			<stop  offset="6.647793e-03" style="stop-color:#000000"/>
			<stop  offset="0.5103" style="stop-color:#1A1A1A"/>
			<stop  offset="1" style="stop-color:#000000"/>
		</linearGradient>
		<polygon class="st9" points="168.7,195.3 168.9,192.7 147.3,192.7 147.5,195.3 		"/>
		
			<linearGradient id="SVGID_5_" gradientUnits="userSpaceOnUse" x1="255.428" y1="91.4175" x2="255.428" y2="82.1201" gradientTransform="matrix(0 -1 1 0 71.5013 435.8362)">
			<stop  offset="6.647793e-03" style="stop-color:#1A1A1A"/>
			<stop  offset="0.5103" style="stop-color:#4D4D4D"/>
			<stop  offset="1" style="stop-color:#1A1A1A"/>
		</linearGradient>
		<polygon class="st10" points="162.9,179.1 162.9,181.7 153.6,181.7 153.6,179.1 		"/>
		
			<linearGradient id="SVGID_6_" gradientUnits="userSpaceOnUse" x1="248.471" y1="98.092" x2="248.471" y2="75.1479" gradientTransform="matrix(0 -1 1 0 71.5013 435.8362)">
			<stop  offset="6.647793e-03" style="stop-color:#000000"/>
			<stop  offset="0.5103" style="stop-color:#1A1A1A"/>
			<stop  offset="1" style="stop-color:#000000"/>
		</linearGradient>
		<polygon class="st11" points="169.3,188.6 169.6,186.1 146.6,186.1 146.9,188.6 		"/>
		
			<linearGradient id="SVGID_7_" gradientUnits="userSpaceOnUse" x1="248.4709" y1="91.1813" x2="248.4709" y2="81.8839" gradientTransform="matrix(0 -1 1 0 71.5013 435.8362)">
			<stop  offset="6.647793e-03" style="stop-color:#1A1A1A"/>
			<stop  offset="0.5103" style="stop-color:#4D4D4D"/>
			<stop  offset="1" style="stop-color:#1A1A1A"/>
		</linearGradient>
		<polygon class="st12" points="162.7,186.1 162.7,188.6 153.4,188.6 153.4,186.1 		"/>
		
			<linearGradient id="SVGID_8_" gradientUnits="userSpaceOnUse" x1="234.7377" y1="96.704" x2="234.7377" y2="76.4057" gradientTransform="matrix(0 -1 1 0 71.5013 435.8362)">
			<stop  offset="6.647793e-03" style="stop-color:#000000"/>
			<stop  offset="0.5103" style="stop-color:#1A1A1A"/>
			<stop  offset="1" style="stop-color:#000000"/>
		</linearGradient>
		<polygon class="st13" points="167.9,202.4 168.2,199.8 147.9,199.8 148.1,202.4 		"/>
		
			<linearGradient id="SVGID_9_" gradientUnits="userSpaceOnUse" x1="234.7377" y1="91.1813" x2="234.7377" y2="81.8839" gradientTransform="matrix(0 -1 1 0 71.5013 435.8362)">
			<stop  offset="6.647793e-03" style="stop-color:#1A1A1A"/>
			<stop  offset="0.5103" style="stop-color:#4D4D4D"/>
			<stop  offset="1" style="stop-color:#1A1A1A"/>
		</linearGradient>
		<polygon class="st14" points="162.7,199.8 162.7,202.4 153.4,202.4 153.4,199.8 		"/>
		
			<linearGradient id="SVGID_10_" gradientUnits="userSpaceOnUse" x1="228.7224" y1="96.096" x2="228.7224" y2="76.9566" gradientTransform="matrix(0 -1 1 0 71.5013 435.8362)">
			<stop  offset="6.647793e-03" style="stop-color:#000000"/>
			<stop  offset="0.5103" style="stop-color:#1A1A1A"/>
			<stop  offset="1" style="stop-color:#000000"/>
		</linearGradient>
		<path class="st15" d="M167.3,208.4l0.3-2.5h-19.1l0.2,2.5c0,0,0,0,0,0H167.3z"/>
		
			<linearGradient id="SVGID_11_" gradientUnits="userSpaceOnUse" x1="228.7224" y1="91.1813" x2="228.7224" y2="81.8839" gradientTransform="matrix(0 -1 1 0 71.5013 435.8362)">
			<stop  offset="6.647793e-03" style="stop-color:#1A1A1A"/>
			<stop  offset="0.5103" style="stop-color:#4D4D4D"/>
			<stop  offset="1" style="stop-color:#1A1A1A"/>
		</linearGradient>
		<polygon class="st16" points="162.7,205.8 162.7,208.4 153.4,208.4 153.4,205.8 		"/>
		
			<linearGradient id="SVGID_12_" gradientUnits="userSpaceOnUse" x1="241.8313" y1="91.1813" x2="241.8313" y2="81.8839" gradientTransform="matrix(0 -1 1 0 71.5013 435.8362)">
			<stop  offset="6.647793e-03" style="stop-color:#1A1A1A"/>
			<stop  offset="0.5103" style="stop-color:#4D4D4D"/>
			<stop  offset="1" style="stop-color:#1A1A1A"/>
		</linearGradient>
		<polygon class="st17" points="162.7,192.7 162.7,195.3 153.4,195.3 153.4,192.7 		"/>
		<g>
			
				<rect x="146.1" y="141.2" transform="matrix(6.123234e-17 -1 1 6.123234e-17 5.1009 288.239)" class="st18" width="1.2" height="0.8"/>
			
				<rect x="146.3" y="139.4" transform="matrix(6.123234e-17 -1 1 6.123234e-17 6.8767 286.4633)" class="st18" width="0.8" height="0.8"/>
			
				<rect x="146.1" y="135.5" transform="matrix(6.123234e-17 -1 1 6.123234e-17 10.7474 282.5925)" class="st18" width="1.2" height="0.8"/>
			
				<rect x="146.3" y="133.7" transform="matrix(6.123234e-17 -1 1 6.123234e-17 12.5232 280.8168)" class="st18" width="0.8" height="0.8"/>
			
				<rect x="146.3" y="137.3" transform="matrix(6.123234e-17 -1 1 6.123234e-17 8.9795 284.3605)" class="st18" width="0.8" height="0.8"/>
		</g>
		<g>
			
				<rect x="147.4" y="141.4" transform="matrix(6.123234e-17 -1 1 6.123234e-17 6.3991 289.5371)" class="st18" width="1.2" height="0.4"/>
			
				<rect x="147.6" y="139.6" transform="matrix(6.123234e-17 -1 1 6.123234e-17 8.1748 287.7614)" class="st18" width="0.8" height="0.4"/>
			
				<rect x="147.4" y="135.7" transform="matrix(6.123234e-17 -1 1 6.123234e-17 12.0456 283.8906)" class="st18" width="1.2" height="0.4"/>
			
				<rect x="147.6" y="134" transform="matrix(6.123234e-17 -1 1 6.123234e-17 13.8213 282.1149)" class="st18" width="0.8" height="0.4"/>
			
				<rect x="147.6" y="137.5" transform="matrix(6.123234e-17 -1 1 6.123234e-17 10.2776 285.6586)" class="st18" width="0.8" height="0.4"/>
		</g>
		<g>
			
				<rect x="149" y="141.4" transform="matrix(6.123234e-17 -1 1 6.123234e-17 8.0448 291.1828)" class="st18" width="1.2" height="0.4"/>
			
				<rect x="149.2" y="139.6" transform="matrix(6.123234e-17 -1 1 6.123234e-17 9.8205 289.4071)" class="st18" width="0.8" height="0.4"/>
			
				<rect x="149" y="135.7" transform="matrix(6.123234e-17 -1 1 6.123234e-17 13.6913 285.5363)" class="st18" width="1.2" height="0.4"/>
			
				<rect x="149.2" y="134" transform="matrix(6.123234e-17 -1 1 6.123234e-17 15.467 283.7606)" class="st18" width="0.8" height="0.4"/>
			
				<rect x="149.2" y="137.5" transform="matrix(6.123234e-17 -1 1 6.123234e-17 11.9233 287.3043)" class="st18" width="0.8" height="0.4"/>
		</g>
		<g>
			
				<rect x="159.6" y="141.4" transform="matrix(6.123234e-17 -1 1 6.123234e-17 18.5811 301.7192)" class="st18" width="1.2" height="0.4"/>
			
				<rect x="159.7" y="139.6" transform="matrix(6.123234e-17 -1 1 6.123234e-17 20.3569 299.9435)" class="st18" width="0.8" height="0.4"/>
			
				<rect x="159.6" y="135.7" transform="matrix(6.123234e-17 -1 1 6.123234e-17 24.2276 296.0727)" class="st18" width="1.2" height="0.4"/>
			
				<rect x="159.7" y="134" transform="matrix(6.123234e-17 -1 1 6.123234e-17 26.0034 294.297)" class="st18" width="0.8" height="0.4"/>
			
				<rect x="159.7" y="137.5" transform="matrix(6.123234e-17 -1 1 6.123234e-17 22.4597 297.8407)" class="st18" width="0.8" height="0.4"/>
		</g>
		<g>
			
				<rect x="169.2" y="141.4" transform="matrix(6.123234e-17 -1 1 6.123234e-17 28.1929 311.331)" class="st18" width="1.2" height="0.4"/>
			
				<rect x="169.4" y="139.6" transform="matrix(6.123234e-17 -1 1 6.123234e-17 29.9687 309.5553)" class="st18" width="0.8" height="0.4"/>
			
				<rect x="169.2" y="135.7" transform="matrix(6.123234e-17 -1 1 6.123234e-17 33.8395 305.6845)" class="st18" width="1.2" height="0.4"/>
			
				<rect x="169.4" y="134" transform="matrix(6.123234e-17 -1 1 6.123234e-17 35.6152 303.9088)" class="st18" width="0.8" height="0.4"/>
			
				<rect x="169.4" y="137.5" transform="matrix(6.123234e-17 -1 1 6.123234e-17 32.0715 307.4525)" class="st18" width="0.8" height="0.4"/>
		</g>
		<g>
			
				<rect x="150.9" y="141.2" transform="matrix(6.123234e-17 -1 1 6.123234e-17 9.9104 293.0485)" class="st18" width="1.2" height="0.8"/>
			
				<rect x="151.1" y="139.4" transform="matrix(6.123234e-17 -1 1 6.123234e-17 11.6861 291.2727)" class="st18" width="0.8" height="0.8"/>
			
				<rect x="150.9" y="135.5" transform="matrix(6.123234e-17 -1 1 6.123234e-17 15.5569 287.4019)" class="st18" width="1.2" height="0.8"/>
			
				<rect x="151.1" y="133.7" transform="matrix(6.123234e-17 -1 1 6.123234e-17 17.3326 285.6262)" class="st18" width="0.8" height="0.8"/>
			
				<rect x="151.1" y="137.3" transform="matrix(6.123234e-17 -1 1 6.123234e-17 13.7889 289.1699)" class="st18" width="0.8" height="0.8"/>
		</g>
		<g>
			
				<rect x="152.5" y="141.2" transform="matrix(6.123234e-17 -1 1 6.123234e-17 11.4994 294.6374)" class="st18" width="1.2" height="0.8"/>
			
				<rect x="152.7" y="139.4" transform="matrix(6.123234e-17 -1 1 6.123234e-17 13.2751 292.8617)" class="st18" width="0.8" height="0.8"/>
			
				<rect x="152.5" y="135.5" transform="matrix(6.123234e-17 -1 1 6.123234e-17 17.1459 288.9909)" class="st18" width="1.2" height="0.8"/>
			
				<rect x="152.7" y="133.7" transform="matrix(6.123234e-17 -1 1 6.123234e-17 18.9216 287.2152)" class="st18" width="0.8" height="0.8"/>
			
				<rect x="152.7" y="137.3" transform="matrix(6.123234e-17 -1 1 6.123234e-17 15.3779 290.7589)" class="st18" width="0.8" height="0.8"/>
		</g>
		<g>
			
				<rect x="154.2" y="141.2" transform="matrix(6.123234e-17 -1 1 6.123234e-17 13.2018 296.3399)" class="st18" width="1.2" height="0.8"/>
			
				<rect x="154.4" y="139.4" transform="matrix(6.123234e-17 -1 1 6.123234e-17 14.9775 294.5641)" class="st18" width="0.8" height="0.8"/>
			
				<rect x="154.2" y="135.5" transform="matrix(6.123234e-17 -1 1 6.123234e-17 18.8483 290.6934)" class="st18" width="1.2" height="0.8"/>
			
				<rect x="154.4" y="133.7" transform="matrix(6.123234e-17 -1 1 6.123234e-17 20.624 288.9177)" class="st18" width="0.8" height="0.8"/>
			
				<rect x="154.4" y="137.3" transform="matrix(6.123234e-17 -1 1 6.123234e-17 17.0804 292.4613)" class="st18" width="0.8" height="0.8"/>
		</g>
		<g>
			
				<rect x="155.7" y="141.2" transform="matrix(6.123234e-17 -1 1 6.123234e-17 14.7624 297.9005)" class="st18" width="1.2" height="0.8"/>
			
				<rect x="155.9" y="139.4" transform="matrix(6.123234e-17 -1 1 6.123234e-17 16.5381 296.1248)" class="st18" width="0.8" height="0.8"/>
			
				<rect x="155.7" y="135.5" transform="matrix(6.123234e-17 -1 1 6.123234e-17 20.4089 292.254)" class="st18" width="1.2" height="0.8"/>
			
				<rect x="155.9" y="133.7" transform="matrix(6.123234e-17 -1 1 6.123234e-17 22.1846 290.4782)" class="st18" width="0.8" height="0.8"/>
			
				<rect x="155.9" y="137.3" transform="matrix(6.123234e-17 -1 1 6.123234e-17 18.6409 294.0219)" class="st18" width="0.8" height="0.8"/>
		</g>
		<g>
			
				<rect x="161" y="141.2" transform="matrix(6.123234e-17 -1 1 6.123234e-17 19.9833 303.1214)" class="st18" width="1.2" height="0.8"/>
			
				<rect x="161.1" y="139.4" transform="matrix(6.123234e-17 -1 1 6.123234e-17 21.759 301.3456)" class="st18" width="0.8" height="0.8"/>
			
				<rect x="161" y="135.5" transform="matrix(6.123234e-17 -1 1 6.123234e-17 25.6298 297.4749)" class="st18" width="1.2" height="0.8"/>
			
				<rect x="161.1" y="133.7" transform="matrix(6.123234e-17 -1 1 6.123234e-17 27.4055 295.6991)" class="st18" width="0.8" height="0.8"/>
			
				<rect x="161.1" y="137.3" transform="matrix(6.123234e-17 -1 1 6.123234e-17 23.8618 299.2428)" class="st18" width="0.8" height="0.8"/>
		</g>
		<g>
			
				<rect x="162.9" y="141.2" transform="matrix(6.123234e-17 -1 1 6.123234e-17 21.9506 305.0887)" class="st18" width="1.2" height="0.8"/>
			
				<rect x="163.1" y="139.4" transform="matrix(6.123234e-17 -1 1 6.123234e-17 23.7263 303.3129)" class="st18" width="0.8" height="0.8"/>
			
				<rect x="162.9" y="135.5" transform="matrix(6.123234e-17 -1 1 6.123234e-17 27.5971 299.4421)" class="st18" width="1.2" height="0.8"/>
			
				<rect x="163.1" y="133.7" transform="matrix(6.123234e-17 -1 1 6.123234e-17 29.3728 297.6664)" class="st18" width="0.8" height="0.8"/>
			
				<rect x="163.1" y="137.3" transform="matrix(6.123234e-17 -1 1 6.123234e-17 25.8291 301.2101)" class="st18" width="0.8" height="0.8"/>
		</g>
		<g>
			
				<rect x="164.6" y="141.2" transform="matrix(6.123234e-17 -1 1 6.123234e-17 23.5868 306.7249)" class="st18" width="1.2" height="0.8"/>
			
				<rect x="164.7" y="139.4" transform="matrix(6.123234e-17 -1 1 6.123234e-17 25.3626 304.9492)" class="st18" width="0.8" height="0.8"/>
			
				<rect x="164.6" y="135.5" transform="matrix(6.123234e-17 -1 1 6.123234e-17 29.2333 301.0784)" class="st18" width="1.2" height="0.8"/>
			
				<rect x="164.7" y="133.7" transform="matrix(6.123234e-17 -1 1 6.123234e-17 31.0091 299.3027)" class="st18" width="0.8" height="0.8"/>
			
				<rect x="164.7" y="137.3" transform="matrix(6.123234e-17 -1 1 6.123234e-17 27.4654 302.8464)" class="st18" width="0.8" height="0.8"/>
		</g>
		<g>
			
				<rect x="166.2" y="141.2" transform="matrix(6.123234e-17 -1 1 6.123234e-17 25.2231 308.3612)" class="st18" width="1.2" height="0.8"/>
			
				<rect x="166.4" y="139.4" transform="matrix(6.123234e-17 -1 1 6.123234e-17 26.9988 306.5854)" class="st18" width="0.8" height="0.8"/>
			
				<rect x="166.2" y="135.5" transform="matrix(6.123234e-17 -1 1 6.123234e-17 30.8696 302.7147)" class="st18" width="1.2" height="0.8"/>
			
				<rect x="166.4" y="133.7" transform="matrix(6.123234e-17 -1 1 6.123234e-17 32.6453 300.9389)" class="st18" width="0.8" height="0.8"/>
			
				<rect x="166.4" y="137.3" transform="matrix(6.123234e-17 -1 1 6.123234e-17 29.1016 304.4826)" class="st18" width="0.8" height="0.8"/>
		</g>
		<g>
			
				<rect x="167.8" y="141.2" transform="matrix(6.123234e-17 -1 1 6.123234e-17 26.8594 309.9974)" class="st18" width="1.2" height="0.8"/>
			
				<rect x="168" y="139.4" transform="matrix(6.123234e-17 -1 1 6.123234e-17 28.6351 308.2217)" class="st18" width="0.8" height="0.8"/>
			
				<rect x="167.8" y="135.5" transform="matrix(6.123234e-17 -1 1 6.123234e-17 32.5059 304.3509)" class="st18" width="1.2" height="0.8"/>
			
				<rect x="168" y="133.7" transform="matrix(6.123234e-17 -1 1 6.123234e-17 34.2816 302.5752)" class="st18" width="0.8" height="0.8"/>
			
				<rect x="168" y="137.3" transform="matrix(6.123234e-17 -1 1 6.123234e-17 30.7379 306.1189)" class="st18" width="0.8" height="0.8"/>
		</g>
		
			<rect x="153.6" y="137.1" transform="matrix(6.123234e-17 -1 1 6.123234e-17 20.3758 295.8055)" class="st18" width="8.9" height="1.2"/>
	</g>
	<g>
		<linearGradient id="SVGID_13_" gradientUnits="userSpaceOnUse" x1="154.5932" y1="227.0563" x2="158.4606" y2="227.0563">
			<stop  offset="6.647793e-03" style="stop-color:#000000"/>
			<stop  offset="0.5103" style="stop-color:#1A1A1A"/>
			<stop  offset="1" style="stop-color:#000000"/>
		</linearGradient>
		<polygon class="st19" points="158.5,212.5 158,241.6 154.6,241.6 155,212.5 		"/>
		<linearGradient id="SVGID_14_" gradientUnits="userSpaceOnUse" x1="158.0276" y1="227.0563" x2="161.895" y2="227.0563">
			<stop  offset="6.647793e-03" style="stop-color:#000000"/>
			<stop  offset="0.5103" style="stop-color:#1A1A1A"/>
			<stop  offset="1" style="stop-color:#000000"/>
		</linearGradient>
		<polygon class="st20" points="161.9,212.5 161.5,241.6 158,241.6 158.5,212.5 		"/>
	</g>
</g>
<g>
	<linearGradient id="SVGID_15_" gradientUnits="userSpaceOnUse" x1="90.7516" y1="226.2305" x2="94.186" y2="226.2305">
		<stop  offset="6.647793e-03" style="stop-color:#000000"/>
		<stop  offset="0.5103" style="stop-color:#1A1A1A"/>
		<stop  offset="1" style="stop-color:#000000"/>
	</linearGradient>
	<polygon class="st21" points="94.2,210.9 94.2,241.6 90.8,241.6 90.8,210.9 	"/>
	<linearGradient id="SVGID_16_" gradientUnits="userSpaceOnUse" x1="94.186" y1="226.2305" x2="97.6204" y2="226.2305">
		<stop  offset="6.647793e-03" style="stop-color:#000000"/>
		<stop  offset="0.5103" style="stop-color:#1A1A1A"/>
		<stop  offset="1" style="stop-color:#000000"/>
	</linearGradient>
	<polygon class="st22" points="97.6,210.9 97.6,241.6 94.2,241.6 94.2,210.9 	"/>
</g>
</svg>
