<?xml version='1.0' encoding='UTF-8' standalone='no'?>
<!-- Created with Fritzing (http://www.fritzing.org/) -->
<svg xmlns:svg='http://www.w3.org/2000/svg' xmlns='http://www.w3.org/2000/svg' version='1.2' baseProfile='tiny' x='0in' y='0in' width='0.9in' height='0.7in' viewBox='0 0 64.8 50.4' >
<g partID='854285390'><g xmlns="http://www.w3.org/2000/svg" id="breadboardbreadboard">
 <path xmlns="http://www.w3.org/2000/svg" id="boardoutline" stroke-width="0" stroke="none" d="M0,0L64.8,0,64.8,50.4,0,50.4zM5.94,7.2a1.26,1.26,0,1,0,2.52,0,1.26,1.26,0,1,0,-2.52,0zM13.14,7.2a1.26,1.26,0,1,0,2.52,0,1.26,1.26,0,1,0,-2.52,0zM20.34,7.2a1.26,1.26,0,1,0,2.52,0,1.26,1.26,0,1,0,-2.52,0zM27.54,7.2a1.26,1.26,0,1,0,2.52,0,1.26,1.26,0,1,0,-2.52,0zM34.74,7.2a1.26,1.26,0,1,0,2.52,0,1.26,1.26,0,1,0,-2.52,0zM41.94,7.2a1.26,1.26,0,1,0,2.52,0,1.26,1.26,0,1,0,-2.52,0zM49.14,7.2a1.26,1.26,0,1,0,2.52,0,1.26,1.26,0,1,0,-2.52,0zM56.34,7.2a1.26,1.26,0,1,0,2.52,0,1.26,1.26,0,1,0,-2.52,0zM5.94,14.4a1.26,1.26,0,1,0,2.52,0,1.26,1.26,0,1,0,-2.52,0zM13.14,14.4a1.26,1.26,0,1,0,2.52,0,1.26,1.26,0,1,0,-2.52,0zM20.34,14.4a1.26,1.26,0,1,0,2.52,0,1.26,1.26,0,1,0,-2.52,0zM27.54,14.4a1.26,1.26,0,1,0,2.52,0,1.26,1.26,0,1,0,-2.52,0zM34.74,14.4a1.26,1.26,0,1,0,2.52,0,1.26,1.26,0,1,0,-2.52,0zM41.94,14.4a1.26,1.26,0,1,0,2.52,0,1.26,1.26,0,1,0,-2.52,0zM49.14,14.4a1.26,1.26,0,1,0,2.52,0,1.26,1.26,0,1,0,-2.52,0zM56.34,14.4a1.26,1.26,0,1,0,2.52,0,1.26,1.26,0,1,0,-2.52,0zM5.94,21.6a1.26,1.26,0,1,0,2.52,0,1.26,1.26,0,1,0,-2.52,0zM13.14,21.6a1.26,1.26,0,1,0,2.52,0,1.26,1.26,0,1,0,-2.52,0zM20.34,21.6a1.26,1.26,0,1,0,2.52,0,1.26,1.26,0,1,0,-2.52,0zM27.54,21.6a1.26,1.26,0,1,0,2.52,0,1.26,1.26,0,1,0,-2.52,0zM34.74,21.6a1.26,1.26,0,1,0,2.52,0,1.26,1.26,0,1,0,-2.52,0zM41.94,21.6a1.26,1.26,0,1,0,2.52,0,1.26,1.26,0,1,0,-2.52,0zM49.14,21.6a1.26,1.26,0,1,0,2.52,0,1.26,1.26,0,1,0,-2.52,0zM56.34,21.6a1.26,1.26,0,1,0,2.52,0,1.26,1.26,0,1,0,-2.52,0zM5.94,28.8a1.26,1.26,0,1,0,2.52,0,1.26,1.26,0,1,0,-2.52,0zM13.14,28.8a1.26,1.26,0,1,0,2.52,0,1.26,1.26,0,1,0,-2.52,0zM20.34,28.8a1.26,1.26,0,1,0,2.52,0,1.26,1.26,0,1,0,-2.52,0zM27.54,28.8a1.26,1.26,0,1,0,2.52,0,1.26,1.26,0,1,0,-2.52,0zM34.74,28.8a1.26,1.26,0,1,0,2.52,0,1.26,1.26,0,1,0,-2.52,0zM41.94,28.8a1.26,1.26,0,1,0,2.52,0,1.26,1.26,0,1,0,-2.52,0zM49.14,28.8a1.26,1.26,0,1,0,2.52,0,1.26,1.26,0,1,0,-2.52,0zM56.34,28.8a1.26,1.26,0,1,0,2.52,0,1.26,1.26,0,1,0,-2.52,0zM5.94,36a1.26,1.26,0,1,0,2.52,0,1.26,1.26,0,1,0,-2.52,0zM13.14,36a1.26,1.26,0,1,0,2.52,0,1.26,1.26,0,1,0,-2.52,0zM20.34,36a1.26,1.26,0,1,0,2.52,0,1.26,1.26,0,1,0,-2.52,0zM27.54,36a1.26,1.26,0,1,0,2.52,0,1.26,1.26,0,1,0,-2.52,0zM34.74,36a1.26,1.26,0,1,0,2.52,0,1.26,1.26,0,1,0,-2.52,0zM41.94,36a1.26,1.26,0,1,0,2.52,0,1.26,1.26,0,1,0,-2.52,0zM49.14,36a1.26,1.26,0,1,0,2.52,0,1.26,1.26,0,1,0,-2.52,0zM56.34,36a1.26,1.26,0,1,0,2.52,0,1.26,1.26,0,1,0,-2.52,0zM5.94,43.2a1.26,1.26,0,1,0,2.52,0,1.26,1.26,0,1,0,-2.52,0zM13.14,43.2a1.26,1.26,0,1,0,2.52,0,1.26,1.26,0,1,0,-2.52,0zM20.34,43.2a1.26,1.26,0,1,0,2.52,0,1.26,1.26,0,1,0,-2.52,0zM27.54,43.2a1.26,1.26,0,1,0,2.52,0,1.26,1.26,0,1,0,-2.52,0zM34.74,43.2a1.26,1.26,0,1,0,2.52,0,1.26,1.26,0,1,0,-2.52,0zM41.94,43.2a1.26,1.26,0,1,0,2.52,0,1.26,1.26,0,1,0,-2.52,0zM49.14,43.2a1.26,1.26,0,1,0,2.52,0,1.26,1.26,0,1,0,-2.52,0zM56.34,43.2a1.26,1.26,0,1,0,2.52,0,1.26,1.26,0,1,0,-2.52,0z" fill-opacity="1" fill="#deb675"/>
 <path xmlns="http://www.w3.org/2000/svg" stroke-width="0.576" stroke="#deb675" stroke-opacity="1" d="M0.288,0.288L64.224,0.288,64.224,49.824,0.288,49.824z" fill="none"/>
 <circle xmlns="http://www.w3.org/2000/svg" stroke="#c49c59" id="connector0pin" stroke-width="1.44" cx="7.2" cy="7.2" connectorname="0.0" fill="none" r="1.98"/>
 <circle xmlns="http://www.w3.org/2000/svg" stroke="#c49c59" id="connector1pin" stroke-width="1.44" cx="14.4" cy="7.2" connectorname="1.0" fill="none" r="1.98"/>
 <circle xmlns="http://www.w3.org/2000/svg" stroke="#c49c59" id="connector2pin" stroke-width="1.44" cx="21.6" cy="7.2" connectorname="2.0" fill="none" r="1.98"/>
 <circle xmlns="http://www.w3.org/2000/svg" stroke="#c49c59" id="connector3pin" stroke-width="1.44" cx="28.8" cy="7.2" connectorname="3.0" fill="none" r="1.98"/>
 <circle xmlns="http://www.w3.org/2000/svg" stroke="#c49c59" id="connector4pin" stroke-width="1.44" cx="36" cy="7.2" connectorname="4.0" fill="none" r="1.98"/>
 <circle xmlns="http://www.w3.org/2000/svg" stroke="#c49c59" id="connector5pin" stroke-width="1.44" cx="43.2" cy="7.2" connectorname="5.0" fill="none" r="1.98"/>
 <circle xmlns="http://www.w3.org/2000/svg" stroke="#c49c59" id="connector6pin" stroke-width="1.44" cx="50.4" cy="7.2" connectorname="6.0" fill="none" r="1.98"/>
 <circle xmlns="http://www.w3.org/2000/svg" stroke="#c49c59" id="connector7pin" stroke-width="1.44" cx="57.6" cy="7.2" connectorname="7.0" fill="none" r="1.98"/>
 <circle xmlns="http://www.w3.org/2000/svg" stroke="#c49c59" id="connector1000pin" stroke-width="1.44" cx="7.2" cy="14.4" connectorname="0.1" fill="none" r="1.98"/>
 <circle xmlns="http://www.w3.org/2000/svg" stroke="#c49c59" id="connector1001pin" stroke-width="1.44" cx="14.4" cy="14.4" connectorname="1.1" fill="none" r="1.98"/>
 <circle xmlns="http://www.w3.org/2000/svg" stroke="#c49c59" id="connector1002pin" stroke-width="1.44" cx="21.6" cy="14.4" connectorname="2.1" fill="none" r="1.98"/>
 <circle xmlns="http://www.w3.org/2000/svg" stroke="#c49c59" id="connector1003pin" stroke-width="1.44" cx="28.8" cy="14.4" connectorname="3.1" fill="none" r="1.98"/>
 <circle xmlns="http://www.w3.org/2000/svg" stroke="#c49c59" id="connector1004pin" stroke-width="1.44" cx="36" cy="14.4" connectorname="4.1" fill="none" r="1.98"/>
 <circle xmlns="http://www.w3.org/2000/svg" stroke="#c49c59" id="connector1005pin" stroke-width="1.44" cx="43.2" cy="14.4" connectorname="5.1" fill="none" r="1.98"/>
 <circle xmlns="http://www.w3.org/2000/svg" stroke="#c49c59" id="connector1006pin" stroke-width="1.44" cx="50.4" cy="14.4" connectorname="6.1" fill="none" r="1.98"/>
 <circle xmlns="http://www.w3.org/2000/svg" stroke="#c49c59" id="connector1007pin" stroke-width="1.44" cx="57.6" cy="14.4" connectorname="7.1" fill="none" r="1.98"/>
 <circle xmlns="http://www.w3.org/2000/svg" stroke="#c49c59" id="connector2000pin" stroke-width="1.44" cx="7.2" cy="21.6" connectorname="0.2" fill="none" r="1.98"/>
 <circle xmlns="http://www.w3.org/2000/svg" stroke="#c49c59" id="connector2001pin" stroke-width="1.44" cx="14.4" cy="21.6" connectorname="1.2" fill="none" r="1.98"/>
 <circle xmlns="http://www.w3.org/2000/svg" stroke="#c49c59" id="connector2002pin" stroke-width="1.44" cx="21.6" cy="21.6" connectorname="2.2" fill="none" r="1.98"/>
 <circle xmlns="http://www.w3.org/2000/svg" stroke="#c49c59" id="connector2003pin" stroke-width="1.44" cx="28.8" cy="21.6" connectorname="3.2" fill="none" r="1.98"/>
 <circle xmlns="http://www.w3.org/2000/svg" stroke="#c49c59" id="connector2004pin" stroke-width="1.44" cx="36" cy="21.6" connectorname="4.2" fill="none" r="1.98"/>
 <circle xmlns="http://www.w3.org/2000/svg" stroke="#c49c59" id="connector2005pin" stroke-width="1.44" cx="43.2" cy="21.6" connectorname="5.2" fill="none" r="1.98"/>
 <circle xmlns="http://www.w3.org/2000/svg" stroke="#c49c59" id="connector2006pin" stroke-width="1.44" cx="50.4" cy="21.6" connectorname="6.2" fill="none" r="1.98"/>
 <circle xmlns="http://www.w3.org/2000/svg" stroke="#c49c59" id="connector2007pin" stroke-width="1.44" cx="57.6" cy="21.6" connectorname="7.2" fill="none" r="1.98"/>
 <circle xmlns="http://www.w3.org/2000/svg" stroke="#c49c59" id="connector3000pin" stroke-width="1.44" cx="7.2" cy="28.8" connectorname="0.3" fill="none" r="1.98"/>
 <circle xmlns="http://www.w3.org/2000/svg" stroke="#c49c59" id="connector3001pin" stroke-width="1.44" cx="14.4" cy="28.8" connectorname="1.3" fill="none" r="1.98"/>
 <circle xmlns="http://www.w3.org/2000/svg" stroke="#c49c59" id="connector3002pin" stroke-width="1.44" cx="21.6" cy="28.8" connectorname="2.3" fill="none" r="1.98"/>
 <circle xmlns="http://www.w3.org/2000/svg" stroke="#c49c59" id="connector3003pin" stroke-width="1.44" cx="28.8" cy="28.8" connectorname="3.3" fill="none" r="1.98"/>
 <circle xmlns="http://www.w3.org/2000/svg" stroke="#c49c59" id="connector3004pin" stroke-width="1.44" cx="36" cy="28.8" connectorname="4.3" fill="none" r="1.98"/>
 <circle xmlns="http://www.w3.org/2000/svg" stroke="#c49c59" id="connector3005pin" stroke-width="1.44" cx="43.2" cy="28.8" connectorname="5.3" fill="none" r="1.98"/>
 <circle xmlns="http://www.w3.org/2000/svg" stroke="#c49c59" id="connector3006pin" stroke-width="1.44" cx="50.4" cy="28.8" connectorname="6.3" fill="none" r="1.98"/>
 <circle xmlns="http://www.w3.org/2000/svg" stroke="#c49c59" id="connector3007pin" stroke-width="1.44" cx="57.6" cy="28.8" connectorname="7.3" fill="none" r="1.98"/>
 <circle xmlns="http://www.w3.org/2000/svg" stroke="#c49c59" id="connector4000pin" stroke-width="1.44" cx="7.2" cy="36" connectorname="0.4" fill="none" r="1.98"/>
 <circle xmlns="http://www.w3.org/2000/svg" stroke="#c49c59" id="connector4001pin" stroke-width="1.44" cx="14.4" cy="36" connectorname="1.4" fill="none" r="1.98"/>
 <circle xmlns="http://www.w3.org/2000/svg" stroke="#c49c59" id="connector4002pin" stroke-width="1.44" cx="21.6" cy="36" connectorname="2.4" fill="none" r="1.98"/>
 <circle xmlns="http://www.w3.org/2000/svg" stroke="#c49c59" id="connector4003pin" stroke-width="1.44" cx="28.8" cy="36" connectorname="3.4" fill="none" r="1.98"/>
 <circle xmlns="http://www.w3.org/2000/svg" stroke="#c49c59" id="connector4004pin" stroke-width="1.44" cx="36" cy="36" connectorname="4.4" fill="none" r="1.98"/>
 <circle xmlns="http://www.w3.org/2000/svg" stroke="#c49c59" id="connector4005pin" stroke-width="1.44" cx="43.2" cy="36" connectorname="5.4" fill="none" r="1.98"/>
 <circle xmlns="http://www.w3.org/2000/svg" stroke="#c49c59" id="connector4006pin" stroke-width="1.44" cx="50.4" cy="36" connectorname="6.4" fill="none" r="1.98"/>
 <circle xmlns="http://www.w3.org/2000/svg" stroke="#c49c59" id="connector4007pin" stroke-width="1.44" cx="57.6" cy="36" connectorname="7.4" fill="none" r="1.98"/>
 <circle xmlns="http://www.w3.org/2000/svg" stroke="#c49c59" id="connector5000pin" stroke-width="1.44" cx="7.2" cy="43.2" connectorname="0.5" fill="none" r="1.98"/>
 <circle xmlns="http://www.w3.org/2000/svg" stroke="#c49c59" id="connector5001pin" stroke-width="1.44" cx="14.4" cy="43.2" connectorname="1.5" fill="none" r="1.98"/>
 <circle xmlns="http://www.w3.org/2000/svg" stroke="#c49c59" id="connector5002pin" stroke-width="1.44" cx="21.6" cy="43.2" connectorname="2.5" fill="none" r="1.98"/>
 <circle xmlns="http://www.w3.org/2000/svg" stroke="#c49c59" id="connector5003pin" stroke-width="1.44" cx="28.8" cy="43.2" connectorname="3.5" fill="none" r="1.98"/>
 <circle xmlns="http://www.w3.org/2000/svg" stroke="#c49c59" id="connector5004pin" stroke-width="1.44" cx="36" cy="43.2" connectorname="4.5" fill="none" r="1.98"/>
 <circle xmlns="http://www.w3.org/2000/svg" stroke="#c49c59" id="connector5005pin" stroke-width="1.44" cx="43.2" cy="43.2" connectorname="5.5" fill="none" r="1.98"/>
 <circle xmlns="http://www.w3.org/2000/svg" stroke="#c49c59" id="connector5006pin" stroke-width="1.44" cx="50.4" cy="43.2" connectorname="6.5" fill="none" r="1.98"/>
 <circle xmlns="http://www.w3.org/2000/svg" stroke="#c49c59" id="connector5007pin" stroke-width="1.44" cx="57.6" cy="43.2" connectorname="7.5" fill="none" r="1.98"/>
</g>
</g></svg>