<?xml version="1.0" encoding="utf-8"?>
<!-- Generator: Adobe Illustrator 23.0.1, SVG Export Plug-In . SVG Version: 6.00 Build 0)  -->
<svg version="1.1" id="Layer_1" xmlns:svg="http://www.w3.org/2000/svg"
	 xmlns="http://www.w3.org/2000/svg" xmlns:xlink="http://www.w3.org/1999/xlink" x="0px" y="0px" viewBox="0 0 204.1 133.2"
	 style="enable-background:new 0 0 204.1 133.2;" xml:space="preserve">
<style type="text/css">
	.st0{fill:#DEB675;}
	.st1{fill:#FFFFFF;stroke:#C48300;stroke-width:1.44;}
	.st2{fill:#C48300;}
	.st3{font-family:'Arial-BoldMT';}
	.st4{font-size:5.9914px;}
</style>
<path class="st0" d="M-0.1-0.1v133.2H204V-0.1H-0.1z M8.5,129.7c-2.7,0-5-2.2-5-5c0-2.7,2.2-5,5-5s5,2.2,5,5S11.2,129.7,8.5,129.7z
	 M8.5,13.5c-2.7,0-5-2.2-5-5c0-2.7,2.2-5,5-5s5,2.2,5,5C13.5,11.2,11.2,13.5,8.5,13.5z M195.6,129.7c-2.7,0-5-2.2-5-5
	c0-2.7,2.2-5,5-5s5,2.2,5,5S198.3,129.7,195.6,129.7z M195.6,13.5c-2.7,0-5-2.2-5-5c0-2.7,2.2-5,5-5s5,2.2,5,5
	C200.6,11.2,198.3,13.5,195.6,13.5z"/>
<g id="breadboardbreadboard">
	<circle id="connector1pin" class="st1" cx="22.8" cy="16.2" r="2"/>
	<circle id="connector2pin" class="st1" cx="30" cy="16.2" r="2"/>
	<circle id="connector3pin" class="st1" cx="37.2" cy="16.2" r="2"/>
	<circle id="connector4pin" class="st1" cx="44.4" cy="16.2" r="2"/>
	<circle id="connector5pin" class="st1" cx="51.6" cy="16.2" r="2"/>
	<circle id="connector6pin" class="st1" cx="58.8" cy="16.2" r="2"/>
	<circle id="connector7pin" class="st1" cx="66" cy="16.2" r="2"/>
	<circle id="connector8pin" class="st1" cx="73.2" cy="16.2" r="2"/>
	<circle id="connector9pin" class="st1" cx="80.4" cy="16.2" r="2"/>
	<circle id="connector10pin" class="st1" cx="87.6" cy="16.2" r="2"/>
	<circle id="connector11pin" class="st1" cx="94.8" cy="16.2" r="2"/>
	<circle id="connector12pin" class="st1" cx="102" cy="16.2" r="2"/>
	<circle id="connector13pin" class="st1" cx="109.2" cy="16.2" r="2"/>
	<circle id="connector14pin" class="st1" cx="116.4" cy="16.2" r="2"/>
	<circle id="connector15pin" class="st1" cx="123.6" cy="16.2" r="2"/>
	<circle id="connector16pin" class="st1" cx="130.8" cy="16.2" r="2"/>
	<circle id="connector17pin" class="st1" cx="138" cy="16.2" r="2"/>
	<circle id="connector18pin" class="st1" cx="145.2" cy="16.2" r="2"/>
	<circle id="connector19pin" class="st1" cx="152.4" cy="16.2" r="2"/>
	<circle id="connector20pin" class="st1" cx="159.6" cy="16.2" r="2"/>
	<circle id="connector21pin" class="st1" cx="166.8" cy="16.2" r="2"/>
	<circle id="connector22pin" class="st1" cx="174" cy="16.2" r="2"/>
	<circle id="connector23pin" class="st1" cx="181.2" cy="16.2" r="2"/>
	<circle id="connector1000pin" class="st1" cx="15.6" cy="23.4" r="2"/>
	<circle id="connector1001pin" class="st1" cx="22.8" cy="23.4" r="2"/>
	<circle id="connector1002pin" class="st1" cx="30" cy="23.4" r="2"/>
	<circle id="connector1003pin" class="st1" cx="37.2" cy="23.4" r="2"/>
	<circle id="connector1004pin" class="st1" cx="44.4" cy="23.4" r="2"/>
	<circle id="connector1005pin" class="st1" cx="51.6" cy="23.4" r="2"/>
	<circle id="connector1006pin" class="st1" cx="58.8" cy="23.4" r="2"/>
	<circle id="connector1007pin" class="st1" cx="66" cy="23.4" r="2"/>
	<circle id="connector1008pin" class="st1" cx="73.2" cy="23.4" r="2"/>
	<circle id="connector1009pin" class="st1" cx="80.4" cy="23.4" r="2"/>
	<circle id="connector1010pin" class="st1" cx="87.6" cy="23.4" r="2"/>
	<circle id="connector1011pin" class="st1" cx="94.8" cy="23.4" r="2"/>
	<circle id="connector1012pin" class="st1" cx="102" cy="23.4" r="2"/>
	<circle id="connector1013pin" class="st1" cx="109.2" cy="23.4" r="2"/>
	<circle id="connector1014pin" class="st1" cx="116.4" cy="23.4" r="2"/>
	<circle id="connector1015pin" class="st1" cx="123.6" cy="23.4" r="2"/>
	<circle id="connector1016pin" class="st1" cx="130.8" cy="23.4" r="2"/>
	<circle id="connector1017pin" class="st1" cx="138" cy="23.4" r="2"/>
	<circle id="connector1018pin" class="st1" cx="145.2" cy="23.4" r="2"/>
	<circle id="connector1019pin" class="st1" cx="152.4" cy="23.4" r="2"/>
	<circle id="connector1020pin" class="st1" cx="159.6" cy="23.4" r="2"/>
	<circle id="connector1021pin" class="st1" cx="166.8" cy="23.4" r="2"/>
	<circle id="connector1022pin" class="st1" cx="174" cy="23.4" r="2"/>
	<circle id="connector1023pin" class="st1" cx="181.2" cy="23.4" r="2"/>
	<circle id="connector1024pin" class="st1" cx="188.4" cy="23.4" r="2"/>
	<circle id="connector2000pin" class="st1" cx="15.6" cy="30.6" r="2"/>
	<circle id="connector2001pin" class="st1" cx="22.8" cy="30.6" r="2"/>
	<circle id="connector2002pin" class="st1" cx="30" cy="30.6" r="2"/>
	<circle id="connector2003pin" class="st1" cx="37.2" cy="30.6" r="2"/>
	<circle id="connector2004pin" class="st1" cx="44.4" cy="30.6" r="2"/>
	<circle id="connector2005pin" class="st1" cx="51.6" cy="30.6" r="2"/>
	<circle id="connector2006pin" class="st1" cx="58.8" cy="30.6" r="2"/>
	<circle id="connector2007pin" class="st1" cx="66" cy="30.6" r="2"/>
	<circle id="connector2008pin" class="st1" cx="73.2" cy="30.6" r="2"/>
	<circle id="connector2009pin" class="st1" cx="80.4" cy="30.6" r="2"/>
	<circle id="connector2010pin" class="st1" cx="87.6" cy="30.6" r="2"/>
	<circle id="connector2011pin" class="st1" cx="94.8" cy="30.6" r="2"/>
	<circle id="connector2012pin" class="st1" cx="102" cy="30.6" r="2"/>
	<circle id="connector2013pin" class="st1" cx="109.2" cy="30.6" r="2"/>
	<circle id="connector2014pin" class="st1" cx="116.4" cy="30.6" r="2"/>
	<circle id="connector2015pin" class="st1" cx="123.6" cy="30.6" r="2"/>
	<circle id="connector2016pin" class="st1" cx="130.8" cy="30.6" r="2"/>
	<circle id="connector2017pin" class="st1" cx="138" cy="30.6" r="2"/>
	<circle id="connector2018pin" class="st1" cx="145.2" cy="30.6" r="2"/>
	<circle id="connector2019pin" class="st1" cx="152.4" cy="30.6" r="2"/>
	<circle id="connector2020pin" class="st1" cx="159.6" cy="30.6" r="2"/>
	<circle id="connector2021pin" class="st1" cx="166.8" cy="30.6" r="2"/>
	<circle id="connector2022pin" class="st1" cx="174" cy="30.6" r="2"/>
	<circle id="connector2023pin" class="st1" cx="181.2" cy="30.6" r="2"/>
	<circle id="connector2024pin" class="st1" cx="188.4" cy="30.6" r="2"/>
	<circle id="connector3000pin" class="st1" cx="15.6" cy="37.8" r="2"/>
	<circle id="connector3001pin" class="st1" cx="22.8" cy="37.8" r="2"/>
	<circle id="connector3002pin" class="st1" cx="30" cy="37.8" r="2"/>
	<circle id="connector3003pin" class="st1" cx="37.2" cy="37.8" r="2"/>
	<circle id="connector3004pin" class="st1" cx="44.4" cy="37.8" r="2"/>
	<circle id="connector3005pin" class="st1" cx="51.6" cy="37.8" r="2"/>
	<circle id="connector3006pin" class="st1" cx="58.8" cy="37.8" r="2"/>
	<circle id="connector3007pin" class="st1" cx="66" cy="37.8" r="2"/>
	<circle id="connector3008pin" class="st1" cx="73.2" cy="37.8" r="2"/>
	<circle id="connector3009pin" class="st1" cx="80.4" cy="37.8" r="2"/>
	<circle id="connector3010pin" class="st1" cx="87.6" cy="37.8" r="2"/>
	<circle id="connector3011pin" class="st1" cx="94.8" cy="37.8" r="2"/>
	<circle id="connector3012pin" class="st1" cx="102" cy="37.8" r="2"/>
	<circle id="connector3013pin" class="st1" cx="109.2" cy="37.8" r="2"/>
	<circle id="connector3014pin" class="st1" cx="116.4" cy="37.8" r="2"/>
	<circle id="connector3015pin" class="st1" cx="123.6" cy="37.8" r="2"/>
	<circle id="connector3016pin" class="st1" cx="130.8" cy="37.8" r="2"/>
	<circle id="connector3017pin" class="st1" cx="138" cy="37.8" r="2"/>
	<circle id="connector3018pin" class="st1" cx="145.2" cy="37.8" r="2"/>
	<circle id="connector3019pin" class="st1" cx="152.4" cy="37.8" r="2"/>
	<circle id="connector3020pin" class="st1" cx="159.6" cy="37.8" r="2"/>
	<circle id="connector3021pin" class="st1" cx="166.8" cy="37.8" r="2"/>
	<circle id="connector3022pin" class="st1" cx="174" cy="37.8" r="2"/>
	<circle id="connector3023pin" class="st1" cx="181.2" cy="37.8" r="2"/>
	<circle id="connector3024pin" class="st1" cx="188.4" cy="37.8" r="2"/>
	<circle id="connector4000pin" class="st1" cx="15.6" cy="45" r="2"/>
	<circle id="connector4001pin" class="st1" cx="22.8" cy="45" r="2"/>
	<circle id="connector4002pin" class="st1" cx="30" cy="45" r="2"/>
	<circle id="connector4003pin" class="st1" cx="37.2" cy="45" r="2"/>
	<circle id="connector4004pin" class="st1" cx="44.4" cy="45" r="2"/>
	<circle id="connector4005pin" class="st1" cx="51.6" cy="45" r="2"/>
	<circle id="connector4006pin" class="st1" cx="58.8" cy="45" r="2"/>
	<circle id="connector4007pin" class="st1" cx="66" cy="45" r="2"/>
	<circle id="connector4008pin" class="st1" cx="73.2" cy="45" r="2"/>
	<circle id="connector4009pin" class="st1" cx="80.4" cy="45" r="2"/>
	<circle id="connector4010pin" class="st1" cx="87.6" cy="45" r="2"/>
	<circle id="connector4011pin" class="st1" cx="94.8" cy="45" r="2"/>
	<circle id="connector4012pin" class="st1" cx="102" cy="45" r="2"/>
	<circle id="connector4013pin" class="st1" cx="109.2" cy="45" r="2"/>
	<circle id="connector4014pin" class="st1" cx="116.4" cy="45" r="2"/>
	<circle id="connector4015pin" class="st1" cx="123.6" cy="45" r="2"/>
	<circle id="connector4016pin" class="st1" cx="130.8" cy="45" r="2"/>
	<circle id="connector4017pin" class="st1" cx="138" cy="45" r="2"/>
	<circle id="connector4018pin" class="st1" cx="145.2" cy="45" r="2"/>
	<circle id="connector4019pin" class="st1" cx="152.4" cy="45" r="2"/>
	<circle id="connector4020pin" class="st1" cx="159.6" cy="45" r="2"/>
	<circle id="connector4021pin" class="st1" cx="166.8" cy="45" r="2"/>
	<circle id="connector4022pin" class="st1" cx="174" cy="45" r="2"/>
	<circle id="connector4023pin" class="st1" cx="181.2" cy="45" r="2"/>
	<circle id="connector4024pin" class="st1" cx="188.4" cy="45" r="2"/>
	<circle id="connector5000pin" class="st1" cx="15.6" cy="52.2" r="2"/>
	<circle id="connector5001pin" class="st1" cx="22.8" cy="52.2" r="2"/>
	<circle id="connector5002pin" class="st1" cx="30" cy="52.2" r="2"/>
	<circle id="connector5003pin" class="st1" cx="37.2" cy="52.2" r="2"/>
	<circle id="connector5004pin" class="st1" cx="44.4" cy="52.2" r="2"/>
	<circle id="connector5005pin" class="st1" cx="51.6" cy="52.2" r="2"/>
	<circle id="connector5006pin" class="st1" cx="58.8" cy="52.2" r="2"/>
	<circle id="connector5007pin" class="st1" cx="66" cy="52.2" r="2"/>
	<circle id="connector5008pin" class="st1" cx="73.2" cy="52.2" r="2"/>
	<circle id="connector5009pin" class="st1" cx="80.4" cy="52.2" r="2"/>
	<circle id="connector5010pin" class="st1" cx="87.6" cy="52.2" r="2"/>
	<circle id="connector5011pin" class="st1" cx="94.8" cy="52.2" r="2"/>
	<circle id="connector5012pin" class="st1" cx="102" cy="52.2" r="2"/>
	<circle id="connector5013pin" class="st1" cx="109.2" cy="52.2" r="2"/>
	<circle id="connector5014pin" class="st1" cx="116.4" cy="52.2" r="2"/>
	<circle id="connector5015pin" class="st1" cx="123.6" cy="52.2" r="2"/>
	<circle id="connector5016pin" class="st1" cx="130.8" cy="52.2" r="2"/>
	<circle id="connector5017pin" class="st1" cx="138" cy="52.2" r="2"/>
	<circle id="connector5018pin" class="st1" cx="145.2" cy="52.2" r="2"/>
	<circle id="connector5019pin" class="st1" cx="152.4" cy="52.2" r="2"/>
	<circle id="connector5020pin" class="st1" cx="159.6" cy="52.2" r="2"/>
	<circle id="connector5021pin" class="st1" cx="166.8" cy="52.2" r="2"/>
	<circle id="connector5022pin" class="st1" cx="174" cy="52.2" r="2"/>
	<circle id="connector5023pin" class="st1" cx="181.2" cy="52.2" r="2"/>
	<circle id="connector5024pin" class="st1" cx="188.4" cy="52.2" r="2"/>
	<circle id="connector6000pin" class="st1" cx="15.6" cy="59.4" r="2"/>
	<circle id="connector6001pin" class="st1" cx="22.8" cy="59.4" r="2"/>
	<circle id="connector6002pin" class="st1" cx="30" cy="59.4" r="2"/>
	<circle id="connector6003pin" class="st1" cx="37.2" cy="59.4" r="2"/>
	<circle id="connector6004pin" class="st1" cx="44.4" cy="59.4" r="2"/>
	<circle id="connector6005pin" class="st1" cx="51.6" cy="59.4" r="2"/>
	<circle id="connector6006pin" class="st1" cx="58.8" cy="59.4" r="2"/>
	<circle id="connector6007pin" class="st1" cx="66" cy="59.4" r="2"/>
	<circle id="connector6008pin" class="st1" cx="73.2" cy="59.4" r="2"/>
	<circle id="connector6009pin" class="st1" cx="80.4" cy="59.4" r="2"/>
	<circle id="connector6010pin" class="st1" cx="87.6" cy="59.4" r="2"/>
	<circle id="connector6011pin" class="st1" cx="94.8" cy="59.4" r="2"/>
	<circle id="connector6012pin" class="st1" cx="102" cy="59.4" r="2"/>
	<circle id="connector6013pin" class="st1" cx="109.2" cy="59.4" r="2"/>
	<circle id="connector6014pin" class="st1" cx="116.4" cy="59.4" r="2"/>
	<circle id="connector6015pin" class="st1" cx="123.6" cy="59.4" r="2"/>
	<circle id="connector6016pin" class="st1" cx="130.8" cy="59.4" r="2"/>
	<circle id="connector6017pin" class="st1" cx="138" cy="59.4" r="2"/>
	<circle id="connector6018pin" class="st1" cx="145.2" cy="59.4" r="2"/>
	<circle id="connector6019pin" class="st1" cx="152.4" cy="59.4" r="2"/>
	<circle id="connector6020pin" class="st1" cx="159.6" cy="59.4" r="2"/>
	<circle id="connector6021pin" class="st1" cx="166.8" cy="59.4" r="2"/>
	<circle id="connector6022pin" class="st1" cx="174" cy="59.4" r="2"/>
	<circle id="connector6023pin" class="st1" cx="181.2" cy="59.4" r="2"/>
	<circle id="connector6024pin" class="st1" cx="188.4" cy="59.4" r="2"/>
	<circle id="connector7000pin" class="st1" cx="15.6" cy="66.6" r="2"/>
	<circle id="connector7001pin" class="st1" cx="22.8" cy="66.6" r="2"/>
	<circle id="connector7002pin" class="st1" cx="30" cy="66.6" r="2"/>
	<circle id="connector7003pin" class="st1" cx="37.2" cy="66.6" r="2"/>
	<circle id="connector7004pin" class="st1" cx="44.4" cy="66.6" r="2"/>
	<circle id="connector7005pin" class="st1" cx="51.6" cy="66.6" r="2"/>
	<circle id="connector7006pin" class="st1" cx="58.8" cy="66.6" r="2"/>
	<circle id="connector7007pin" class="st1" cx="66" cy="66.6" r="2"/>
	<circle id="connector7008pin" class="st1" cx="73.2" cy="66.6" r="2"/>
	<circle id="connector7009pin" class="st1" cx="80.4" cy="66.6" r="2"/>
	<circle id="connector7010pin" class="st1" cx="87.6" cy="66.6" r="2"/>
	<circle id="connector7011pin" class="st1" cx="94.8" cy="66.6" r="2"/>
	<circle id="connector7012pin" class="st1" cx="102" cy="66.6" r="2"/>
	<circle id="connector7013pin" class="st1" cx="109.2" cy="66.6" r="2"/>
	<circle id="connector7014pin" class="st1" cx="116.4" cy="66.6" r="2"/>
	<circle id="connector7015pin" class="st1" cx="123.6" cy="66.6" r="2"/>
	<circle id="connector7016pin" class="st1" cx="130.8" cy="66.6" r="2"/>
	<circle id="connector7017pin" class="st1" cx="138" cy="66.6" r="2"/>
	<circle id="connector7018pin" class="st1" cx="145.2" cy="66.6" r="2"/>
	<circle id="connector7019pin" class="st1" cx="152.4" cy="66.6" r="2"/>
	<circle id="connector7020pin" class="st1" cx="159.6" cy="66.6" r="2"/>
	<circle id="connector7021pin" class="st1" cx="166.8" cy="66.6" r="2"/>
	<circle id="connector7022pin" class="st1" cx="174" cy="66.6" r="2"/>
	<circle id="connector7023pin" class="st1" cx="181.2" cy="66.6" r="2"/>
	<circle id="connector7024pin" class="st1" cx="188.4" cy="66.6" r="2"/>
	<circle id="connector8000pin" class="st1" cx="15.6" cy="73.8" r="2"/>
	<circle id="connector8001pin" class="st1" cx="22.8" cy="73.8" r="2"/>
	<circle id="connector8002pin" class="st1" cx="30" cy="73.8" r="2"/>
	<circle id="connector8003pin" class="st1" cx="37.2" cy="73.8" r="2"/>
	<circle id="connector8004pin" class="st1" cx="44.4" cy="73.8" r="2"/>
	<circle id="connector8005pin" class="st1" cx="51.6" cy="73.8" r="2"/>
	<circle id="connector8006pin" class="st1" cx="58.8" cy="73.8" r="2"/>
	<circle id="connector8007pin" class="st1" cx="66" cy="73.8" r="2"/>
	<circle id="connector8008pin" class="st1" cx="73.2" cy="73.8" r="2"/>
	<circle id="connector8009pin" class="st1" cx="80.4" cy="73.8" r="2"/>
	<circle id="connector8010pin" class="st1" cx="87.6" cy="73.8" r="2"/>
	<circle id="connector8011pin" class="st1" cx="94.8" cy="73.8" r="2"/>
	<circle id="connector8012pin" class="st1" cx="102" cy="73.8" r="2"/>
	<circle id="connector8013pin" class="st1" cx="109.2" cy="73.8" r="2"/>
	<circle id="connector8014pin" class="st1" cx="116.4" cy="73.8" r="2"/>
	<circle id="connector8015pin" class="st1" cx="123.6" cy="73.8" r="2"/>
	<circle id="connector8016pin" class="st1" cx="130.8" cy="73.8" r="2"/>
	<circle id="connector8017pin" class="st1" cx="138" cy="73.8" r="2"/>
	<circle id="connector8018pin" class="st1" cx="145.2" cy="73.8" r="2"/>
	<circle id="connector8019pin" class="st1" cx="152.4" cy="73.8" r="2"/>
	<circle id="connector8020pin" class="st1" cx="159.6" cy="73.8" r="2"/>
	<circle id="connector8021pin" class="st1" cx="166.8" cy="73.8" r="2"/>
	<circle id="connector8022pin" class="st1" cx="174" cy="73.8" r="2"/>
	<circle id="connector8023pin" class="st1" cx="181.2" cy="73.8" r="2"/>
	<circle id="connector8024pin" class="st1" cx="188.4" cy="73.8" r="2"/>
	<circle id="connector9000pin" class="st1" cx="15.6" cy="81" r="2"/>
	<circle id="connector9001pin" class="st1" cx="22.8" cy="81" r="2"/>
	<circle id="connector9002pin" class="st1" cx="30" cy="81" r="2"/>
	<circle id="connector9003pin" class="st1" cx="37.2" cy="81" r="2"/>
	<circle id="connector9004pin" class="st1" cx="44.4" cy="81" r="2"/>
	<circle id="connector9005pin" class="st1" cx="51.6" cy="81" r="2"/>
	<circle id="connector9006pin" class="st1" cx="58.8" cy="81" r="2"/>
	<circle id="connector9007pin" class="st1" cx="66" cy="81" r="2"/>
	<circle id="connector9008pin" class="st1" cx="73.2" cy="81" r="2"/>
	<circle id="connector9009pin" class="st1" cx="80.4" cy="81" r="2"/>
	<circle id="connector9010pin" class="st1" cx="87.6" cy="81" r="2"/>
	<circle id="connector9011pin" class="st1" cx="94.8" cy="81" r="2"/>
	<circle id="connector9012pin" class="st1" cx="102" cy="81" r="2"/>
	<circle id="connector9013pin" class="st1" cx="109.2" cy="81" r="2"/>
	<circle id="connector9014pin" class="st1" cx="116.4" cy="81" r="2"/>
	<circle id="connector9015pin" class="st1" cx="123.6" cy="81" r="2"/>
	<circle id="connector9016pin" class="st1" cx="130.8" cy="81" r="2"/>
	<circle id="connector9017pin" class="st1" cx="138" cy="81" r="2"/>
	<circle id="connector9018pin" class="st1" cx="145.2" cy="81" r="2"/>
	<circle id="connector9019pin" class="st1" cx="152.4" cy="81" r="2"/>
	<circle id="connector9020pin" class="st1" cx="159.6" cy="81" r="2"/>
	<circle id="connector9021pin" class="st1" cx="166.8" cy="81" r="2"/>
	<circle id="connector9022pin" class="st1" cx="174" cy="81" r="2"/>
	<circle id="connector9023pin" class="st1" cx="181.2" cy="81" r="2"/>
	<circle id="connector9024pin" class="st1" cx="188.4" cy="81" r="2"/>
	<circle id="connector10000pin" class="st1" cx="15.6" cy="88.2" r="2"/>
	<circle id="connector10001pin" class="st1" cx="22.8" cy="88.2" r="2"/>
	<circle id="connector10002pin" class="st1" cx="30" cy="88.2" r="2"/>
	<circle id="connector10003pin" class="st1" cx="37.2" cy="88.2" r="2"/>
	<circle id="connector10004pin" class="st1" cx="44.4" cy="88.2" r="2"/>
	<circle id="connector10005pin" class="st1" cx="51.6" cy="88.2" r="2"/>
	<circle id="connector10006pin" class="st1" cx="58.8" cy="88.2" r="2"/>
	<circle id="connector10007pin" class="st1" cx="66" cy="88.2" r="2"/>
	<circle id="connector10008pin" class="st1" cx="73.2" cy="88.2" r="2"/>
	<circle id="connector10009pin" class="st1" cx="80.4" cy="88.2" r="2"/>
	<circle id="connector10010pin" class="st1" cx="87.6" cy="88.2" r="2"/>
	<circle id="connector10011pin" class="st1" cx="94.8" cy="88.2" r="2"/>
	<circle id="connector10012pin" class="st1" cx="102" cy="88.2" r="2"/>
	<circle id="connector10013pin" class="st1" cx="109.2" cy="88.2" r="2"/>
	<circle id="connector10014pin" class="st1" cx="116.4" cy="88.2" r="2"/>
	<circle id="connector10015pin" class="st1" cx="123.6" cy="88.2" r="2"/>
	<circle id="connector10016pin" class="st1" cx="130.8" cy="88.2" r="2"/>
	<circle id="connector10017pin" class="st1" cx="138" cy="88.2" r="2"/>
	<circle id="connector10018pin" class="st1" cx="145.2" cy="88.2" r="2"/>
	<circle id="connector10019pin" class="st1" cx="152.4" cy="88.2" r="2"/>
	<circle id="connector10020pin" class="st1" cx="159.6" cy="88.2" r="2"/>
	<circle id="connector10021pin" class="st1" cx="166.8" cy="88.2" r="2"/>
	<circle id="connector10022pin" class="st1" cx="174" cy="88.2" r="2"/>
	<circle id="connector10023pin" class="st1" cx="181.2" cy="88.2" r="2"/>
	<circle id="connector10024pin" class="st1" cx="188.4" cy="88.2" r="2"/>
	<circle id="connector11000pin" class="st1" cx="15.6" cy="95.4" r="2"/>
	<circle id="connector11001pin" class="st1" cx="22.8" cy="95.4" r="2"/>
	<circle id="connector11002pin" class="st1" cx="30" cy="95.4" r="2"/>
	<circle id="connector11003pin" class="st1" cx="37.2" cy="95.4" r="2"/>
	<circle id="connector11004pin" class="st1" cx="44.4" cy="95.4" r="2"/>
	<circle id="connector11005pin" class="st1" cx="51.6" cy="95.4" r="2"/>
	<circle id="connector11006pin" class="st1" cx="58.8" cy="95.4" r="2"/>
	<circle id="connector11007pin" class="st1" cx="66" cy="95.4" r="2"/>
	<circle id="connector11008pin" class="st1" cx="73.2" cy="95.4" r="2"/>
	<circle id="connector11009pin" class="st1" cx="80.4" cy="95.4" r="2"/>
	<circle id="connector11010pin" class="st1" cx="87.6" cy="95.4" r="2"/>
	<circle id="connector11011pin" class="st1" cx="94.8" cy="95.4" r="2"/>
	<circle id="connector11012pin" class="st1" cx="102" cy="95.4" r="2"/>
	<circle id="connector11013pin" class="st1" cx="109.2" cy="95.4" r="2"/>
	<circle id="connector11014pin" class="st1" cx="116.4" cy="95.4" r="2"/>
	<circle id="connector11015pin" class="st1" cx="123.6" cy="95.4" r="2"/>
	<circle id="connector11016pin" class="st1" cx="130.8" cy="95.4" r="2"/>
	<circle id="connector11017pin" class="st1" cx="138" cy="95.4" r="2"/>
	<circle id="connector11018pin" class="st1" cx="145.2" cy="95.4" r="2"/>
	<circle id="connector11019pin" class="st1" cx="152.4" cy="95.4" r="2"/>
	<circle id="connector11020pin" class="st1" cx="159.6" cy="95.4" r="2"/>
	<circle id="connector11021pin" class="st1" cx="166.8" cy="95.4" r="2"/>
	<circle id="connector11022pin" class="st1" cx="174" cy="95.4" r="2"/>
	<circle id="connector11023pin" class="st1" cx="181.2" cy="95.4" r="2"/>
	<circle id="connector11024pin" class="st1" cx="188.4" cy="95.4" r="2"/>
	<circle id="connector12000pin" class="st1" cx="15.6" cy="102.6" r="2"/>
	<circle id="connector12001pin" class="st1" cx="22.8" cy="102.6" r="2"/>
	<circle id="connector12002pin" class="st1" cx="30" cy="102.6" r="2"/>
	<circle id="connector12003pin" class="st1" cx="37.2" cy="102.6" r="2"/>
	<circle id="connector12004pin" class="st1" cx="44.4" cy="102.6" r="2"/>
	<circle id="connector12005pin" class="st1" cx="51.6" cy="102.6" r="2"/>
	<circle id="connector12006pin" class="st1" cx="58.8" cy="102.6" r="2"/>
	<circle id="connector12007pin" class="st1" cx="66" cy="102.6" r="2"/>
	<circle id="connector12008pin" class="st1" cx="73.2" cy="102.6" r="2"/>
	<circle id="connector12009pin" class="st1" cx="80.4" cy="102.6" r="2"/>
	<circle id="connector12010pin" class="st1" cx="87.6" cy="102.6" r="2"/>
	<circle id="connector12011pin" class="st1" cx="94.8" cy="102.6" r="2"/>
	<circle id="connector12012pin" class="st1" cx="102" cy="102.6" r="2"/>
	<circle id="connector12013pin" class="st1" cx="109.2" cy="102.6" r="2"/>
	<circle id="connector12014pin" class="st1" cx="116.4" cy="102.6" r="2"/>
	<circle id="connector12015pin" class="st1" cx="123.6" cy="102.6" r="2"/>
	<circle id="connector12016pin" class="st1" cx="130.8" cy="102.6" r="2"/>
	<circle id="connector12017pin" class="st1" cx="138" cy="102.6" r="2"/>
	<circle id="connector12018pin" class="st1" cx="145.2" cy="102.6" r="2"/>
	<circle id="connector12019pin" class="st1" cx="152.4" cy="102.6" r="2"/>
	<circle id="connector12020pin" class="st1" cx="159.6" cy="102.6" r="2"/>
	<circle id="connector12021pin" class="st1" cx="166.8" cy="102.6" r="2"/>
	<circle id="connector12022pin" class="st1" cx="174" cy="102.6" r="2"/>
	<circle id="connector12023pin" class="st1" cx="181.2" cy="102.6" r="2"/>
	<circle id="connector12024pin" class="st1" cx="188.4" cy="102.6" r="2"/>
	<circle id="connector13000pin" class="st1" cx="15.6" cy="109.8" r="2"/>
	<circle id="connector13001pin" class="st1" cx="22.8" cy="109.8" r="2"/>
	<circle id="connector13002pin" class="st1" cx="30" cy="109.8" r="2"/>
	<circle id="connector13003pin" class="st1" cx="37.2" cy="109.8" r="2"/>
	<circle id="connector13004pin" class="st1" cx="44.4" cy="109.8" r="2"/>
	<circle id="connector13005pin" class="st1" cx="51.6" cy="109.8" r="2"/>
	<circle id="connector13006pin" class="st1" cx="58.8" cy="109.8" r="2"/>
	<circle id="connector13007pin" class="st1" cx="66" cy="109.8" r="2"/>
	<circle id="connector13008pin" class="st1" cx="73.2" cy="109.8" r="2"/>
	<circle id="connector13009pin" class="st1" cx="80.4" cy="109.8" r="2"/>
	<circle id="connector13010pin" class="st1" cx="87.6" cy="109.8" r="2"/>
	<circle id="connector13011pin" class="st1" cx="94.8" cy="109.8" r="2"/>
	<circle id="connector13012pin" class="st1" cx="102" cy="109.8" r="2"/>
	<circle id="connector13013pin" class="st1" cx="109.2" cy="109.8" r="2"/>
	<circle id="connector13014pin" class="st1" cx="116.4" cy="109.8" r="2"/>
	<circle id="connector13015pin" class="st1" cx="123.6" cy="109.8" r="2"/>
	<circle id="connector13016pin" class="st1" cx="130.8" cy="109.8" r="2"/>
	<circle id="connector13017pin" class="st1" cx="138" cy="109.8" r="2"/>
	<circle id="connector13018pin" class="st1" cx="145.2" cy="109.8" r="2"/>
	<circle id="connector13019pin" class="st1" cx="152.4" cy="109.8" r="2"/>
	<circle id="connector13020pin" class="st1" cx="159.6" cy="109.8" r="2"/>
	<circle id="connector13021pin" class="st1" cx="166.8" cy="109.8" r="2"/>
	<circle id="connector13022pin" class="st1" cx="174" cy="109.8" r="2"/>
	<circle id="connector13023pin" class="st1" cx="181.2" cy="109.8" r="2"/>
	<circle id="connector13024pin" class="st1" cx="188.4" cy="109.8" r="2"/>
	<circle id="connector14001pin" class="st1" cx="22.8" cy="117" r="2"/>
	<circle id="connector14002pin" class="st1" cx="30" cy="117" r="2"/>
	<circle id="connector14003pin" class="st1" cx="37.2" cy="117" r="2"/>
	<circle id="connector14004pin" class="st1" cx="44.4" cy="117" r="2"/>
	<circle id="connector14005pin" class="st1" cx="51.6" cy="117" r="2"/>
	<circle id="connector14006pin" class="st1" cx="58.8" cy="117" r="2"/>
	<circle id="connector14007pin" class="st1" cx="66" cy="117" r="2"/>
	<circle id="connector14008pin" class="st1" cx="73.2" cy="117" r="2"/>
	<circle id="connector14009pin" class="st1" cx="80.4" cy="117" r="2"/>
	<circle id="connector14010pin" class="st1" cx="87.6" cy="117" r="2"/>
	<circle id="connector14011pin" class="st1" cx="94.8" cy="117" r="2"/>
	<circle id="connector14012pin" class="st1" cx="102" cy="117" r="2"/>
	<circle id="connector14013pin" class="st1" cx="109.2" cy="117" r="2"/>
	<circle id="connector14014pin" class="st1" cx="116.4" cy="117" r="2"/>
	<circle id="connector14015pin" class="st1" cx="123.6" cy="117" r="2"/>
	<circle id="connector14016pin" class="st1" cx="130.8" cy="117" r="2"/>
	<circle id="connector14017pin" class="st1" cx="138" cy="117" r="2"/>
	<circle id="connector14018pin" class="st1" cx="145.2" cy="117" r="2"/>
	<circle id="connector14019pin" class="st1" cx="152.4" cy="117" r="2"/>
	<circle id="connector14020pin" class="st1" cx="159.6" cy="117" r="2"/>
	<circle id="connector14021pin" class="st1" cx="166.8" cy="117" r="2"/>
	<circle id="connector14022pin" class="st1" cx="174" cy="117" r="2"/>
	<circle id="connector14023pin" class="st1" cx="181.2" cy="117" r="2"/>
</g>
<text transform="matrix(6.123234e-17 1 -1 6.123234e-17 157.5466 5.308)"><tspan x="0" y="0" class="st2 st3 st4">5</tspan><tspan x="0" y="35.9" class="st2 st3 st4">10</tspan><tspan x="0" y="71.9" class="st2 st3 st4">15</tspan><tspan x="0" y="107.8" class="st2 st3 st4">20</tspan><tspan x="0" y="136.6" class="st2 st3 st4">24</tspan></text>
</svg>
