<?xml version="1.0" encoding="utf-8"?>
<!-- Generator: Adobe Illustrator 23.0.1, SVG Export Plug-In . SVG Version: 6.00 Build 0)  -->
<svg version="1.1" id="Layer_1" xmlns:svg="http://www.w3.org/2000/svg"
	 xmlns="http://www.w3.org/2000/svg" xmlns:xlink="http://www.w3.org/1999/xlink" x="0px" y="0px" viewBox="0 0 204.1 133.2"
	 style="enable-background:new 0 0 204.1 133.2;" xml:space="preserve">
<style type="text/css">
	.st0{fill:#DEB675;}
	.st1{fill:#FFFFFF;stroke:#C49C59;stroke-width:1.44;}
	.st2{fill:none;stroke:#FFFFFF;stroke-width:0.25;}
	.st3{fill:none;stroke:#FFFFFF;stroke-width:0.25;stroke-dasharray:2.0114,2.0114;}
	.st4{fill:none;stroke:#FFFFFF;stroke-width:0.25;stroke-dasharray:2.0255,2.0255;}
	.st5{fill:none;stroke:#FFFFFF;stroke-width:0.25;stroke-dasharray:2,2;}
</style>
<g>
	<g id="breadboardbreadboard">
		<path id="boardoutline" class="st0" d="M8.4,9h187.2v115.2H8.4V9z M14.4,16.2c0,0.7,0.6,1.3,1.3,1.3c0.7,0,1.3-0.6,1.3-1.3
			c0,0,0,0,0,0c0-0.7-0.6-1.3-1.3-1.3C15,15,14.4,15.5,14.4,16.2C14.4,16.2,14.4,16.2,14.4,16.2z M21.6,16.2c0,0.7,0.6,1.3,1.3,1.3
			s1.3-0.6,1.3-1.3c0,0,0,0,0,0c0-0.7-0.6-1.3-1.3-1.3S21.6,15.5,21.6,16.2z M28.8,16.2c0,0.7,0.6,1.3,1.3,1.3s1.3-0.6,1.3-1.3
			S30.7,15,30,15S28.8,15.5,28.8,16.2z M36,16.2c0,0.7,0.6,1.3,1.3,1.3c0.7,0,1.3-0.6,1.3-1.3S37.9,15,37.2,15
			C36.6,15,36,15.5,36,16.2z M43.2,16.2c0,0.7,0.6,1.3,1.3,1.3c0.7,0,1.3-0.6,1.3-1.3S45.1,15,44.4,15C43.8,15,43.2,15.5,43.2,16.2z
			 M50.4,16.2c0,0.7,0.6,1.3,1.3,1.3c0.7,0,1.3-0.6,1.3-1.3S52.3,15,51.6,15C51,15,50.4,15.5,50.4,16.2z M57.6,16.2
			c0,0.7,0.6,1.3,1.3,1.3c0.7,0,1.3-0.6,1.3-1.3S59.5,15,58.8,15C58.2,15,57.6,15.5,57.6,16.2z M64.8,16.2c0,0.7,0.6,1.3,1.3,1.3
			c0.7,0,1.3-0.6,1.3-1.3S66.7,15,66,15C65.4,15,64.8,15.5,64.8,16.2z M72,16.2c0,0.7,0.6,1.3,1.3,1.3s1.3-0.6,1.3-1.3c0,0,0,0,0,0
			c0-0.7-0.6-1.3-1.3-1.3S72,15.5,72,16.2z M79.2,16.2c0,0.7,0.6,1.3,1.3,1.3s1.3-0.6,1.3-1.3c0,0,0,0,0,0c0-0.7-0.6-1.3-1.3-1.3
			S79.2,15.5,79.2,16.2C79.2,16.2,79.2,16.2,79.2,16.2z M86.4,16.2c0,0.7,0.6,1.3,1.3,1.3s1.3-0.6,1.3-1.3c0,0,0,0,0,0
			c0-0.7-0.6-1.3-1.3-1.3S86.4,15.5,86.4,16.2C86.4,16.2,86.4,16.2,86.4,16.2z M93.6,16.2c0,0.7,0.6,1.3,1.3,1.3s1.3-0.6,1.3-1.3
			c0,0,0,0,0,0c0-0.7-0.6-1.3-1.3-1.3S93.6,15.5,93.6,16.2C93.6,16.2,93.6,16.2,93.6,16.2z M100.8,16.2c0,0.7,0.6,1.3,1.3,1.3
			s1.3-0.6,1.3-1.3c0,0,0,0,0,0c0-0.7-0.6-1.3-1.3-1.3S100.8,15.5,100.8,16.2C100.8,16.2,100.8,16.2,100.8,16.2z M108,16.2
			c0,0.7,0.6,1.3,1.3,1.3s1.3-0.6,1.3-1.3c0,0,0,0,0,0c0-0.7-0.6-1.3-1.3-1.3S108,15.5,108,16.2C108,16.2,108,16.2,108,16.2z
			 M115.2,16.2c0,0.7,0.6,1.3,1.3,1.3s1.3-0.6,1.3-1.3c0,0,0,0,0,0c0-0.7-0.6-1.3-1.3-1.3S115.2,15.5,115.2,16.2
			C115.2,16.2,115.2,16.2,115.2,16.2z M122.4,16.2c0,0.7,0.6,1.3,1.3,1.3s1.3-0.6,1.3-1.3c0,0,0,0,0,0c0-0.7-0.6-1.3-1.3-1.3
			S122.4,15.5,122.4,16.2C122.4,16.2,122.4,16.2,122.4,16.2z M129.6,16.2c0,0.7,0.6,1.3,1.3,1.3s1.3-0.6,1.3-1.3c0,0,0,0,0,0
			c0-0.7-0.6-1.3-1.3-1.3S129.6,15.5,129.6,16.2C129.6,16.2,129.6,16.2,129.6,16.2z M136.8,16.2c0,0.7,0.6,1.3,1.3,1.3
			c0.7,0,1.3-0.6,1.3-1.3c0-0.7-0.6-1.3-1.3-1.3C137.4,15,136.8,15.5,136.8,16.2z M144,16.2c0,0.7,0.6,1.3,1.3,1.3
			c0.7,0,1.3-0.6,1.3-1.3c0-0.7-0.6-1.3-1.3-1.3C144.6,15,144,15.5,144,16.2z M151.2,16.2c0,0.7,0.6,1.3,1.3,1.3
			c0.7,0,1.3-0.6,1.3-1.3c0-0.7-0.6-1.3-1.3-1.3C151.8,15,151.2,15.5,151.2,16.2z M158.4,16.2c0,0.7,0.6,1.3,1.3,1.3
			c0.7,0,1.3-0.6,1.3-1.3c0-0.7-0.6-1.3-1.3-1.3C159,15,158.4,15.5,158.4,16.2z M165.6,16.2c0,0.7,0.6,1.3,1.3,1.3
			c0.7,0,1.3-0.6,1.3-1.3c0-0.7-0.6-1.3-1.3-1.3C166.2,15,165.6,15.5,165.6,16.2z M172.8,16.2c0,0.7,0.6,1.3,1.3,1.3
			c0.7,0,1.3-0.6,1.3-1.3c0-0.7-0.6-1.3-1.3-1.3C173.4,15,172.8,15.5,172.8,16.2z M180,16.2c0,0.7,0.6,1.3,1.3,1.3
			c0.7,0,1.3-0.6,1.3-1.3c0-0.7-0.6-1.3-1.3-1.3C180.6,15,180,15.5,180,16.2z M187.2,16.2c0,0.7,0.6,1.3,1.3,1.3
			c0.7,0,1.3-0.6,1.3-1.3c0-0.7-0.6-1.3-1.3-1.3C187.8,15,187.2,15.5,187.2,16.2z M14.4,23.4c0,0.7,0.6,1.3,1.3,1.3
			c0.7,0,1.3-0.6,1.3-1.3c0,0,0,0,0,0c0-0.7-0.6-1.3-1.3-1.3C15,22.2,14.4,22.7,14.4,23.4C14.4,23.4,14.4,23.4,14.4,23.4z
			 M21.6,23.4c0,0.7,0.6,1.3,1.3,1.3c0.7,0,1.3-0.6,1.3-1.3c0,0,0,0,0,0c0-0.7-0.6-1.3-1.3-1.3S21.6,22.7,21.6,23.4z M28.8,23.4
			c0,0.7,0.6,1.3,1.3,1.3s1.3-0.6,1.3-1.3s-0.6-1.3-1.3-1.3S28.8,22.7,28.8,23.4z M36,23.4c0,0.7,0.6,1.3,1.3,1.3
			c0.7,0,1.3-0.6,1.3-1.3s-0.6-1.3-1.3-1.3C36.6,22.2,36,22.7,36,23.4z M43.2,23.4c0,0.7,0.6,1.3,1.3,1.3c0.7,0,1.3-0.6,1.3-1.3
			s-0.6-1.3-1.3-1.3C43.8,22.2,43.2,22.7,43.2,23.4z M50.4,23.4c0,0.7,0.6,1.3,1.3,1.3c0.7,0,1.3-0.6,1.3-1.3s-0.6-1.3-1.3-1.3
			C51,22.2,50.4,22.7,50.4,23.4z M57.6,23.4c0,0.7,0.6,1.3,1.3,1.3c0.7,0,1.3-0.6,1.3-1.3s-0.6-1.3-1.3-1.3
			C58.2,22.2,57.6,22.7,57.6,23.4z M64.8,23.4c0,0.7,0.6,1.3,1.3,1.3c0.7,0,1.3-0.6,1.3-1.3s-0.6-1.3-1.3-1.3
			C65.4,22.2,64.8,22.7,64.8,23.4z M72,23.4c0,0.7,0.6,1.3,1.3,1.3s1.3-0.6,1.3-1.3c0,0,0,0,0,0c0-0.7-0.6-1.3-1.3-1.3
			S72,22.7,72,23.4z M79.2,23.4c0,0.7,0.6,1.3,1.3,1.3s1.3-0.6,1.3-1.3c0,0,0,0,0,0c0-0.7-0.6-1.3-1.3-1.3S79.2,22.7,79.2,23.4
			C79.2,23.4,79.2,23.4,79.2,23.4z M86.4,23.4c0,0.7,0.6,1.3,1.3,1.3s1.3-0.6,1.3-1.3c0,0,0,0,0,0c0-0.7-0.6-1.3-1.3-1.3
			S86.4,22.7,86.4,23.4C86.4,23.4,86.4,23.4,86.4,23.4z M93.6,23.4c0,0.7,0.6,1.3,1.3,1.3s1.3-0.6,1.3-1.3c0,0,0,0,0,0
			c0-0.7-0.6-1.3-1.3-1.3S93.6,22.7,93.6,23.4C93.6,23.4,93.6,23.4,93.6,23.4z M100.8,23.4c0,0.7,0.6,1.3,1.3,1.3s1.3-0.6,1.3-1.3
			c0,0,0,0,0,0c0-0.7-0.6-1.3-1.3-1.3S100.8,22.7,100.8,23.4C100.8,23.4,100.8,23.4,100.8,23.4z M108,23.4c0,0.7,0.6,1.3,1.3,1.3
			s1.3-0.6,1.3-1.3c0,0,0,0,0,0c0-0.7-0.6-1.3-1.3-1.3S108,22.7,108,23.4C108,23.4,108,23.4,108,23.4z M115.2,23.4
			c0,0.7,0.6,1.3,1.3,1.3s1.3-0.6,1.3-1.3c0,0,0,0,0,0c0-0.7-0.6-1.3-1.3-1.3S115.2,22.7,115.2,23.4
			C115.2,23.4,115.2,23.4,115.2,23.4z M122.4,23.4c0,0.7,0.6,1.3,1.3,1.3s1.3-0.6,1.3-1.3c0,0,0,0,0,0c0-0.7-0.6-1.3-1.3-1.3
			S122.4,22.7,122.4,23.4C122.4,23.4,122.4,23.4,122.4,23.4z M129.6,23.4c0,0.7,0.6,1.3,1.3,1.3s1.3-0.6,1.3-1.3c0,0,0,0,0,0
			c0-0.7-0.6-1.3-1.3-1.3S129.6,22.7,129.6,23.4C129.6,23.4,129.6,23.4,129.6,23.4z M136.8,23.4c0,0.7,0.6,1.3,1.3,1.3
			c0.7,0,1.3-0.6,1.3-1.3c0-0.7-0.6-1.3-1.3-1.3C137.4,22.2,136.8,22.7,136.8,23.4z M144,23.4c0,0.7,0.6,1.3,1.3,1.3
			c0.7,0,1.3-0.6,1.3-1.3c0-0.7-0.6-1.3-1.3-1.3C144.6,22.2,144,22.7,144,23.4z M151.2,23.4c0,0.7,0.6,1.3,1.3,1.3
			c0.7,0,1.3-0.6,1.3-1.3c0-0.7-0.6-1.3-1.3-1.3C151.8,22.2,151.2,22.7,151.2,23.4z M158.4,23.4c0,0.7,0.6,1.3,1.3,1.3
			c0.7,0,1.3-0.6,1.3-1.3c0-0.7-0.6-1.3-1.3-1.3C159,22.2,158.4,22.7,158.4,23.4z M165.6,23.4c0,0.7,0.6,1.3,1.3,1.3
			c0.7,0,1.3-0.6,1.3-1.3c0-0.7-0.6-1.3-1.3-1.3C166.2,22.2,165.6,22.7,165.6,23.4z M172.8,23.4c0,0.7,0.6,1.3,1.3,1.3
			c0.7,0,1.3-0.6,1.3-1.3c0-0.7-0.6-1.3-1.3-1.3C173.4,22.2,172.8,22.7,172.8,23.4z M180,23.4c0,0.7,0.6,1.3,1.3,1.3
			c0.7,0,1.3-0.6,1.3-1.3c0-0.7-0.6-1.3-1.3-1.3C180.6,22.2,180,22.7,180,23.4z M187.2,23.4c0,0.7,0.6,1.3,1.3,1.3
			c0.7,0,1.3-0.6,1.3-1.3c0-0.7-0.6-1.3-1.3-1.3C187.8,22.2,187.2,22.7,187.2,23.4z M14.4,30.6c0,0.7,0.6,1.3,1.3,1.3
			c0.7,0,1.3-0.6,1.3-1.3c0,0,0,0,0,0c0-0.7-0.6-1.3-1.3-1.3C15,29.4,14.4,29.9,14.4,30.6C14.4,30.6,14.4,30.6,14.4,30.6z
			 M21.6,30.6c0,0.7,0.6,1.3,1.3,1.3c0.7,0,1.3-0.6,1.3-1.3c0,0,0,0,0,0c0-0.7-0.6-1.3-1.3-1.3S21.6,29.9,21.6,30.6
			C21.6,30.6,21.6,30.6,21.6,30.6z M28.8,30.6c0,0.7,0.6,1.3,1.3,1.3s1.3-0.6,1.3-1.3s-0.6-1.3-1.3-1.3S28.8,29.9,28.8,30.6
			L28.8,30.6z M36,30.6c0,0.7,0.6,1.3,1.3,1.3c0.7,0,1.3-0.6,1.3-1.3s-0.6-1.3-1.3-1.3C36.6,29.4,36,29.9,36,30.6L36,30.6z
			 M43.2,30.6c0,0.7,0.6,1.3,1.3,1.3c0.7,0,1.3-0.6,1.3-1.3s-0.6-1.3-1.3-1.3C43.8,29.4,43.2,29.9,43.2,30.6L43.2,30.6z M50.4,30.6
			c0,0.7,0.6,1.3,1.3,1.3c0.7,0,1.3-0.6,1.3-1.3s-0.6-1.3-1.3-1.3C51,29.4,50.4,29.9,50.4,30.6L50.4,30.6z M57.6,30.6
			c0,0.7,0.6,1.3,1.3,1.3c0.7,0,1.3-0.6,1.3-1.3s-0.6-1.3-1.3-1.3C58.2,29.4,57.6,29.9,57.6,30.6L57.6,30.6z M64.8,30.6
			c0,0.7,0.6,1.3,1.3,1.3c0.7,0,1.3-0.6,1.3-1.3s-0.6-1.3-1.3-1.3C65.4,29.4,64.8,29.9,64.8,30.6L64.8,30.6z M72,30.6
			c0,0.7,0.6,1.3,1.3,1.3s1.3-0.6,1.3-1.3c0,0,0,0,0,0c0-0.7-0.6-1.3-1.3-1.3S72,29.9,72,30.6C72,30.6,72,30.6,72,30.6z M79.2,30.6
			c0,0.7,0.6,1.3,1.3,1.3s1.3-0.6,1.3-1.3c0,0,0,0,0,0c0-0.7-0.6-1.3-1.3-1.3S79.2,29.9,79.2,30.6C79.2,30.6,79.2,30.6,79.2,30.6z
			 M86.4,30.6c0,0.7,0.6,1.3,1.3,1.3s1.3-0.6,1.3-1.3c0,0,0,0,0,0c0-0.7-0.6-1.3-1.3-1.3S86.4,29.9,86.4,30.6
			C86.4,30.6,86.4,30.6,86.4,30.6z M93.6,30.6c0,0.7,0.6,1.3,1.3,1.3s1.3-0.6,1.3-1.3c0,0,0,0,0,0c0-0.7-0.6-1.3-1.3-1.3
			S93.6,29.9,93.6,30.6C93.6,30.6,93.6,30.6,93.6,30.6z M100.8,30.6c0,0.7,0.6,1.3,1.3,1.3s1.3-0.6,1.3-1.3c0,0,0,0,0,0
			c0-0.7-0.6-1.3-1.3-1.3S100.8,29.9,100.8,30.6C100.8,30.6,100.8,30.6,100.8,30.6z M108,30.6c0,0.7,0.6,1.3,1.3,1.3
			s1.3-0.6,1.3-1.3c0,0,0,0,0,0c0-0.7-0.6-1.3-1.3-1.3S108,29.9,108,30.6C108,30.6,108,30.6,108,30.6z M115.2,30.6
			c0,0.7,0.6,1.3,1.3,1.3s1.3-0.6,1.3-1.3c0,0,0,0,0,0c0-0.7-0.6-1.3-1.3-1.3S115.2,29.9,115.2,30.6
			C115.2,30.6,115.2,30.6,115.2,30.6z M122.4,30.6c0,0.7,0.6,1.3,1.3,1.3s1.3-0.6,1.3-1.3c0,0,0,0,0,0c0-0.7-0.6-1.3-1.3-1.3
			S122.4,29.9,122.4,30.6C122.4,30.6,122.4,30.6,122.4,30.6z M129.6,30.6c0,0.7,0.6,1.3,1.3,1.3s1.3-0.6,1.3-1.3c0,0,0,0,0,0
			c0-0.7-0.6-1.3-1.3-1.3S129.6,29.9,129.6,30.6C129.6,30.6,129.6,30.6,129.6,30.6z M136.8,30.6c0,0.7,0.6,1.3,1.3,1.3
			c0.7,0,1.3-0.6,1.3-1.3s-0.6-1.3-1.3-1.3C137.4,29.4,136.8,29.9,136.8,30.6z M144,30.6c0,0.7,0.6,1.3,1.3,1.3
			c0.7,0,1.3-0.6,1.3-1.3s-0.6-1.3-1.3-1.3C144.6,29.4,144,29.9,144,30.6z M151.2,30.6c0,0.7,0.6,1.3,1.3,1.3c0.7,0,1.3-0.6,1.3-1.3
			s-0.6-1.3-1.3-1.3C151.8,29.4,151.2,29.9,151.2,30.6z M158.4,30.6c0,0.7,0.6,1.3,1.3,1.3c0.7,0,1.3-0.6,1.3-1.3s-0.6-1.3-1.3-1.3
			C159,29.4,158.4,29.9,158.4,30.6z M165.6,30.6c0,0.7,0.6,1.3,1.3,1.3c0.7,0,1.3-0.6,1.3-1.3s-0.6-1.3-1.3-1.3
			C166.2,29.4,165.6,29.9,165.6,30.6z M172.8,30.6c0,0.7,0.6,1.3,1.3,1.3c0.7,0,1.3-0.6,1.3-1.3s-0.6-1.3-1.3-1.3
			C173.4,29.4,172.8,29.9,172.8,30.6z M180,30.6c0,0.7,0.6,1.3,1.3,1.3c0.7,0,1.3-0.6,1.3-1.3s-0.6-1.3-1.3-1.3
			C180.6,29.4,180,29.9,180,30.6z M187.2,30.6c0,0.7,0.6,1.3,1.3,1.3c0.7,0,1.3-0.6,1.3-1.3s-0.6-1.3-1.3-1.3
			C187.8,29.4,187.2,29.9,187.2,30.6z M14.4,37.8c0,0.7,0.6,1.3,1.3,1.3c0.7,0,1.3-0.6,1.3-1.3c0,0,0,0,0,0c0-0.7-0.6-1.3-1.3-1.3
			C15,36.6,14.4,37.1,14.4,37.8C14.4,37.8,14.4,37.8,14.4,37.8z M21.6,37.8c0,0.7,0.6,1.3,1.3,1.3s1.3-0.6,1.3-1.3c0,0,0,0,0,0
			c0-0.7-0.6-1.3-1.3-1.3S21.6,37.1,21.6,37.8z M28.8,37.8c0,0.7,0.6,1.3,1.3,1.3s1.3-0.6,1.3-1.3c0-0.7-0.6-1.3-1.3-1.3
			S28.8,37.1,28.8,37.8z M36,37.8c0,0.7,0.6,1.3,1.3,1.3c0.7,0,1.3-0.6,1.3-1.3c0-0.7-0.6-1.3-1.3-1.3C36.6,36.6,36,37.1,36,37.8z
			 M43.2,37.8c0,0.7,0.6,1.3,1.3,1.3c0.7,0,1.3-0.6,1.3-1.3c0-0.7-0.6-1.3-1.3-1.3C43.8,36.6,43.2,37.1,43.2,37.8z M50.4,37.8
			c0,0.7,0.6,1.3,1.3,1.3c0.7,0,1.3-0.6,1.3-1.3c0-0.7-0.6-1.3-1.3-1.3C51,36.6,50.4,37.1,50.4,37.8z M57.6,37.8
			c0,0.7,0.6,1.3,1.3,1.3c0.7,0,1.3-0.6,1.3-1.3c0-0.7-0.6-1.3-1.3-1.3C58.2,36.6,57.6,37.1,57.6,37.8z M64.8,37.8
			c0,0.7,0.6,1.3,1.3,1.3c0.7,0,1.3-0.6,1.3-1.3c0-0.7-0.6-1.3-1.3-1.3C65.4,36.6,64.8,37.1,64.8,37.8z M72,37.8
			c0,0.7,0.6,1.3,1.3,1.3c0.7,0,1.3-0.6,1.3-1.3c0,0,0,0,0,0c0-0.7-0.6-1.3-1.3-1.3S72,37.1,72,37.8z M79.2,37.8
			c0,0.7,0.6,1.3,1.3,1.3c0.7,0,1.3-0.6,1.3-1.3c0,0,0,0,0,0c0-0.7-0.6-1.3-1.3-1.3C79.8,36.6,79.2,37.1,79.2,37.8
			C79.2,37.8,79.2,37.8,79.2,37.8z M86.4,37.8c0,0.7,0.6,1.3,1.3,1.3c0.7,0,1.3-0.6,1.3-1.3c0,0,0,0,0,0c0-0.7-0.6-1.3-1.3-1.3
			C87,36.6,86.4,37.1,86.4,37.8C86.4,37.8,86.4,37.8,86.4,37.8z M93.6,37.8c0,0.7,0.6,1.3,1.3,1.3c0.7,0,1.3-0.6,1.3-1.3
			c0,0,0,0,0,0c0-0.7-0.6-1.3-1.3-1.3C94.2,36.6,93.6,37.1,93.6,37.8C93.6,37.8,93.6,37.8,93.6,37.8z M100.8,37.8
			c0,0.7,0.6,1.3,1.3,1.3c0.7,0,1.3-0.6,1.3-1.3c0,0,0,0,0,0c0-0.7-0.6-1.3-1.3-1.3C101.4,36.6,100.8,37.1,100.8,37.8
			C100.8,37.8,100.8,37.8,100.8,37.8z M108,37.8c0,0.7,0.6,1.3,1.3,1.3c0.7,0,1.3-0.6,1.3-1.3c0,0,0,0,0,0c0-0.7-0.6-1.3-1.3-1.3
			C108.6,36.6,108,37.1,108,37.8C108,37.8,108,37.8,108,37.8z M115.2,37.8c0,0.7,0.6,1.3,1.3,1.3c0.7,0,1.3-0.6,1.3-1.3c0,0,0,0,0,0
			c0-0.7-0.6-1.3-1.3-1.3C115.8,36.6,115.2,37.1,115.2,37.8C115.2,37.8,115.2,37.8,115.2,37.8z M122.4,37.8c0,0.7,0.6,1.3,1.3,1.3
			c0.7,0,1.3-0.6,1.3-1.3c0,0,0,0,0,0c0-0.7-0.6-1.3-1.3-1.3C123,36.6,122.4,37.1,122.4,37.8C122.4,37.8,122.4,37.8,122.4,37.8z
			 M129.6,37.8c0,0.7,0.6,1.3,1.3,1.3c0.7,0,1.3-0.6,1.3-1.3c0,0,0,0,0,0c0-0.7-0.6-1.3-1.3-1.3C130.2,36.6,129.6,37.1,129.6,37.8
			C129.6,37.8,129.6,37.8,129.6,37.8z M136.8,37.8c0,0.7,0.6,1.3,1.3,1.3c0.7,0,1.3-0.6,1.3-1.3s-0.6-1.3-1.3-1.3
			C137.4,36.6,136.8,37.1,136.8,37.8z M144,37.8c0,0.7,0.6,1.3,1.3,1.3c0.7,0,1.3-0.6,1.3-1.3s-0.6-1.3-1.3-1.3
			C144.6,36.6,144,37.1,144,37.8z M151.2,37.8c0,0.7,0.6,1.3,1.3,1.3c0.7,0,1.3-0.6,1.3-1.3s-0.6-1.3-1.3-1.3
			C151.8,36.6,151.2,37.1,151.2,37.8z M158.4,37.8c0,0.7,0.6,1.3,1.3,1.3c0.7,0,1.3-0.6,1.3-1.3s-0.6-1.3-1.3-1.3
			C159,36.6,158.4,37.1,158.4,37.8z M165.6,37.8c0,0.7,0.6,1.3,1.3,1.3c0.7,0,1.3-0.6,1.3-1.3s-0.6-1.3-1.3-1.3
			C166.2,36.6,165.6,37.1,165.6,37.8z M172.8,37.8c0,0.7,0.6,1.3,1.3,1.3c0.7,0,1.3-0.6,1.3-1.3s-0.6-1.3-1.3-1.3
			C173.4,36.6,172.8,37.1,172.8,37.8z M180,37.8c0,0.7,0.6,1.3,1.3,1.3c0.7,0,1.3-0.6,1.3-1.3s-0.6-1.3-1.3-1.3
			C180.6,36.6,180,37.1,180,37.8z M187.2,37.8c0,0.7,0.6,1.3,1.3,1.3c0.7,0,1.3-0.6,1.3-1.3s-0.6-1.3-1.3-1.3
			C187.8,36.6,187.2,37.1,187.2,37.8z M14.4,45c0,0.7,0.6,1.3,1.3,1.3c0.7,0,1.3-0.6,1.3-1.3c0,0,0,0,0,0c0-0.7-0.6-1.3-1.3-1.3
			C15,43.8,14.4,44.3,14.4,45C14.4,45,14.4,45,14.4,45z M21.6,45c0,0.7,0.6,1.3,1.3,1.3c0.7,0,1.3-0.6,1.3-1.3c0,0,0,0,0,0
			c0-0.7-0.6-1.3-1.3-1.3S21.6,44.3,21.6,45z M28.8,45c0,0.7,0.6,1.3,1.3,1.3s1.3-0.6,1.3-1.3s-0.6-1.3-1.3-1.3S28.8,44.3,28.8,45z
			 M36,45c0,0.7,0.6,1.3,1.3,1.3c0.7,0,1.3-0.6,1.3-1.3s-0.6-1.3-1.3-1.3C36.6,43.8,36,44.3,36,45z M43.2,45c0,0.7,0.6,1.3,1.3,1.3
			c0.7,0,1.3-0.6,1.3-1.3s-0.6-1.3-1.3-1.3C43.8,43.8,43.2,44.3,43.2,45z M50.4,45c0,0.7,0.6,1.3,1.3,1.3c0.7,0,1.3-0.6,1.3-1.3
			s-0.6-1.3-1.3-1.3C51,43.8,50.4,44.3,50.4,45z M57.6,45c0,0.7,0.6,1.3,1.3,1.3c0.7,0,1.3-0.6,1.3-1.3s-0.6-1.3-1.3-1.3
			C58.2,43.8,57.6,44.3,57.6,45z M64.8,45c0,0.7,0.6,1.3,1.3,1.3c0.7,0,1.3-0.6,1.3-1.3s-0.6-1.3-1.3-1.3
			C65.4,43.8,64.8,44.3,64.8,45z M72,45c0,0.7,0.6,1.3,1.3,1.3c0.7,0,1.3-0.6,1.3-1.3c0,0,0,0,0,0c0-0.7-0.6-1.3-1.3-1.3
			S72,44.3,72,45z M79.2,45c0,0.7,0.6,1.3,1.3,1.3c0.7,0,1.3-0.6,1.3-1.3c0,0,0,0,0,0c0-0.7-0.6-1.3-1.3-1.3
			C79.8,43.8,79.2,44.3,79.2,45C79.2,45,79.2,45,79.2,45z M86.4,45c0,0.7,0.6,1.3,1.3,1.3c0.7,0,1.3-0.6,1.3-1.3c0,0,0,0,0,0
			c0-0.7-0.6-1.3-1.3-1.3C87,43.8,86.4,44.3,86.4,45C86.4,45,86.4,45,86.4,45z M93.6,45c0,0.7,0.6,1.3,1.3,1.3
			c0.7,0,1.3-0.6,1.3-1.3c0,0,0,0,0,0c0-0.7-0.6-1.3-1.3-1.3C94.2,43.8,93.6,44.3,93.6,45C93.6,45,93.6,45,93.6,45z M100.8,45
			c0,0.7,0.6,1.3,1.3,1.3c0.7,0,1.3-0.6,1.3-1.3c0,0,0,0,0,0c0-0.7-0.6-1.3-1.3-1.3C101.4,43.8,100.8,44.3,100.8,45
			C100.8,45,100.8,45,100.8,45z M108,45c0,0.7,0.6,1.3,1.3,1.3c0.7,0,1.3-0.6,1.3-1.3c0,0,0,0,0,0c0-0.7-0.6-1.3-1.3-1.3
			C108.6,43.8,108,44.3,108,45C108,45,108,45,108,45z M115.2,45c0,0.7,0.6,1.3,1.3,1.3c0.7,0,1.3-0.6,1.3-1.3c0,0,0,0,0,0
			c0-0.7-0.6-1.3-1.3-1.3C115.8,43.8,115.2,44.3,115.2,45C115.2,45,115.2,45,115.2,45z M122.4,45c0,0.7,0.6,1.3,1.3,1.3
			c0.7,0,1.3-0.6,1.3-1.3c0,0,0,0,0,0c0-0.7-0.6-1.3-1.3-1.3C123,43.8,122.4,44.3,122.4,45C122.4,45,122.4,45,122.4,45z M129.6,45
			c0,0.7,0.6,1.3,1.3,1.3c0.7,0,1.3-0.6,1.3-1.3c0,0,0,0,0,0c0-0.7-0.6-1.3-1.3-1.3C130.2,43.8,129.6,44.3,129.6,45
			C129.6,45,129.6,45,129.6,45z M136.8,45c0,0.7,0.6,1.3,1.3,1.3c0.7,0,1.3-0.6,1.3-1.3s-0.6-1.3-1.3-1.3
			C137.4,43.8,136.8,44.3,136.8,45z M144,45c0,0.7,0.6,1.3,1.3,1.3c0.7,0,1.3-0.6,1.3-1.3s-0.6-1.3-1.3-1.3
			C144.6,43.8,144,44.3,144,45z M151.2,45c0,0.7,0.6,1.3,1.3,1.3c0.7,0,1.3-0.6,1.3-1.3s-0.6-1.3-1.3-1.3
			C151.8,43.8,151.2,44.3,151.2,45z M158.4,45c0,0.7,0.6,1.3,1.3,1.3c0.7,0,1.3-0.6,1.3-1.3s-0.6-1.3-1.3-1.3
			C159,43.8,158.4,44.3,158.4,45z M165.6,45c0,0.7,0.6,1.3,1.3,1.3c0.7,0,1.3-0.6,1.3-1.3s-0.6-1.3-1.3-1.3
			C166.2,43.8,165.6,44.3,165.6,45z M172.8,45c0,0.7,0.6,1.3,1.3,1.3c0.7,0,1.3-0.6,1.3-1.3s-0.6-1.3-1.3-1.3
			C173.4,43.8,172.8,44.3,172.8,45z M180,45c0,0.7,0.6,1.3,1.3,1.3c0.7,0,1.3-0.6,1.3-1.3s-0.6-1.3-1.3-1.3
			C180.6,43.8,180,44.3,180,45z M187.2,45c0,0.7,0.6,1.3,1.3,1.3c0.7,0,1.3-0.6,1.3-1.3s-0.6-1.3-1.3-1.3
			C187.8,43.8,187.2,44.3,187.2,45z M14.4,52.2c0,0.7,0.6,1.3,1.3,1.3c0.7,0,1.3-0.6,1.3-1.3c0,0,0,0,0,0c0-0.7-0.6-1.3-1.3-1.3
			C15,51,14.4,51.5,14.4,52.2C14.4,52.2,14.4,52.2,14.4,52.2z M21.6,52.2c0,0.7,0.6,1.3,1.3,1.3c0.7,0,1.3-0.6,1.3-1.3c0,0,0,0,0,0
			c0-0.7-0.6-1.3-1.3-1.3C22.2,51,21.6,51.5,21.6,52.2C21.6,52.2,21.6,52.2,21.6,52.2z M28.8,52.2c0,0.7,0.6,1.3,1.3,1.3
			s1.3-0.6,1.3-1.3S30.7,51,30,51C29.4,51,28.8,51.5,28.8,52.2L28.8,52.2z M36,52.2c0,0.7,0.6,1.3,1.3,1.3c0.7,0,1.3-0.6,1.3-1.3
			S37.9,51,37.2,51C36.6,51,36,51.5,36,52.2L36,52.2z M43.2,52.2c0,0.7,0.6,1.3,1.3,1.3c0.7,0,1.3-0.6,1.3-1.3S45.1,51,44.4,51
			C43.8,51,43.2,51.5,43.2,52.2L43.2,52.2z M50.4,52.2c0,0.7,0.6,1.3,1.3,1.3c0.7,0,1.3-0.6,1.3-1.3S52.3,51,51.6,51
			C51,51,50.4,51.5,50.4,52.2L50.4,52.2z M57.6,52.2c0,0.7,0.6,1.3,1.3,1.3c0.7,0,1.3-0.6,1.3-1.3S59.5,51,58.8,51
			C58.2,51,57.6,51.5,57.6,52.2L57.6,52.2z M64.8,52.2c0,0.7,0.6,1.3,1.3,1.3c0.7,0,1.3-0.6,1.3-1.3S66.7,51,66,51
			C65.4,51,64.8,51.5,64.8,52.2L64.8,52.2z M72,52.2c0,0.7,0.6,1.3,1.3,1.3c0.7,0,1.3-0.6,1.3-1.3c0,0,0,0,0,0
			c0-0.7-0.6-1.3-1.3-1.3C72.6,51,72,51.5,72,52.2C72,52.2,72,52.2,72,52.2z M79.2,52.2c0,0.7,0.6,1.3,1.3,1.3
			c0.7,0,1.3-0.6,1.3-1.3c0,0,0,0,0,0c0-0.7-0.6-1.3-1.3-1.3C79.8,51,79.2,51.5,79.2,52.2C79.2,52.2,79.2,52.2,79.2,52.2z
			 M86.4,52.2c0,0.7,0.6,1.3,1.3,1.3c0.7,0,1.3-0.6,1.3-1.3c0,0,0,0,0,0c0-0.7-0.6-1.3-1.3-1.3C87,51,86.4,51.5,86.4,52.2
			C86.4,52.2,86.4,52.2,86.4,52.2z M93.6,52.2c0,0.7,0.6,1.3,1.3,1.3c0.7,0,1.3-0.6,1.3-1.3c0,0,0,0,0,0c0-0.7-0.6-1.3-1.3-1.3
			C94.2,51,93.6,51.5,93.6,52.2C93.6,52.2,93.6,52.2,93.6,52.2z M100.8,52.2c0,0.7,0.6,1.3,1.3,1.3c0.7,0,1.3-0.6,1.3-1.3
			c0,0,0,0,0,0c0-0.7-0.6-1.3-1.3-1.3C101.4,51,100.8,51.5,100.8,52.2C100.8,52.2,100.8,52.2,100.8,52.2z M108,52.2
			c0,0.7,0.6,1.3,1.3,1.3c0.7,0,1.3-0.6,1.3-1.3c0,0,0,0,0,0c0-0.7-0.6-1.3-1.3-1.3C108.6,51,108,51.5,108,52.2
			C108,52.2,108,52.2,108,52.2z M115.2,52.2c0,0.7,0.6,1.3,1.3,1.3c0.7,0,1.3-0.6,1.3-1.3c0,0,0,0,0,0c0-0.7-0.6-1.3-1.3-1.3
			C115.8,51,115.2,51.5,115.2,52.2C115.2,52.2,115.2,52.2,115.2,52.2z M122.4,52.2c0,0.7,0.6,1.3,1.3,1.3c0.7,0,1.3-0.6,1.3-1.3
			c0,0,0,0,0,0c0-0.7-0.6-1.3-1.3-1.3C123,51,122.4,51.5,122.4,52.2C122.4,52.2,122.4,52.2,122.4,52.2z M129.6,52.2
			c0,0.7,0.6,1.3,1.3,1.3c0.7,0,1.3-0.6,1.3-1.3c0,0,0,0,0,0c0-0.7-0.6-1.3-1.3-1.3C130.2,51,129.6,51.5,129.6,52.2
			C129.6,52.2,129.6,52.2,129.6,52.2z M136.8,52.2c0,0.7,0.6,1.3,1.3,1.3c0.7,0,1.3-0.6,1.3-1.3S138.7,51,138,51
			C137.4,51,136.8,51.5,136.8,52.2z M144,52.2c0,0.7,0.6,1.3,1.3,1.3c0.7,0,1.3-0.6,1.3-1.3s-0.6-1.3-1.3-1.3
			C144.6,51,144,51.5,144,52.2z M151.2,52.2c0,0.7,0.6,1.3,1.3,1.3c0.7,0,1.3-0.6,1.3-1.3s-0.6-1.3-1.3-1.3
			C151.8,51,151.2,51.5,151.2,52.2z M158.4,52.2c0,0.7,0.6,1.3,1.3,1.3c0.7,0,1.3-0.6,1.3-1.3s-0.6-1.3-1.3-1.3
			C159,51,158.4,51.5,158.4,52.2z M165.6,52.2c0,0.7,0.6,1.3,1.3,1.3c0.7,0,1.3-0.6,1.3-1.3s-0.6-1.3-1.3-1.3
			C166.2,51,165.6,51.5,165.6,52.2z M172.8,52.2c0,0.7,0.6,1.3,1.3,1.3c0.7,0,1.3-0.6,1.3-1.3S174.7,51,174,51
			C173.4,51,172.8,51.5,172.8,52.2z M180,52.2c0,0.7,0.6,1.3,1.3,1.3c0.7,0,1.3-0.6,1.3-1.3s-0.6-1.3-1.3-1.3
			C180.6,51,180,51.5,180,52.2z M187.2,52.2c0,0.7,0.6,1.3,1.3,1.3c0.7,0,1.3-0.6,1.3-1.3s-0.6-1.3-1.3-1.3
			C187.8,51,187.2,51.5,187.2,52.2z M14.4,59.4c0,0.7,0.6,1.3,1.3,1.3c0.7,0,1.3-0.6,1.3-1.3c0,0,0,0,0,0c0-0.7-0.6-1.3-1.3-1.3
			C15,58.2,14.4,58.7,14.4,59.4C14.4,59.4,14.4,59.4,14.4,59.4z M21.6,59.4c0,0.7,0.6,1.3,1.3,1.3c0.7,0,1.3-0.6,1.3-1.3
			c0,0,0,0,0,0c0-0.7-0.6-1.3-1.3-1.3S21.6,58.7,21.6,59.4C21.6,59.4,21.6,59.4,21.6,59.4z M28.8,59.4c0,0.7,0.6,1.3,1.3,1.3
			s1.3-0.6,1.3-1.3s-0.6-1.3-1.3-1.3S28.8,58.7,28.8,59.4L28.8,59.4z M36,59.4c0,0.7,0.6,1.3,1.3,1.3c0.7,0,1.3-0.6,1.3-1.3
			s-0.6-1.3-1.3-1.3C36.6,58.2,36,58.7,36,59.4L36,59.4z M43.2,59.4c0,0.7,0.6,1.3,1.3,1.3c0.7,0,1.3-0.6,1.3-1.3s-0.6-1.3-1.3-1.3
			C43.8,58.2,43.2,58.7,43.2,59.4L43.2,59.4z M50.4,59.4c0,0.7,0.6,1.3,1.3,1.3c0.7,0,1.3-0.6,1.3-1.3s-0.6-1.3-1.3-1.3
			C51,58.2,50.4,58.7,50.4,59.4L50.4,59.4z M57.6,59.4c0,0.7,0.6,1.3,1.3,1.3c0.7,0,1.3-0.6,1.3-1.3s-0.6-1.3-1.3-1.3
			C58.2,58.2,57.6,58.7,57.6,59.4L57.6,59.4z M64.8,59.4c0,0.7,0.6,1.3,1.3,1.3c0.7,0,1.3-0.6,1.3-1.3s-0.6-1.3-1.3-1.3
			C65.4,58.2,64.8,58.7,64.8,59.4L64.8,59.4z M72,59.4c0,0.7,0.6,1.3,1.3,1.3c0.7,0,1.3-0.6,1.3-1.3c0,0,0,0,0,0
			c0-0.7-0.6-1.3-1.3-1.3S72,58.7,72,59.4C72,59.4,72,59.4,72,59.4z M79.2,59.4c0,0.7,0.6,1.3,1.3,1.3c0.7,0,1.3-0.6,1.3-1.3
			c0,0,0,0,0,0c0-0.7-0.6-1.3-1.3-1.3C79.8,58.2,79.2,58.7,79.2,59.4C79.2,59.4,79.2,59.4,79.2,59.4z M86.4,59.4
			c0,0.7,0.6,1.3,1.3,1.3c0.7,0,1.3-0.6,1.3-1.3c0,0,0,0,0,0c0-0.7-0.6-1.3-1.3-1.3C87,58.2,86.4,58.7,86.4,59.4
			C86.4,59.4,86.4,59.4,86.4,59.4z M93.6,59.4c0,0.7,0.6,1.3,1.3,1.3c0.7,0,1.3-0.6,1.3-1.3c0,0,0,0,0,0c0-0.7-0.6-1.3-1.3-1.3
			C94.2,58.2,93.6,58.7,93.6,59.4C93.6,59.4,93.6,59.4,93.6,59.4z M100.8,59.4c0,0.7,0.6,1.3,1.3,1.3c0.7,0,1.3-0.6,1.3-1.3
			c0,0,0,0,0,0c0-0.7-0.6-1.3-1.3-1.3C101.4,58.2,100.8,58.7,100.8,59.4C100.8,59.4,100.8,59.4,100.8,59.4z M108,59.4
			c0,0.7,0.6,1.3,1.3,1.3c0.7,0,1.3-0.6,1.3-1.3c0,0,0,0,0,0c0-0.7-0.6-1.3-1.3-1.3C108.6,58.2,108,58.7,108,59.4
			C108,59.4,108,59.4,108,59.4z M115.2,59.4c0,0.7,0.6,1.3,1.3,1.3c0.7,0,1.3-0.6,1.3-1.3c0,0,0,0,0,0c0-0.7-0.6-1.3-1.3-1.3
			C115.8,58.2,115.2,58.7,115.2,59.4C115.2,59.4,115.2,59.4,115.2,59.4z M122.4,59.4c0,0.7,0.6,1.3,1.3,1.3c0.7,0,1.3-0.6,1.3-1.3
			c0,0,0,0,0,0c0-0.7-0.6-1.3-1.3-1.3C123,58.2,122.4,58.7,122.4,59.4C122.4,59.4,122.4,59.4,122.4,59.4z M129.6,59.4
			c0,0.7,0.6,1.3,1.3,1.3c0.7,0,1.3-0.6,1.3-1.3c0,0,0,0,0,0c0-0.7-0.6-1.3-1.3-1.3C130.2,58.2,129.6,58.7,129.6,59.4
			C129.6,59.4,129.6,59.4,129.6,59.4z M136.8,59.4c0,0.7,0.6,1.3,1.3,1.3c0.7,0,1.3-0.6,1.3-1.3s-0.6-1.3-1.3-1.3
			C137.4,58.2,136.8,58.7,136.8,59.4z M144,59.4c0,0.7,0.6,1.3,1.3,1.3c0.7,0,1.3-0.6,1.3-1.3s-0.6-1.3-1.3-1.3
			C144.6,58.2,144,58.7,144,59.4z M151.2,59.4c0,0.7,0.6,1.3,1.3,1.3c0.7,0,1.3-0.6,1.3-1.3s-0.6-1.3-1.3-1.3
			C151.8,58.2,151.2,58.7,151.2,59.4z M158.4,59.4c0,0.7,0.6,1.3,1.3,1.3c0.7,0,1.3-0.6,1.3-1.3s-0.6-1.3-1.3-1.3
			C159,58.2,158.4,58.7,158.4,59.4z M165.6,59.4c0,0.7,0.6,1.3,1.3,1.3c0.7,0,1.3-0.6,1.3-1.3s-0.6-1.3-1.3-1.3
			C166.2,58.2,165.6,58.7,165.6,59.4z M172.8,59.4c0,0.7,0.6,1.3,1.3,1.3c0.7,0,1.3-0.6,1.3-1.3s-0.6-1.3-1.3-1.3
			C173.4,58.2,172.8,58.7,172.8,59.4z M180,59.4c0,0.7,0.6,1.3,1.3,1.3c0.7,0,1.3-0.6,1.3-1.3s-0.6-1.3-1.3-1.3
			C180.6,58.2,180,58.7,180,59.4z M187.2,59.4c0,0.7,0.6,1.3,1.3,1.3c0.7,0,1.3-0.6,1.3-1.3s-0.6-1.3-1.3-1.3
			C187.8,58.2,187.2,58.7,187.2,59.4z M14.4,66.6c0,0.7,0.6,1.3,1.3,1.3c0.7,0,1.3-0.6,1.3-1.3c0,0,0,0,0,0c0-0.7-0.6-1.3-1.3-1.3
			C15,65.4,14.4,65.9,14.4,66.6C14.4,66.6,14.4,66.6,14.4,66.6z M21.6,66.6c0,0.7,0.6,1.3,1.3,1.3c0.7,0,1.3-0.6,1.3-1.3
			c0,0,0,0,0,0c0-0.7-0.6-1.3-1.3-1.3S21.6,65.9,21.6,66.6z M28.8,66.6c0,0.7,0.6,1.3,1.3,1.3s1.3-0.6,1.3-1.3s-0.6-1.3-1.3-1.3
			S28.8,65.9,28.8,66.6z M36,66.6c0,0.7,0.6,1.3,1.3,1.3c0.7,0,1.3-0.6,1.3-1.3s-0.6-1.3-1.3-1.3C36.6,65.4,36,65.9,36,66.6z
			 M43.2,66.6c0,0.7,0.6,1.3,1.3,1.3c0.7,0,1.3-0.6,1.3-1.3s-0.6-1.3-1.3-1.3C43.8,65.4,43.2,65.9,43.2,66.6z M50.4,66.6
			c0,0.7,0.6,1.3,1.3,1.3c0.7,0,1.3-0.6,1.3-1.3s-0.6-1.3-1.3-1.3C51,65.4,50.4,65.9,50.4,66.6z M57.6,66.6c0,0.7,0.6,1.3,1.3,1.3
			c0.7,0,1.3-0.6,1.3-1.3s-0.6-1.3-1.3-1.3C58.2,65.4,57.6,65.9,57.6,66.6z M64.8,66.6c0,0.7,0.6,1.3,1.3,1.3c0.7,0,1.3-0.6,1.3-1.3
			s-0.6-1.3-1.3-1.3C65.4,65.4,64.8,65.9,64.8,66.6z M72,66.6c0,0.7,0.6,1.3,1.3,1.3c0.7,0,1.3-0.6,1.3-1.3c0,0,0,0,0,0
			c0-0.7-0.6-1.3-1.3-1.3S72,65.9,72,66.6z M79.2,66.6c0,0.7,0.6,1.3,1.3,1.3c0.7,0,1.3-0.6,1.3-1.3c0,0,0,0,0,0
			c0-0.7-0.6-1.3-1.3-1.3S79.2,65.9,79.2,66.6C79.2,66.6,79.2,66.6,79.2,66.6z M86.4,66.6c0,0.7,0.6,1.3,1.3,1.3
			c0.7,0,1.3-0.6,1.3-1.3c0,0,0,0,0,0c0-0.7-0.6-1.3-1.3-1.3S86.4,65.9,86.4,66.6C86.4,66.6,86.4,66.6,86.4,66.6z M93.6,66.6
			c0,0.7,0.6,1.3,1.3,1.3c0.7,0,1.3-0.6,1.3-1.3c0,0,0,0,0,0c0-0.7-0.6-1.3-1.3-1.3S93.6,65.9,93.6,66.6
			C93.6,66.6,93.6,66.6,93.6,66.6z M100.8,66.6c0,0.7,0.6,1.3,1.3,1.3c0.7,0,1.3-0.6,1.3-1.3c0,0,0,0,0,0c0-0.7-0.6-1.3-1.3-1.3
			S100.8,65.9,100.8,66.6C100.8,66.6,100.8,66.6,100.8,66.6z M108,66.6c0,0.7,0.6,1.3,1.3,1.3c0.7,0,1.3-0.6,1.3-1.3c0,0,0,0,0,0
			c0-0.7-0.6-1.3-1.3-1.3S108,65.9,108,66.6C108,66.6,108,66.6,108,66.6z M115.2,66.6c0,0.7,0.6,1.3,1.3,1.3c0.7,0,1.3-0.6,1.3-1.3
			c0,0,0,0,0,0c0-0.7-0.6-1.3-1.3-1.3S115.2,65.9,115.2,66.6C115.2,66.6,115.2,66.6,115.2,66.6z M122.4,66.6c0,0.7,0.6,1.3,1.3,1.3
			c0.7,0,1.3-0.6,1.3-1.3c0,0,0,0,0,0c0-0.7-0.6-1.3-1.3-1.3S122.4,65.9,122.4,66.6C122.4,66.6,122.4,66.6,122.4,66.6z M129.6,66.6
			c0,0.7,0.6,1.3,1.3,1.3c0.7,0,1.3-0.6,1.3-1.3c0,0,0,0,0,0c0-0.7-0.6-1.3-1.3-1.3S129.6,65.9,129.6,66.6
			C129.6,66.6,129.6,66.6,129.6,66.6z M136.8,66.6c0,0.7,0.6,1.3,1.3,1.3c0.7,0,1.3-0.6,1.3-1.3c0-0.7-0.6-1.3-1.3-1.3
			C137.4,65.4,136.8,65.9,136.8,66.6z M144,66.6c0,0.7,0.6,1.3,1.3,1.3c0.7,0,1.3-0.6,1.3-1.3c0-0.7-0.6-1.3-1.3-1.3
			C144.6,65.4,144,65.9,144,66.6z M151.2,66.6c0,0.7,0.6,1.3,1.3,1.3c0.7,0,1.3-0.6,1.3-1.3c0-0.7-0.6-1.3-1.3-1.3
			C151.8,65.4,151.2,65.9,151.2,66.6z M158.4,66.6c0,0.7,0.6,1.3,1.3,1.3c0.7,0,1.3-0.6,1.3-1.3c0-0.7-0.6-1.3-1.3-1.3
			C159,65.4,158.4,65.9,158.4,66.6z M165.6,66.6c0,0.7,0.6,1.3,1.3,1.3c0.7,0,1.3-0.6,1.3-1.3c0-0.7-0.6-1.3-1.3-1.3
			C166.2,65.4,165.6,65.9,165.6,66.6z M172.8,66.6c0,0.7,0.6,1.3,1.3,1.3c0.7,0,1.3-0.6,1.3-1.3c0-0.7-0.6-1.3-1.3-1.3
			C173.4,65.4,172.8,65.9,172.8,66.6z M180,66.6c0,0.7,0.6,1.3,1.3,1.3c0.7,0,1.3-0.6,1.3-1.3c0-0.7-0.6-1.3-1.3-1.3
			C180.6,65.4,180,65.9,180,66.6z M187.2,66.6c0,0.7,0.6,1.3,1.3,1.3c0.7,0,1.3-0.6,1.3-1.3c0-0.7-0.6-1.3-1.3-1.3
			C187.8,65.4,187.2,65.9,187.2,66.6z M14.4,73.8c0,0.7,0.6,1.3,1.3,1.3c0.7,0,1.3-0.6,1.3-1.3c0,0,0,0,0,0c0-0.7-0.6-1.3-1.3-1.3
			C15,72.6,14.4,73.1,14.4,73.8C14.4,73.8,14.4,73.8,14.4,73.8z M21.6,73.8c0,0.7,0.6,1.3,1.3,1.3s1.3-0.6,1.3-1.3c0,0,0,0,0,0
			c0-0.7-0.6-1.3-1.3-1.3S21.6,73.1,21.6,73.8z M28.8,73.8c0,0.7,0.6,1.3,1.3,1.3s1.3-0.6,1.3-1.3s-0.6-1.3-1.3-1.3
			S28.8,73.1,28.8,73.8z M36,73.8c0,0.7,0.6,1.3,1.3,1.3c0.7,0,1.3-0.6,1.3-1.3s-0.6-1.3-1.3-1.3C36.6,72.6,36,73.1,36,73.8z
			 M43.2,73.8c0,0.7,0.6,1.3,1.3,1.3c0.7,0,1.3-0.6,1.3-1.3s-0.6-1.3-1.3-1.3C43.8,72.6,43.2,73.1,43.2,73.8z M50.4,73.8
			c0,0.7,0.6,1.3,1.3,1.3c0.7,0,1.3-0.6,1.3-1.3s-0.6-1.3-1.3-1.3C51,72.6,50.4,73.1,50.4,73.8z M57.6,73.8c0,0.7,0.6,1.3,1.3,1.3
			c0.7,0,1.3-0.6,1.3-1.3s-0.6-1.3-1.3-1.3C58.2,72.6,57.6,73.1,57.6,73.8z M64.8,73.8c0,0.7,0.6,1.3,1.3,1.3c0.7,0,1.3-0.6,1.3-1.3
			s-0.6-1.3-1.3-1.3C65.4,72.6,64.8,73.1,64.8,73.8z M72,73.8c0,0.7,0.6,1.3,1.3,1.3s1.3-0.6,1.3-1.3c0,0,0,0,0,0
			c0-0.7-0.6-1.3-1.3-1.3S72,73.1,72,73.8z M79.2,73.8c0,0.7,0.6,1.3,1.3,1.3s1.3-0.6,1.3-1.3c0,0,0,0,0,0c0-0.7-0.6-1.3-1.3-1.3
			S79.2,73.1,79.2,73.8C79.2,73.8,79.2,73.8,79.2,73.8z M86.4,73.8c0,0.7,0.6,1.3,1.3,1.3s1.3-0.6,1.3-1.3c0,0,0,0,0,0
			c0-0.7-0.6-1.3-1.3-1.3S86.4,73.1,86.4,73.8C86.4,73.8,86.4,73.8,86.4,73.8z M93.6,73.8c0,0.7,0.6,1.3,1.3,1.3s1.3-0.6,1.3-1.3
			c0,0,0,0,0,0c0-0.7-0.6-1.3-1.3-1.3S93.6,73.1,93.6,73.8C93.6,73.8,93.6,73.8,93.6,73.8z M100.8,73.8c0,0.7,0.6,1.3,1.3,1.3
			s1.3-0.6,1.3-1.3c0,0,0,0,0,0c0-0.7-0.6-1.3-1.3-1.3S100.8,73.1,100.8,73.8C100.8,73.8,100.8,73.8,100.8,73.8z M108,73.8
			c0,0.7,0.6,1.3,1.3,1.3s1.3-0.6,1.3-1.3c0,0,0,0,0,0c0-0.7-0.6-1.3-1.3-1.3S108,73.1,108,73.8C108,73.8,108,73.8,108,73.8z
			 M115.2,73.8c0,0.7,0.6,1.3,1.3,1.3s1.3-0.6,1.3-1.3c0,0,0,0,0,0c0-0.7-0.6-1.3-1.3-1.3S115.2,73.1,115.2,73.8
			C115.2,73.8,115.2,73.8,115.2,73.8z M122.4,73.8c0,0.7,0.6,1.3,1.3,1.3s1.3-0.6,1.3-1.3c0,0,0,0,0,0c0-0.7-0.6-1.3-1.3-1.3
			S122.4,73.1,122.4,73.8C122.4,73.8,122.4,73.8,122.4,73.8z M129.6,73.8c0,0.7,0.6,1.3,1.3,1.3s1.3-0.6,1.3-1.3c0,0,0,0,0,0
			c0-0.7-0.6-1.3-1.3-1.3S129.6,73.1,129.6,73.8C129.6,73.8,129.6,73.8,129.6,73.8z M136.8,73.8c0,0.7,0.6,1.3,1.3,1.3
			c0.7,0,1.3-0.6,1.3-1.3s-0.6-1.3-1.3-1.3C137.4,72.6,136.8,73.1,136.8,73.8z M144,73.8c0,0.7,0.6,1.3,1.3,1.3
			c0.7,0,1.3-0.6,1.3-1.3s-0.6-1.3-1.3-1.3C144.6,72.6,144,73.1,144,73.8z M151.2,73.8c0,0.7,0.6,1.3,1.3,1.3c0.7,0,1.3-0.6,1.3-1.3
			s-0.6-1.3-1.3-1.3C151.8,72.6,151.2,73.1,151.2,73.8z M158.4,73.8c0,0.7,0.6,1.3,1.3,1.3c0.7,0,1.3-0.6,1.3-1.3s-0.6-1.3-1.3-1.3
			C159,72.6,158.4,73.1,158.4,73.8z M165.6,73.8c0,0.7,0.6,1.3,1.3,1.3c0.7,0,1.3-0.6,1.3-1.3s-0.6-1.3-1.3-1.3
			C166.2,72.6,165.6,73.1,165.6,73.8z M172.8,73.8c0,0.7,0.6,1.3,1.3,1.3c0.7,0,1.3-0.6,1.3-1.3s-0.6-1.3-1.3-1.3
			C173.4,72.6,172.8,73.1,172.8,73.8z M180,73.8c0,0.7,0.6,1.3,1.3,1.3c0.7,0,1.3-0.6,1.3-1.3s-0.6-1.3-1.3-1.3
			C180.6,72.6,180,73.1,180,73.8z M187.2,73.8c0,0.7,0.6,1.3,1.3,1.3c0.7,0,1.3-0.6,1.3-1.3s-0.6-1.3-1.3-1.3
			C187.8,72.6,187.2,73.1,187.2,73.8z M14.4,81c0,0.7,0.6,1.3,1.3,1.3c0.7,0,1.3-0.6,1.3-1.3c0,0,0,0,0,0c0-0.7-0.6-1.3-1.3-1.3
			C15,79.8,14.4,80.3,14.4,81C14.4,81,14.4,81,14.4,81z M21.6,81c0,0.7,0.6,1.3,1.3,1.3s1.3-0.6,1.3-1.3c0,0,0,0,0,0
			c0-0.7-0.6-1.3-1.3-1.3S21.6,80.3,21.6,81z M28.8,81c0,0.7,0.6,1.3,1.3,1.3s1.3-0.6,1.3-1.3s-0.6-1.3-1.3-1.3S28.8,80.3,28.8,81z
			 M36,81c0,0.7,0.6,1.3,1.3,1.3c0.7,0,1.3-0.6,1.3-1.3s-0.6-1.3-1.3-1.3C36.6,79.8,36,80.3,36,81z M43.2,81c0,0.7,0.6,1.3,1.3,1.3
			c0.7,0,1.3-0.6,1.3-1.3s-0.6-1.3-1.3-1.3C43.8,79.8,43.2,80.3,43.2,81z M50.4,81c0,0.7,0.6,1.3,1.3,1.3c0.7,0,1.3-0.6,1.3-1.3
			s-0.6-1.3-1.3-1.3C51,79.8,50.4,80.3,50.4,81z M57.6,81c0,0.7,0.6,1.3,1.3,1.3c0.7,0,1.3-0.6,1.3-1.3s-0.6-1.3-1.3-1.3
			C58.2,79.8,57.6,80.3,57.6,81z M64.8,81c0,0.7,0.6,1.3,1.3,1.3c0.7,0,1.3-0.6,1.3-1.3s-0.6-1.3-1.3-1.3
			C65.4,79.8,64.8,80.3,64.8,81z M72,81c0,0.7,0.6,1.3,1.3,1.3s1.3-0.6,1.3-1.3c0,0,0,0,0,0c0-0.7-0.6-1.3-1.3-1.3S72,80.3,72,81z
			 M79.2,81c0,0.7,0.6,1.3,1.3,1.3s1.3-0.6,1.3-1.3c0,0,0,0,0,0c0-0.7-0.6-1.3-1.3-1.3S79.2,80.3,79.2,81C79.2,81,79.2,81,79.2,81z
			 M86.4,81c0,0.7,0.6,1.3,1.3,1.3s1.3-0.6,1.3-1.3c0,0,0,0,0,0c0-0.7-0.6-1.3-1.3-1.3S86.4,80.3,86.4,81C86.4,81,86.4,81,86.4,81z
			 M93.6,81c0,0.7,0.6,1.3,1.3,1.3s1.3-0.6,1.3-1.3c0,0,0,0,0,0c0-0.7-0.6-1.3-1.3-1.3S93.6,80.3,93.6,81C93.6,81,93.6,81,93.6,81z
			 M100.8,81c0,0.7,0.6,1.3,1.3,1.3s1.3-0.6,1.3-1.3c0,0,0,0,0,0c0-0.7-0.6-1.3-1.3-1.3S100.8,80.3,100.8,81
			C100.8,81,100.8,81,100.8,81z M108,81c0,0.7,0.6,1.3,1.3,1.3s1.3-0.6,1.3-1.3c0,0,0,0,0,0c0-0.7-0.6-1.3-1.3-1.3S108,80.3,108,81
			C108,81,108,81,108,81z M115.2,81c0,0.7,0.6,1.3,1.3,1.3s1.3-0.6,1.3-1.3c0,0,0,0,0,0c0-0.7-0.6-1.3-1.3-1.3S115.2,80.3,115.2,81
			C115.2,81,115.2,81,115.2,81z M122.4,81c0,0.7,0.6,1.3,1.3,1.3s1.3-0.6,1.3-1.3c0,0,0,0,0,0c0-0.7-0.6-1.3-1.3-1.3
			S122.4,80.3,122.4,81C122.4,81,122.4,81,122.4,81z M129.6,81c0,0.7,0.6,1.3,1.3,1.3s1.3-0.6,1.3-1.3c0,0,0,0,0,0
			c0-0.7-0.6-1.3-1.3-1.3S129.6,80.3,129.6,81C129.6,81,129.6,81,129.6,81z M136.8,81c0,0.7,0.6,1.3,1.3,1.3c0.7,0,1.3-0.6,1.3-1.3
			s-0.6-1.3-1.3-1.3C137.4,79.8,136.8,80.3,136.8,81z M144,81c0,0.7,0.6,1.3,1.3,1.3c0.7,0,1.3-0.6,1.3-1.3s-0.6-1.3-1.3-1.3
			C144.6,79.8,144,80.3,144,81z M151.2,81c0,0.7,0.6,1.3,1.3,1.3c0.7,0,1.3-0.6,1.3-1.3s-0.6-1.3-1.3-1.3
			C151.8,79.8,151.2,80.3,151.2,81z M158.4,81c0,0.7,0.6,1.3,1.3,1.3c0.7,0,1.3-0.6,1.3-1.3s-0.6-1.3-1.3-1.3
			C159,79.8,158.4,80.3,158.4,81z M165.6,81c0,0.7,0.6,1.3,1.3,1.3c0.7,0,1.3-0.6,1.3-1.3s-0.6-1.3-1.3-1.3
			C166.2,79.8,165.6,80.3,165.6,81z M172.8,81c0,0.7,0.6,1.3,1.3,1.3c0.7,0,1.3-0.6,1.3-1.3s-0.6-1.3-1.3-1.3
			C173.4,79.8,172.8,80.3,172.8,81z M180,81c0,0.7,0.6,1.3,1.3,1.3c0.7,0,1.3-0.6,1.3-1.3s-0.6-1.3-1.3-1.3
			C180.6,79.8,180,80.3,180,81z M187.2,81c0,0.7,0.6,1.3,1.3,1.3c0.7,0,1.3-0.6,1.3-1.3s-0.6-1.3-1.3-1.3
			C187.8,79.8,187.2,80.3,187.2,81z M14.4,88.2c0,0.7,0.6,1.3,1.3,1.3c0.7,0,1.3-0.6,1.3-1.3c0,0,0,0,0,0c0-0.7-0.6-1.3-1.3-1.3
			C15,87,14.4,87.5,14.4,88.2C14.4,88.2,14.4,88.2,14.4,88.2z M21.6,88.2c0,0.7,0.6,1.3,1.3,1.3s1.3-0.6,1.3-1.3c0,0,0,0,0,0
			c0-0.7-0.6-1.3-1.3-1.3S21.6,87.5,21.6,88.2z M28.8,88.2c0,0.7,0.6,1.3,1.3,1.3s1.3-0.6,1.3-1.3S30.7,87,30,87
			S28.8,87.5,28.8,88.2z M36,88.2c0,0.7,0.6,1.3,1.3,1.3c0.7,0,1.3-0.6,1.3-1.3S37.9,87,37.2,87C36.6,87,36,87.5,36,88.2z
			 M43.2,88.2c0,0.7,0.6,1.3,1.3,1.3c0.7,0,1.3-0.6,1.3-1.3S45.1,87,44.4,87C43.8,87,43.2,87.5,43.2,88.2z M50.4,88.2
			c0,0.7,0.6,1.3,1.3,1.3c0.7,0,1.3-0.6,1.3-1.3S52.3,87,51.6,87C51,87,50.4,87.5,50.4,88.2z M57.6,88.2c0,0.7,0.6,1.3,1.3,1.3
			c0.7,0,1.3-0.6,1.3-1.3S59.5,87,58.8,87C58.2,87,57.6,87.5,57.6,88.2z M64.8,88.2c0,0.7,0.6,1.3,1.3,1.3c0.7,0,1.3-0.6,1.3-1.3
			S66.7,87,66,87C65.4,87,64.8,87.5,64.8,88.2z M72,88.2c0,0.7,0.6,1.3,1.3,1.3s1.3-0.6,1.3-1.3c0,0,0,0,0,0c0-0.7-0.6-1.3-1.3-1.3
			S72,87.5,72,88.2z M79.2,88.2c0,0.7,0.6,1.3,1.3,1.3s1.3-0.6,1.3-1.3c0,0,0,0,0,0c0-0.7-0.6-1.3-1.3-1.3S79.2,87.5,79.2,88.2
			C79.2,88.2,79.2,88.2,79.2,88.2z M86.4,88.2c0,0.7,0.6,1.3,1.3,1.3s1.3-0.6,1.3-1.3c0,0,0,0,0,0c0-0.7-0.6-1.3-1.3-1.3
			S86.4,87.5,86.4,88.2C86.4,88.2,86.4,88.2,86.4,88.2z M93.6,88.2c0,0.7,0.6,1.3,1.3,1.3s1.3-0.6,1.3-1.3c0,0,0,0,0,0
			c0-0.7-0.6-1.3-1.3-1.3S93.6,87.5,93.6,88.2C93.6,88.2,93.6,88.2,93.6,88.2z M100.8,88.2c0,0.7,0.6,1.3,1.3,1.3s1.3-0.6,1.3-1.3
			c0,0,0,0,0,0c0-0.7-0.6-1.3-1.3-1.3S100.8,87.5,100.8,88.2C100.8,88.2,100.8,88.2,100.8,88.2z M108,88.2c0,0.7,0.6,1.3,1.3,1.3
			s1.3-0.6,1.3-1.3c0,0,0,0,0,0c0-0.7-0.6-1.3-1.3-1.3S108,87.5,108,88.2C108,88.2,108,88.2,108,88.2z M115.2,88.2
			c0,0.7,0.6,1.3,1.3,1.3s1.3-0.6,1.3-1.3c0,0,0,0,0,0c0-0.7-0.6-1.3-1.3-1.3S115.2,87.5,115.2,88.2
			C115.2,88.2,115.2,88.2,115.2,88.2z M122.4,88.2c0,0.7,0.6,1.3,1.3,1.3s1.3-0.6,1.3-1.3c0,0,0,0,0,0c0-0.7-0.6-1.3-1.3-1.3
			S122.4,87.5,122.4,88.2C122.4,88.2,122.4,88.2,122.4,88.2z M129.6,88.2c0,0.7,0.6,1.3,1.3,1.3s1.3-0.6,1.3-1.3c0,0,0,0,0,0
			c0-0.7-0.6-1.3-1.3-1.3S129.6,87.5,129.6,88.2C129.6,88.2,129.6,88.2,129.6,88.2z M136.8,88.2c0,0.7,0.6,1.3,1.3,1.3
			c0.7,0,1.3-0.6,1.3-1.3S138.7,87,138,87C137.4,87,136.8,87.5,136.8,88.2z M144,88.2c0,0.7,0.6,1.3,1.3,1.3c0.7,0,1.3-0.6,1.3-1.3
			s-0.6-1.3-1.3-1.3C144.6,87,144,87.5,144,88.2z M151.2,88.2c0,0.7,0.6,1.3,1.3,1.3c0.7,0,1.3-0.6,1.3-1.3s-0.6-1.3-1.3-1.3
			C151.8,87,151.2,87.5,151.2,88.2z M158.4,88.2c0,0.7,0.6,1.3,1.3,1.3c0.7,0,1.3-0.6,1.3-1.3s-0.6-1.3-1.3-1.3
			C159,87,158.4,87.5,158.4,88.2z M165.6,88.2c0,0.7,0.6,1.3,1.3,1.3c0.7,0,1.3-0.6,1.3-1.3s-0.6-1.3-1.3-1.3
			C166.2,87,165.6,87.5,165.6,88.2z M172.8,88.2c0,0.7,0.6,1.3,1.3,1.3c0.7,0,1.3-0.6,1.3-1.3S174.7,87,174,87
			C173.4,87,172.8,87.5,172.8,88.2z M180,88.2c0,0.7,0.6,1.3,1.3,1.3c0.7,0,1.3-0.6,1.3-1.3s-0.6-1.3-1.3-1.3
			C180.6,87,180,87.5,180,88.2z M187.2,88.2c0,0.7,0.6,1.3,1.3,1.3c0.7,0,1.3-0.6,1.3-1.3s-0.6-1.3-1.3-1.3
			C187.8,87,187.2,87.5,187.2,88.2z M14.4,95.4c0,0.7,0.6,1.3,1.3,1.3c0.7,0,1.3-0.6,1.3-1.3c0,0,0,0,0,0c0-0.7-0.6-1.3-1.3-1.3
			C15,94.2,14.4,94.7,14.4,95.4C14.4,95.4,14.4,95.4,14.4,95.4z M21.6,95.4c0,0.7,0.6,1.3,1.3,1.3s1.3-0.6,1.3-1.3c0,0,0,0,0,0
			c0-0.7-0.6-1.3-1.3-1.3S21.6,94.7,21.6,95.4C21.6,95.4,21.6,95.4,21.6,95.4z M28.8,95.4c0,0.7,0.6,1.3,1.3,1.3s1.3-0.6,1.3-1.3
			s-0.6-1.3-1.3-1.3S28.8,94.7,28.8,95.4L28.8,95.4z M36,95.4c0,0.7,0.6,1.3,1.3,1.3c0.7,0,1.3-0.6,1.3-1.3s-0.6-1.3-1.3-1.3
			C36.6,94.2,36,94.7,36,95.4L36,95.4z M43.2,95.4c0,0.7,0.6,1.3,1.3,1.3c0.7,0,1.3-0.6,1.3-1.3s-0.6-1.3-1.3-1.3
			C43.8,94.2,43.2,94.7,43.2,95.4L43.2,95.4z M50.4,95.4c0,0.7,0.6,1.3,1.3,1.3c0.7,0,1.3-0.6,1.3-1.3s-0.6-1.3-1.3-1.3
			C51,94.2,50.4,94.7,50.4,95.4L50.4,95.4z M57.6,95.4c0,0.7,0.6,1.3,1.3,1.3c0.7,0,1.3-0.6,1.3-1.3s-0.6-1.3-1.3-1.3
			C58.2,94.2,57.6,94.7,57.6,95.4L57.6,95.4z M64.8,95.4c0,0.7,0.6,1.3,1.3,1.3c0.7,0,1.3-0.6,1.3-1.3s-0.6-1.3-1.3-1.3
			C65.4,94.2,64.8,94.7,64.8,95.4L64.8,95.4z M72,95.4c0,0.7,0.6,1.3,1.3,1.3s1.3-0.6,1.3-1.3c0,0,0,0,0,0c0-0.7-0.6-1.3-1.3-1.3
			S72,94.7,72,95.4C72,95.4,72,95.4,72,95.4z M79.2,95.4c0,0.7,0.6,1.3,1.3,1.3s1.3-0.6,1.3-1.3c0,0,0,0,0,0c0-0.7-0.6-1.3-1.3-1.3
			S79.2,94.7,79.2,95.4C79.2,95.4,79.2,95.4,79.2,95.4z M86.4,95.4c0,0.7,0.6,1.3,1.3,1.3s1.3-0.6,1.3-1.3c0,0,0,0,0,0
			c0-0.7-0.6-1.3-1.3-1.3S86.4,94.7,86.4,95.4C86.4,95.4,86.4,95.4,86.4,95.4z M93.6,95.4c0,0.7,0.6,1.3,1.3,1.3s1.3-0.6,1.3-1.3
			c0,0,0,0,0,0c0-0.7-0.6-1.3-1.3-1.3S93.6,94.7,93.6,95.4C93.6,95.4,93.6,95.4,93.6,95.4z M100.8,95.4c0,0.7,0.6,1.3,1.3,1.3
			s1.3-0.6,1.3-1.3c0,0,0,0,0,0c0-0.7-0.6-1.3-1.3-1.3S100.8,94.7,100.8,95.4C100.8,95.4,100.8,95.4,100.8,95.4z M108,95.4
			c0,0.7,0.6,1.3,1.3,1.3s1.3-0.6,1.3-1.3c0,0,0,0,0,0c0-0.7-0.6-1.3-1.3-1.3S108,94.7,108,95.4C108,95.4,108,95.4,108,95.4z
			 M115.2,95.4c0,0.7,0.6,1.3,1.3,1.3s1.3-0.6,1.3-1.3c0,0,0,0,0,0c0-0.7-0.6-1.3-1.3-1.3S115.2,94.7,115.2,95.4
			C115.2,95.4,115.2,95.4,115.2,95.4z M122.4,95.4c0,0.7,0.6,1.3,1.3,1.3s1.3-0.6,1.3-1.3c0,0,0,0,0,0c0-0.7-0.6-1.3-1.3-1.3
			S122.4,94.7,122.4,95.4C122.4,95.4,122.4,95.4,122.4,95.4z M129.6,95.4c0,0.7,0.6,1.3,1.3,1.3s1.3-0.6,1.3-1.3c0,0,0,0,0,0
			c0-0.7-0.6-1.3-1.3-1.3S129.6,94.7,129.6,95.4C129.6,95.4,129.6,95.4,129.6,95.4z M136.8,95.4c0,0.7,0.6,1.3,1.3,1.3
			c0.7,0,1.3-0.6,1.3-1.3s-0.6-1.3-1.3-1.3C137.4,94.2,136.8,94.7,136.8,95.4z M144,95.4c0,0.7,0.6,1.3,1.3,1.3
			c0.7,0,1.3-0.6,1.3-1.3s-0.6-1.3-1.3-1.3C144.6,94.2,144,94.7,144,95.4z M151.2,95.4c0,0.7,0.6,1.3,1.3,1.3c0.7,0,1.3-0.6,1.3-1.3
			s-0.6-1.3-1.3-1.3C151.8,94.2,151.2,94.7,151.2,95.4z M158.4,95.4c0,0.7,0.6,1.3,1.3,1.3c0.7,0,1.3-0.6,1.3-1.3s-0.6-1.3-1.3-1.3
			C159,94.2,158.4,94.7,158.4,95.4z M165.6,95.4c0,0.7,0.6,1.3,1.3,1.3c0.7,0,1.3-0.6,1.3-1.3s-0.6-1.3-1.3-1.3
			C166.2,94.2,165.6,94.7,165.6,95.4z M172.8,95.4c0,0.7,0.6,1.3,1.3,1.3c0.7,0,1.3-0.6,1.3-1.3s-0.6-1.3-1.3-1.3
			C173.4,94.2,172.8,94.7,172.8,95.4z M180,95.4c0,0.7,0.6,1.3,1.3,1.3c0.7,0,1.3-0.6,1.3-1.3s-0.6-1.3-1.3-1.3
			C180.6,94.2,180,94.7,180,95.4z M187.2,95.4c0,0.7,0.6,1.3,1.3,1.3c0.7,0,1.3-0.6,1.3-1.3s-0.6-1.3-1.3-1.3
			C187.8,94.2,187.2,94.7,187.2,95.4z M14.4,102.6c0,0.7,0.6,1.3,1.3,1.3c0.7,0,1.3-0.6,1.3-1.3c0,0,0,0,0,0c0-0.7-0.6-1.3-1.3-1.3
			C15,101.4,14.4,101.9,14.4,102.6C14.4,102.6,14.4,102.6,14.4,102.6z M21.6,102.6c0,0.7,0.6,1.3,1.3,1.3s1.3-0.6,1.3-1.3
			c0,0,0,0,0,0c0-0.7-0.6-1.3-1.3-1.3S21.6,101.9,21.6,102.6C21.6,102.6,21.6,102.6,21.6,102.6z M28.8,102.6c0,0.7,0.6,1.3,1.3,1.3
			s1.3-0.6,1.3-1.3s-0.6-1.3-1.3-1.3S28.8,101.9,28.8,102.6L28.8,102.6z M36,102.6c0,0.7,0.6,1.3,1.3,1.3c0.7,0,1.3-0.6,1.3-1.3
			s-0.6-1.3-1.3-1.3C36.6,101.4,36,101.9,36,102.6L36,102.6z M43.2,102.6c0,0.7,0.6,1.3,1.3,1.3c0.7,0,1.3-0.6,1.3-1.3
			s-0.6-1.3-1.3-1.3C43.8,101.4,43.2,101.9,43.2,102.6L43.2,102.6z M50.4,102.6c0,0.7,0.6,1.3,1.3,1.3c0.7,0,1.3-0.6,1.3-1.3
			s-0.6-1.3-1.3-1.3C51,101.4,50.4,101.9,50.4,102.6L50.4,102.6z M57.6,102.6c0,0.7,0.6,1.3,1.3,1.3c0.7,0,1.3-0.6,1.3-1.3
			s-0.6-1.3-1.3-1.3C58.2,101.4,57.6,101.9,57.6,102.6L57.6,102.6z M64.8,102.6c0,0.7,0.6,1.3,1.3,1.3c0.7,0,1.3-0.6,1.3-1.3
			s-0.6-1.3-1.3-1.3C65.4,101.4,64.8,101.9,64.8,102.6L64.8,102.6z M72,102.6c0,0.7,0.6,1.3,1.3,1.3s1.3-0.6,1.3-1.3c0,0,0,0,0,0
			c0-0.7-0.6-1.3-1.3-1.3S72,101.9,72,102.6C72,102.6,72,102.6,72,102.6z M79.2,102.6c0,0.7,0.6,1.3,1.3,1.3s1.3-0.6,1.3-1.3
			c0,0,0,0,0,0c0-0.7-0.6-1.3-1.3-1.3S79.2,101.9,79.2,102.6C79.2,102.6,79.2,102.6,79.2,102.6z M86.4,102.6c0,0.7,0.6,1.3,1.3,1.3
			s1.3-0.6,1.3-1.3c0,0,0,0,0,0c0-0.7-0.6-1.3-1.3-1.3S86.4,101.9,86.4,102.6C86.4,102.6,86.4,102.6,86.4,102.6z M93.6,102.6
			c0,0.7,0.6,1.3,1.3,1.3s1.3-0.6,1.3-1.3c0,0,0,0,0,0c0-0.7-0.6-1.3-1.3-1.3S93.6,101.9,93.6,102.6
			C93.6,102.6,93.6,102.6,93.6,102.6z M100.8,102.6c0,0.7,0.6,1.3,1.3,1.3s1.3-0.6,1.3-1.3c0,0,0,0,0,0c0-0.7-0.6-1.3-1.3-1.3
			S100.8,101.9,100.8,102.6C100.8,102.6,100.8,102.6,100.8,102.6z M108,102.6c0,0.7,0.6,1.3,1.3,1.3s1.3-0.6,1.3-1.3c0,0,0,0,0,0
			c0-0.7-0.6-1.3-1.3-1.3S108,101.9,108,102.6C108,102.6,108,102.6,108,102.6z M115.2,102.6c0,0.7,0.6,1.3,1.3,1.3s1.3-0.6,1.3-1.3
			c0,0,0,0,0,0c0-0.7-0.6-1.3-1.3-1.3S115.2,101.9,115.2,102.6C115.2,102.6,115.2,102.6,115.2,102.6z M122.4,102.6
			c0,0.7,0.6,1.3,1.3,1.3s1.3-0.6,1.3-1.3c0,0,0,0,0,0c0-0.7-0.6-1.3-1.3-1.3S122.4,101.9,122.4,102.6
			C122.4,102.6,122.4,102.6,122.4,102.6z M129.6,102.6c0,0.7,0.6,1.3,1.3,1.3s1.3-0.6,1.3-1.3c0,0,0,0,0,0c0-0.7-0.6-1.3-1.3-1.3
			S129.6,101.9,129.6,102.6C129.6,102.6,129.6,102.6,129.6,102.6z M136.8,102.6c0,0.7,0.6,1.3,1.3,1.3c0.7,0,1.3-0.6,1.3-1.3
			s-0.6-1.3-1.3-1.3C137.4,101.4,136.8,101.9,136.8,102.6z M144,102.6c0,0.7,0.6,1.3,1.3,1.3c0.7,0,1.3-0.6,1.3-1.3
			s-0.6-1.3-1.3-1.3C144.6,101.4,144,101.9,144,102.6z M151.2,102.6c0,0.7,0.6,1.3,1.3,1.3c0.7,0,1.3-0.6,1.3-1.3s-0.6-1.3-1.3-1.3
			C151.8,101.4,151.2,101.9,151.2,102.6z M158.4,102.6c0,0.7,0.6,1.3,1.3,1.3c0.7,0,1.3-0.6,1.3-1.3s-0.6-1.3-1.3-1.3
			C159,101.4,158.4,101.9,158.4,102.6z M165.6,102.6c0,0.7,0.6,1.3,1.3,1.3c0.7,0,1.3-0.6,1.3-1.3s-0.6-1.3-1.3-1.3
			C166.2,101.4,165.6,101.9,165.6,102.6z M172.8,102.6c0,0.7,0.6,1.3,1.3,1.3c0.7,0,1.3-0.6,1.3-1.3s-0.6-1.3-1.3-1.3
			C173.4,101.4,172.8,101.9,172.8,102.6z M180,102.6c0,0.7,0.6,1.3,1.3,1.3c0.7,0,1.3-0.6,1.3-1.3s-0.6-1.3-1.3-1.3
			C180.6,101.4,180,101.9,180,102.6z M187.2,102.6c0,0.7,0.6,1.3,1.3,1.3c0.7,0,1.3-0.6,1.3-1.3s-0.6-1.3-1.3-1.3
			C187.8,101.4,187.2,101.9,187.2,102.6z M14.4,109.8c0,0.7,0.6,1.3,1.3,1.3c0.7,0,1.3-0.6,1.3-1.3c0,0,0,0,0,0
			c0-0.7-0.6-1.3-1.3-1.3C15,108.6,14.4,109.1,14.4,109.8C14.4,109.8,14.4,109.8,14.4,109.8z M21.6,109.8c0,0.7,0.6,1.3,1.3,1.3
			s1.3-0.6,1.3-1.3c0,0,0,0,0,0c0-0.7-0.6-1.3-1.3-1.3S21.6,109.1,21.6,109.8C21.6,109.8,21.6,109.8,21.6,109.8z M28.8,109.8
			c0,0.7,0.6,1.3,1.3,1.3s1.3-0.6,1.3-1.3s-0.6-1.3-1.3-1.3S28.8,109.1,28.8,109.8L28.8,109.8z M36,109.8c0,0.7,0.6,1.3,1.3,1.3
			c0.7,0,1.3-0.6,1.3-1.3s-0.6-1.3-1.3-1.3C36.6,108.6,36,109.1,36,109.8L36,109.8z M43.2,109.8c0,0.7,0.6,1.3,1.3,1.3
			c0.7,0,1.3-0.6,1.3-1.3s-0.6-1.3-1.3-1.3C43.8,108.6,43.2,109.1,43.2,109.8L43.2,109.8z M50.4,109.8c0,0.7,0.6,1.3,1.3,1.3
			c0.7,0,1.3-0.6,1.3-1.3s-0.6-1.3-1.3-1.3C51,108.6,50.4,109.1,50.4,109.8L50.4,109.8z M57.6,109.8c0,0.7,0.6,1.3,1.3,1.3
			c0.7,0,1.3-0.6,1.3-1.3s-0.6-1.3-1.3-1.3C58.2,108.6,57.6,109.1,57.6,109.8L57.6,109.8z M64.8,109.8c0,0.7,0.6,1.3,1.3,1.3
			c0.7,0,1.3-0.6,1.3-1.3s-0.6-1.3-1.3-1.3C65.4,108.6,64.8,109.1,64.8,109.8L64.8,109.8z M72,109.8c0,0.7,0.6,1.3,1.3,1.3
			s1.3-0.6,1.3-1.3c0,0,0,0,0,0c0-0.7-0.6-1.3-1.3-1.3S72,109.1,72,109.8C72,109.8,72,109.8,72,109.8z M79.2,109.8
			c0,0.7,0.6,1.3,1.3,1.3s1.3-0.6,1.3-1.3c0,0,0,0,0,0c0-0.7-0.6-1.3-1.3-1.3S79.2,109.1,79.2,109.8
			C79.2,109.8,79.2,109.8,79.2,109.8z M86.4,109.8c0,0.7,0.6,1.3,1.3,1.3s1.3-0.6,1.3-1.3c0,0,0,0,0,0c0-0.7-0.6-1.3-1.3-1.3
			S86.4,109.1,86.4,109.8C86.4,109.8,86.4,109.8,86.4,109.8z M93.6,109.8c0,0.7,0.6,1.3,1.3,1.3s1.3-0.6,1.3-1.3c0,0,0,0,0,0
			c0-0.7-0.6-1.3-1.3-1.3S93.6,109.1,93.6,109.8C93.6,109.8,93.6,109.8,93.6,109.8z M100.8,109.8c0,0.7,0.6,1.3,1.3,1.3
			s1.3-0.6,1.3-1.3c0,0,0,0,0,0c0-0.7-0.6-1.3-1.3-1.3S100.8,109.1,100.8,109.8C100.8,109.8,100.8,109.8,100.8,109.8z M108,109.8
			c0,0.7,0.6,1.3,1.3,1.3s1.3-0.6,1.3-1.3c0,0,0,0,0,0c0-0.7-0.6-1.3-1.3-1.3S108,109.1,108,109.8C108,109.8,108,109.8,108,109.8z
			 M115.2,109.8c0,0.7,0.6,1.3,1.3,1.3s1.3-0.6,1.3-1.3c0,0,0,0,0,0c0-0.7-0.6-1.3-1.3-1.3S115.2,109.1,115.2,109.8
			C115.2,109.8,115.2,109.8,115.2,109.8z M122.4,109.8c0,0.7,0.6,1.3,1.3,1.3s1.3-0.6,1.3-1.3c0,0,0,0,0,0c0-0.7-0.6-1.3-1.3-1.3
			S122.4,109.1,122.4,109.8C122.4,109.8,122.4,109.8,122.4,109.8z M129.6,109.8c0,0.7,0.6,1.3,1.3,1.3s1.3-0.6,1.3-1.3c0,0,0,0,0,0
			c0-0.7-0.6-1.3-1.3-1.3S129.6,109.1,129.6,109.8C129.6,109.8,129.6,109.8,129.6,109.8z M136.8,109.8c0,0.7,0.6,1.3,1.3,1.3
			c0.7,0,1.3-0.6,1.3-1.3s-0.6-1.3-1.3-1.3C137.4,108.6,136.8,109.1,136.8,109.8z M144,109.8c0,0.7,0.6,1.3,1.3,1.3
			c0.7,0,1.3-0.6,1.3-1.3s-0.6-1.3-1.3-1.3C144.6,108.6,144,109.1,144,109.8z M151.2,109.8c0,0.7,0.6,1.3,1.3,1.3
			c0.7,0,1.3-0.6,1.3-1.3s-0.6-1.3-1.3-1.3C151.8,108.6,151.2,109.1,151.2,109.8z M158.4,109.8c0,0.7,0.6,1.3,1.3,1.3
			c0.7,0,1.3-0.6,1.3-1.3s-0.6-1.3-1.3-1.3C159,108.6,158.4,109.1,158.4,109.8z M165.6,109.8c0,0.7,0.6,1.3,1.3,1.3
			c0.7,0,1.3-0.6,1.3-1.3s-0.6-1.3-1.3-1.3C166.2,108.6,165.6,109.1,165.6,109.8z M172.8,109.8c0,0.7,0.6,1.3,1.3,1.3
			c0.7,0,1.3-0.6,1.3-1.3s-0.6-1.3-1.3-1.3C173.4,108.6,172.8,109.1,172.8,109.8z M180,109.8c0,0.7,0.6,1.3,1.3,1.3
			c0.7,0,1.3-0.6,1.3-1.3s-0.6-1.3-1.3-1.3C180.6,108.6,180,109.1,180,109.8z M187.2,109.8c0,0.7,0.6,1.3,1.3,1.3
			c0.7,0,1.3-0.6,1.3-1.3s-0.6-1.3-1.3-1.3C187.8,108.6,187.2,109.1,187.2,109.8z M14.4,117c0,0.7,0.6,1.3,1.3,1.3
			c0.7,0,1.3-0.6,1.3-1.3c0,0,0,0,0,0c0-0.7-0.6-1.3-1.3-1.3C15,115.8,14.4,116.3,14.4,117C14.4,117,14.4,117,14.4,117z M21.6,117
			c0,0.7,0.6,1.3,1.3,1.3s1.3-0.6,1.3-1.3c0,0,0,0,0,0c0-0.7-0.6-1.3-1.3-1.3S21.6,116.3,21.6,117z M28.8,117c0,0.7,0.6,1.3,1.3,1.3
			s1.3-0.6,1.3-1.3s-0.6-1.3-1.3-1.3S28.8,116.3,28.8,117z M36,117c0,0.7,0.6,1.3,1.3,1.3c0.7,0,1.3-0.6,1.3-1.3s-0.6-1.3-1.3-1.3
			C36.6,115.8,36,116.3,36,117z M43.2,117c0,0.7,0.6,1.3,1.3,1.3c0.7,0,1.3-0.6,1.3-1.3s-0.6-1.3-1.3-1.3
			C43.8,115.8,43.2,116.3,43.2,117z M50.4,117c0,0.7,0.6,1.3,1.3,1.3c0.7,0,1.3-0.6,1.3-1.3s-0.6-1.3-1.3-1.3
			C51,115.8,50.4,116.3,50.4,117z M57.6,117c0,0.7,0.6,1.3,1.3,1.3c0.7,0,1.3-0.6,1.3-1.3s-0.6-1.3-1.3-1.3
			C58.2,115.8,57.6,116.3,57.6,117z M64.8,117c0,0.7,0.6,1.3,1.3,1.3c0.7,0,1.3-0.6,1.3-1.3s-0.6-1.3-1.3-1.3
			C65.4,115.8,64.8,116.3,64.8,117z M72,117c0,0.7,0.6,1.3,1.3,1.3s1.3-0.6,1.3-1.3c0,0,0,0,0,0c0-0.7-0.6-1.3-1.3-1.3
			S72,116.3,72,117z M79.2,117c0,0.7,0.6,1.3,1.3,1.3s1.3-0.6,1.3-1.3c0,0,0,0,0,0c0-0.7-0.6-1.3-1.3-1.3S79.2,116.3,79.2,117
			C79.2,117,79.2,117,79.2,117z M86.4,117c0,0.7,0.6,1.3,1.3,1.3s1.3-0.6,1.3-1.3c0,0,0,0,0,0c0-0.7-0.6-1.3-1.3-1.3
			S86.4,116.3,86.4,117C86.4,117,86.4,117,86.4,117z M93.6,117c0,0.7,0.6,1.3,1.3,1.3s1.3-0.6,1.3-1.3c0,0,0,0,0,0
			c0-0.7-0.6-1.3-1.3-1.3S93.6,116.3,93.6,117C93.6,117,93.6,117,93.6,117z M100.8,117c0,0.7,0.6,1.3,1.3,1.3s1.3-0.6,1.3-1.3
			c0,0,0,0,0,0c0-0.7-0.6-1.3-1.3-1.3S100.8,116.3,100.8,117C100.8,117,100.8,117,100.8,117z M108,117c0,0.7,0.6,1.3,1.3,1.3
			s1.3-0.6,1.3-1.3c0,0,0,0,0,0c0-0.7-0.6-1.3-1.3-1.3S108,116.3,108,117C108,117,108,117,108,117z M115.2,117
			c0,0.7,0.6,1.3,1.3,1.3s1.3-0.6,1.3-1.3c0,0,0,0,0,0c0-0.7-0.6-1.3-1.3-1.3S115.2,116.3,115.2,117C115.2,117,115.2,117,115.2,117z
			 M122.4,117c0,0.7,0.6,1.3,1.3,1.3s1.3-0.6,1.3-1.3c0,0,0,0,0,0c0-0.7-0.6-1.3-1.3-1.3S122.4,116.3,122.4,117
			C122.4,117,122.4,117,122.4,117z M129.6,117c0,0.7,0.6,1.3,1.3,1.3s1.3-0.6,1.3-1.3c0,0,0,0,0,0c0-0.7-0.6-1.3-1.3-1.3
			S129.6,116.3,129.6,117C129.6,117,129.6,117,129.6,117z M136.8,117c0,0.7,0.6,1.3,1.3,1.3c0.7,0,1.3-0.6,1.3-1.3s-0.6-1.3-1.3-1.3
			C137.4,115.8,136.8,116.3,136.8,117z M144,117c0,0.7,0.6,1.3,1.3,1.3c0.7,0,1.3-0.6,1.3-1.3s-0.6-1.3-1.3-1.3
			C144.6,115.8,144,116.3,144,117z M151.2,117c0,0.7,0.6,1.3,1.3,1.3c0.7,0,1.3-0.6,1.3-1.3s-0.6-1.3-1.3-1.3
			C151.8,115.8,151.2,116.3,151.2,117z M158.4,117c0,0.7,0.6,1.3,1.3,1.3c0.7,0,1.3-0.6,1.3-1.3s-0.6-1.3-1.3-1.3
			C159,115.8,158.4,116.3,158.4,117z M165.6,117c0,0.7,0.6,1.3,1.3,1.3c0.7,0,1.3-0.6,1.3-1.3s-0.6-1.3-1.3-1.3
			C166.2,115.8,165.6,116.3,165.6,117z M172.8,117c0,0.7,0.6,1.3,1.3,1.3c0.7,0,1.3-0.6,1.3-1.3s-0.6-1.3-1.3-1.3
			C173.4,115.8,172.8,116.3,172.8,117z M180,117c0,0.7,0.6,1.3,1.3,1.3c0.7,0,1.3-0.6,1.3-1.3s-0.6-1.3-1.3-1.3
			C180.6,115.8,180,116.3,180,117z M187.2,117c0,0.7,0.6,1.3,1.3,1.3c0.7,0,1.3-0.6,1.3-1.3s-0.6-1.3-1.3-1.3
			C187.8,115.8,187.2,116.3,187.2,117z"/>
		<path class="st0" d="M-0.1-0.1H204v133.2H-0.1V-0.1z"/>
		<circle id="connector0pin" class="st1" cx="15.6" cy="16.2" r="2"/>
		<circle id="connector1pin" class="st1" cx="22.8" cy="16.2" r="2"/>
		<circle id="connector2pin" class="st1" cx="30" cy="16.2" r="2"/>
		<circle id="connector3pin" class="st1" cx="37.2" cy="16.2" r="2"/>
		<circle id="connector4pin" class="st1" cx="44.4" cy="16.2" r="2"/>
		<circle id="connector5pin" class="st1" cx="51.6" cy="16.2" r="2"/>
		<circle id="connector6pin" class="st1" cx="58.8" cy="16.2" r="2"/>
		<circle id="connector7pin" class="st1" cx="66" cy="16.2" r="2"/>
		<circle id="connector8pin" class="st1" cx="73.2" cy="16.2" r="2"/>
		<circle id="connector9pin" class="st1" cx="80.4" cy="16.2" r="2"/>
		<circle id="connector10pin" class="st1" cx="87.6" cy="16.2" r="2"/>
		<circle id="connector11pin" class="st1" cx="94.8" cy="16.2" r="2"/>
		<circle id="connector12pin" class="st1" cx="102" cy="16.2" r="2"/>
		<circle id="connector13pin" class="st1" cx="109.2" cy="16.2" r="2"/>
		<circle id="connector14pin" class="st1" cx="116.4" cy="16.2" r="2"/>
		<circle id="connector15pin" class="st1" cx="123.6" cy="16.2" r="2"/>
		<circle id="connector16pin" class="st1" cx="130.8" cy="16.2" r="2"/>
		<circle id="connector17pin" class="st1" cx="138" cy="16.2" r="2"/>
		<circle id="connector18pin" class="st1" cx="145.2" cy="16.2" r="2"/>
		<circle id="connector19pin" class="st1" cx="152.4" cy="16.2" r="2"/>
		<circle id="connector20pin" class="st1" cx="159.6" cy="16.2" r="2"/>
		<circle id="connector21pin" class="st1" cx="166.8" cy="16.2" r="2"/>
		<circle id="connector22pin" class="st1" cx="174" cy="16.2" r="2"/>
		<circle id="connector23pin" class="st1" cx="181.2" cy="16.2" r="2"/>
		<circle id="connector24pin" class="st1" cx="188.4" cy="16.2" r="2"/>
		<circle id="connector1000pin" class="st1" cx="15.6" cy="23.4" r="2"/>
		<circle id="connector1001pin" class="st1" cx="22.8" cy="23.4" r="2"/>
		<circle id="connector1002pin" class="st1" cx="30" cy="23.4" r="2"/>
		<circle id="connector1003pin" class="st1" cx="37.2" cy="23.4" r="2"/>
		<circle id="connector1004pin" class="st1" cx="44.4" cy="23.4" r="2"/>
		<circle id="connector1005pin" class="st1" cx="51.6" cy="23.4" r="2"/>
		<circle id="connector1006pin" class="st1" cx="58.8" cy="23.4" r="2"/>
		<circle id="connector1007pin" class="st1" cx="66" cy="23.4" r="2"/>
		<circle id="connector1008pin" class="st1" cx="73.2" cy="23.4" r="2"/>
		<circle id="connector1009pin" class="st1" cx="80.4" cy="23.4" r="2"/>
		<circle id="connector1010pin" class="st1" cx="87.6" cy="23.4" r="2"/>
		<circle id="connector1011pin" class="st1" cx="94.8" cy="23.4" r="2"/>
		<circle id="connector1012pin" class="st1" cx="102" cy="23.4" r="2"/>
		<circle id="connector1013pin" class="st1" cx="109.2" cy="23.4" r="2"/>
		<circle id="connector1014pin" class="st1" cx="116.4" cy="23.4" r="2"/>
		<circle id="connector1015pin" class="st1" cx="123.6" cy="23.4" r="2"/>
		<circle id="connector1016pin" class="st1" cx="130.8" cy="23.4" r="2"/>
		<circle id="connector1017pin" class="st1" cx="138" cy="23.4" r="2"/>
		<circle id="connector1018pin" class="st1" cx="145.2" cy="23.4" r="2"/>
		<circle id="connector1019pin" class="st1" cx="152.4" cy="23.4" r="2"/>
		<circle id="connector1020pin" class="st1" cx="159.6" cy="23.4" r="2"/>
		<circle id="connector1021pin" class="st1" cx="166.8" cy="23.4" r="2"/>
		<circle id="connector1022pin" class="st1" cx="174" cy="23.4" r="2"/>
		<circle id="connector1023pin" class="st1" cx="181.2" cy="23.4" r="2"/>
		<circle id="connector1024pin" class="st1" cx="188.4" cy="23.4" r="2"/>
		<circle id="connector2000pin" class="st1" cx="15.6" cy="30.6" r="2"/>
		<circle id="connector2001pin" class="st1" cx="22.8" cy="30.6" r="2"/>
		<circle id="connector2002pin" class="st1" cx="30" cy="30.6" r="2"/>
		<circle id="connector2003pin" class="st1" cx="37.2" cy="30.6" r="2"/>
		<circle id="connector2004pin" class="st1" cx="44.4" cy="30.6" r="2"/>
		<circle id="connector2005pin" class="st1" cx="51.6" cy="30.6" r="2"/>
		<circle id="connector2006pin" class="st1" cx="58.8" cy="30.6" r="2"/>
		<circle id="connector2007pin" class="st1" cx="66" cy="30.6" r="2"/>
		<circle id="connector2008pin" class="st1" cx="73.2" cy="30.6" r="2"/>
		<circle id="connector2009pin" class="st1" cx="80.4" cy="30.6" r="2"/>
		<circle id="connector2010pin" class="st1" cx="87.6" cy="30.6" r="2"/>
		<circle id="connector2011pin" class="st1" cx="94.8" cy="30.6" r="2"/>
		<circle id="connector2012pin" class="st1" cx="102" cy="30.6" r="2"/>
		<circle id="connector2013pin" class="st1" cx="109.2" cy="30.6" r="2"/>
		<circle id="connector2014pin" class="st1" cx="116.4" cy="30.6" r="2"/>
		<circle id="connector2015pin" class="st1" cx="123.6" cy="30.6" r="2"/>
		<circle id="connector2016pin" class="st1" cx="130.8" cy="30.6" r="2"/>
		<circle id="connector2017pin" class="st1" cx="138" cy="30.6" r="2"/>
		<circle id="connector2018pin" class="st1" cx="145.2" cy="30.6" r="2"/>
		<circle id="connector2019pin" class="st1" cx="152.4" cy="30.6" r="2"/>
		<circle id="connector2020pin" class="st1" cx="159.6" cy="30.6" r="2"/>
		<circle id="connector2021pin" class="st1" cx="166.8" cy="30.6" r="2"/>
		<circle id="connector2022pin" class="st1" cx="174" cy="30.6" r="2"/>
		<circle id="connector2023pin" class="st1" cx="181.2" cy="30.6" r="2"/>
		<circle id="connector2024pin" class="st1" cx="188.4" cy="30.6" r="2"/>
		<circle id="connector3000pin" class="st1" cx="15.6" cy="37.8" r="2"/>
		<circle id="connector3001pin" class="st1" cx="22.8" cy="37.8" r="2"/>
		<circle id="connector3002pin" class="st1" cx="30" cy="37.8" r="2"/>
		<circle id="connector3003pin" class="st1" cx="37.2" cy="37.8" r="2"/>
		<circle id="connector3004pin" class="st1" cx="44.4" cy="37.8" r="2"/>
		<circle id="connector3005pin" class="st1" cx="51.6" cy="37.8" r="2"/>
		<circle id="connector3006pin" class="st1" cx="58.8" cy="37.8" r="2"/>
		<circle id="connector3007pin" class="st1" cx="66" cy="37.8" r="2"/>
		<circle id="connector3008pin" class="st1" cx="73.2" cy="37.8" r="2"/>
		<circle id="connector3009pin" class="st1" cx="80.4" cy="37.8" r="2"/>
		<circle id="connector3010pin" class="st1" cx="87.6" cy="37.8" r="2"/>
		<circle id="connector3011pin" class="st1" cx="94.8" cy="37.8" r="2"/>
		<circle id="connector3012pin" class="st1" cx="102" cy="37.8" r="2"/>
		<circle id="connector3013pin" class="st1" cx="109.2" cy="37.8" r="2"/>
		<circle id="connector3014pin" class="st1" cx="116.4" cy="37.8" r="2"/>
		<circle id="connector3015pin" class="st1" cx="123.6" cy="37.8" r="2"/>
		<circle id="connector3016pin" class="st1" cx="130.8" cy="37.8" r="2"/>
		<circle id="connector3017pin" class="st1" cx="138" cy="37.8" r="2"/>
		<circle id="connector3018pin" class="st1" cx="145.2" cy="37.8" r="2"/>
		<circle id="connector3019pin" class="st1" cx="152.4" cy="37.8" r="2"/>
		<circle id="connector3020pin" class="st1" cx="159.6" cy="37.8" r="2"/>
		<circle id="connector3021pin" class="st1" cx="166.8" cy="37.8" r="2"/>
		<circle id="connector3022pin" class="st1" cx="174" cy="37.8" r="2"/>
		<circle id="connector3023pin" class="st1" cx="181.2" cy="37.8" r="2"/>
		<circle id="connector3024pin" class="st1" cx="188.4" cy="37.8" r="2"/>
		<circle id="connector4000pin" class="st1" cx="15.6" cy="45" r="2"/>
		<circle id="connector4001pin" class="st1" cx="22.8" cy="45" r="2"/>
		<circle id="connector4002pin" class="st1" cx="30" cy="45" r="2"/>
		<circle id="connector4003pin" class="st1" cx="37.2" cy="45" r="2"/>
		<circle id="connector4004pin" class="st1" cx="44.4" cy="45" r="2"/>
		<circle id="connector4005pin" class="st1" cx="51.6" cy="45" r="2"/>
		<circle id="connector4006pin" class="st1" cx="58.8" cy="45" r="2"/>
		<circle id="connector4007pin" class="st1" cx="66" cy="45" r="2"/>
		<circle id="connector4008pin" class="st1" cx="73.2" cy="45" r="2"/>
		<circle id="connector4009pin" class="st1" cx="80.4" cy="45" r="2"/>
		<circle id="connector4010pin" class="st1" cx="87.6" cy="45" r="2"/>
		<circle id="connector4011pin" class="st1" cx="94.8" cy="45" r="2"/>
		<circle id="connector4012pin" class="st1" cx="102" cy="45" r="2"/>
		<circle id="connector4013pin" class="st1" cx="109.2" cy="45" r="2"/>
		<circle id="connector4014pin" class="st1" cx="116.4" cy="45" r="2"/>
		<circle id="connector4015pin" class="st1" cx="123.6" cy="45" r="2"/>
		<circle id="connector4016pin" class="st1" cx="130.8" cy="45" r="2"/>
		<circle id="connector4017pin" class="st1" cx="138" cy="45" r="2"/>
		<circle id="connector4018pin" class="st1" cx="145.2" cy="45" r="2"/>
		<circle id="connector4019pin" class="st1" cx="152.4" cy="45" r="2"/>
		<circle id="connector4020pin" class="st1" cx="159.6" cy="45" r="2"/>
		<circle id="connector4021pin" class="st1" cx="166.8" cy="45" r="2"/>
		<circle id="connector4022pin" class="st1" cx="174" cy="45" r="2"/>
		<circle id="connector4023pin" class="st1" cx="181.2" cy="45" r="2"/>
		<circle id="connector4024pin" class="st1" cx="188.4" cy="45" r="2"/>
		<circle id="connector5000pin" class="st1" cx="15.6" cy="52.2" r="2"/>
		<circle id="connector5001pin" class="st1" cx="22.8" cy="52.2" r="2"/>
		<circle id="connector5002pin" class="st1" cx="30" cy="52.2" r="2"/>
		<circle id="connector5003pin" class="st1" cx="37.2" cy="52.2" r="2"/>
		<circle id="connector5004pin" class="st1" cx="44.4" cy="52.2" r="2"/>
		<circle id="connector5005pin" class="st1" cx="51.6" cy="52.2" r="2"/>
		<circle id="connector5006pin" class="st1" cx="58.8" cy="52.2" r="2"/>
		<circle id="connector5007pin" class="st1" cx="66" cy="52.2" r="2"/>
		<circle id="connector5008pin" class="st1" cx="73.2" cy="52.2" r="2"/>
		<circle id="connector5009pin" class="st1" cx="80.4" cy="52.2" r="2"/>
		<circle id="connector5010pin" class="st1" cx="87.6" cy="52.2" r="2"/>
		<circle id="connector5011pin" class="st1" cx="94.8" cy="52.2" r="2"/>
		<circle id="connector5012pin" class="st1" cx="102" cy="52.2" r="2"/>
		<circle id="connector5013pin" class="st1" cx="109.2" cy="52.2" r="2"/>
		<circle id="connector5014pin" class="st1" cx="116.4" cy="52.2" r="2"/>
		<circle id="connector5015pin" class="st1" cx="123.6" cy="52.2" r="2"/>
		<circle id="connector5016pin" class="st1" cx="130.8" cy="52.2" r="2"/>
		<circle id="connector5017pin" class="st1" cx="138" cy="52.2" r="2"/>
		<circle id="connector5018pin" class="st1" cx="145.2" cy="52.2" r="2"/>
		<circle id="connector5019pin" class="st1" cx="152.4" cy="52.2" r="2"/>
		<circle id="connector5020pin" class="st1" cx="159.6" cy="52.2" r="2"/>
		<circle id="connector5021pin" class="st1" cx="166.8" cy="52.2" r="2"/>
		<circle id="connector5022pin" class="st1" cx="174" cy="52.2" r="2"/>
		<circle id="connector5023pin" class="st1" cx="181.2" cy="52.2" r="2"/>
		<circle id="connector5024pin" class="st1" cx="188.4" cy="52.2" r="2"/>
		<circle id="connector6000pin" class="st1" cx="15.6" cy="59.4" r="2"/>
		<circle id="connector6001pin" class="st1" cx="22.8" cy="59.4" r="2"/>
		<circle id="connector6002pin" class="st1" cx="30" cy="59.4" r="2"/>
		<circle id="connector6003pin" class="st1" cx="37.2" cy="59.4" r="2"/>
		<circle id="connector6004pin" class="st1" cx="44.4" cy="59.4" r="2"/>
		<circle id="connector6005pin" class="st1" cx="51.6" cy="59.4" r="2"/>
		<circle id="connector6006pin" class="st1" cx="58.8" cy="59.4" r="2"/>
		<circle id="connector6007pin" class="st1" cx="66" cy="59.4" r="2"/>
		<circle id="connector6008pin" class="st1" cx="73.2" cy="59.4" r="2"/>
		<circle id="connector6009pin" class="st1" cx="80.4" cy="59.4" r="2"/>
		<circle id="connector6010pin" class="st1" cx="87.6" cy="59.4" r="2"/>
		<circle id="connector6011pin" class="st1" cx="94.8" cy="59.4" r="2"/>
		<circle id="connector6012pin" class="st1" cx="102" cy="59.4" r="2"/>
		<circle id="connector6013pin" class="st1" cx="109.2" cy="59.4" r="2"/>
		<circle id="connector6014pin" class="st1" cx="116.4" cy="59.4" r="2"/>
		<circle id="connector6015pin" class="st1" cx="123.6" cy="59.4" r="2"/>
		<circle id="connector6016pin" class="st1" cx="130.8" cy="59.4" r="2"/>
		<circle id="connector6017pin" class="st1" cx="138" cy="59.4" r="2"/>
		<circle id="connector6018pin" class="st1" cx="145.2" cy="59.4" r="2"/>
		<circle id="connector6019pin" class="st1" cx="152.4" cy="59.4" r="2"/>
		<circle id="connector6020pin" class="st1" cx="159.6" cy="59.4" r="2"/>
		<circle id="connector6021pin" class="st1" cx="166.8" cy="59.4" r="2"/>
		<circle id="connector6022pin" class="st1" cx="174" cy="59.4" r="2"/>
		<circle id="connector6023pin" class="st1" cx="181.2" cy="59.4" r="2"/>
		<circle id="connector6024pin" class="st1" cx="188.4" cy="59.4" r="2"/>
		<circle id="connector7000pin" class="st1" cx="15.6" cy="66.6" r="2"/>
		<circle id="connector7001pin" class="st1" cx="22.8" cy="66.6" r="2"/>
		<circle id="connector7002pin" class="st1" cx="30" cy="66.6" r="2"/>
		<circle id="connector7003pin" class="st1" cx="37.2" cy="66.6" r="2"/>
		<circle id="connector7004pin" class="st1" cx="44.4" cy="66.6" r="2"/>
		<circle id="connector7005pin" class="st1" cx="51.6" cy="66.6" r="2"/>
		<circle id="connector7006pin" class="st1" cx="58.8" cy="66.6" r="2"/>
		<circle id="connector7007pin" class="st1" cx="66" cy="66.6" r="2"/>
		<circle id="connector7008pin" class="st1" cx="73.2" cy="66.6" r="2"/>
		<circle id="connector7009pin" class="st1" cx="80.4" cy="66.6" r="2"/>
		<circle id="connector7010pin" class="st1" cx="87.6" cy="66.6" r="2"/>
		<circle id="connector7011pin" class="st1" cx="94.8" cy="66.6" r="2"/>
		<circle id="connector7012pin" class="st1" cx="102" cy="66.6" r="2"/>
		<circle id="connector7013pin" class="st1" cx="109.2" cy="66.6" r="2"/>
		<circle id="connector7014pin" class="st1" cx="116.4" cy="66.6" r="2"/>
		<circle id="connector7015pin" class="st1" cx="123.6" cy="66.6" r="2"/>
		<circle id="connector7016pin" class="st1" cx="130.8" cy="66.6" r="2"/>
		<circle id="connector7017pin" class="st1" cx="138" cy="66.6" r="2"/>
		<circle id="connector7018pin" class="st1" cx="145.2" cy="66.6" r="2"/>
		<circle id="connector7019pin" class="st1" cx="152.4" cy="66.6" r="2"/>
		<circle id="connector7020pin" class="st1" cx="159.6" cy="66.6" r="2"/>
		<circle id="connector7021pin" class="st1" cx="166.8" cy="66.6" r="2"/>
		<circle id="connector7022pin" class="st1" cx="174" cy="66.6" r="2"/>
		<circle id="connector7023pin" class="st1" cx="181.2" cy="66.6" r="2"/>
		<circle id="connector7024pin" class="st1" cx="188.4" cy="66.6" r="2"/>
		<circle id="connector8000pin" class="st1" cx="15.6" cy="73.8" r="2"/>
		<circle id="connector8001pin" class="st1" cx="22.8" cy="73.8" r="2"/>
		<circle id="connector8002pin" class="st1" cx="30" cy="73.8" r="2"/>
		<circle id="connector8003pin" class="st1" cx="37.2" cy="73.8" r="2"/>
		<circle id="connector8004pin" class="st1" cx="44.4" cy="73.8" r="2"/>
		<circle id="connector8005pin" class="st1" cx="51.6" cy="73.8" r="2"/>
		<circle id="connector8006pin" class="st1" cx="58.8" cy="73.8" r="2"/>
		<circle id="connector8007pin" class="st1" cx="66" cy="73.8" r="2"/>
		<circle id="connector8008pin" class="st1" cx="73.2" cy="73.8" r="2"/>
		<circle id="connector8009pin" class="st1" cx="80.4" cy="73.8" r="2"/>
		<circle id="connector8010pin" class="st1" cx="87.6" cy="73.8" r="2"/>
		<circle id="connector8011pin" class="st1" cx="94.8" cy="73.8" r="2"/>
		<circle id="connector8012pin" class="st1" cx="102" cy="73.8" r="2"/>
		<circle id="connector8013pin" class="st1" cx="109.2" cy="73.8" r="2"/>
		<circle id="connector8014pin" class="st1" cx="116.4" cy="73.8" r="2"/>
		<circle id="connector8015pin" class="st1" cx="123.6" cy="73.8" r="2"/>
		<circle id="connector8016pin" class="st1" cx="130.8" cy="73.8" r="2"/>
		<circle id="connector8017pin" class="st1" cx="138" cy="73.8" r="2"/>
		<circle id="connector8018pin" class="st1" cx="145.2" cy="73.8" r="2"/>
		<circle id="connector8019pin" class="st1" cx="152.4" cy="73.8" r="2"/>
		<circle id="connector8020pin" class="st1" cx="159.6" cy="73.8" r="2"/>
		<circle id="connector8021pin" class="st1" cx="166.8" cy="73.8" r="2"/>
		<circle id="connector8022pin" class="st1" cx="174" cy="73.8" r="2"/>
		<circle id="connector8023pin" class="st1" cx="181.2" cy="73.8" r="2"/>
		<circle id="connector8024pin" class="st1" cx="188.4" cy="73.8" r="2"/>
		<circle id="connector9000pin" class="st1" cx="15.6" cy="81" r="2"/>
		<circle id="connector9001pin" class="st1" cx="22.8" cy="81" r="2"/>
		<circle id="connector9002pin" class="st1" cx="30" cy="81" r="2"/>
		<circle id="connector9003pin" class="st1" cx="37.2" cy="81" r="2"/>
		<circle id="connector9004pin" class="st1" cx="44.4" cy="81" r="2"/>
		<circle id="connector9005pin" class="st1" cx="51.6" cy="81" r="2"/>
		<circle id="connector9006pin" class="st1" cx="58.8" cy="81" r="2"/>
		<circle id="connector9007pin" class="st1" cx="66" cy="81" r="2"/>
		<circle id="connector9008pin" class="st1" cx="73.2" cy="81" r="2"/>
		<circle id="connector9009pin" class="st1" cx="80.4" cy="81" r="2"/>
		<circle id="connector9010pin" class="st1" cx="87.6" cy="81" r="2"/>
		<circle id="connector9011pin" class="st1" cx="94.8" cy="81" r="2"/>
		<circle id="connector9012pin" class="st1" cx="102" cy="81" r="2"/>
		<circle id="connector9013pin" class="st1" cx="109.2" cy="81" r="2"/>
		<circle id="connector9014pin" class="st1" cx="116.4" cy="81" r="2"/>
		<circle id="connector9015pin" class="st1" cx="123.6" cy="81" r="2"/>
		<circle id="connector9016pin" class="st1" cx="130.8" cy="81" r="2"/>
		<circle id="connector9017pin" class="st1" cx="138" cy="81" r="2"/>
		<circle id="connector9018pin" class="st1" cx="145.2" cy="81" r="2"/>
		<circle id="connector9019pin" class="st1" cx="152.4" cy="81" r="2"/>
		<circle id="connector9020pin" class="st1" cx="159.6" cy="81" r="2"/>
		<circle id="connector9021pin" class="st1" cx="166.8" cy="81" r="2"/>
		<circle id="connector9022pin" class="st1" cx="174" cy="81" r="2"/>
		<circle id="connector9023pin" class="st1" cx="181.2" cy="81" r="2"/>
		<circle id="connector9024pin" class="st1" cx="188.4" cy="81" r="2"/>
		<circle id="connector10000pin" class="st1" cx="15.6" cy="88.2" r="2"/>
		<circle id="connector10001pin" class="st1" cx="22.8" cy="88.2" r="2"/>
		<circle id="connector10002pin" class="st1" cx="30" cy="88.2" r="2"/>
		<circle id="connector10003pin" class="st1" cx="37.2" cy="88.2" r="2"/>
		<circle id="connector10004pin" class="st1" cx="44.4" cy="88.2" r="2"/>
		<circle id="connector10005pin" class="st1" cx="51.6" cy="88.2" r="2"/>
		<circle id="connector10006pin" class="st1" cx="58.8" cy="88.2" r="2"/>
		<circle id="connector10007pin" class="st1" cx="66" cy="88.2" r="2"/>
		<circle id="connector10008pin" class="st1" cx="73.2" cy="88.2" r="2"/>
		<circle id="connector10009pin" class="st1" cx="80.4" cy="88.2" r="2"/>
		<circle id="connector10010pin" class="st1" cx="87.6" cy="88.2" r="2"/>
		<circle id="connector10011pin" class="st1" cx="94.8" cy="88.2" r="2"/>
		<circle id="connector10012pin" class="st1" cx="102" cy="88.2" r="2"/>
		<circle id="connector10013pin" class="st1" cx="109.2" cy="88.2" r="2"/>
		<circle id="connector10014pin" class="st1" cx="116.4" cy="88.2" r="2"/>
		<circle id="connector10015pin" class="st1" cx="123.6" cy="88.2" r="2"/>
		<circle id="connector10016pin" class="st1" cx="130.8" cy="88.2" r="2"/>
		<circle id="connector10017pin" class="st1" cx="138" cy="88.2" r="2"/>
		<circle id="connector10018pin" class="st1" cx="145.2" cy="88.2" r="2"/>
		<circle id="connector10019pin" class="st1" cx="152.4" cy="88.2" r="2"/>
		<circle id="connector10020pin" class="st1" cx="159.6" cy="88.2" r="2"/>
		<circle id="connector10021pin" class="st1" cx="166.8" cy="88.2" r="2"/>
		<circle id="connector10022pin" class="st1" cx="174" cy="88.2" r="2"/>
		<circle id="connector10023pin" class="st1" cx="181.2" cy="88.2" r="2"/>
		<circle id="connector10024pin" class="st1" cx="188.4" cy="88.2" r="2"/>
		<circle id="connector11000pin" class="st1" cx="15.6" cy="95.4" r="2"/>
		<circle id="connector11001pin" class="st1" cx="22.8" cy="95.4" r="2"/>
		<circle id="connector11002pin" class="st1" cx="30" cy="95.4" r="2"/>
		<circle id="connector11003pin" class="st1" cx="37.2" cy="95.4" r="2"/>
		<circle id="connector11004pin" class="st1" cx="44.4" cy="95.4" r="2"/>
		<circle id="connector11005pin" class="st1" cx="51.6" cy="95.4" r="2"/>
		<circle id="connector11006pin" class="st1" cx="58.8" cy="95.4" r="2"/>
		<circle id="connector11007pin" class="st1" cx="66" cy="95.4" r="2"/>
		<circle id="connector11008pin" class="st1" cx="73.2" cy="95.4" r="2"/>
		<circle id="connector11009pin" class="st1" cx="80.4" cy="95.4" r="2"/>
		<circle id="connector11010pin" class="st1" cx="87.6" cy="95.4" r="2"/>
		<circle id="connector11011pin" class="st1" cx="94.8" cy="95.4" r="2"/>
		<circle id="connector11012pin" class="st1" cx="102" cy="95.4" r="2"/>
		<circle id="connector11013pin" class="st1" cx="109.2" cy="95.4" r="2"/>
		<circle id="connector11014pin" class="st1" cx="116.4" cy="95.4" r="2"/>
		<circle id="connector11015pin" class="st1" cx="123.6" cy="95.4" r="2"/>
		<circle id="connector11016pin" class="st1" cx="130.8" cy="95.4" r="2"/>
		<circle id="connector11017pin" class="st1" cx="138" cy="95.4" r="2"/>
		<circle id="connector11018pin" class="st1" cx="145.2" cy="95.4" r="2"/>
		<circle id="connector11019pin" class="st1" cx="152.4" cy="95.4" r="2"/>
		<circle id="connector11020pin" class="st1" cx="159.6" cy="95.4" r="2"/>
		<circle id="connector11021pin" class="st1" cx="166.8" cy="95.4" r="2"/>
		<circle id="connector11022pin" class="st1" cx="174" cy="95.4" r="2"/>
		<circle id="connector11023pin" class="st1" cx="181.2" cy="95.4" r="2"/>
		<circle id="connector11024pin" class="st1" cx="188.4" cy="95.4" r="2"/>
		<circle id="connector12000pin" class="st1" cx="15.6" cy="102.6" r="2"/>
		<circle id="connector12001pin" class="st1" cx="22.8" cy="102.6" r="2"/>
		<circle id="connector12002pin" class="st1" cx="30" cy="102.6" r="2"/>
		<circle id="connector12003pin" class="st1" cx="37.2" cy="102.6" r="2"/>
		<circle id="connector12004pin" class="st1" cx="44.4" cy="102.6" r="2"/>
		<circle id="connector12005pin" class="st1" cx="51.6" cy="102.6" r="2"/>
		<circle id="connector12006pin" class="st1" cx="58.8" cy="102.6" r="2"/>
		<circle id="connector12007pin" class="st1" cx="66" cy="102.6" r="2"/>
		<circle id="connector12008pin" class="st1" cx="73.2" cy="102.6" r="2"/>
		<circle id="connector12009pin" class="st1" cx="80.4" cy="102.6" r="2"/>
		<circle id="connector12010pin" class="st1" cx="87.6" cy="102.6" r="2"/>
		<circle id="connector12011pin" class="st1" cx="94.8" cy="102.6" r="2"/>
		<circle id="connector12012pin" class="st1" cx="102" cy="102.6" r="2"/>
		<circle id="connector12013pin" class="st1" cx="109.2" cy="102.6" r="2"/>
		<circle id="connector12014pin" class="st1" cx="116.4" cy="102.6" r="2"/>
		<circle id="connector12015pin" class="st1" cx="123.6" cy="102.6" r="2"/>
		<circle id="connector12016pin" class="st1" cx="130.8" cy="102.6" r="2"/>
		<circle id="connector12017pin" class="st1" cx="138" cy="102.6" r="2"/>
		<circle id="connector12018pin" class="st1" cx="145.2" cy="102.6" r="2"/>
		<circle id="connector12019pin" class="st1" cx="152.4" cy="102.6" r="2"/>
		<circle id="connector12020pin" class="st1" cx="159.6" cy="102.6" r="2"/>
		<circle id="connector12021pin" class="st1" cx="166.8" cy="102.6" r="2"/>
		<circle id="connector12022pin" class="st1" cx="174" cy="102.6" r="2"/>
		<circle id="connector12023pin" class="st1" cx="181.2" cy="102.6" r="2"/>
		<circle id="connector12024pin" class="st1" cx="188.4" cy="102.6" r="2"/>
		<circle id="connector13000pin" class="st1" cx="15.6" cy="109.8" r="2"/>
		<circle id="connector13001pin" class="st1" cx="22.8" cy="109.8" r="2"/>
		<circle id="connector13002pin" class="st1" cx="30" cy="109.8" r="2"/>
		<circle id="connector13003pin" class="st1" cx="37.2" cy="109.8" r="2"/>
		<circle id="connector13004pin" class="st1" cx="44.4" cy="109.8" r="2"/>
		<circle id="connector13005pin" class="st1" cx="51.6" cy="109.8" r="2"/>
		<circle id="connector13006pin" class="st1" cx="58.8" cy="109.8" r="2"/>
		<circle id="connector13007pin" class="st1" cx="66" cy="109.8" r="2"/>
		<circle id="connector13008pin" class="st1" cx="73.2" cy="109.8" r="2"/>
		<circle id="connector13009pin" class="st1" cx="80.4" cy="109.8" r="2"/>
		<circle id="connector13010pin" class="st1" cx="87.6" cy="109.8" r="2"/>
		<circle id="connector13011pin" class="st1" cx="94.8" cy="109.8" r="2"/>
		<circle id="connector13012pin" class="st1" cx="102" cy="109.8" r="2"/>
		<circle id="connector13013pin" class="st1" cx="109.2" cy="109.8" r="2"/>
		<circle id="connector13014pin" class="st1" cx="116.4" cy="109.8" r="2"/>
		<circle id="connector13015pin" class="st1" cx="123.6" cy="109.8" r="2"/>
		<circle id="connector13016pin" class="st1" cx="130.8" cy="109.8" r="2"/>
		<circle id="connector13017pin" class="st1" cx="138" cy="109.8" r="2"/>
		<circle id="connector13018pin" class="st1" cx="145.2" cy="109.8" r="2"/>
		<circle id="connector13019pin" class="st1" cx="152.4" cy="109.8" r="2"/>
		<circle id="connector13020pin" class="st1" cx="159.6" cy="109.8" r="2"/>
		<circle id="connector13021pin" class="st1" cx="166.8" cy="109.8" r="2"/>
		<circle id="connector13022pin" class="st1" cx="174" cy="109.8" r="2"/>
		<circle id="connector13023pin" class="st1" cx="181.2" cy="109.8" r="2"/>
		<circle id="connector13024pin" class="st1" cx="188.4" cy="109.8" r="2"/>
		<circle id="connector14000pin" class="st1" cx="15.6" cy="117" r="2"/>
		<circle id="connector14001pin" class="st1" cx="22.8" cy="117" r="2"/>
		<circle id="connector14002pin" class="st1" cx="30" cy="117" r="2"/>
		<circle id="connector14003pin" class="st1" cx="37.2" cy="117" r="2"/>
		<circle id="connector14004pin" class="st1" cx="44.4" cy="117" r="2"/>
		<circle id="connector14005pin" class="st1" cx="51.6" cy="117" r="2"/>
		<circle id="connector14006pin" class="st1" cx="58.8" cy="117" r="2"/>
		<circle id="connector14007pin" class="st1" cx="66" cy="117" r="2"/>
		<circle id="connector14008pin" class="st1" cx="73.2" cy="117" r="2"/>
		<circle id="connector14009pin" class="st1" cx="80.4" cy="117" r="2"/>
		<circle id="connector14010pin" class="st1" cx="87.6" cy="117" r="2"/>
		<circle id="connector14011pin" class="st1" cx="94.8" cy="117" r="2"/>
		<circle id="connector14012pin" class="st1" cx="102" cy="117" r="2"/>
		<circle id="connector14013pin" class="st1" cx="109.2" cy="117" r="2"/>
		<circle id="connector14014pin" class="st1" cx="116.4" cy="117" r="2"/>
		<circle id="connector14015pin" class="st1" cx="123.6" cy="117" r="2"/>
		<circle id="connector14016pin" class="st1" cx="130.8" cy="117" r="2"/>
		<circle id="connector14017pin" class="st1" cx="138" cy="117" r="2"/>
		<circle id="connector14018pin" class="st1" cx="145.2" cy="117" r="2"/>
		<circle id="connector14019pin" class="st1" cx="152.4" cy="117" r="2"/>
		<circle id="connector14020pin" class="st1" cx="159.6" cy="117" r="2"/>
		<circle id="connector14021pin" class="st1" cx="166.8" cy="117" r="2"/>
		<circle id="connector14022pin" class="st1" cx="174" cy="117" r="2"/>
		<circle id="connector14023pin" class="st1" cx="181.2" cy="117" r="2"/>
		<circle id="connector14024pin" class="st1" cx="188.4" cy="117" r="2"/>
	</g>
</g>
<g>
	<g>
		<polyline class="st2" points="188.6,116.2 188.6,117.2 187.6,117.2 		"/>
		<line class="st3" x1="185.6" y1="117.2" x2="17.7" y2="117.2"/>
		<polyline class="st2" points="16.6,117.2 15.6,117.2 15.6,116.2 		"/>
		<line class="st4" x1="15.6" y1="114.2" x2="15.6" y2="17.9"/>
		<polyline class="st2" points="15.6,16.9 15.6,15.9 16.6,15.9 		"/>
		<line class="st3" x1="18.7" y1="15.9" x2="186.6" y2="15.9"/>
		<polyline class="st2" points="187.6,15.9 188.6,15.9 188.6,16.9 		"/>
		<line class="st4" x1="188.6" y1="19" x2="188.6" y2="115.2"/>
	</g>
</g>
<line class="st5" x1="15.6" y1="44.6" x2="188.4" y2="44.6"/>
<line class="st5" x1="15.6" y1="80.6" x2="188.4" y2="80.6"/>
<line class="st5" x1="51.6" y1="15.9" x2="51.6" y2="117.2"/>
<line class="st5" x1="87.6" y1="15.9" x2="87.6" y2="117.2"/>
<line class="st5" x1="159.6" y1="15.9" x2="159.6" y2="117.2"/>
<line class="st5" x1="123.6" y1="15.9" x2="123.6" y2="117.2"/>
</svg>
