<?xml version="1.0" encoding="utf-8"?>
<!-- Generator: Adobe Illustrator 23.0.3, SVG Export Plug-In . SVG Version: 6.00 Build 0)  -->
<svg version="1.1" id="Layer_1" xmlns:svg="http://www.w3.org/2000/svg"
	 xmlns="http://www.w3.org/2000/svg" xmlns:xlink="http://www.w3.org/1999/xlink" x="0px" y="0px" viewBox="0 0 127.6 127.6"
	 style="enable-background:new 0 0 127.6 127.6;" xml:space="preserve">
<style type="text/css">
	.st0{fill:#DEB675;}
	.st1{fill:#FFFFFF;stroke:#DEB675;stroke-width:0.75;}
</style>
<g>
	<path class="st0" d="M0,0v127.6h127.6V0H0z M14.2,118.3c-2.7,0-5-2.2-5-5s2.2-5,5-5s5,2.2,5,5S16.9,118.3,14.2,118.3z M14.2,19.1
		c-2.7,0-5-2.2-5-5s2.2-5,5-5s5,2.2,5,5S16.9,19.1,14.2,19.1z M113.4,118.3c-2.7,0-5-2.2-5-5s2.2-5,5-5c2.7,0,5,2.2,5,5
		S116.1,118.3,113.4,118.3z M113.4,19.1c-2.7,0-5-2.2-5-5s2.2-5,5-5c2.7,0,5,2.2,5,5S116.1,19.1,113.4,19.1z"/>
	<g>
		<circle id="connector12pin" class="st1" cx="27.8" cy="13.4" r="2"/>
		<circle id="connector13pin" class="st1" cx="35" cy="13.4" r="2"/>
		<circle id="connector14pin" class="st1" cx="42.2" cy="13.4" r="2"/>
		<circle id="connector15pin" class="st1" cx="49.4" cy="13.4" r="2"/>
		<circle id="connector16pin" class="st1" cx="56.6" cy="13.4" r="2"/>
		<circle id="connector17pin" class="st1" cx="63.8" cy="13.4" r="2"/>
		<circle id="connector18pin" class="st1" cx="71" cy="13.4" r="2"/>
		<circle id="connector19pin" class="st1" cx="78.2" cy="13.4" r="2"/>
		<circle id="connector20pin" class="st1" cx="85.4" cy="13.4" r="2"/>
		<circle id="connector21pin" class="st1" cx="92.6" cy="13.4" r="2"/>
		<circle id="connector22pin" class="st1" cx="99.8" cy="13.4" r="2"/>
		<circle id="connector1011pin" class="st1" cx="20.6" cy="20.6" r="2"/>
		<circle id="connector1012pin" class="st1" cx="27.8" cy="20.6" r="2"/>
		<circle id="connector1013pin" class="st1" cx="35" cy="20.6" r="2"/>
		<circle id="connector1014pin" class="st1" cx="42.2" cy="20.6" r="2"/>
		<circle id="connector1015pin" class="st1" cx="49.4" cy="20.6" r="2"/>
		<circle id="connector1016pin" class="st1" cx="56.6" cy="20.6" r="2"/>
		<circle id="connector1017pin" class="st1" cx="63.8" cy="20.6" r="2"/>
		<circle id="connector1018pin" class="st1" cx="71" cy="20.6" r="2"/>
		<circle id="connector1019pin" class="st1" cx="78.2" cy="20.6" r="2"/>
		<circle id="connector1020pin" class="st1" cx="85.4" cy="20.6" r="2"/>
		<circle id="connector1021pin" class="st1" cx="92.6" cy="20.6" r="2"/>
		<circle id="connector1022pin" class="st1" cx="99.8" cy="20.6" r="2"/>
		<circle id="connector2010pin" class="st1" cx="13.4" cy="27.8" r="2"/>
		<circle id="connector2011pin" class="st1" cx="20.6" cy="27.8" r="2"/>
		<circle id="connector2012pin" class="st1" cx="27.8" cy="27.8" r="2"/>
		<circle id="connector2013pin" class="st1" cx="35" cy="27.8" r="2"/>
		<circle id="connector2014pin" class="st1" cx="42.2" cy="27.8" r="2"/>
		<circle id="connector2015pin" class="st1" cx="49.4" cy="27.8" r="2"/>
		<circle id="connector2016pin" class="st1" cx="56.6" cy="27.8" r="2"/>
		<circle id="connector2017pin" class="st1" cx="63.8" cy="27.8" r="2"/>
		<circle id="connector2018pin" class="st1" cx="71" cy="27.8" r="2"/>
		<circle id="connector2019pin" class="st1" cx="78.2" cy="27.8" r="2"/>
		<circle id="connector2020pin" class="st1" cx="85.4" cy="27.8" r="2"/>
		<circle id="connector2021pin" class="st1" cx="92.6" cy="27.8" r="2"/>
		<circle id="connector2022pin" class="st1" cx="99.8" cy="27.8" r="2"/>
		<circle id="connector3010pin" class="st1" cx="13.4" cy="35" r="2"/>
		<circle id="connector3011pin" class="st1" cx="20.6" cy="35" r="2"/>
		<circle id="connector3012pin" class="st1" cx="27.8" cy="35" r="2"/>
		<circle id="connector3013pin" class="st1" cx="35" cy="35" r="2"/>
		<circle id="connector3014pin" class="st1" cx="42.2" cy="35" r="2"/>
		<circle id="connector3015pin" class="st1" cx="49.4" cy="35" r="2"/>
		<circle id="connector3016pin" class="st1" cx="56.6" cy="35" r="2"/>
		<circle id="connector3017pin" class="st1" cx="63.8" cy="35" r="2"/>
		<circle id="connector3018pin" class="st1" cx="71" cy="35" r="2"/>
		<circle id="connector3019pin" class="st1" cx="78.2" cy="35" r="2"/>
		<circle id="connector3020pin" class="st1" cx="85.4" cy="35" r="2"/>
		<circle id="connector3021pin" class="st1" cx="92.6" cy="35" r="2"/>
		<circle id="connector3022pin" class="st1" cx="99.8" cy="35" r="2"/>
		<circle id="connector4010pin" class="st1" cx="13.4" cy="42.2" r="2"/>
		<circle id="connector4011pin" class="st1" cx="20.6" cy="42.2" r="2"/>
		<circle id="connector4012pin" class="st1" cx="27.8" cy="42.2" r="2"/>
		<circle id="connector4013pin" class="st1" cx="35" cy="42.2" r="2"/>
		<circle id="connector4014pin" class="st1" cx="42.2" cy="42.2" r="2"/>
		<circle id="connector4015pin" class="st1" cx="49.4" cy="42.2" r="2"/>
		<circle id="connector4016pin" class="st1" cx="56.6" cy="42.2" r="2"/>
		<circle id="connector4017pin" class="st1" cx="63.8" cy="42.2" r="2"/>
		<circle id="connector4018pin" class="st1" cx="71" cy="42.2" r="2"/>
		<circle id="connector4019pin" class="st1" cx="78.2" cy="42.2" r="2"/>
		<circle id="connector4020pin" class="st1" cx="85.4" cy="42.2" r="2"/>
		<circle id="connector4021pin" class="st1" cx="92.6" cy="42.2" r="2"/>
		<circle id="connector4022pin" class="st1" cx="99.8" cy="42.2" r="2"/>
		<circle id="connector5010pin" class="st1" cx="13.4" cy="49.4" r="2"/>
		<circle id="connector5011pin" class="st1" cx="20.6" cy="49.4" r="2"/>
		<circle id="connector5012pin" class="st1" cx="27.8" cy="49.4" r="2"/>
		<circle id="connector5013pin" class="st1" cx="35" cy="49.4" r="2"/>
		<circle id="connector5014pin" class="st1" cx="42.2" cy="49.4" r="2"/>
		<circle id="connector5015pin" class="st1" cx="49.4" cy="49.4" r="2"/>
		<circle id="connector5016pin" class="st1" cx="56.6" cy="49.4" r="2"/>
		<circle id="connector5017pin" class="st1" cx="63.8" cy="49.4" r="2"/>
		<circle id="connector5018pin" class="st1" cx="71" cy="49.4" r="2"/>
		<circle id="connector5019pin" class="st1" cx="78.2" cy="49.4" r="2"/>
		<circle id="connector5020pin" class="st1" cx="85.4" cy="49.4" r="2"/>
		<circle id="connector5021pin" class="st1" cx="92.6" cy="49.4" r="2"/>
		<circle id="connector5022pin" class="st1" cx="99.8" cy="49.4" r="2"/>
		<circle id="connector6010pin" class="st1" cx="13.4" cy="56.6" r="2"/>
		<circle id="connector6011pin" class="st1" cx="20.6" cy="56.6" r="2"/>
		<circle id="connector6012pin" class="st1" cx="27.8" cy="56.6" r="2"/>
		<circle id="connector6013pin" class="st1" cx="35" cy="56.6" r="2"/>
		<circle id="connector6014pin" class="st1" cx="42.2" cy="56.6" r="2"/>
		<circle id="connector6015pin" class="st1" cx="49.4" cy="56.6" r="2"/>
		<circle id="connector6016pin" class="st1" cx="56.6" cy="56.6" r="2"/>
		<circle id="connector6017pin" class="st1" cx="63.8" cy="56.6" r="2"/>
		<circle id="connector6018pin" class="st1" cx="71" cy="56.6" r="2"/>
		<circle id="connector6019pin" class="st1" cx="78.2" cy="56.6" r="2"/>
		<circle id="connector6020pin" class="st1" cx="85.4" cy="56.6" r="2"/>
		<circle id="connector6021pin" class="st1" cx="92.6" cy="56.6" r="2"/>
		<circle id="connector6022pin" class="st1" cx="99.8" cy="56.6" r="2"/>
		<circle id="connector7010pin" class="st1" cx="13.4" cy="63.8" r="2"/>
		<circle id="connector7011pin" class="st1" cx="20.6" cy="63.8" r="2"/>
		<circle id="connector7012pin" class="st1" cx="27.8" cy="63.8" r="2"/>
		<circle id="connector7013pin" class="st1" cx="35" cy="63.8" r="2"/>
		<circle id="connector7014pin" class="st1" cx="42.2" cy="63.8" r="2"/>
		<circle id="connector7015pin" class="st1" cx="49.4" cy="63.8" r="2"/>
		<circle id="connector7016pin" class="st1" cx="56.6" cy="63.8" r="2"/>
		<circle id="connector7017pin" class="st1" cx="63.8" cy="63.8" r="2"/>
		<circle id="connector7018pin" class="st1" cx="71" cy="63.8" r="2"/>
		<circle id="connector7019pin" class="st1" cx="78.2" cy="63.8" r="2"/>
		<circle id="connector7020pin" class="st1" cx="85.4" cy="63.8" r="2"/>
		<circle id="connector7021pin" class="st1" cx="92.6" cy="63.8" r="2"/>
		<circle id="connector7022pin" class="st1" cx="99.8" cy="63.8" r="2"/>
		<circle id="connector8010pin" class="st1" cx="13.4" cy="71" r="2"/>
		<circle id="connector8011pin" class="st1" cx="20.6" cy="71" r="2"/>
		<circle id="connector8012pin" class="st1" cx="27.8" cy="71" r="2"/>
		<circle id="connector8013pin" class="st1" cx="35" cy="71" r="2"/>
		<circle id="connector8014pin" class="st1" cx="42.2" cy="71" r="2"/>
		<circle id="connector8015pin" class="st1" cx="49.4" cy="71" r="2"/>
		<circle id="connector8016pin" class="st1" cx="56.6" cy="71" r="2"/>
		<circle id="connector8017pin" class="st1" cx="63.8" cy="71" r="2"/>
		<circle id="connector8018pin" class="st1" cx="71" cy="71" r="2"/>
		<circle id="connector8019pin" class="st1" cx="78.2" cy="71" r="2"/>
		<circle id="connector8020pin" class="st1" cx="85.4" cy="71" r="2"/>
		<circle id="connector8021pin" class="st1" cx="92.6" cy="71" r="2"/>
		<circle id="connector8022pin" class="st1" cx="99.8" cy="71" r="2"/>
		<circle id="connector9010pin" class="st1" cx="13.4" cy="78.2" r="2"/>
		<circle id="connector9011pin" class="st1" cx="20.6" cy="78.2" r="2"/>
		<circle id="connector9012pin" class="st1" cx="27.8" cy="78.2" r="2"/>
		<circle id="connector9013pin" class="st1" cx="35" cy="78.2" r="2"/>
		<circle id="connector9014pin" class="st1" cx="42.2" cy="78.2" r="2"/>
		<circle id="connector9015pin" class="st1" cx="49.4" cy="78.2" r="2"/>
		<circle id="connector9016pin" class="st1" cx="56.6" cy="78.2" r="2"/>
		<circle id="connector9017pin" class="st1" cx="63.8" cy="78.2" r="2"/>
		<circle id="connector9018pin" class="st1" cx="71" cy="78.2" r="2"/>
		<circle id="connector9019pin" class="st1" cx="78.2" cy="78.2" r="2"/>
		<circle id="connector9020pin" class="st1" cx="85.4" cy="78.2" r="2"/>
		<circle id="connector9021pin" class="st1" cx="92.6" cy="78.2" r="2"/>
		<circle id="connector9022pin" class="st1" cx="99.8" cy="78.2" r="2"/>
		<circle id="connector10010pin" class="st1" cx="13.4" cy="85.4" r="2"/>
		<circle id="connector10011pin" class="st1" cx="20.6" cy="85.4" r="2"/>
		<circle id="connector10012pin" class="st1" cx="27.8" cy="85.4" r="2"/>
		<circle id="connector10013pin" class="st1" cx="35" cy="85.4" r="2"/>
		<circle id="connector10014pin" class="st1" cx="42.2" cy="85.4" r="2"/>
		<circle id="connector10015pin" class="st1" cx="49.4" cy="85.4" r="2"/>
		<circle id="connector10016pin" class="st1" cx="56.6" cy="85.4" r="2"/>
		<circle id="connector10017pin" class="st1" cx="63.8" cy="85.4" r="2"/>
		<circle id="connector10018pin" class="st1" cx="71" cy="85.4" r="2"/>
		<circle id="connector10019pin" class="st1" cx="78.2" cy="85.4" r="2"/>
		<circle id="connector10020pin" class="st1" cx="85.4" cy="85.4" r="2"/>
		<circle id="connector10021pin" class="st1" cx="92.6" cy="85.4" r="2"/>
		<circle id="connector10022pin" class="st1" cx="99.8" cy="85.4" r="2"/>
		<circle id="connector11010pin" class="st1" cx="13.4" cy="92.6" r="2"/>
		<circle id="connector11011pin" class="st1" cx="20.6" cy="92.6" r="2"/>
		<circle id="connector11012pin" class="st1" cx="27.8" cy="92.6" r="2"/>
		<circle id="connector11013pin" class="st1" cx="35" cy="92.6" r="2"/>
		<circle id="connector11014pin" class="st1" cx="42.2" cy="92.6" r="2"/>
		<circle id="connector11015pin" class="st1" cx="49.4" cy="92.6" r="2"/>
		<circle id="connector11016pin" class="st1" cx="56.6" cy="92.6" r="2"/>
		<circle id="connector11017pin" class="st1" cx="63.8" cy="92.6" r="2"/>
		<circle id="connector11018pin" class="st1" cx="71" cy="92.6" r="2"/>
		<circle id="connector11019pin" class="st1" cx="78.2" cy="92.6" r="2"/>
		<circle id="connector11020pin" class="st1" cx="85.4" cy="92.6" r="2"/>
		<circle id="connector11021pin" class="st1" cx="92.6" cy="92.6" r="2"/>
		<circle id="connector11022pin" class="st1" cx="99.8" cy="92.6" r="2"/>
		<circle id="connector12010pin" class="st1" cx="13.4" cy="99.8" r="2"/>
		<circle id="connector12011pin" class="st1" cx="20.6" cy="99.8" r="2"/>
		<circle id="connector12012pin" class="st1" cx="27.8" cy="99.8" r="2"/>
		<circle id="connector12013pin" class="st1" cx="35" cy="99.8" r="2"/>
		<circle id="connector12014pin" class="st1" cx="42.2" cy="99.8" r="2"/>
		<circle id="connector12015pin" class="st1" cx="49.4" cy="99.8" r="2"/>
		<circle id="connector12016pin" class="st1" cx="56.6" cy="99.8" r="2"/>
		<circle id="connector12017pin" class="st1" cx="63.8" cy="99.8" r="2"/>
		<circle id="connector12018pin" class="st1" cx="71" cy="99.8" r="2"/>
		<circle id="connector12019pin" class="st1" cx="78.2" cy="99.8" r="2"/>
		<circle id="connector12020pin" class="st1" cx="85.4" cy="99.8" r="2"/>
		<circle id="connector12021pin" class="st1" cx="92.6" cy="99.8" r="2"/>
		<circle id="connector12022pin" class="st1" cx="99.8" cy="99.8" r="2"/>
		<circle id="connector13011pin" class="st1" cx="20.6" cy="107" r="2"/>
		<circle id="connector13012pin" class="st1" cx="27.8" cy="107" r="2"/>
		<circle id="connector13013pin" class="st1" cx="35" cy="107" r="2"/>
		<circle id="connector13014pin" class="st1" cx="42.2" cy="107" r="2"/>
		<circle id="connector13015pin" class="st1" cx="49.4" cy="107" r="2"/>
		<circle id="connector13016pin" class="st1" cx="56.6" cy="107" r="2"/>
		<circle id="connector13017pin" class="st1" cx="63.8" cy="107" r="2"/>
		<circle id="connector13018pin" class="st1" cx="71" cy="107" r="2"/>
		<circle id="connector13019pin" class="st1" cx="78.2" cy="107" r="2"/>
		<circle id="connector13020pin" class="st1" cx="85.4" cy="107" r="2"/>
		<circle id="connector13021pin" class="st1" cx="92.6" cy="107" r="2"/>
		<circle id="connector13022pin" class="st1" cx="99.8" cy="107" r="2"/>
		<circle id="connector14012pin" class="st1" cx="27.8" cy="114.2" r="2"/>
		<circle id="connector14013pin" class="st1" cx="35" cy="114.2" r="2"/>
		<circle id="connector14014pin" class="st1" cx="42.2" cy="114.2" r="2"/>
		<circle id="connector14015pin" class="st1" cx="49.4" cy="114.2" r="2"/>
		<circle id="connector14016pin" class="st1" cx="56.6" cy="114.2" r="2"/>
		<circle id="connector14017pin" class="st1" cx="63.8" cy="114.2" r="2"/>
		<circle id="connector14018pin" class="st1" cx="71" cy="114.2" r="2"/>
		<circle id="connector14019pin" class="st1" cx="78.2" cy="114.2" r="2"/>
		<circle id="connector14020pin" class="st1" cx="85.4" cy="114.2" r="2"/>
		<circle id="connector14021pin" class="st1" cx="92.6" cy="114.2" r="2"/>
		<circle id="connector14022pin" class="st1" cx="99.8" cy="114.2" r="2"/>
		<circle id="connector1022pin_1_" class="st1" cx="107" cy="20.6" r="2"/>
		<circle id="connector2022pin_1_" class="st1" cx="107" cy="27.8" r="2"/>
		<circle id="connector3022pin_1_" class="st1" cx="107" cy="35" r="2"/>
		<circle id="connector4022pin_1_" class="st1" cx="107" cy="42.2" r="2"/>
		<circle id="connector5022pin_1_" class="st1" cx="107" cy="49.4" r="2"/>
		<circle id="connector6022pin_1_" class="st1" cx="107" cy="56.6" r="2"/>
		<circle id="connector7022pin_1_" class="st1" cx="107" cy="63.8" r="2"/>
		<circle id="connector8022pin_1_" class="st1" cx="107" cy="71" r="2"/>
		<circle id="connector9022pin_1_" class="st1" cx="107" cy="78.2" r="2"/>
		<circle id="connector10022pin_1_" class="st1" cx="107" cy="85.4" r="2"/>
		<circle id="connector11022pin_1_" class="st1" cx="107" cy="92.6" r="2"/>
		<circle id="connector12022pin_1_" class="st1" cx="107" cy="99.8" r="2"/>
		<circle id="connector13022pin_1_" class="st1" cx="107" cy="107" r="2"/>
		<circle id="connector2022pin_2_" class="st1" cx="114.2" cy="27.8" r="2"/>
		<circle id="connector3022pin_2_" class="st1" cx="114.2" cy="35" r="2"/>
		<circle id="connector4022pin_2_" class="st1" cx="114.2" cy="42.2" r="2"/>
		<circle id="connector5022pin_2_" class="st1" cx="114.2" cy="49.4" r="2"/>
		<circle id="connector6022pin_2_" class="st1" cx="114.2" cy="56.6" r="2"/>
		<circle id="connector7022pin_2_" class="st1" cx="114.2" cy="63.8" r="2"/>
		<circle id="connector8022pin_2_" class="st1" cx="114.2" cy="71" r="2"/>
		<circle id="connector9022pin_2_" class="st1" cx="114.2" cy="78.2" r="2"/>
		<circle id="connector10022pin_2_" class="st1" cx="114.2" cy="85.4" r="2"/>
		<circle id="connector11022pin_2_" class="st1" cx="114.2" cy="92.6" r="2"/>
		<circle id="connector12022pin_2_" class="st1" cx="114.2" cy="99.8" r="2"/>
	</g>
</g>
</svg>
