<?xml version="1.0" encoding="utf-8"?>
<!-- Generator: Adobe Illustrator 23.0.1, SVG Export Plug-In . SVG Version: 6.00 Build 0)  -->
<svg version="1.1" id="Layer_1" xmlns:svg="http://www.w3.org/2000/svg"
	 xmlns="http://www.w3.org/2000/svg" xmlns:xlink="http://www.w3.org/1999/xlink" x="0px" y="0px" viewBox="0 0 79.2 86.4"
	 style="enable-background:new 0 0 79.2 86.4;" xml:space="preserve">
<style type="text/css">
	.st0{fill:#DEB675;}
	.st1{fill:none;stroke:#DEB675;stroke-width:0.576;}
	.st2{fill:none;stroke:#C49C59;stroke-width:1.44;}
</style>
<g>
	<g transform="translate(320.52,197.794)">
		<g>
			<path id="boardoutline_1_" class="st0" d="M-320.5-197.8h79.2v86.4h-79.2V-197.8z M-314.6-190.6c0,0.7,0.6,1.3,1.3,1.3
				c0.7,0,1.3-0.6,1.3-1.3c0,0,0,0,0,0c0-0.7-0.6-1.3-1.3-1.3C-314-191.9-314.6-191.3-314.6-190.6
				C-314.6-190.6-314.6-190.6-314.6-190.6z M-307.4-190.6c0,0.7,0.6,1.3,1.3,1.3c0.7,0,1.3-0.6,1.3-1.3c0,0,0,0,0,0
				c0-0.7-0.6-1.3-1.3-1.3C-306.8-191.9-307.4-191.3-307.4-190.6z M-300.2-190.6c0,0.7,0.6,1.3,1.3,1.3c0.7,0,1.3-0.6,1.3-1.3
				s-0.6-1.3-1.3-1.3C-299.6-191.9-300.2-191.3-300.2-190.6z M-293-190.6c0,0.7,0.6,1.3,1.3,1.3c0.7,0,1.3-0.6,1.3-1.3
				s-0.6-1.3-1.3-1.3C-292.4-191.9-293-191.3-293-190.6z M-285.8-190.6c0,0.7,0.6,1.3,1.3,1.3c0.7,0,1.3-0.6,1.3-1.3
				s-0.6-1.3-1.3-1.3C-285.2-191.9-285.8-191.3-285.8-190.6z M-278.6-190.6c0,0.7,0.6,1.3,1.3,1.3c0.7,0,1.3-0.6,1.3-1.3
				s-0.6-1.3-1.3-1.3C-278-191.9-278.6-191.3-278.6-190.6z M-271.4-190.6c0,0.7,0.6,1.3,1.3,1.3c0.7,0,1.3-0.6,1.3-1.3
				s-0.6-1.3-1.3-1.3C-270.8-191.9-271.4-191.3-271.4-190.6z M-264.2-190.6c0,0.7,0.6,1.3,1.3,1.3c0.7,0,1.3-0.6,1.3-1.3
				s-0.6-1.3-1.3-1.3C-263.6-191.9-264.2-191.3-264.2-190.6z M-257-190.6c0,0.7,0.6,1.3,1.3,1.3c0.7,0,1.3-0.6,1.3-1.3c0,0,0,0,0,0
				c0-0.7-0.6-1.3-1.3-1.3S-257-191.3-257-190.6z M-249.8-190.6c0,0.7,0.6,1.3,1.3,1.3c0.7,0,1.3-0.6,1.3-1.3c0,0,0,0,0,0
				c0-0.7-0.6-1.3-1.3-1.3C-249.2-191.9-249.8-191.3-249.8-190.6C-249.8-190.6-249.8-190.6-249.8-190.6z M-314.6-183.4
				c0,0.7,0.6,1.3,1.3,1.3c0.7,0,1.3-0.6,1.3-1.3c0,0,0,0,0,0c0-0.7-0.6-1.3-1.3-1.3C-314-184.7-314.6-184.1-314.6-183.4
				C-314.6-183.4-314.6-183.4-314.6-183.4z M-307.4-183.4c0,0.7,0.6,1.3,1.3,1.3c0.7,0,1.3-0.6,1.3-1.3c0,0,0,0,0,0
				c0-0.7-0.6-1.3-1.3-1.3C-306.8-184.7-307.4-184.1-307.4-183.4z M-300.2-183.4c0,0.7,0.6,1.3,1.3,1.3c0.7,0,1.3-0.6,1.3-1.3
				c0-0.7-0.6-1.3-1.3-1.3C-299.6-184.7-300.2-184.1-300.2-183.4z M-293-183.4c0,0.7,0.6,1.3,1.3,1.3c0.7,0,1.3-0.6,1.3-1.3
				c0-0.7-0.6-1.3-1.3-1.3C-292.4-184.7-293-184.1-293-183.4z M-285.8-183.4c0,0.7,0.6,1.3,1.3,1.3c0.7,0,1.3-0.6,1.3-1.3
				c0-0.7-0.6-1.3-1.3-1.3C-285.2-184.7-285.8-184.1-285.8-183.4z M-278.6-183.4c0,0.7,0.6,1.3,1.3,1.3c0.7,0,1.3-0.6,1.3-1.3
				c0-0.7-0.6-1.3-1.3-1.3C-278-184.7-278.6-184.1-278.6-183.4z M-271.4-183.4c0,0.7,0.6,1.3,1.3,1.3c0.7,0,1.3-0.6,1.3-1.3
				c0-0.7-0.6-1.3-1.3-1.3C-270.8-184.7-271.4-184.1-271.4-183.4z M-264.2-183.4c0,0.7,0.6,1.3,1.3,1.3c0.7,0,1.3-0.6,1.3-1.3
				c0-0.7-0.6-1.3-1.3-1.3C-263.6-184.7-264.2-184.1-264.2-183.4z M-257-183.4c0,0.7,0.6,1.3,1.3,1.3c0.7,0,1.3-0.6,1.3-1.3
				c0,0,0,0,0,0c0-0.7-0.6-1.3-1.3-1.3S-257-184.1-257-183.4z M-249.8-183.4c0,0.7,0.6,1.3,1.3,1.3c0.7,0,1.3-0.6,1.3-1.3
				c0,0,0,0,0,0c0-0.7-0.6-1.3-1.3-1.3C-249.2-184.7-249.8-184.1-249.8-183.4C-249.8-183.4-249.8-183.4-249.8-183.4z M-314.6-176.2
				c0,0.7,0.6,1.3,1.3,1.3c0.7,0,1.3-0.6,1.3-1.3c0,0,0,0,0,0c0-0.7-0.6-1.3-1.3-1.3C-314-177.5-314.6-176.9-314.6-176.2
				C-314.6-176.2-314.6-176.2-314.6-176.2z M-307.4-176.2c0,0.7,0.6,1.3,1.3,1.3c0.7,0,1.3-0.6,1.3-1.3c0,0,0,0,0,0
				c0-0.7-0.6-1.3-1.3-1.3C-306.8-177.5-307.4-176.9-307.4-176.2C-307.4-176.2-307.4-176.2-307.4-176.2z M-300.2-176.2
				c0,0.7,0.6,1.3,1.3,1.3c0.7,0,1.3-0.6,1.3-1.3s-0.6-1.3-1.3-1.3C-299.6-177.5-300.2-176.9-300.2-176.2L-300.2-176.2z M-293-176.2
				c0,0.7,0.6,1.3,1.3,1.3c0.7,0,1.3-0.6,1.3-1.3s-0.6-1.3-1.3-1.3C-292.4-177.5-293-176.9-293-176.2L-293-176.2z M-285.8-176.2
				c0,0.7,0.6,1.3,1.3,1.3c0.7,0,1.3-0.6,1.3-1.3s-0.6-1.3-1.3-1.3C-285.2-177.5-285.8-176.9-285.8-176.2L-285.8-176.2z
				 M-278.6-176.2c0,0.7,0.6,1.3,1.3,1.3c0.7,0,1.3-0.6,1.3-1.3s-0.6-1.3-1.3-1.3C-278-177.5-278.6-176.9-278.6-176.2L-278.6-176.2z
				 M-271.4-176.2c0,0.7,0.6,1.3,1.3,1.3c0.7,0,1.3-0.6,1.3-1.3s-0.6-1.3-1.3-1.3C-270.8-177.5-271.4-176.9-271.4-176.2
				L-271.4-176.2z M-264.2-176.2c0,0.7,0.6,1.3,1.3,1.3c0.7,0,1.3-0.6,1.3-1.3s-0.6-1.3-1.3-1.3
				C-263.6-177.5-264.2-176.9-264.2-176.2L-264.2-176.2z M-257-176.2c0,0.7,0.6,1.3,1.3,1.3c0.7,0,1.3-0.6,1.3-1.3c0,0,0,0,0,0
				c0-0.7-0.6-1.3-1.3-1.3S-257-176.9-257-176.2C-257-176.2-257-176.2-257-176.2z M-249.8-176.2c0,0.7,0.6,1.3,1.3,1.3
				c0.7,0,1.3-0.6,1.3-1.3c0,0,0,0,0,0c0-0.7-0.6-1.3-1.3-1.3C-249.2-177.5-249.8-176.9-249.8-176.2
				C-249.8-176.2-249.8-176.2-249.8-176.2z M-314.6-169c0,0.7,0.6,1.3,1.3,1.3c0.7,0,1.3-0.6,1.3-1.3c0,0,0,0,0,0
				c0-0.7-0.6-1.3-1.3-1.3C-314-170.3-314.6-169.7-314.6-169C-314.6-169-314.6-169-314.6-169z M-307.4-169c0,0.7,0.6,1.3,1.3,1.3
				c0.7,0,1.3-0.6,1.3-1.3c0,0,0,0,0,0c0-0.7-0.6-1.3-1.3-1.3C-306.8-170.3-307.4-169.7-307.4-169z M-300.2-169
				c0,0.7,0.6,1.3,1.3,1.3c0.7,0,1.3-0.6,1.3-1.3s-0.6-1.3-1.3-1.3C-299.6-170.3-300.2-169.7-300.2-169z M-293-169
				c0,0.7,0.6,1.3,1.3,1.3c0.7,0,1.3-0.6,1.3-1.3s-0.6-1.3-1.3-1.3C-292.4-170.3-293-169.7-293-169z M-285.8-169
				c0,0.7,0.6,1.3,1.3,1.3c0.7,0,1.3-0.6,1.3-1.3s-0.6-1.3-1.3-1.3C-285.2-170.3-285.8-169.7-285.8-169z M-278.6-169
				c0,0.7,0.6,1.3,1.3,1.3c0.7,0,1.3-0.6,1.3-1.3s-0.6-1.3-1.3-1.3C-278-170.3-278.6-169.7-278.6-169z M-271.4-169
				c0,0.7,0.6,1.3,1.3,1.3c0.7,0,1.3-0.6,1.3-1.3s-0.6-1.3-1.3-1.3C-270.8-170.3-271.4-169.7-271.4-169z M-264.2-169
				c0,0.7,0.6,1.3,1.3,1.3c0.7,0,1.3-0.6,1.3-1.3s-0.6-1.3-1.3-1.3C-263.6-170.3-264.2-169.7-264.2-169z M-257-169
				c0,0.7,0.6,1.3,1.3,1.3c0.7,0,1.3-0.6,1.3-1.3c0,0,0,0,0,0c0-0.7-0.6-1.3-1.3-1.3S-257-169.7-257-169z M-249.8-169
				c0,0.7,0.6,1.3,1.3,1.3c0.7,0,1.3-0.6,1.3-1.3c0,0,0,0,0,0c0-0.7-0.6-1.3-1.3-1.3S-249.8-169.7-249.8-169
				C-249.8-169-249.8-169-249.8-169z M-314.6-161.8c0,0.7,0.6,1.3,1.3,1.3c0.7,0,1.3-0.6,1.3-1.3c0,0,0,0,0,0c0-0.7-0.6-1.3-1.3-1.3
				C-314-163.1-314.6-162.5-314.6-161.8C-314.6-161.8-314.6-161.8-314.6-161.8z M-307.4-161.8c0,0.7,0.6,1.3,1.3,1.3
				c0.7,0,1.3-0.6,1.3-1.3c0,0,0,0,0,0c0-0.7-0.6-1.3-1.3-1.3C-306.8-163.1-307.4-162.5-307.4-161.8z M-300.2-161.8
				c0,0.7,0.6,1.3,1.3,1.3c0.7,0,1.3-0.6,1.3-1.3s-0.6-1.3-1.3-1.3C-299.6-163.1-300.2-162.5-300.2-161.8z M-293-161.8
				c0,0.7,0.6,1.3,1.3,1.3c0.7,0,1.3-0.6,1.3-1.3s-0.6-1.3-1.3-1.3C-292.4-163.1-293-162.5-293-161.8z M-285.8-161.8
				c0,0.7,0.6,1.3,1.3,1.3c0.7,0,1.3-0.6,1.3-1.3s-0.6-1.3-1.3-1.3C-285.2-163.1-285.8-162.5-285.8-161.8z M-278.6-161.8
				c0,0.7,0.6,1.3,1.3,1.3c0.7,0,1.3-0.6,1.3-1.3s-0.6-1.3-1.3-1.3C-278-163.1-278.6-162.5-278.6-161.8z M-271.4-161.8
				c0,0.7,0.6,1.3,1.3,1.3c0.7,0,1.3-0.6,1.3-1.3s-0.6-1.3-1.3-1.3C-270.8-163.1-271.4-162.5-271.4-161.8z M-264.2-161.8
				c0,0.7,0.6,1.3,1.3,1.3c0.7,0,1.3-0.6,1.3-1.3s-0.6-1.3-1.3-1.3C-263.6-163.1-264.2-162.5-264.2-161.8z M-257-161.8
				c0,0.7,0.6,1.3,1.3,1.3c0.7,0,1.3-0.6,1.3-1.3c0,0,0,0,0,0c0-0.7-0.6-1.3-1.3-1.3S-257-162.5-257-161.8z M-249.8-161.8
				c0,0.7,0.6,1.3,1.3,1.3s1.3-0.6,1.3-1.3c0,0,0,0,0,0c0-0.7-0.6-1.3-1.3-1.3C-249.2-163.1-249.8-162.5-249.8-161.8
				C-249.8-161.8-249.8-161.8-249.8-161.8z M-314.6-154.6c0,0.7,0.6,1.3,1.3,1.3c0.7,0,1.3-0.6,1.3-1.3c0,0,0,0,0,0
				c0-0.7-0.6-1.3-1.3-1.3C-314-155.9-314.6-155.3-314.6-154.6C-314.6-154.6-314.6-154.6-314.6-154.6z M-307.4-154.6
				c0,0.7,0.6,1.3,1.3,1.3c0.7,0,1.3-0.6,1.3-1.3c0,0,0,0,0,0c0-0.7-0.6-1.3-1.3-1.3C-306.8-155.9-307.4-155.3-307.4-154.6
				C-307.4-154.6-307.4-154.6-307.4-154.6z M-300.2-154.6c0,0.7,0.6,1.3,1.3,1.3c0.7,0,1.3-0.6,1.3-1.3s-0.6-1.3-1.3-1.3
				C-299.6-155.9-300.2-155.3-300.2-154.6L-300.2-154.6z M-293-154.6c0,0.7,0.6,1.3,1.3,1.3c0.7,0,1.3-0.6,1.3-1.3s-0.6-1.3-1.3-1.3
				C-292.4-155.9-293-155.3-293-154.6L-293-154.6z M-285.8-154.6c0,0.7,0.6,1.3,1.3,1.3c0.7,0,1.3-0.6,1.3-1.3s-0.6-1.3-1.3-1.3
				C-285.2-155.9-285.8-155.3-285.8-154.6L-285.8-154.6z M-278.6-154.6c0,0.7,0.6,1.3,1.3,1.3c0.7,0,1.3-0.6,1.3-1.3
				s-0.6-1.3-1.3-1.3C-278-155.9-278.6-155.3-278.6-154.6L-278.6-154.6z M-271.4-154.6c0,0.7,0.6,1.3,1.3,1.3c0.7,0,1.3-0.6,1.3-1.3
				s-0.6-1.3-1.3-1.3C-270.8-155.9-271.4-155.3-271.4-154.6L-271.4-154.6z M-264.2-154.6c0,0.7,0.6,1.3,1.3,1.3
				c0.7,0,1.3-0.6,1.3-1.3s-0.6-1.3-1.3-1.3C-263.6-155.9-264.2-155.3-264.2-154.6L-264.2-154.6z M-257-154.6c0,0.7,0.6,1.3,1.3,1.3
				c0.7,0,1.3-0.6,1.3-1.3c0,0,0,0,0,0c0-0.7-0.6-1.3-1.3-1.3S-257-155.3-257-154.6C-257-154.6-257-154.6-257-154.6z M-249.8-154.6
				c0,0.7,0.6,1.3,1.3,1.3c0.7,0,1.3-0.6,1.3-1.3c0,0,0,0,0,0c0-0.7-0.6-1.3-1.3-1.3C-249.2-155.9-249.8-155.3-249.8-154.6
				C-249.8-154.6-249.8-154.6-249.8-154.6z M-314.6-147.4c0,0.7,0.6,1.3,1.3,1.3c0.7,0,1.3-0.6,1.3-1.3c0,0,0,0,0,0
				c0-0.7-0.6-1.3-1.3-1.3C-314-148.7-314.6-148.1-314.6-147.4C-314.6-147.4-314.6-147.4-314.6-147.4z M-307.4-147.4
				c0,0.7,0.6,1.3,1.3,1.3c0.7,0,1.3-0.6,1.3-1.3c0,0,0,0,0,0c0-0.7-0.6-1.3-1.3-1.3C-306.8-148.7-307.4-148.1-307.4-147.4
				C-307.4-147.4-307.4-147.4-307.4-147.4z M-300.2-147.4c0,0.7,0.6,1.3,1.3,1.3c0.7,0,1.3-0.6,1.3-1.3s-0.6-1.3-1.3-1.3
				C-299.6-148.7-300.2-148.1-300.2-147.4L-300.2-147.4z M-293-147.4c0,0.7,0.6,1.3,1.3,1.3c0.7,0,1.3-0.6,1.3-1.3s-0.6-1.3-1.3-1.3
				C-292.4-148.7-293-148.1-293-147.4L-293-147.4z M-285.8-147.4c0,0.7,0.6,1.3,1.3,1.3c0.7,0,1.3-0.6,1.3-1.3s-0.6-1.3-1.3-1.3
				C-285.2-148.7-285.8-148.1-285.8-147.4L-285.8-147.4z M-278.6-147.4c0,0.7,0.6,1.3,1.3,1.3c0.7,0,1.3-0.6,1.3-1.3
				s-0.6-1.3-1.3-1.3C-278-148.7-278.6-148.1-278.6-147.4L-278.6-147.4z M-271.4-147.4c0,0.7,0.6,1.3,1.3,1.3c0.7,0,1.3-0.6,1.3-1.3
				s-0.6-1.3-1.3-1.3C-270.8-148.7-271.4-148.1-271.4-147.4L-271.4-147.4z M-264.2-147.4c0,0.7,0.6,1.3,1.3,1.3
				c0.7,0,1.3-0.6,1.3-1.3s-0.6-1.3-1.3-1.3C-263.6-148.7-264.2-148.1-264.2-147.4L-264.2-147.4z M-257-147.4c0,0.7,0.6,1.3,1.3,1.3
				c0.7,0,1.3-0.6,1.3-1.3c0,0,0,0,0,0c0-0.7-0.6-1.3-1.3-1.3S-257-148.1-257-147.4C-257-147.4-257-147.4-257-147.4z M-249.8-147.4
				c0,0.7,0.6,1.3,1.3,1.3c0.7,0,1.3-0.6,1.3-1.3c0,0,0,0,0,0c0-0.7-0.6-1.3-1.3-1.3C-249.2-148.7-249.8-148.1-249.8-147.4
				C-249.8-147.4-249.8-147.4-249.8-147.4z M-314.6-140.2c0,0.7,0.6,1.3,1.3,1.3c0.7,0,1.3-0.6,1.3-1.3c0,0,0,0,0,0
				c0-0.7-0.6-1.3-1.3-1.3C-314-141.5-314.6-140.9-314.6-140.2C-314.6-140.2-314.6-140.2-314.6-140.2z M-307.4-140.2
				c0,0.7,0.6,1.3,1.3,1.3c0.7,0,1.3-0.6,1.3-1.3c0,0,0,0,0,0c0-0.7-0.6-1.3-1.3-1.3C-306.8-141.5-307.4-140.9-307.4-140.2z
				 M-300.2-140.2c0,0.7,0.6,1.3,1.3,1.3c0.7,0,1.3-0.6,1.3-1.3s-0.6-1.3-1.3-1.3C-299.6-141.5-300.2-140.9-300.2-140.2z
				 M-293-140.2c0,0.7,0.6,1.3,1.3,1.3c0.7,0,1.3-0.6,1.3-1.3s-0.6-1.3-1.3-1.3C-292.4-141.5-293-140.9-293-140.2z M-285.8-140.2
				c0,0.7,0.6,1.3,1.3,1.3c0.7,0,1.3-0.6,1.3-1.3s-0.6-1.3-1.3-1.3C-285.2-141.5-285.8-140.9-285.8-140.2z M-278.6-140.2
				c0,0.7,0.6,1.3,1.3,1.3c0.7,0,1.3-0.6,1.3-1.3s-0.6-1.3-1.3-1.3C-278-141.5-278.6-140.9-278.6-140.2z M-271.4-140.2
				c0,0.7,0.6,1.3,1.3,1.3c0.7,0,1.3-0.6,1.3-1.3s-0.6-1.3-1.3-1.3C-270.8-141.5-271.4-140.9-271.4-140.2z M-264.2-140.2
				c0,0.7,0.6,1.3,1.3,1.3c0.7,0,1.3-0.6,1.3-1.3s-0.6-1.3-1.3-1.3C-263.6-141.5-264.2-140.9-264.2-140.2z M-257-140.2
				c0,0.7,0.6,1.3,1.3,1.3c0.7,0,1.3-0.6,1.3-1.3c0,0,0,0,0,0c0-0.7-0.6-1.3-1.3-1.3S-257-140.9-257-140.2z M-249.8-140.2
				c0,0.7,0.6,1.3,1.3,1.3c0.7,0,1.3-0.6,1.3-1.3c0,0,0,0,0,0c0-0.7-0.6-1.3-1.3-1.3C-249.2-141.5-249.8-140.9-249.8-140.2
				C-249.8-140.2-249.8-140.2-249.8-140.2z M-314.6-133c0,0.7,0.6,1.3,1.3,1.3c0.7,0,1.3-0.6,1.3-1.3c0,0,0,0,0,0
				c0-0.7-0.6-1.3-1.3-1.3C-314-134.3-314.6-133.7-314.6-133C-314.6-133-314.6-133-314.6-133z M-307.4-133c0,0.7,0.6,1.3,1.3,1.3
				c0.7,0,1.3-0.6,1.3-1.3c0,0,0,0,0,0c0-0.7-0.6-1.3-1.3-1.3C-306.8-134.3-307.4-133.7-307.4-133z M-300.2-133
				c0,0.7,0.6,1.3,1.3,1.3c0.7,0,1.3-0.6,1.3-1.3s-0.6-1.3-1.3-1.3C-299.6-134.3-300.2-133.7-300.2-133z M-293-133
				c0,0.7,0.6,1.3,1.3,1.3c0.7,0,1.3-0.6,1.3-1.3s-0.6-1.3-1.3-1.3C-292.4-134.3-293-133.7-293-133z M-285.8-133
				c0,0.7,0.6,1.3,1.3,1.3c0.7,0,1.3-0.6,1.3-1.3s-0.6-1.3-1.3-1.3C-285.2-134.3-285.8-133.7-285.8-133z M-278.6-133
				c0,0.7,0.6,1.3,1.3,1.3c0.7,0,1.3-0.6,1.3-1.3s-0.6-1.3-1.3-1.3C-278-134.3-278.6-133.7-278.6-133z M-271.4-133
				c0,0.7,0.6,1.3,1.3,1.3c0.7,0,1.3-0.6,1.3-1.3s-0.6-1.3-1.3-1.3C-270.8-134.3-271.4-133.7-271.4-133z M-264.2-133
				c0,0.7,0.6,1.3,1.3,1.3c0.7,0,1.3-0.6,1.3-1.3s-0.6-1.3-1.3-1.3C-263.6-134.3-264.2-133.7-264.2-133z M-257-133
				c0,0.7,0.6,1.3,1.3,1.3c0.7,0,1.3-0.6,1.3-1.3c0,0,0,0,0,0c0-0.7-0.6-1.3-1.3-1.3S-257-133.7-257-133z M-249.8-133
				c0,0.7,0.6,1.3,1.3,1.3c0.7,0,1.3-0.6,1.3-1.3c0,0,0,0,0,0c0-0.7-0.6-1.3-1.3-1.3C-249.2-134.3-249.8-133.7-249.8-133
				C-249.8-133-249.8-133-249.8-133z M-314.6-125.8c0,0.7,0.6,1.3,1.3,1.3c0.7,0,1.3-0.6,1.3-1.3c0,0,0,0,0,0c0-0.7-0.6-1.3-1.3-1.3
				C-314-127.1-314.6-126.5-314.6-125.8C-314.6-125.8-314.6-125.8-314.6-125.8z M-307.4-125.8c0,0.7,0.6,1.3,1.3,1.3
				c0.7,0,1.3-0.6,1.3-1.3c0,0,0,0,0,0c0-0.7-0.6-1.3-1.3-1.3C-306.8-127.1-307.4-126.5-307.4-125.8z M-300.2-125.8
				c0,0.7,0.6,1.3,1.3,1.3c0.7,0,1.3-0.6,1.3-1.3s-0.6-1.3-1.3-1.3C-299.6-127.1-300.2-126.5-300.2-125.8z M-293-125.8
				c0,0.7,0.6,1.3,1.3,1.3c0.7,0,1.3-0.6,1.3-1.3s-0.6-1.3-1.3-1.3C-292.4-127.1-293-126.5-293-125.8z M-285.8-125.8
				c0,0.7,0.6,1.3,1.3,1.3c0.7,0,1.3-0.6,1.3-1.3s-0.6-1.3-1.3-1.3C-285.2-127.1-285.8-126.5-285.8-125.8z M-278.6-125.8
				c0,0.7,0.6,1.3,1.3,1.3c0.7,0,1.3-0.6,1.3-1.3s-0.6-1.3-1.3-1.3C-278-127.1-278.6-126.5-278.6-125.8z M-271.4-125.8
				c0,0.7,0.6,1.3,1.3,1.3c0.7,0,1.3-0.6,1.3-1.3s-0.6-1.3-1.3-1.3C-270.8-127.1-271.4-126.5-271.4-125.8z M-264.2-125.8
				c0,0.7,0.6,1.3,1.3,1.3c0.7,0,1.3-0.6,1.3-1.3s-0.6-1.3-1.3-1.3C-263.6-127.1-264.2-126.5-264.2-125.8z M-257-125.8
				c0,0.7,0.6,1.3,1.3,1.3c0.7,0,1.3-0.6,1.3-1.3c0,0,0,0,0,0c0-0.7-0.6-1.3-1.3-1.3S-257-126.5-257-125.8z M-249.8-125.8
				c0,0.7,0.6,1.3,1.3,1.3s1.3-0.6,1.3-1.3c0,0,0,0,0,0c0-0.7-0.6-1.3-1.3-1.3S-249.8-126.5-249.8-125.8
				C-249.8-125.8-249.8-125.8-249.8-125.8z M-314.6-118.6c0,0.7,0.6,1.3,1.3,1.3c0.7,0,1.3-0.6,1.3-1.3c0,0,0,0,0,0
				c0-0.7-0.6-1.3-1.3-1.3C-314-119.9-314.6-119.3-314.6-118.6C-314.6-118.6-314.6-118.6-314.6-118.6z M-307.4-118.6
				c0,0.7,0.6,1.3,1.3,1.3c0.7,0,1.3-0.6,1.3-1.3c0,0,0,0,0,0c0-0.7-0.6-1.3-1.3-1.3C-306.8-119.9-307.4-119.3-307.4-118.6z
				 M-300.2-118.6c0,0.7,0.6,1.3,1.3,1.3c0.7,0,1.3-0.6,1.3-1.3s-0.6-1.3-1.3-1.3C-299.6-119.9-300.2-119.3-300.2-118.6z
				 M-293-118.6c0,0.7,0.6,1.3,1.3,1.3c0.7,0,1.3-0.6,1.3-1.3s-0.6-1.3-1.3-1.3C-292.4-119.9-293-119.3-293-118.6z M-285.8-118.6
				c0,0.7,0.6,1.3,1.3,1.3c0.7,0,1.3-0.6,1.3-1.3s-0.6-1.3-1.3-1.3C-285.2-119.9-285.8-119.3-285.8-118.6z M-278.6-118.6
				c0,0.7,0.6,1.3,1.3,1.3c0.7,0,1.3-0.6,1.3-1.3s-0.6-1.3-1.3-1.3C-278-119.9-278.6-119.3-278.6-118.6z M-271.4-118.6
				c0,0.7,0.6,1.3,1.3,1.3c0.7,0,1.3-0.6,1.3-1.3s-0.6-1.3-1.3-1.3C-270.8-119.9-271.4-119.3-271.4-118.6z M-264.2-118.6
				c0,0.7,0.6,1.3,1.3,1.3c0.7,0,1.3-0.6,1.3-1.3s-0.6-1.3-1.3-1.3C-263.6-119.9-264.2-119.3-264.2-118.6z M-257-118.6
				c0,0.7,0.6,1.3,1.3,1.3c0.7,0,1.3-0.6,1.3-1.3c0,0,0,0,0,0c0-0.7-0.6-1.3-1.3-1.3S-257-119.3-257-118.6z M-249.8-118.6
				c0,0.7,0.6,1.3,1.3,1.3s1.3-0.6,1.3-1.3c0,0,0,0,0,0c0-0.7-0.6-1.3-1.3-1.3S-249.8-119.3-249.8-118.6
				C-249.8-118.6-249.8-118.6-249.8-118.6z"/>
			<path class="st1" d="M-320.2-197.5h78.3v85.5h-78.3V-197.5z"/>
			<circle id="connector0pin_1_" class="st2" cx="-313.3" cy="-190.6" r="2"/>
			<circle id="connector1pin_1_" class="st2" cx="-306.1" cy="-190.6" r="2"/>
			<circle id="connector2pin_1_" class="st2" cx="-298.9" cy="-190.6" r="2"/>
			<circle id="connector3pin_1_" class="st2" cx="-291.7" cy="-190.6" r="2"/>
			<circle id="connector4pin_1_" class="st2" cx="-284.5" cy="-190.6" r="2"/>
			<circle id="connector5pin_1_" class="st2" cx="-277.3" cy="-190.6" r="2"/>
			<circle id="connector6pin_1_" class="st2" cx="-270.1" cy="-190.6" r="2"/>
			<circle id="connector7pin_1_" class="st2" cx="-262.9" cy="-190.6" r="2"/>
			<circle id="connector8pin_1_" class="st2" cx="-255.7" cy="-190.6" r="2"/>
			<circle id="connector9pin_1_" class="st2" cx="-248.5" cy="-190.6" r="2"/>
			<circle id="connector1000pin_1_" class="st2" cx="-313.3" cy="-183.4" r="2"/>
			<circle id="connector1001pin_1_" class="st2" cx="-306.1" cy="-183.4" r="2"/>
			<circle id="connector1002pin_1_" class="st2" cx="-298.9" cy="-183.4" r="2"/>
			<circle id="connector1003pin_1_" class="st2" cx="-291.7" cy="-183.4" r="2"/>
			<circle id="connector1004pin_1_" class="st2" cx="-284.5" cy="-183.4" r="2"/>
			<circle id="connector1005pin_1_" class="st2" cx="-277.3" cy="-183.4" r="2"/>
			<circle id="connector1006pin_1_" class="st2" cx="-270.1" cy="-183.4" r="2"/>
			<circle id="connector1007pin_1_" class="st2" cx="-262.9" cy="-183.4" r="2"/>
			<circle id="connector1008pin_1_" class="st2" cx="-255.7" cy="-183.4" r="2"/>
			<circle id="connector1009pin_1_" class="st2" cx="-248.5" cy="-183.4" r="2"/>
			<circle id="connector2000pin_1_" class="st2" cx="-313.3" cy="-176.2" r="2"/>
			<circle id="connector2001pin_1_" class="st2" cx="-306.1" cy="-176.2" r="2"/>
			<circle id="connector2002pin_1_" class="st2" cx="-298.9" cy="-176.2" r="2"/>
			<circle id="connector2003pin_1_" class="st2" cx="-291.7" cy="-176.2" r="2"/>
			<circle id="connector2004pin_1_" class="st2" cx="-284.5" cy="-176.2" r="2"/>
			<circle id="connector2005pin_1_" class="st2" cx="-277.3" cy="-176.2" r="2"/>
			<circle id="connector2006pin_1_" class="st2" cx="-270.1" cy="-176.2" r="2"/>
			<circle id="connector2007pin_1_" class="st2" cx="-262.9" cy="-176.2" r="2"/>
			<circle id="connector2008pin_1_" class="st2" cx="-255.7" cy="-176.2" r="2"/>
			<circle id="connector2009pin_1_" class="st2" cx="-248.5" cy="-176.2" r="2"/>
			<circle id="connector3000pin_1_" class="st2" cx="-313.3" cy="-169" r="2"/>
			<circle id="connector3001pin_1_" class="st2" cx="-306.1" cy="-169" r="2"/>
			<circle id="connector3002pin_1_" class="st2" cx="-298.9" cy="-169" r="2"/>
			<circle id="connector3003pin_1_" class="st2" cx="-291.7" cy="-169" r="2"/>
			<circle id="connector3004pin_1_" class="st2" cx="-284.5" cy="-169" r="2"/>
			<circle id="connector3005pin_1_" class="st2" cx="-277.3" cy="-169" r="2"/>
			<circle id="connector3006pin_1_" class="st2" cx="-270.1" cy="-169" r="2"/>
			<circle id="connector3007pin_1_" class="st2" cx="-262.9" cy="-169" r="2"/>
			<circle id="connector3008pin_1_" class="st2" cx="-255.7" cy="-169" r="2"/>
			<circle id="connector3009pin_1_" class="st2" cx="-248.5" cy="-169" r="2"/>
			<circle id="connector4000pin_1_" class="st2" cx="-313.3" cy="-161.8" r="2"/>
			<circle id="connector4001pin_1_" class="st2" cx="-306.1" cy="-161.8" r="2"/>
			<circle id="connector4002pin_1_" class="st2" cx="-298.9" cy="-161.8" r="2"/>
			<circle id="connector4003pin_1_" class="st2" cx="-291.7" cy="-161.8" r="2"/>
			<circle id="connector4004pin_1_" class="st2" cx="-284.5" cy="-161.8" r="2"/>
			<circle id="connector4005pin_1_" class="st2" cx="-277.3" cy="-161.8" r="2"/>
			<circle id="connector4006pin_1_" class="st2" cx="-270.1" cy="-161.8" r="2"/>
			<circle id="connector4007pin_1_" class="st2" cx="-262.9" cy="-161.8" r="2"/>
			<circle id="connector4008pin_1_" class="st2" cx="-255.7" cy="-161.8" r="2"/>
			<circle id="connector4009pin_1_" class="st2" cx="-248.5" cy="-161.8" r="2"/>
			<circle id="connector5000pin_1_" class="st2" cx="-313.3" cy="-154.6" r="2"/>
			<circle id="connector5001pin_1_" class="st2" cx="-306.1" cy="-154.6" r="2"/>
			<circle id="connector5002pin_1_" class="st2" cx="-298.9" cy="-154.6" r="2"/>
			<circle id="connector5003pin_1_" class="st2" cx="-291.7" cy="-154.6" r="2"/>
			<circle id="connector5004pin_1_" class="st2" cx="-284.5" cy="-154.6" r="2"/>
			<circle id="connector5005pin_1_" class="st2" cx="-277.3" cy="-154.6" r="2"/>
			<circle id="connector5006pin_1_" class="st2" cx="-270.1" cy="-154.6" r="2"/>
			<circle id="connector5007pin_1_" class="st2" cx="-262.9" cy="-154.6" r="2"/>
			<circle id="connector5008pin_1_" class="st2" cx="-255.7" cy="-154.6" r="2"/>
			<circle id="connector5009pin_1_" class="st2" cx="-248.5" cy="-154.6" r="2"/>
			<circle id="connector6000pin_1_" class="st2" cx="-313.3" cy="-147.4" r="2"/>
			<circle id="connector6001pin_1_" class="st2" cx="-306.1" cy="-147.4" r="2"/>
			<circle id="connector6002pin_1_" class="st2" cx="-298.9" cy="-147.4" r="2"/>
			<circle id="connector6003pin_1_" class="st2" cx="-291.7" cy="-147.4" r="2"/>
			<circle id="connector6004pin_1_" class="st2" cx="-284.5" cy="-147.4" r="2"/>
			<circle id="connector6005pin_1_" class="st2" cx="-277.3" cy="-147.4" r="2"/>
			<circle id="connector6006pin_1_" class="st2" cx="-270.1" cy="-147.4" r="2"/>
			<circle id="connector6007pin_1_" class="st2" cx="-262.9" cy="-147.4" r="2"/>
			<circle id="connector6008pin_1_" class="st2" cx="-255.7" cy="-147.4" r="2"/>
			<circle id="connector6009pin_1_" class="st2" cx="-248.5" cy="-147.4" r="2"/>
			<circle id="connector7000pin_1_" class="st2" cx="-313.3" cy="-140.2" r="2"/>
			<circle id="connector7001pin_1_" class="st2" cx="-306.1" cy="-140.2" r="2"/>
			<circle id="connector7002pin_1_" class="st2" cx="-298.9" cy="-140.2" r="2"/>
			<circle id="connector7003pin_1_" class="st2" cx="-291.7" cy="-140.2" r="2"/>
			<circle id="connector7004pin_1_" class="st2" cx="-284.5" cy="-140.2" r="2"/>
			<circle id="connector7005pin_1_" class="st2" cx="-277.3" cy="-140.2" r="2"/>
			<circle id="connector7006pin_1_" class="st2" cx="-270.1" cy="-140.2" r="2"/>
			<circle id="connector7007pin_1_" class="st2" cx="-262.9" cy="-140.2" r="2"/>
			<circle id="connector7008pin_1_" class="st2" cx="-255.7" cy="-140.2" r="2"/>
			<circle id="connector7009pin_1_" class="st2" cx="-248.5" cy="-140.2" r="2"/>
			<circle id="connector8000pin_1_" class="st2" cx="-313.3" cy="-133" r="2"/>
			<circle id="connector8001pin_1_" class="st2" cx="-306.1" cy="-133" r="2"/>
			<circle id="connector8002pin_1_" class="st2" cx="-298.9" cy="-133" r="2"/>
			<circle id="connector8003pin_1_" class="st2" cx="-291.7" cy="-133" r="2"/>
			<circle id="connector8004pin_1_" class="st2" cx="-284.5" cy="-133" r="2"/>
			<circle id="connector8005pin_1_" class="st2" cx="-277.3" cy="-133" r="2"/>
			<circle id="connector8006pin_1_" class="st2" cx="-270.1" cy="-133" r="2"/>
			<circle id="connector8007pin_1_" class="st2" cx="-262.9" cy="-133" r="2"/>
			<circle id="connector8008pin_1_" class="st2" cx="-255.7" cy="-133" r="2"/>
			<circle id="connector8009pin_1_" class="st2" cx="-248.5" cy="-133" r="2"/>
			<circle id="connector9000pin_1_" class="st2" cx="-313.3" cy="-125.8" r="2"/>
			<circle id="connector9001pin_1_" class="st2" cx="-306.1" cy="-125.8" r="2"/>
			<circle id="connector9002pin_1_" class="st2" cx="-298.9" cy="-125.8" r="2"/>
			<circle id="connector9003pin_1_" class="st2" cx="-291.7" cy="-125.8" r="2"/>
			<circle id="connector9004pin_1_" class="st2" cx="-284.5" cy="-125.8" r="2"/>
			<circle id="connector9005pin_1_" class="st2" cx="-277.3" cy="-125.8" r="2"/>
			<circle id="connector9006pin_1_" class="st2" cx="-270.1" cy="-125.8" r="2"/>
			<circle id="connector9007pin_1_" class="st2" cx="-262.9" cy="-125.8" r="2"/>
			<circle id="connector9008pin_1_" class="st2" cx="-255.7" cy="-125.8" r="2"/>
			<circle id="connector9009pin_1_" class="st2" cx="-248.5" cy="-125.8" r="2"/>
			<circle id="connector10000pin_1_" class="st2" cx="-313.3" cy="-118.6" r="2"/>
			<circle id="connector10001pin_1_" class="st2" cx="-306.1" cy="-118.6" r="2"/>
			<circle id="connector10002pin_1_" class="st2" cx="-298.9" cy="-118.6" r="2"/>
			<circle id="connector10003pin_1_" class="st2" cx="-291.7" cy="-118.6" r="2"/>
			<circle id="connector10004pin_1_" class="st2" cx="-284.5" cy="-118.6" r="2"/>
			<circle id="connector10005pin_1_" class="st2" cx="-277.3" cy="-118.6" r="2"/>
			<circle id="connector10006pin_1_" class="st2" cx="-270.1" cy="-118.6" r="2"/>
			<circle id="connector10007pin_1_" class="st2" cx="-262.9" cy="-118.6" r="2"/>
			<circle id="connector10008pin_1_" class="st2" cx="-255.7" cy="-118.6" r="2"/>
			<circle id="connector10009pin_1_" class="st2" cx="-248.5" cy="-118.6" r="2"/>
		</g>
	</g>
</g>
</svg>
