<?xml version="1.0" encoding="utf-8"?>
<!-- Generator: Adobe Illustrator 24.0.0, SVG Export Plug-In . SVG Version: 6.00 Build 0)  -->
<svg version="1.1" id="Layer_1" xmlns="http://www.w3.org/2000/svg" xmlns:xlink="http://www.w3.org/1999/xlink" x="0px" y="0px"
	 viewBox="0 0 35.7 21.5" style="enable-background:new 0 0 35.7 21.5;" xml:space="preserve">
<style type="text/css">
	.st0{stroke:#000000;stroke-width:0.25;stroke-miterlimit:10;}
	.st1{fill:none;stroke:#666666;stroke-width:0.25;stroke-miterlimit:10;}
	.st2{opacity:0.5;}
	.st3{fill:none;stroke:#666666;stroke-width:0.1;stroke-miterlimit:10;}
	.st4{fill:#666666;stroke:#666666;stroke-width:0.1;stroke-miterlimit:10;}
	.st5{fill:#666666;}
	.st6{fill:#FFFFFF;}
	.st7{font-family:'MyriadPro-Bold';}
	.st8{font-size:4.7004px;}
	.st9{fill:#B7B7B7;}
</style>
<g>
	<g>
		<rect x="0.1" y="0.1" class="st0" width="35.4" height="21.3"/>
		<g>
			<g>
				<rect x="2.7" y="17.2" class="st1" width="1.4" height="1.4"/>
				<rect x="9.9" y="17.2" class="st1" width="1.4" height="1.4"/>
				<rect x="31.5" y="17.2" class="st1" width="1.4" height="1.4"/>
			</g>
			<g>
				<rect x="2.7" y="2.8" class="st1" width="1.4" height="1.4"/>
				<rect x="9.9" y="2.8" class="st1" width="1.4" height="1.4"/>
				<rect x="31.5" y="2.8" class="st1" width="1.4" height="1.4"/>
			</g>
		</g>
		<g class="st2">
			<line class="st3" x1="32.2" y1="17.2" x2="32.2" y2="4.3"/>
			<polyline class="st3" points="32.2,10.8 26,10.8 26,20.2 1.1,20.2 1.1,10.8 1.8,10.8 			"/>
			<line class="st3" x1="10.6" y1="17.2" x2="10.6" y2="4.3"/>
			<rect x="8.9" y="10.5" class="st4" width="3.5" height="1.4"/>
			<g>
				<g>
					<line class="st3" x1="3.4" y1="17.2" x2="3.4" y2="13.4"/>
					<g>
						<polygon class="st5" points="3.8,13.7 3.4,13.5 3.1,13.7 3.4,12.8 						"/>
					</g>
				</g>
			</g>
			<g>
				<g>
					<line class="st3" x1="3.4" y1="4.3" x2="3.4" y2="8.6"/>
					<g>
						<polygon class="st5" points="3.1,8.3 3.4,8.5 3.8,8.3 3.4,9.2 						"/>
					</g>
				</g>
			</g>
			<circle class="st4" cx="1.8" cy="10.8" r="0.2"/>
			<circle class="st4" cx="32.2" cy="10.8" r="0.2"/>
			<line class="st3" x1="2" y1="10.8" x2="4.2" y2="12.9"/>
		</g>
		<text transform="matrix(1 0 0 1 12.7 8.4838)" class="st6 st7 st8">G5V-1</text>
		<text transform="matrix(1 0 0 1 13.4 14.0838)" class="st6 st7 st8">Relay</text>
	</g>
	<rect x="0.1" y="11.8" class="st9" width="1" height="6.1"/>
</g>
</svg>
