<?xml version="1.0" encoding="utf-8"?>
<!-- Generator: Adobe Illustrator 23.0.3, SVG Export Plug-In . SVG Version: 6.00 Build 0)  -->
<svg version="1.1"
	 id="svg2" inkscape:version="0.48.5 r10040" sodipodi:docname="resistor.svg" xmlns:cc="http://creativecommons.org/ns#" xmlns:dc="http://purl.org/dc/elements/1.1/" xmlns:inkscape="http://www.inkscape.org/namespaces/inkscape" xmlns:rdf="http://www.w3.org/1999/02/22-rdf-syntax-ns#" xmlns:sodipodi="http://sodipodi.sourceforge.net/DTD/sodipodi-0.dtd" xmlns:svg="http://www.w3.org/2000/svg"
	 xmlns="http://www.w3.org/2000/svg" xmlns:xlink="http://www.w3.org/1999/xlink" x="0px" y="0px" viewBox="0 0 22.5 7.3"
	 style="enable-background:new 0 0 22.5 7.3;" xml:space="preserve">
<style type="text/css">
	.st0{fill:#666666;stroke:#000000;stroke-width:5.000000e-02;stroke-miterlimit:10;}
	.st1{fill:#88BBFF;stroke:#000000;stroke-width:5.000000e-02;stroke-miterlimit:10;}
	.st2{fill:#824801;stroke:#000000;stroke-width:5.000000e-02;}
	.st3{stroke:#000000;stroke-width:5.000000e-02;}
	.st4{fill:#FF9900;stroke:#000000;stroke-width:5.000000e-02;stroke-miterlimit:10;}
	.st5{fill:#C68401;stroke:#000000;stroke-width:5.000000e-02;stroke-miterlimit:10;}
	.st6{font-family:'ArialMT';}
	.st7{font-size:3.2752px;}
</style>
<sodipodi:namedview  bordercolor="#666666" borderopacity="1.0" id="base" inkscape:current-layer="layer1" inkscape:cx="504.15002" inkscape:cy="205.80139" inkscape:document-units="in" inkscape:pageopacity="0.0" inkscape:pageshadow="2" inkscape:window-height="721" inkscape:window-maximized="1" inkscape:window-width="1366" inkscape:window-x="-4" inkscape:window-y="-4" inkscape:zoom="0.12374369" pagecolor="#ffffff" showgrid="false" units="in">
	</sodipodi:namedview>
<g>
	<g id="layer1_2_" transform="translate(0,27.6403)" inkscape:groupmode="layer" inkscape:label="Layer 1">
		<g id="g3825_2_">
			<path id="rect3004_2_" class="st0" d="M0.4-24.5H22c0.2,0,0.4,0.2,0.4,0.4v0.4c0,0.2-0.2,0.4-0.4,0.4H0.4c-0.2,0-0.4-0.2-0.4-0.4
				v-0.4C0-24.3,0.2-24.5,0.4-24.5z"/>
			<path id="rect3776_2_" inkscape:connector-curvature="0" class="st1" d="M5.2-27.6c-0.5,0-1,0.1-1.3,0.3l0,0
				c-0.5,0.2-0.7,0.6-0.9,1c-0.4,0.7-0.6,1.5-1.4,1.8H1.5v1.2h0.1c1.6,0.5,0.3,3,3.6,3c0,0,0,0,0.1,0h0.1C6.2-20.3,8-21,8.7-21h4.7
				c0.7,0,2.6,0.7,3.3,0.7h0.1c0,0,0,0,0.1,0c3.2,0,1.9-2.5,3.6-3h0.1v-1.2h-0.1c-0.9-0.3-1.1-1.1-1.4-1.8c-0.2-0.4-0.4-0.7-0.9-1
				l0,0c-0.3-0.2-0.7-0.3-1.3-0.3c0,0,0,0-0.1,0h-0.1c-0.8,0-2.6,0.7-3.3,0.7H8.7c-0.7,0-2.6-0.7-3.3-0.7
				C5.4-27.6,5.3-27.6,5.2-27.6C5.3-27.6,5.3-27.6,5.2-27.6L5.2-27.6z"/>
			<path id="rect3796_2_" class="st2" d="M5.2-27.6c-0.1,0-0.2,0-0.3,0v7.3c0.1,0,0.2,0,0.3,0c0,0,0,0,0.1,0h0.1
				c0.3,0,0.8-0.1,1.3-0.2v-6.8c-0.5-0.1-1-0.3-1.3-0.3C5.4-27.6,5.3-27.6,5.2-27.6C5.3-27.6,5.3-27.6,5.2-27.6z"/>
			<path id="rect3798_2_" class="st3" d="M7.9-27.1v6.2C8.3-21,8.6-21,8.8-21h0.8v-5.9H8.8C8.5-27,8.2-27,7.9-27.1z"/>
			<path id="rect3800_2_" class="st4" d="M10.7-26.9v5.9h1.8v-5.9H10.7z"/>
			<path id="rect3819_2_" class="st5" d="M16.8-27.6c-0.2,0-0.4,0-0.6,0.1v7.1c0.2,0,0.5,0.1,0.6,0.1h0.1c0,0,0,0,0.1,0
				c0.4,0,0.7,0,1-0.1v-7c-0.3-0.1-0.5-0.2-0.9-0.2C17.1-27.6,17-27.6,16.8-27.6C16.9-27.6,16.9-27.6,16.8-27.6z"/>
		</g>
	</g>
	<text transform="matrix(6.123234e-17 -1 1 6.123234e-17 15.5558 6.29)" class="st6 st7">10k</text>
</g>
</svg>
