<?xml version='1.0' encoding='UTF-8' standalone='no'?>
<!-- Created with Fritzing (http://www.fritzing.org/) -->
<svg xmlns:svg='http://www.w3.org/2000/svg' xmlns='http://www.w3.org/2000/svg' version='1.2' baseProfile='tiny' x='0in' y='0in' width='0.2472in' height='0.33in' viewBox='0 0 17.7984 23.76' >
<g partID='854522630'><g xmlns="http://www.w3.org/2000/svg" id="breadboard">
<rect width="2.16" height="2.88" fill="none" xmlns="http://www.w3.org/2000/svg" x="0.6192" y="20.88" id="connector0pin"/>
<rect width="2.16" height="2.88" fill="none" xmlns="http://www.w3.org/2000/svg" x="7.8192" y="0" id="connector1pin"/>
<rect width="2.16" height="2.88" fill="none" xmlns="http://www.w3.org/2000/svg" x="15.0192" y="20.88" id="connector2pin"/>
<g width="2.16" height="2.16" fill="none" xmlns="http://www.w3.org/2000/svg" x="0.6192" y="21.6" id="connector0terminal"/>
<g width="2.16" height="2.16" fill="none" xmlns="http://www.w3.org/2000/svg" x="7.8192" y="0" id="connector1terminal"/>
<g width="2.16" height="2.16" fill="none" xmlns="http://www.w3.org/2000/svg" x="15.0192" y="21.6" id="connector2terminal"/>
<g xmlns="http://www.w3.org/2000/svg" id="legs">
<g xmlns="http://www.w3.org/2000/svg" id="pin0">
<rect width="4.89096" height="1.44" fill="#8C8C8C" xmlns="http://www.w3.org/2000/svg" x="0.6192" y="19.8878" id="rect10"/>
<rect width="2.16" height="3.67848" fill="#8C8C8C" xmlns="http://www.w3.org/2000/svg" x="0.6192" y="20.0815" id="rect14"/>
</g>
<g xmlns="http://www.w3.org/2000/svg" id="pin2">
<rect width="4.91832" height="1.44" fill="#8C8C8C" xmlns="http://www.w3.org/2000/svg" x="12.2609" y="19.867" id="rect8"/>
<rect width="2.16" height="3.70008" fill="#8C8C8C" xmlns="http://www.w3.org/2000/svg" x="15.0192" y="20.0599" id="rect16"/>
</g>
<g xmlns="http://www.w3.org/2000/svg" id="pin1">
<rect width="4.464" height="1.44" fill="#8C8C8C" xmlns="http://www.w3.org/2000/svg" x="6.6672" y="2.50488" id="rect12"/>
<rect width="2.16" height="4.32" fill="#8C8C8C" xmlns="http://www.w3.org/2000/svg" x="7.8192" id="rect18"/>
</g>
</g>
<path fill="#6B6B6B" d="M8.89704,2.8656C3.98376,2.8656,0,6.85008,0,11.7662l0,8.89848l8.89704,0L17.7984,20.6647L17.7984,11.7648C17.7991,6.85008,13.8139,2.8656,8.89704,2.8656zM3.91104,15.1502l0,-6.768l9.9756,0l0,6.768L3.91104,15.1502z" xmlns="http://www.w3.org/2000/svg" id="path20"/>
<path fill="#CECECE" d="M7.36272,6.07392c-3.13848,0.84744,-4.99536,4.08096,-4.14936,7.21872c0.8496,3.1392,4.07952,4.9968,7.22088,4.1508c3.14136,-0.8496,4.9968,-4.08024,4.15008,-7.2216C13.7347,7.08264,10.5048,5.22432,7.36272,6.07392zM6.83496,13.3222l0.2556,-2.08152l3.11112,-0.84024l1.26936,1.66968L6.83496,13.3222z" xmlns="http://www.w3.org/2000/svg" id="path27"/>
<g xmlns="http://www.w3.org/2000/svg">
<polygon points="8.21376,12.9506,10.0908,12.443,10.9051,15.4548,9.02808,15.9624" xmlns="http://www.w3.org/2000/svg" id="rect31"/>
<polygon points="10.2017,10.3997,11.471,12.0701,9.17352,9.04392,8.77032,7.55352,6.89544,8.06112,7.29576,9.55152,6.83496,13.3222,7.09056,11.2406" xmlns="http://www.w3.org/2000/svg" id="polygon33"/>
</g>
<g xmlns="http://www.w3.org/2000/svg" id="g35">
<polygon points="4.69512,11.8872,5.20128,13.7628,6.83496,13.3222,7.09056,11.2406" fill="#4D4D4D" xmlns="http://www.w3.org/2000/svg" id="polygon37"/>
<polygon points="10.2017,10.3997,11.471,12.0701,13.1054,11.6294,12.5971,9.75312" fill="#4D4D4D" xmlns="http://www.w3.org/2000/svg" id="polygon39"/>
</g>
<path opacity="0.3" d="M17.0971,11.9959c-0.03168,-0.54648,-0.11664,-1.10016,-0.26352,-1.64952c-0.13392,-0.49392,-0.31536,-0.9576,-0.53064,-1.39968l-0.3852,0.13104l-0.576,-0.76536c-0.16416,-0.24984,-0.34704,-0.48744,-0.53928,-0.71208l-0.60552,-0.80064l0.32904,-0.24696c-1.9584,-1.80216,-4.76352,-2.59776,-7.52328,-1.85328c-2.75544,0.7452,-4.78008,2.84472,-5.56488,5.38776l0.40752,0.04752l-0.12024,0.99792c-0.05112,0.29088,-0.08856,0.58608,-0.10656,0.88632L1.5048,12.9715l-0.3996,0.07848c0.03888,0.49176,0.11664,0.98496,0.24984,1.47816c0.14976,0.54936,0.35496,1.0692,0.60264,1.55808l0.41976,-0.3384c0.4896,0.99504,1.1844,1.8396,2.01384,2.50992l-0.42192,0.33552c1.93752,1.61064,4.59792,2.2896,7.21656,1.584c2.61504,-0.70776,4.57344,-2.63304,5.43456,-4.99896l-0.53208,-0.08064c0.3816,-0.99576,0.55584,-2.07576,0.47664,-3.1824L17.0971,11.9959zM10.4537,17.4694c-2.77992,0.7524,-5.64408,-0.89424,-6.39504,-3.67344c-0.74952,-2.78064,0.89424,-5.64408,3.67416,-6.39288c2.7828,-0.75168,5.64408,0.89352,6.39504,3.672C14.881,13.8578,13.2336,16.7191,10.4537,17.4694z" xmlns="http://www.w3.org/2000/svg" id="path41"/>
<path d="M6.94656,4.52808c-3.996,1.07712,-6.35904,5.18904,-5.27904,9.18216c1.07784,3.99384,5.18976,6.36048,9.18504,5.27904c3.99312,-1.07856,6.3576,-5.18976,5.27688,-9.18432C15.0516,5.81256,10.9411,3.44808,6.94656,4.52808zM10.4357,17.4434c-3.14064,0.846,-6.37344,-1.00872,-7.2216,-4.15008c-0.84888,-3.14208,1.00944,-6.37488,4.14936,-7.22232c3.14136,-0.84744,6.37416,1.01088,7.22304,4.15152C15.4325,13.3632,13.5749,16.5967,10.4357,17.4434z" xmlns="http://www.w3.org/2000/svg" id="path43"/>
<path fill="#1A1A1A" d="M16.9027,11.3177c-0.03168,-0.5472,-0.1152,-1.1016,-0.26496,-1.65096c-0.13176,-0.49032,-0.31176,-0.95616,-0.5292,-1.39968l-0.38448,0.12888L14.0018,6.12l0.32832,-0.24696C12.3732,4.07088,9.56952,3.276,6.80976,4.02048c-2.75976,0.7452,-4.78152,2.844,-5.56632,5.38704l0.40608,0.04824L1.3104,12.2918l-0.3996,0.08136c0.03744,0.49176,0.11664,0.98496,0.2484,1.47456c0.14976,0.5508,0.3528,1.06992,0.60336,1.5588l1.13544,-0.91368l2.016,2.50488l-1.13976,0.91944c1.93464,1.60776,4.59576,2.286,7.21368,1.5804c2.6172,-0.70488,4.5756,-2.6316,5.43744,-4.9968l-1.4436,-0.21816l0.47592,-3.18024L16.9027,11.3177zM10.2586,16.7926c-2.77992,0.75024,-5.64408,-0.89496,-6.3936,-3.67488c-0.74952,-2.78064,0.89352,-5.64336,3.67488,-6.39216c2.78136,-0.75096,5.64192,0.8928,6.39288,3.67488C14.6844,13.1803,13.0385,16.0409,10.2586,16.7926z" xmlns="http://www.w3.org/2000/svg" id="path45"/>
<circle opacity="0.4" cx="2.89224" cy="8.37432" r="0.59976" fill="#FFFFFF" xmlns="http://www.w3.org/2000/svg" id="circle47"/>
<circle opacity="0.4" cx="12.3862" cy="5.81112" r="0.60048" fill="#FFFFFF" xmlns="http://www.w3.org/2000/svg" id="circle49"/>
<g opacity="0.4" xmlns="http://www.w3.org/2000/svg" id="g51">
<path fill="#FFFFFF" d="M7.22448,17.689l-0.252,-0.0612l0.05976,-0.25488l0.25056,0.05904l0.06048,-0.24984l0.50616,0.12024l-0.4824,2.0268l-0.5076,-0.12024L7.22448,17.689z" xmlns="http://www.w3.org/2000/svg" id="path53"/>
<path fill="#FFFFFF" d="M11.3702,19.0958l-1.0116,0.2556l-0.06408,-0.25488l-0.24984,0.06336l-0.38448,-1.51848l0.25128,-0.06336l-0.06408,-0.24984l1.01376,-0.2556l0.0612,0.252l0.25632,-0.06336l0.38232,1.51632l-0.25632,0.06336L11.3702,19.0958zM11.0542,18.9029l-0.3852,-1.51488l-0.50328,0.12816l0.38232,1.51632L11.0542,18.9029z" xmlns="http://www.w3.org/2000/svg" id="path55"/>
<path fill="#FFFFFF" d="M14.1566,16.3123l0.18288,-0.18144l0.18504,0.18504l-0.18216,0.18288l0.36792,0.37008l-0.37368,0.3708l-0.3672,-0.36792l-0.55512,0.54936l-0.36792,-0.3708l0.18216,-0.18l-0.36504,-0.37368l0.18432,-0.18432l0.37008,0.37008l-0.18792,0.1872l0.18288,0.18432l0.37152,-0.36792l-0.91944,-0.92304l0.37296,-0.3708L14.1566,16.3123z" xmlns="http://www.w3.org/2000/svg" id="path57"/>
</g>
</g>
</g></svg>