<?xml version="1.0" encoding="utf-8"?>
<!-- Generator: Adobe Illustrator 24.0.0, SVG Export Plug-In . SVG Version: 6.00 Build 0)  -->
<svg version="1.1" id="Layer_1" xmlns:svg="http://www.w3.org/2000/svg"
	 xmlns="http://www.w3.org/2000/svg" xmlns:xlink="http://www.w3.org/1999/xlink" x="0px" y="0px" viewBox="0 0 17.8 23.8"
	 style="enable-background:new 0 0 17.8 23.8;" xml:space="preserve">
<style type="text/css">
	.st0{fill:#8C8C8C;}
	.st1{fill:#E8E8E8;}
	.st2{fill:#1B1BAF;}
	.st3{fill:#0B0B49;}
	.st4{fill:#121272;}
	.st5{fill:#131387;}
	.st6{fill:#1A1AC8;}
	.st7{opacity:0.4;fill:#FFFFFF;enable-background:new    ;}
	.st8{fill:none;}
	.st9{font-family:'ArialMT';}
	.st10{font-size:12px;}
	.st11{font-family:'Arial-BoldMT';}
	.st12{font-size:3px;}
</style>
<g>
	<g id="breadboard">
		<g>
			<g id="legs">
				<polygon class="st0" points="5.5,19.9 0.6,19.9 0.6,20.1 0.6,21.3 0.6,23.8 2.8,23.8 2.8,21.3 5.5,21.3 				"/>
				<polygon class="st0" points="12.3,19.9 12.3,21.3 15,21.3 15,23.8 17.2,23.8 17.2,21.3 17.2,20.1 17.2,19.9 				"/>
				<polygon class="st0" points="11.1,2.5 10,2.5 10,0 7.8,0 7.8,2.5 6.7,2.5 6.7,3.9 7.8,3.9 7.8,4.3 10,4.3 10,3.9 11.1,3.9 				
					"/>
			</g>
			<path id="path20" class="st1" d="M8.9,2.9C4,2.9,0,6.9,0,11.8v8.9h8.9h8.9v-8.9C17.8,6.9,13.8,2.9,8.9,2.9z"/>
		</g>
		<g>
			<g id="connector0terminal">
			</g>
			<g id="connector1terminal">
			</g>
			<g id="connector2terminal">
			</g>
			<path id="path27" class="st2" d="M8.9,5.9C5.6,5.9,3,8.5,3,11.8s2.7,5.9,5.9,5.9c3.3,0,5.9-2.7,5.9-5.9
				C14.8,8.5,12.1,5.8,8.9,5.9z M6.5,12.7l0.8-1.9h3.2l0.8,1.9H6.5z"/>
			<polygon class="st3" points="11.3,12.7 9.9,9.2 9.8,7.6 7.9,7.7 7.9,9.2 6.5,12.7 7.8,12.7 7.9,15.8 9.9,15.8 9.9,12.7 			"/>
			<polygon class="st4" points="13,12.7 13,10.8 7.1,10.8 7.1,10.8 4.8,10.8 4.8,12.7 6.5,12.7 6.5,12.7 			"/>
			<path id="path41" class="st5" d="M16.8,14.1c0.1-0.5,0.2-1.1,0.2-1.7c0-0.5-0.1-1-0.2-1.5h-0.4L16,10.1c-0.1-0.3-0.2-0.6-0.3-0.8
				l-0.4-0.9l0.4-0.2C14.3,6,11.8,4.5,8.9,4.5C6,4.4,3.5,6,2.1,8.2l0.4,0.2L2.1,9.3C2,9.6,1.9,9.8,1.8,10.1L1.4,11H1
				c-0.1,0.5-0.1,1-0.1,1.5c0,0.6,0.1,1.1,0.2,1.7L1.6,14c0.2,1,0.6,2,1.3,2.9l-0.5,0.2c1.5,2.1,3.9,3.4,6.6,3.4s5.1-1.4,6.5-3.4
				L15,16.8c0.6-0.9,1.1-1.9,1.3-3L16.8,14.1z M8.9,17.7c-2.9,0-5.2-2.3-5.2-5.2S6,7.3,8.9,7.3s5.2,2.3,5.2,5.2
				C14.1,15.3,11.8,17.6,8.9,17.7z"/>
			<path id="path43" class="st3" d="M8.9,4.3c-4.1,0-7.5,3.4-7.5,7.5s3.4,7.5,7.5,7.5s7.5-3.4,7.5-7.5C16.4,7.6,13,4.2,8.9,4.3z
				 M8.9,17.6C5.7,17.6,3,15,3,11.8c0-3.3,2.6-5.9,5.9-5.9s5.9,2.6,5.9,5.9C14.8,15,12.2,17.6,8.9,17.6z"/>
			<path id="path45" class="st6" d="M16.7,13.4c0.1-0.5,0.2-1.1,0.2-1.7c0-0.5-0.1-1-0.2-1.5h-0.4l-1.1-2.6l0.4-0.2
				c-1.4-2.2-3.9-3.7-6.8-3.7C6,3.7,3.5,5.3,2.1,7.5l0.4,0.2l-1.1,2.7H1c-0.1,0.5-0.1,1-0.1,1.5c0,0.6,0.1,1.1,0.2,1.7L2.4,13
				l1.3,2.9l-1.3,0.6c1.5,2.1,3.9,3.4,6.6,3.4s5.1-1.4,6.5-3.4l-1.3-0.6l1.3-3L16.7,13.4z M8.9,17c-2.9,0-5.2-2.3-5.2-5.2
				S6,6.6,8.9,6.6s5.2,2.3,5.2,5.2C14.1,14.6,11.8,16.9,8.9,17z"/>
			<circle id="circle47" class="st7" cx="4" cy="6.9" r="0.6"/>
			<circle id="circle49" class="st7" cx="13.8" cy="6.9" r="0.6"/>
		</g>
	</g>
</g>
<path id="SVGID_x5F_1_x5F_" class="st8" d="M0.9,11.5c0,4.4,3.6,8,8,8s8-3.6,8-8"/>
<text transform="matrix(0.8318 0.5551 -0.5551 0.8318 3.0935 17.2336)" class="st9 st10"> </text>
<text transform="matrix(0.9625 0.2714 -0.2714 0.9625 5.9393 18.9759)" class="st4 st11 st12">1</text>
<text transform="matrix(0.9979 6.436576e-02 -6.436576e-02 0.9979 7.5509 19.4294)" class="st4 st11 st12">0</text>
<text transform="matrix(0.9896 -0.1438 0.1438 0.9896 9.2223 19.5373)" class="st4 st11 st12">2</text>
<text class="st9 st10"> </text>
</svg>
