<?xml version="1.0" encoding="utf-8"?>
<!-- Generator: Adobe Illustrator 24.0.0, SVG Export Plug-In . SVG Version: 6.00 Build 0)  -->
<svg version="1.1" id="Layer_1" xmlns="http://www.w3.org/2000/svg" xmlns:xlink="http://www.w3.org/1999/xlink" x="0px" y="0px"
	 viewBox="0 0 175.1 74.7" style="enable-background:new 0 0 175.1 74.7;" xml:space="preserve">
<style type="text/css">
	.st0{fill:url(#SVGID_1_);stroke:#000000;stroke-width:0.5;stroke-miterlimit:10;}
	.st1{fill:#BFBFBF;stroke:#000000;stroke-width:0.5;stroke-miterlimit:10;}
	.st2{stroke:#000000;stroke-width:0.5;stroke-miterlimit:10;}
	.st3{fill:url(#SVGID_2_);stroke:#000000;stroke-width:0.5;stroke-miterlimit:10;}
	.st4{fill:none;stroke:#000000;stroke-width:3;stroke-miterlimit:10;}
	.st5{fill:none;stroke:#FF0000;stroke-width:3;stroke-miterlimit:10;}
	.st6{font-family:'ArialMT';}
	.st7{font-size:12px;}
</style>
<g>
	<linearGradient id="SVGID_1_" gradientUnits="userSpaceOnUse" x1="76.752" y1="48.8307" x2="76.752" y2="25.8701">
		<stop  offset="0" style="stop-color:#404040"/>
		<stop  offset="0.5039" style="stop-color:#E6E6E6"/>
		<stop  offset="1" style="stop-color:#404040"/>
	</linearGradient>
	<polygon class="st0" points="0.5,25.9 0.5,32.4 23.5,32.4 23.5,42.3 0.5,42.3 0.5,48.8 153,48.8 153,25.9 	"/>
	<rect x="47" y="0.5" class="st1" width="106" height="73.7"/>
	<rect x="49.8" y="3.3" class="st2" width="100.3" height="68"/>
	<linearGradient id="SVGID_2_" gradientUnits="userSpaceOnUse" x1="99.996" y1="65.289" x2="99.996" y2="8.2891">
		<stop  offset="0" style="stop-color:#999765"/>
		<stop  offset="0.5039" style="stop-color:#FFFFA4"/>
		<stop  offset="1" style="stop-color:#999765"/>
	</linearGradient>
	<rect x="49.8" y="8.3" class="st3" width="100.3" height="57"/>
	<path class="st4" d="M150.2,24c0,0,7.3,2.7,12.1,2.5s12.1-4,12.1-4"/>
	<path class="st5" d="M150.2,57c0,0,7.3-3.6,12.1-3.6s12.1,3.6,12.1,3.6"/>
	<text transform="matrix(1 0 0 1 80.6542 31.9141)"><tspan x="0" y="0" class="st6 st7">B14HD</tspan><tspan x="-4" y="14.4" class="st6 st7">Solenoid</tspan></text>
</g>
</svg>
