<?xml version="1.0" encoding="utf-8"?>
<!-- Generator: Adobe Illustrator 24.0.0, SVG Export Plug-In . SVG Version: 6.00 Build 0)  -->
<svg version="1.1" id="Layer_1" xmlns="http://www.w3.org/2000/svg" xmlns:xlink="http://www.w3.org/1999/xlink" x="0px" y="0px"
	 viewBox="0 0 79.7 79.7" style="enable-background:new 0 0 79.7 79.7;" xml:space="preserve">
<style type="text/css">
	.st0{fill:url(#SVGID_1_);stroke:#000000;stroke-width:0.5;stroke-miterlimit:10;}
	.st1{fill:url(#SVGID_2_);stroke:#000000;stroke-width:0.5;stroke-miterlimit:10;}
	.st2{fill:url(#SVGID_3_);stroke:#000000;stroke-width:0.5;stroke-miterlimit:10;}
	.st3{fill:none;stroke:#000000;stroke-width:0.5;stroke-miterlimit:10;}
</style>
<g>
	<g>
		<radialGradient id="SVGID_1_" cx="39.85" cy="39.85" r="39.6" gradientUnits="userSpaceOnUse">
			<stop  offset="0" style="stop-color:#FFFFFF"/>
			<stop  offset="0.1201" style="stop-color:#FBFBFB"/>
			<stop  offset="0.245" style="stop-color:#EEEEEE"/>
			<stop  offset="0.3721" style="stop-color:#D9D9D9"/>
			<stop  offset="0.5008" style="stop-color:#BCBCBC"/>
			<stop  offset="0.6306" style="stop-color:#979797"/>
			<stop  offset="0.7616" style="stop-color:#696969"/>
			<stop  offset="0.8908" style="stop-color:#333333"/>
			<stop  offset="1" style="stop-color:#000000"/>
		</radialGradient>
		<path class="st0" d="M39.8,0.2C18,0.2,0.2,18,0.2,39.8S18,79.5,39.8,79.5s39.6-17.7,39.6-39.6S61.7,0.2,39.8,0.2z M39.8,74
			C21,74,5.6,58.7,5.6,39.8C5.6,21,21,5.7,39.8,5.7S74,21,74,39.8C74,58.7,58.7,74,39.8,74z"/>
		<radialGradient id="SVGID_2_" cx="39.85" cy="39.85" r="34.2" gradientUnits="userSpaceOnUse">
			<stop  offset="0" style="stop-color:#FFFFFF"/>
			<stop  offset="1.102906e-02" style="stop-color:#F7F7F7"/>
			<stop  offset="8.813703e-02" style="stop-color:#C4C4C4"/>
			<stop  offset="0.1706" style="stop-color:#959595"/>
			<stop  offset="0.2566" style="stop-color:#6D6D6D"/>
			<stop  offset="0.3469" style="stop-color:#4B4B4B"/>
			<stop  offset="0.4428" style="stop-color:#303030"/>
			<stop  offset="0.5462" style="stop-color:#1B1B1B"/>
			<stop  offset="0.6609" style="stop-color:#0C0C0C"/>
			<stop  offset="0.7956" style="stop-color:#030303"/>
			<stop  offset="1" style="stop-color:#000000"/>
		</radialGradient>
		<path class="st1" d="M39.8,5.7C21,5.7,5.6,21,5.6,39.8C5.6,58.7,21,74,39.8,74S74,58.7,74,39.8C74,21,58.7,5.7,39.8,5.7z
			 M39.8,54.2c-8,0-14.4-6.4-14.4-14.4c0-8,6.4-14.4,14.4-14.4s14.4,6.4,14.4,14.4C54.2,47.8,47.8,54.2,39.8,54.2z"/>
		<linearGradient id="SVGID_3_" gradientUnits="userSpaceOnUse" x1="25.45" y1="39.85" x2="54.25" y2="39.85">
			<stop  offset="0" style="stop-color:#454545"/>
			<stop  offset="0.1223" style="stop-color:#2F2F2F"/>
			<stop  offset="0.2823" style="stop-color:#1A1A1A"/>
			<stop  offset="0.4615" style="stop-color:#0B0B0B"/>
			<stop  offset="0.6733" style="stop-color:#030303"/>
			<stop  offset="1" style="stop-color:#000000"/>
		</linearGradient>
		<circle class="st2" cx="39.8" cy="39.8" r="14.4"/>
	</g>
	<g>
		<line class="st3" x1="44.4" y1="23.3" x2="63.9" y2="18.1"/>
		<line class="st3" x1="40" y1="22.7" x2="57.5" y2="12.6"/>
		<line class="st3" x1="35.6" y1="23.2" x2="49.8" y2="8.9"/>
		<line class="st3" x1="31.4" y1="24.9" x2="41.5" y2="7.4"/>
		<line class="st3" x1="27.8" y1="27.6" x2="33" y2="8.1"/>
		<line class="st3" x1="25.1" y1="31.1" x2="25" y2="10.9"/>
		<line class="st3" x1="23.3" y1="35.3" x2="18.1" y2="15.8"/>
		<line class="st3" x1="22.7" y1="39.7" x2="12.6" y2="22.2"/>
		<line class="st3" x1="23.2" y1="44.1" x2="8.9" y2="29.9"/>
		<line class="st3" x1="24.9" y1="48.3" x2="7.4" y2="38.2"/>
		<line class="st3" x1="27.6" y1="51.9" x2="8.1" y2="46.7"/>
		<line class="st3" x1="31.1" y1="54.6" x2="10.9" y2="54.7"/>
		<line class="st3" x1="35.3" y1="56.4" x2="15.8" y2="61.6"/>
		<line class="st3" x1="39.7" y1="57" x2="22.2" y2="67.1"/>
		<line class="st3" x1="44.1" y1="56.5" x2="29.9" y2="70.8"/>
		<line class="st3" x1="48.3" y1="54.8" x2="38.2" y2="72.3"/>
		<line class="st3" x1="51.9" y1="52.1" x2="46.7" y2="71.6"/>
		<line class="st3" x1="54.6" y1="48.6" x2="54.7" y2="68.8"/>
		<line class="st3" x1="56.4" y1="44.4" x2="61.6" y2="63.9"/>
		<line class="st3" x1="57" y1="40" x2="67.1" y2="57.5"/>
		<line class="st3" x1="56.5" y1="35.6" x2="70.8" y2="49.8"/>
		<line class="st3" x1="54.8" y1="31.4" x2="72.3" y2="41.5"/>
		<line class="st3" x1="52.1" y1="27.8" x2="71.6" y2="33"/>
		<line class="st3" x1="48.6" y1="25.1" x2="68.8" y2="25"/>
	</g>
</g>
</svg>
