<?xml version="1.0" encoding="utf-8"?>
<!-- Generator: Adobe Illustrator 23.0.3, SVG Export Plug-In . SVG Version: 6.00 Build 0)  -->
<svg version="1.1" id="Layer_1" xmlns="http://www.w3.org/2000/svg" xmlns:xlink="http://www.w3.org/1999/xlink" x="0px" y="0px"
	 viewBox="0 0 21.3 40" style="enable-background:new 0 0 21.3 40;" xml:space="preserve">
<style type="text/css">
	.st0{fill:#1A1A1A;}
	.st1{fill:#333333;stroke:#404040;stroke-width:0.25;stroke-miterlimit:10;}
	.st2{fill:#F2F2F2;}
	.st3{fill:none;stroke:#4D4D4D;stroke-width:0.25;stroke-miterlimit:10;}
	.st4{fill:none;stroke:#4F4F4F;stroke-width:0.5;stroke-miterlimit:10;}
	.st5{opacity:0.42;}
	.st6{fill:none;stroke:#999999;stroke-miterlimit:10;}
</style>
<title>DPDT Slide Switch</title>
<g>
	<path class="st0" d="M20.1,40H1.2C0.5,40,0,39.4,0,38.8V1.2C0,0.5,0.5,0,1.2,0h18.9c0.6,0,1.2,0.5,1.2,1.2v37.6
		C21.3,39.4,20.7,40,20.1,40z"/>
	
		<rect x="-6.5" y="12.2" transform="matrix(-1.836970e-16 1 -1 -1.836970e-16 30.6135 9.3543)" class="st1" width="34.3" height="15.6"/>
	<rect x="6.4" y="11.5" class="st2" width="8.5" height="17"/>
	<rect x="6.4" y="15.7" class="st0" width="8.5" height="8.5"/>
	<rect x="6.4" y="20.1" class="st3" width="8.5" height="8.5"/>
	<g>
		<rect x="6.4" y="20" width="8.5" height="8.5"/>
		<line class="st4" x1="6.4" y1="20.4" x2="14.9" y2="20.4"/>
		<line class="st4" x1="6.4" y1="28.1" x2="14.9" y2="28.1"/>
		<line class="st4" x1="6.4" y1="22.8" x2="14.9" y2="22.8"/>
		<line class="st4" x1="6.4" y1="25.6" x2="14.9" y2="25.6"/>
	</g>
	<g>
		<g class="st5">
			<circle class="st6" cx="10.6" cy="5.6" r="1.5"/>
		</g>
		<g class="st5">
			<circle class="st6" cx="10.6" cy="20" r="1.5"/>
		</g>
		<g class="st5">
			<circle class="st6" cx="10.6" cy="34.4" r="1.5"/>
		</g>
	</g>
</g>
</svg>
