<?xml version="1.0" encoding="utf-8"?>
<!-- Generator: Adobe Illustrator 23.0.1, SVG Export Plug-In . SVG Version: 6.00 Build 0)  -->
<svg version="1.1" id="Layer_1" xmlns="http://www.w3.org/2000/svg" xmlns:xlink="http://www.w3.org/1999/xlink" x="0px" y="0px"
	 viewBox="0 0 17.2 23" style="enable-background:new 0 0 17.2 23;" xml:space="preserve">
<style type="text/css">
	.st0{fill:#BD0000;stroke:#000000;stroke-width:5.000000e-02;stroke-miterlimit:10;}
	.st1{fill:#8A8A8A;stroke:#000000;stroke-width:5.000000e-02;stroke-miterlimit:10;}
	.st2{fill:#A1A1A1;stroke:#000000;stroke-width:5.000000e-02;stroke-miterlimit:10;}
	.st3{fill:#B8B8B8;stroke:#000000;stroke-width:5.000000e-02;stroke-miterlimit:10;}
	.st4{fill:#CCCCCC;stroke:#000000;stroke-width:5.000000e-02;stroke-miterlimit:10;}
	.st5{opacity:0.42;}
	.st6{fill:none;stroke:#000000;stroke-miterlimit:10;}
</style>
<g>
	<rect x="0.1" y="0" class="st0" width="17" height="23"/>
	<circle class="st1" cx="8.6" cy="11.7" r="8.6"/>
	<g>
		<path class="st2" d="M11.5,5.8H5.9c-2.2,1.1-3.7,3.4-3.7,5.9c0,3.6,2.9,6.5,6.5,6.5s6.5-2.9,6.5-6.5C15.2,9.1,13.6,6.9,11.5,5.8z"
			/>
	</g>
	<circle class="st3" cx="8.6" cy="11.4" r="4.8"/>
	<path class="st4" d="M8.7,20.9L8.7,20.9c-1.8,0-3.3-1.5-3.3-3.4l0.2-5.7c0.1-1.6,1.4-3,3-3l0,0c1.6,0,3,1.3,3,2.9l0.2,5.7
		C12.1,19.3,10.6,20.9,8.7,20.9z"/>
</g>
<g class="st5">
	<circle class="st6" cx="8.6" cy="4.3" r="1.5"/>
	<circle class="st6" cx="8.6" cy="11.5" r="1.5"/>
	<circle class="st6" cx="8.6" cy="18.7" r="1.5"/>
</g>
</svg>
