<?xml version="1.0" encoding="utf-8"?>
<!-- Generator: Adobe Illustrator 23.0.3, SVG Export Plug-In . SVG Version: 6.00 Build 0)  -->
<svg version="1.1" id="Layer_1" xmlns="http://www.w3.org/2000/svg" xmlns:xlink="http://www.w3.org/1999/xlink" x="0px" y="0px"
	 viewBox="0 0 21.3 40" style="enable-background:new 0 0 21.3 40;" xml:space="preserve">
<style type="text/css">
	.st0{fill:#1A1A1A;}
	.st1{fill:none;stroke:#4F4F4F;stroke-width:0.5;stroke-miterlimit:10;}
	.st2{opacity:0.42;}
	.st3{fill:none;stroke:#999999;stroke-miterlimit:10;}
	.st4{fill:#303030;}
	.st5{font-family:'ArialMT';}
	.st6{font-size:12px;}
	.st7{fill:none;stroke:#000000;stroke-width:0.5;stroke-miterlimit:10;}
</style>
<g>
	<g>
		<path class="st0" d="M20.1,40H1.2C0.5,40,0,39.4,0,38.8V1.2C0,0.5,0.5,0,1.2,0h18.9c0.6,0,1.2,0.5,1.2,1.2v37.6
			C21.3,39.4,20.7,40,20.1,40z"/>
		<rect x="18.6" y="11.5" class="st0" width="2.7" height="17"/>
		<g>
			<rect x="21.3" y="20" width="16.7" height="8.5"/>
			<path class="st1" d="M14.9,20.4"/>
			<path class="st1" d="M6.4,20.4"/>
		</g>
		<g>
			<g class="st2">
				<circle class="st3" cx="10.6" cy="12.8" r="1.5"/>
			</g>
			<g class="st2">
				<circle class="st3" cx="10.6" cy="20" r="1.5"/>
			</g>
			<g class="st2">
				<circle class="st3" cx="10.6" cy="27.2" r="1.5"/>
			</g>
		</g>
	</g>
	<g>
		<text transform="matrix(-1.836970e-16 -1 1 -1.836970e-16 14.5706 37.8857)" class="st4 st5 st6">2</text>
		<text transform="matrix(-1.836970e-16 -1 1 -1.836970e-16 14.5706 7.3486)" class="st4 st5 st6">1</text>
	</g>
	<g>
		<line class="st7" x1="38" y1="20.2" x2="38.3" y2="20.2"/>
		<line class="st7" x1="38" y1="21.8" x2="38.3" y2="21.8"/>
		<line class="st7" x1="38" y1="23.4" x2="38.3" y2="23.4"/>
		<line class="st7" x1="38" y1="25" x2="38.3" y2="25"/>
		<line class="st7" x1="38" y1="26.6" x2="38.3" y2="26.6"/>
		<line class="st7" x1="38" y1="28.2" x2="38.3" y2="28.2"/>
	</g>
</g>
</svg>
