<?xml version="1.0" encoding="utf-8"?>
<!-- Generator: Adobe Illustrator 24.0.0, SVG Export Plug-In . SVG Version: 6.00 Build 0)  -->
<svg version="1.1" id="Layer_1" xmlns="http://www.w3.org/2000/svg" xmlns:xlink="http://www.w3.org/1999/xlink" x="0px" y="0px"
	 viewBox="0 0 18.2 25" style="enable-background:new 0 0 18.2 25;" xml:space="preserve">
<style type="text/css">
	.st0{fill:#989898;stroke:#000000;stroke-width:5.000000e-02;stroke-miterlimit:10;}
	.st1{fill:#FDB2B2;stroke:#000000;stroke-width:5.000000e-02;stroke-miterlimit:10;}
	.st2{fill:#010101;stroke:#000000;stroke-width:5.000000e-02;stroke-miterlimit:10;}
	.st3{fill:#7C7C7C;stroke:#000000;stroke-width:5.000000e-02;stroke-miterlimit:10;}
	.st4{fill:#181818;stroke:#000000;stroke-width:5.000000e-02;stroke-miterlimit:10;}
	.st5{fill:#383737;stroke:#000000;stroke-width:5.000000e-02;stroke-miterlimit:10;}
	.st6{fill:#BC6B6B;stroke:#000000;stroke-width:5.000000e-02;stroke-miterlimit:10;}
	.st7{fill:#4E0303;stroke:#000000;stroke-width:5.000000e-02;stroke-miterlimit:10;}
	.st8{fill:#343434;stroke:#000000;stroke-width:5.000000e-02;stroke-miterlimit:10;}
	.st9{fill:#EAECEE;stroke:#000000;stroke-width:5.000000e-02;stroke-miterlimit:10;}
	.st10{fill:#C64646;stroke:#000000;stroke-width:5.000000e-02;stroke-miterlimit:10;}
	.st11{fill:#725348;stroke:#000000;stroke-width:5.000000e-02;stroke-miterlimit:10;}
	.st12{fill:#BFB3AD;stroke:#000000;stroke-width:5.000000e-02;stroke-miterlimit:10;}
	.st13{fill:#AD6161;stroke:#000000;stroke-width:5.000000e-02;stroke-miterlimit:10;}
	.st14{fill:none;stroke:#808080;stroke-width:0.1;stroke-miterlimit:10;}
</style>
<g>
	<g>
		<path class="st0" d="M18.1,16.6L18.1,16.6c0,1.2,0,2.3,0,3.4c0,0.1,0,0.1,0,0.2c0,0-0.1,0.1-0.1,0.2c-0.1,0.3-0.2,0.6-0.5,0.8
			c-0.1,0-0.2-0.1-0.3-0.1c-0.6,0-1.3,0-1.9,0c-0.1,0-0.1,0-0.2,0.1c-0.1,0.1-0.2,0.2-0.3,0.3l0,0l0,0c-0.8,0-1.7,0-2.5,0
			c-1.1,0-2.1,0-3.2,0H9c-1.9,0-3.8,0-5.7,0l0,0l0,0c-0.1-0.1-0.2-0.2-0.2-0.3C3,21.1,3,21.1,2.8,21.1c-0.7,0-1.3,0-2,0l0,0
			c-0.2-0.2-0.3-0.4-0.4-0.7c0-0.1,0-0.2-0.1-0.3c0-1,0-2,0-3c0-0.1,0-0.3,0-0.4l0,0c0-1.2,0-2.3,0-3.5c0-1.3,0-2.5,0-3.8l0,0
			c0-1.4,0-2.7,0-4.1c0-0.1,0-0.2,0-0.3c0.1-0.1,0-0.2,0.1-0.3c0-0.3,0.2-0.5,0.4-0.7l0,0c0.7,0,1.3,0,2,0C2.9,4,2.9,4,3,3.9
			s0.2-0.2,0.3-0.3l0,0c1.2,0,2.5,0,3.7,0c0.7,0,1.3,0,2,0h0.1c0.2,0,0.3,0,0.4,0c1.7,0,3.4,0,5.1,0c0.1,0,0.2,0,0.2,0l0,0
			c0,0.1,0.1,0.1,0.1,0.2C15,4,15.2,4.1,15.5,4c0.6,0,1.1,0,1.7,0c0.1,0,0.2,0,0.3-0.1c0.3,0.2,0.4,0.4,0.5,0.8c0,0.1,0,0.1,0.1,0.1
			v0.1l0,0l0,0c0,1.2,0,2.4,0,3.5c0,0.3,0,0.6,0,0.9l0,0c0,1.7,0,3.4,0,5C18.1,15.1,18.1,15.8,18.1,16.6z M11.4,7.8
			c-0.1,0-0.2-0.1-0.3-0.1C10.6,7.5,10,7.3,9.4,7.3s-1.2,0-1.7,0.2c-0.2,0-0.3,0.1-0.5,0.1c0,0-0.1,0-0.1,0.1l0,0
			C7,7.7,6.9,7.8,6.9,7.8s0,0-0.1,0c-2.1,1.1-3.2,3.3-2.9,5.6c0.2,1.2,0.8,2.3,1.7,3.1c0.6,0.6,1.4,0.9,2.2,1.1h0.1c0,0,0,0,0.1,0
			c0.5,0.1,1.1,0.2,1.6,0.1c0.8-0.1,1.6-0.4,2.3-0.8c0.2-0.1,0.4-0.3,0.6-0.4c1.6-1.4,2.1-3.2,1.6-5.3C13.7,9.6,12.8,8.5,11.4,7.8z
			 M4.3,6.1c0-0.9-0.7-1.5-1.6-1.5c-0.8,0-1.5,0.7-1.5,1.6s0.7,1.6,1.6,1.6C3.6,7.7,4.3,7,4.3,6.1z M1.1,18.9c0,0.9,0.7,1.6,1.5,1.6
			c0.9,0,1.6-0.7,1.6-1.6c0-0.8-0.7-1.5-1.5-1.6C1.8,17.3,1.1,18,1.1,18.9z M15.4,17.4c-0.9,0-1.6,0.7-1.6,1.5
			c0,0.9,0.7,1.6,1.5,1.6c0.9,0,1.6-0.7,1.6-1.5C17,18.1,16.3,17.4,15.4,17.4z M13.9,6.1c0,0.9,0.7,1.6,1.6,1.6
			c0.9,0,1.6-0.7,1.6-1.6c0-0.8-0.7-1.5-1.5-1.5C14.6,4.6,13.9,5.3,13.9,6.1z"/>
		<path class="st1" d="M3.1,3.5L3.1,3.5c-0.2,0-0.3,0-0.4,0c0-0.1,0-0.2,0-0.2c0-0.9,0-1.8,0-2.7c0-0.2,0-0.2-0.2-0.2
			c-0.6,0-1.2,0-1.8,0c-0.2,0-0.2,0.1-0.2,0.2c0,1,0,1.9,0,2.9c-0.1,0-0.3,0-0.4,0l0,0l0,0c0-1,0-1.9,0-2.9C0.1,0.3,0.4,0,0.7,0
			c0.6,0,1.2,0,1.8,0c0.2,0,0.6,0.3,0.6,0.6c0,0.5,0,0.9,0,1.4l0,0C3.1,2.5,3.1,3,3.1,3.5z"/>
		<path class="st2" d="M0.5,3.9C0.3,4.1,0.2,4.3,0.1,4.6c0,0,0,0-0.1,0c0-0.4,0-0.7,0-1.1l0,0l0,0C0.3,3.7,0.4,3.8,0.5,3.9z"/>
		<path class="st3" d="M0.1,4.6L0.1,4.6c0,0.1,0,0.2,0,0.3C0.1,4.8,0.1,4.7,0.1,4.6z"/>
		<path class="st1" d="M14.8,3.5C14.8,3.5,14.7,3.5,14.8,3.5c0-0.5,0-1,0-1.5l0,0c0-0.5,0-0.9,0-1.4c0-0.2,0.3-0.6,0.6-0.6
			c0.6,0,1.2,0,1.8,0c0.3,0,0.6,0.3,0.6,0.6c0,1,0,1.9,0,2.9l0,0c-0.1,0-0.2,0-0.4,0c0-1,0-1.9,0-2.9c0-0.2-0.1-0.2-0.2-0.2
			c-0.6,0-1.2,0-1.7,0c-0.2,0-0.2,0-0.2,0.2c0,1,0,1.9,0,2.9C15,3.5,14.9,3.5,14.8,3.5z"/>
		<path class="st2" d="M17.7,3.5C17.7,3.5,17.8,3.5,17.7,3.5c0.3,0,0.3,0,0.3,0.3s0,0.5,0,0.8c0,0,0,0-0.1,0
			c-0.1-0.3-0.2-0.6-0.5-0.8l0,0C17.6,3.7,17.7,3.6,17.7,3.5z"/>
		<path class="st3" d="M18,4.6L18,4.6C18,4.6,18,4.7,18,4.6C18,4.7,18,4.7,18,4.6z"/>
		<path class="st3" d="M18,4.8L18,4.8L18,4.8L18,4.8z"/>
		<path class="st1" d="M14.7,21.5C14.8,21.4,14.8,21.4,14.7,21.5c0.2,0,0.3,0,0.4,0c0,1,0,1.9,0,2.9c0,0.2,0,0.2,0.2,0.2
			c0.6,0,1.2,0,1.8,0c0.2,0,0.2,0,0.2-0.2c0-1,0-1.9,0-2.9c0.1,0,0.2,0,0.4,0l0,0c0,0.8,0,1.6,0,2.4l0,0c0,0.1,0,0.2,0,0.2
			c0.1,0.3-0.1,0.5-0.3,0.7c-0.1,0.1-0.1,0.1-0.2,0.1c-0.6,0-1.3,0-1.9,0c-0.2,0-0.6-0.4-0.6-0.6s0-0.3,0-0.5l0,0
			C14.7,23.1,14.7,22.3,14.7,21.5L14.7,21.5z"/>
		<path class="st1" d="M3.1,21.4L3.1,21.4C3.1,21.5,3.1,21.5,3.1,21.4c0,0.8,0,1.7,0,2.5l0,0c0,0.1,0,0.1,0,0.2
			c0.1,0.3-0.1,0.6-0.3,0.8c-0.1,0-0.1,0.1-0.2,0.1c-0.6,0-1.3,0-2,0c-0.2,0-0.5-0.3-0.5-0.5s0-0.3,0-0.5l0,0c0-0.8,0-1.6,0-2.4l0,0
			c0.1,0,0.2,0,0.4,0c0,1,0,1.9,0,2.9c0,0.2,0,0.2,0.2,0.2c0.6,0,1.2,0,1.8,0c0.2,0,0.2-0.1,0.2-0.2c0-1,0-1.9,0-2.9
			C2.9,21.4,3,21.4,3.1,21.4z"/>
		<path class="st2" d="M0.2,21.4C0.1,21.4,0.1,21.4,0.2,21.4c-0.1-0.4,0-0.7-0.1-1.1c0,0,0,0,0.1,0c0,0.3,0.2,0.5,0.4,0.7
			C0.4,21.2,0.3,21.3,0.2,21.4z"/>
		<path class="st3" d="M0.1,20.4L0.1,20.4C0,20.3,0,20.2,0,20.1C0.1,20.2,0.1,20.3,0.1,20.4z"/>
		<path class="st2" d="M17.8,21.5C17.8,21.5,17.7,21.4,17.8,21.5c-0.1-0.1-0.2-0.2-0.3-0.3l0,0c0.3-0.2,0.4-0.5,0.5-0.8
			c0,0,0,0,0.1,0c0,0.3,0,0.5,0,0.8C18,21.4,18,21.4,17.8,21.5z"/>
		<path class="st3" d="M18,20.4L18,20.4c-0.1-0.1,0-0.1,0-0.2C18,20.2,18.1,20.3,18,20.4z"/>
		<path class="st4" d="M11.9,16.9c-0.7,0.4-1.5,0.7-2.3,0.8c-0.5,0.1-1.1,0-1.6-0.1c0,0,0-0.1-0.1,0H7.8c0-0.1-0.1-0.1-0.2-0.1
			C6.2,17,5.3,16,4.8,14.6c-0.2-0.5-0.2-0.9-0.3-1.4c0-0.1-0.1-0.2,0.1-0.2c0.1,1,0.5,1.9,1.2,2.6c1.1,1.2,2.5,1.6,4.1,1.3
			c2.1-0.4,3.6-2.2,3.7-4.3c0-0.4-0.1-0.7-0.1-1c0.1,0.1,0.1,0.1,0.1,0.2c0.2,0.7,0.3,1.4,0.1,2.1c-0.2,1.1-0.7,2-1.5,2.7
			C12.1,16.7,11.9,16.7,11.9,16.9z"/>
		<path class="st2" d="M4.3,6.1c0,0.9-0.7,1.6-1.5,1.6S1.2,7,1.2,6.1c0-0.8,0.7-1.5,1.5-1.6C3.6,4.6,4.2,5.2,4.3,6.1z M2.7,5.8
			c0-0.2-0.1-0.4-0.1-0.6S2.5,5,2.3,5C2,5.1,1.8,5.3,1.7,5.6c-0.1,0.1,0,0.2,0.1,0.2C2,5.9,2.3,6,2.5,6.1C2.5,6,2.7,5.9,2.7,5.8z"/>
		<path class="st2" d="M1.1,18.9c0-0.9,0.7-1.6,1.6-1.5c0.8,0,1.5,0.7,1.5,1.6s-0.7,1.6-1.6,1.6C1.8,20.4,1.1,19.7,1.1,18.9z
			 M2.4,17.7c-0.3,0-0.8,0.4-0.8,0.7c0,0.1,0,0.1,0.1,0.1c0.2,0.1,0.5,0.2,0.7,0.3c0.1,0,0.3-0.1,0.3-0.2c0-0.2-0.1-0.5-0.1-0.7
			C2.5,17.7,2.5,17.7,2.4,17.7z"/>
		<path class="st2" d="M15.4,17.4c0.9,0,1.6,0.7,1.5,1.6c0,0.9-0.7,1.6-1.6,1.5c-0.8,0-1.5-0.7-1.5-1.6C13.9,18,14.6,17.4,15.4,17.4
			z M15.4,18.6c0-0.3-0.1-0.6-0.1-0.8c0-0.1-0.1-0.1-0.2-0.1c-0.4,0.1-0.6,0.3-0.8,0.6c0,0.1,0,0.1,0,0.1c0.3,0.1,0.5,0.2,0.8,0.3
			C15.2,18.8,15.4,18.7,15.4,18.6z"/>
		<path class="st2" d="M13.9,6.1c0-0.9,0.7-1.6,1.6-1.6C16.4,4.5,17,5.2,17,6s-0.7,1.6-1.6,1.6C14.6,7.7,13.9,7,13.9,6.1z M15.2,4.9
			c-0.3,0-0.8,0.4-0.8,0.7c0,0.1,0,0.1,0.1,0.1C14.7,5.8,15,5.9,15.3,6c0.1,0,0.3-0.1,0.2-0.2c0-0.3-0.1-0.5-0.1-0.8
			C15.3,5,15.2,4.9,15.2,4.9z"/>
		<path class="st5" d="M14.1,11.1c-0.4-1.5-1.3-2.6-2.7-3.3c-0.1,0-0.2-0.1-0.3-0.1C10.6,7.5,10,7.3,9.4,7.3s-1.2,0-1.7,0.2
			c-0.2,0-0.3,0.1-0.5,0.1c-0.1,0-0.5,0.2-0.5,0.2c-2.1,1.1-3.2,3.3-2.9,5.6c0.2,1.2,0.8,2.3,1.7,3.1c0.6,0.6,1.4,0.9,2.2,1.1
			c0-0.1-0.1-0.1-0.2-0.1C6.1,17,5.2,16,4.7,14.6c-0.2-0.5-0.2-0.9-0.3-1.4c0-0.1-0.1-0.2,0.1-0.2c0-0.5,0-1.1,0.1-1.6
			c0.3-1.2,1-2.1,2-2.7c0,0,0.4-0.2,0.5-0.3C7.7,8.2,8.3,8,9,8c0.5,0,1,0.1,1.5,0.3c0.3,0.1,0.5,0.2,0.7,0.3l0,0
			c0.2,0.2,0.4,0.3,0.6,0.5c0.7,0.6,1.2,1.4,1.4,2.3c0,0.1,0,0.1,0.1,0.2s0.1,0.1,0.1,0.2c0.2,0.7,0.3,1.4,0.1,2.1
			c-0.2,1.1-0.7,2-1.5,2.7c-0.1,0.1-0.2,0.1-0.3,0.3c0.2-0.1,0.4-0.3,0.6-0.4C14.1,15,14.6,13.2,14.1,11.1z"/>
		<path class="st6" d="M17.5,3.8L17.5,3.8c-0.1,0.1-0.2,0.1-0.3,0.1c-0.6,0-1.1,0-1.7,0c-0.2,0-0.4,0-0.6-0.2c0-0.1-0.1-0.1-0.1-0.2
			c0.1,0,0.2,0,0.4,0c0.6,0,1.1,0,1.7,0C17.1,3.6,17.3,3.7,17.5,3.8z"/>
		<path class="st6" d="M17.5,21.1L17.5,21.1c-0.2,0.1-0.4,0.3-0.6,0.3c-0.1,0-0.3,0-0.4,0c-0.4,0-0.8,0-1.3,0c-0.1,0-0.2,0-0.4,0
			c0.1-0.1,0.2-0.2,0.3-0.3c0.1-0.1,0.1-0.1,0.2-0.1c0.6,0,1.3,0,1.9,0C17.3,21,17.4,21.1,17.5,21.1z"/>
		<path class="st6" d="M3.1,21.4c-0.1,0-0.2,0-0.4,0s-0.4,0-0.6,0c-0.3,0-0.6,0-0.8,0c-0.3,0-0.5-0.2-0.7-0.4c0.7,0,1.3,0,2,0
			c0.1,0,0.2,0.1,0.3,0.1C2.9,21.3,3,21.4,3.1,21.4z"/>
		<path class="st6" d="M2.7,3.5c0.1,0,0.2,0,0.4,0C3,3.6,2.9,3.7,2.8,3.8S2.7,3.9,2.6,3.9c-0.7,0-1.3,0-2,0C0.8,3.7,1,3.6,1.3,3.5
			c0.1,0,0.3,0,0.4,0C2,3.5,2.4,3.5,2.7,3.5z"/>
		<path class="st7" d="M1.3,3.5C1,3.5,0.8,3.7,0.6,3.9l0,0C0.5,3.8,0.3,3.6,0.2,3.5c0.1,0,0.3,0,0.4,0C0.8,3.5,1,3.5,1.3,3.5z"/>
		<path class="st7" d="M0.6,21c0.2,0.2,0.4,0.3,0.7,0.4c-0.3,0.1-0.5,0-0.8,0c-0.1,0-0.2,0-0.4,0C0.3,21.3,0.4,21.2,0.6,21
			C0.5,21,0.5,21,0.6,21z"/>
		<path class="st8" d="M7.9,17.6C7.9,17.5,7.9,17.5,7.9,17.6L7.9,17.6z"/>
		<path class="st9" d="M3.2,21.5L3.2,21.5C3.1,21.5,3.1,21.5,3.2,21.5C3.2,21.4,3.2,21.5,3.2,21.5z"/>
		<path class="st9" d="M14.7,21.5L14.7,21.5C14.7,21.5,14.7,21.4,14.7,21.5L14.7,21.5z"/>
		<path class="st10" d="M1.3,3.5c-0.3-0.1-0.5,0-0.8,0c0-1,0-1.9,0-2.9c0-0.2,0-0.2,0.2-0.2c0.6,0,1.2,0,1.8,0
			c0.2,0,0.2,0.1,0.2,0.2c0,0.9,0,1.8,0,2.7c0,0.1,0,0.2,0,0.2c-0.3,0-0.7,0-1,0C1.6,3.5,1.4,3.5,1.3,3.5z M2.3,2c0-0.3,0-0.7,0-1
			c0-0.1,0-0.2-0.2-0.2c-0.4,0-0.7,0-1.1,0c-0.1,0-0.2,0-0.2,0.2c0,0.7,0,1.3,0,2c0,0.1,0.1,0.2,0.2,0.2c0.4,0,0.7,0,1.1,0
			c0.1,0,0.2,0,0.2-0.2C2.3,2.6,2.3,2.3,2.3,2z"/>
		<path class="st10" d="M16.8,3.5c-0.6-0.1-1.1,0-1.7,0c0-1,0-1.9,0-2.9c0-0.2,0-0.3,0.2-0.2c0.6,0,1.2,0,1.7,0c0.2,0,0.2,0,0.2,0.2
			c0,1,0,1.9,0,2.9C17.2,3.5,17,3.5,16.8,3.5z M16.9,2c0-0.3,0-0.7,0-1c0-0.1,0-0.2-0.2-0.2c-0.4,0-0.7,0-1.1,0
			c-0.1,0-0.2,0-0.2,0.2c0,0.6,0,1.3,0,1.9c0,0.1,0,0.2,0.2,0.2c0.3,0,0.7,0,1,0c0.1,0,0.2-0.1,0.2-0.2C16.9,2.6,16.9,2.3,16.9,2z"
			/>
		<path class="st7" d="M16.8,3.5c0.2-0.1,0.3,0,0.5,0c0.1,0,0.2,0,0.4,0c0,0.1-0.2,0.2-0.3,0.3C17.3,3.7,17.1,3.6,16.8,3.5z"/>
		<path class="st10" d="M15.1,21.5c0.4,0,0.8,0,1.3,0c0.1,0,0.3,0,0.4,0c0.2,0.1,0.4,0,0.5,0c0,1,0,1.9,0,2.9c0,0.2-0.1,0.2-0.2,0.2
			c-0.6,0-1.2,0-1.8,0c-0.2,0-0.2,0-0.2-0.2C15.1,23.4,15.1,22.4,15.1,21.5z M15.6,23c0,0.3,0,0.6,0,1c0,0.1,0,0.2,0.2,0.2
			c0.3,0,0.7,0,1,0c0.1,0,0.2,0,0.2-0.2c0-0.7,0-1.3,0-2c0-0.1,0-0.2-0.2-0.2c-0.3,0-0.7,0-1,0c-0.1,0-0.2,0-0.2,0.2
			C15.6,22.4,15.6,22.7,15.6,23z"/>
		<path class="st7" d="M17.4,21.5c-0.2,0-0.4,0-0.5,0c0.2,0,0.4-0.2,0.6-0.3c0.1,0.1,0.2,0.2,0.3,0.3C17.6,21.4,17.5,21.4,17.4,21.5
			z"/>
		<path class="st10" d="M0.5,21.5c0.3,0,0.5,0,0.8,0c0.3,0.1,0.6,0,0.8,0s0.4,0,0.6,0c0,1,0,1.9,0,2.9c0,0.2,0,0.2-0.2,0.2
			c-0.6,0-1.2,0-1.8,0c-0.2,0-0.2-0.1-0.2-0.2C0.5,23.4,0.5,22.4,0.5,21.5z M2.3,23c0-0.3,0-0.7,0-1c0-0.1,0-0.2-0.1-0.2
			c-0.4,0-0.7,0-1.1,0c-0.1,0-0.1,0-0.1,0.1c0,0.7,0,1.3,0,2c0,0.1,0,0.2,0.2,0.2c0.4,0,0.7,0,1.1,0c0.1,0,0.2,0,0.2-0.2
			C2.3,23.7,2.3,23.3,2.3,23z"/>
		<path class="st11" d="M10.7,8.3c0.3,0.1,0.5,0.2,0.7,0.3c0.2,0.2,0.4,0.3,0.6,0.5c0.7,0.6,1.2,1.4,1.4,2.3c0,0.1,0,0.1,0.1,0.2
			c0,0.3,0.1,0.7,0.1,1c-0.1,2.2-1.6,4-3.7,4.3c-1.6,0.3-3-0.2-4.1-1.3C5.1,14.9,4.7,14,4.6,13c0-0.5,0-1.1,0.1-1.6
			c0.3-1.2,1-2.1,2-2.7h0.1c0,0.1-0.1,0.1,0,0.2c0,0,0.1,0,0.1-0.1c0.7-0.3,1.5-0.5,2.3-0.5c0.4,0,0.9,0.1,1.3,0.2
			C10.6,8.5,10.7,8.5,10.7,8.3z"/>
		<path class="st12" d="M10.7,8.3c0,0.2-0.1,0.1-0.2,0.1c-0.4-0.1-0.8-0.2-1.3-0.2c-0.8,0-1.5,0.2-2.3,0.5c0,0-0.1,0-0.1,0.1
			c0-0.1,0-0.1,0-0.2c0.1-0.1,0.3-0.1,0.4-0.2C7.8,8.2,8.4,8,9.1,8C9.7,8,10.2,8.1,10.7,8.3z"/>
		<path class="st3" d="M2.7,5.8C2.7,6,2.6,6.1,2.4,6C2.2,5.9,2,5.8,1.7,5.7c-0.1,0-0.1-0.1-0.1-0.2c0.1-0.3,0.3-0.4,0.6-0.6
			c0.2-0.1,0.3,0,0.3,0.2C2.6,5.3,2.6,5.6,2.7,5.8z"/>
		<path class="st3" d="M2.4,17.7c0.1,0,0.1,0,0.1,0.1c0,0.2,0.1,0.5,0.1,0.7c0,0.1-0.1,0.2-0.3,0.2c-0.2-0.1-0.5-0.2-0.7-0.3
			c0,0-0.1,0-0.1-0.1C1.6,18.1,2.1,17.7,2.4,17.7z"/>
		<path class="st3" d="M15.4,18.6c0,0.1-0.1,0.2-0.3,0.2c-0.3-0.1-0.5-0.2-0.8-0.3c-0.1,0-0.1-0.1,0-0.1c0.2-0.3,0.4-0.6,0.8-0.6
			c0.1,0,0.2,0,0.2,0.1C15.3,18.1,15.3,18.3,15.4,18.6z"/>
		<path class="st3" d="M15.2,4.9c0.1,0,0.1,0,0.1,0.1c0,0.3,0.1,0.5,0.1,0.8c0,0.1-0.2,0.2-0.2,0.2c-0.3-0.1-0.5-0.2-0.8-0.3
			c0,0-0.1,0-0.1-0.1C14.4,5.4,14.9,5,15.2,4.9z"/>
		<path class="st13" d="M2.3,2c0,0.3,0,0.7,0,1c0,0.1,0,0.2-0.2,0.2c-0.4,0-0.7,0-1.1,0c-0.1,0-0.2,0-0.2-0.2c0-0.7,0-1.3,0-2
			c0-0.1,0-0.2,0.2-0.2c0.4,0,0.7,0,1.1,0c0.1,0,0.2,0,0.2,0.2C2.3,1.3,2.3,1.6,2.3,2z"/>
		<path class="st13" d="M16.9,2c0,0.3,0,0.6,0,1c0,0.1,0,0.2-0.2,0.2c-0.3,0-0.7,0-1,0c-0.1,0-0.2,0-0.2-0.2c0-0.6,0-1.3,0-1.9
			c0-0.1,0-0.2,0.2-0.2c0.4,0,0.7,0,1.1,0c0.1,0,0.2,0,0.2,0.2C16.9,1.3,16.9,1.6,16.9,2z"/>
		<path class="st13" d="M15.6,23c0-0.3,0-0.7,0-1c0-0.1,0-0.2,0.2-0.2c0.3,0,0.7,0,1,0c0.1,0,0.2,0,0.2,0.2c0,0.7,0,1.3,0,2
			c0,0.1,0,0.2-0.2,0.2c-0.3,0-0.7,0-1,0c-0.1,0-0.2,0-0.2-0.2C15.6,23.6,15.6,23.3,15.6,23z"/>
		<path class="st13" d="M2.3,23c0,0.3,0,0.6,0,1c0,0.1,0,0.2-0.2,0.2c-0.4,0-0.7,0-1.1,0c-0.1,0-0.2,0-0.2-0.2c0-0.7,0-1.3,0-2
			c0-0.1,0-0.1,0.1-0.1c0.4,0,0.7,0,1.1,0c0.1,0,0.1,0.1,0.1,0.2C2.3,22.4,2.3,22.7,2.3,23z"/>
	</g>
	<g>
		<line class="st14" x1="2.8" y1="7.8" x2="2.8" y2="17.3"/>
		<line class="st14" x1="15.4" y1="7.8" x2="15.4" y2="17.3"/>
		<g>
			<line class="st14" x1="4.2" y1="6.1" x2="7.9" y2="6.1"/>
			<line class="st14" x1="10.1" y1="6.1" x2="13.8" y2="6.1"/>
			<line class="st14" x1="7.9" y1="6.1" x2="10.1" y2="5.1"/>
			<line class="st14" x1="13.8" y1="19" x2="10.1" y2="19"/>
			<line class="st14" x1="7.9" y1="19" x2="4.2" y2="19"/>
			<line class="st14" x1="10.1" y1="19" x2="7.9" y2="20"/>
		</g>
	</g>
</g>
</svg>
