<?xml version="1.0" encoding="utf-8"?>
<!-- Generator: Adobe Illustrator 24.0.0, SVG Export Plug-In . SVG Version: 6.00 Build 0)  -->
<svg version="1.1" id="Layer_1" xmlns="http://www.w3.org/2000/svg" xmlns:xlink="http://www.w3.org/1999/xlink" x="0px" y="0px"
	 viewBox="0 0 34.5 40.2" style="enable-background:new 0 0 34.5 40.2;" xml:space="preserve">
<style type="text/css">
	.st0{fill:#D4D4D4;}
	.st1{fill:#D4D4D4;stroke:#000000;stroke-width:5.000000e-02;stroke-miterlimit:10;}
	.st2{fill:none;stroke:#B3B3B3;stroke-width:0.25;stroke-miterlimit:10;}
</style>
<g>
	<g>
		<path d="M32.8,37.1h-31c-0.8,0-1.5-0.7-1.5-1.5v-31c0-0.8,0.7-1.5,1.5-1.5h31c0.8,0,1.5,0.7,1.5,1.5v31
			C34.3,36.4,33.6,37.1,32.8,37.1z"/>
		<path class="st0" d="M31.6,35.9H2.9c-0.8,0-1.5-0.7-1.5-1.5V5.8c0-0.8,0.7-1.5,1.5-1.5h28.7c0.8,0,1.5,0.7,1.5,1.5v28.7
			C33.1,35.3,32.4,35.9,31.6,35.9z"/>
		<circle cx="5.1" cy="7.9" r="1.9"/>
		<circle cx="29.5" cy="7.9" r="1.9"/>
		<circle cx="29.5" cy="32.1" r="1.9"/>
		<circle cx="5" cy="32.1" r="1.9"/>
		<circle cx="17.3" cy="20.1" r="10.8"/>
		<g>
			<rect x="8.8" y="0.2" class="st1" width="2.8" height="2.8"/>
			<rect x="22.9" y="0.2" class="st1" width="2.8" height="2.8"/>
		</g>
		<g>
			<rect x="8.8" y="37.1" class="st1" width="2.8" height="2.8"/>
			<rect x="22.9" y="37.1" class="st1" width="2.8" height="2.8"/>
		</g>
	</g>
	<g>
		<line class="st2" x1="5.1" y1="9.8" x2="5.1" y2="30.2"/>
		<line class="st2" x1="29.5" y1="9.8" x2="29.5" y2="30.2"/>
		<g>
			<line class="st2" x1="7" y1="7.9" x2="14.3" y2="7.9"/>
			<line class="st2" x1="20.2" y1="7.9" x2="27.6" y2="7.9"/>
			<line class="st2" x1="14.3" y1="7.9" x2="20.2" y2="5.8"/>
		</g>
		<g>
			<line class="st2" x1="27.6" y1="32.1" x2="20.2" y2="32.1"/>
			<line class="st2" x1="14.3" y1="32.1" x2="6.9" y2="32.1"/>
			<line class="st2" x1="20.2" y1="32.1" x2="14.3" y2="34.2"/>
		</g>
	</g>
</g>
</svg>
