<?xml version="1.0" encoding="utf-8"?>
<!-- Generator: Adobe Illustrator 23.0.3, SVG Export Plug-In . SVG Version: 6.00 Build 0)  -->
<svg version="1.1" id="Layer_1" xmlns="http://www.w3.org/2000/svg" xmlns:xlink="http://www.w3.org/1999/xlink" x="0px" y="0px"
	 viewBox="0 0 11.3 25.5" style="enable-background:new 0 0 11.3 25.5;" xml:space="preserve">
<style type="text/css">
	.st0{fill:#ADADAD;}
	.st1{fill:none;stroke:#4F4F4F;stroke-width:0.5;stroke-miterlimit:10;}
	.st2{opacity:0.42;}
	.st3{fill:none;stroke:#000000;stroke-miterlimit:10;}
</style>
<title>DPDT Slide Switch</title>
<rect width="11.3" height="25.5"/>
<path class="st0" d="M10.5,2.4V0H0.8v2.4H0v20.6h0.8v2.4h9.7v-2.4h0.8V2.4H10.5z M8.5,18.4H2.8V7.1h5.7L8.5,18.4z"/>
<rect x="2.8" y="7" width="5.7" height="5.7"/>
<line class="st1" x1="2.8" y1="7.2" x2="8.5" y2="7.2"/>
<line class="st1" x1="2.8" y1="12.4" x2="8.5" y2="12.4"/>
<line class="st1" x1="2.8" y1="8.9" x2="8.5" y2="8.9"/>
<line class="st1" x1="2.8" y1="10.7" x2="8.5" y2="10.7"/>
<g class="st2">
	<circle class="st3" cx="2.1" cy="5.6" r="1.5"/>
	<circle class="st3" cx="2.1" cy="12.8" r="1.5"/>
	<circle class="st3" cx="2.1" cy="20" r="1.5"/>
</g>
<g class="st2">
	<circle class="st3" cx="9.3" cy="5.6" r="1.5"/>
	<circle class="st3" cx="9.3" cy="12.8" r="1.5"/>
	<circle class="st3" cx="9.3" cy="20" r="1.5"/>
</g>
</svg>
