<?xml version="1.0" encoding="utf-8"?>
<!-- Generator: Adobe Illustrator 23.0.1, SVG Export Plug-In . SVG Version: 6.00 Build 0)  -->
<svg version="1.1" id="Layer_1" xmlns="http://www.w3.org/2000/svg" xmlns:xlink="http://www.w3.org/1999/xlink" x="0px" y="0px"
	 viewBox="0 0 25.9 23.8" style="enable-background:new 0 0 25.9 23.8;" xml:space="preserve">
<style type="text/css">
	.st0{fill:#BD0000;stroke:#000000;stroke-width:5.000000e-02;stroke-miterlimit:10;}
	.st1{fill:#9E9E9E;stroke:#000000;stroke-width:5.000000e-02;stroke-miterlimit:10;}
	.st2{fill:#8A8A8A;stroke:#000000;stroke-width:5.000000e-02;stroke-miterlimit:10;}
	.st3{fill:#A1A1A1;stroke:#000000;stroke-width:5.000000e-02;stroke-miterlimit:10;}
	.st4{fill:#B8B8B8;stroke:#000000;stroke-width:5.000000e-02;stroke-miterlimit:10;}
	.st5{fill:#CCCCCC;stroke:#000000;stroke-width:5.000000e-02;stroke-miterlimit:10;}
	.st6{opacity:0.45;fill:none;stroke:#000000;stroke-miterlimit:10;enable-background:new    ;}
</style>
<g>
	<g>
		<rect y="0.3" class="st0" width="25.9" height="23"/>
		<path class="st1" d="M13.4,23.8h-0.7c-6.6,0-11.9-5.3-11.9-11.9l0,0C0.8,5.3,6.2,0,12.7,0h0.7C20,0,25.3,5.3,25.3,11.9l0,0
			C25.3,18.4,20,23.8,13.4,23.8z"/>
		<circle class="st2" cx="13.3" cy="12" r="8.6"/>
		<g>
			<path class="st3" d="M16.3,5.4h-6.2C7.7,6.6,6,9.1,6,11.9c0,4,3.2,7.2,7.2,7.2s7.2-3.2,7.2-7.2C20.4,9.1,18.7,6.6,16.3,5.4z"/>
		</g>
		<circle class="st4" cx="13.2" cy="11.7" r="4.8"/>
		<path class="st5" d="M13.1,21.2L13.1,21.2c-1.8,0-3.3-1.5-3.3-3.4l0.2-5.7c0.1-1.6,1.4-3,3-3l0,0c1.6,0,3,1.3,3,2.9l0.2,5.7
			C16.5,19.6,15,21.2,13.1,21.2z"/>
	</g>
	<g>
		<circle class="st6" cx="5.8" cy="4.7" r="1.5"/>
		<circle class="st6" cx="20.2" cy="4.7" r="1.5"/>
		<circle class="st6" cx="5.8" cy="11.9" r="1.5"/>
		<circle class="st6" cx="20.2" cy="11.9" r="1.5"/>
		<circle class="st6" cx="5.8" cy="19.1" r="1.5"/>
		<circle class="st6" cx="20.2" cy="19.1" r="1.5"/>
	</g>
</g>
</svg>
