<?xml version="1.0" encoding="utf-8"?>
<!-- Generator: Adobe Illustrator 23.0.3, SVG Export Plug-In . SVG Version: 6.00 Build 0)  -->
<svg version="1.1" id="Layer_1" xmlns="http://www.w3.org/2000/svg" xmlns:xlink="http://www.w3.org/1999/xlink" x="0px" y="0px"
	 viewBox="0 0 34.8 27.7" style="enable-background:new 0 0 34.8 27.7;" xml:space="preserve">
<style type="text/css">
	.st0{fill:#CC0000;stroke:#CC0000;stroke-width:0.25;stroke-miterlimit:10;}
	.st1{fill:#FFFFFF;stroke:#000000;stroke-width:0.25;stroke-miterlimit:10;}
	.st2{fill:#FF0000;stroke:#990000;stroke-width:0.25;stroke-miterlimit:10;}
	.st3{font-family:'MyriadPro-Regular';}
	.st4{font-size:3.5636px;}
	.st5{opacity:0.5;}
	.st6{fill:none;stroke:#000000;stroke-width:0.25;stroke-miterlimit:10;}
</style>
<g>
	<g>
		<rect x="0.1" y="0.1" class="st0" width="34.6" height="27.4"/>
		<g>
			<rect x="4.8" y="20.3" class="st1" width="3.6" height="3.6"/>
			<rect x="12" y="20.3" class="st1" width="3.6" height="3.6"/>
			<rect x="19.2" y="20.3" class="st1" width="3.6" height="3.6"/>
			<rect x="26.4" y="20.3" class="st1" width="3.6" height="3.6"/>
		</g>
		<rect x="0.1" y="0.1" class="st2" width="34.6" height="20.2"/>
		<text transform="matrix(1 0 0 1 12.3547 18.7772)" class="st3 st4">Open</text>
		<g>
			<text transform="matrix(1 0 0 1 5.6965 26.8397)" class="st3 st4">1</text>
			<text transform="matrix(1 0 0 1 12.9153 26.8397)" class="st3 st4">2</text>
			<text transform="matrix(1 0 0 1 20.134 26.8397)" class="st3 st4">3</text>
			<text transform="matrix(1 0 0 1 27.3527 26.8397)" class="st3 st4">4</text>
		</g>
	</g>
	<g class="st5">
		<path class="st6" d="M21.3,4.6c0,0.3-0.2,0.5-0.5,0.5c-0.3,0-0.5-0.2-0.5-0.5c0-0.3,0.2-0.5,0.5-0.5C21.1,4.1,21.3,4.3,21.3,4.6z"
			/>
		<path class="st6" d="M7.9,4.6c0,0.3-0.2,0.5-0.5,0.5C7,5.1,6.8,4.9,6.8,4.6c0-0.3,0.3-0.5,0.5-0.5C7.6,4.1,7.9,4.3,7.9,4.6z"/>
		<path class="st6" d="M26.9,4.6c0-0.3,0.2-0.5,0.5-0.5c0.3,0,0.5,0.2,0.5,0.5c0,0.3-0.2,0.5-0.6,0.5C27.2,5.1,26.9,4.9,26.9,4.6z"
			/>
		<path class="st6" d="M13.5,4.6c0-0.3,0.2-0.5,0.5-0.5c0.3,0,0.5,0.2,0.5,0.5c0,0.3-0.2,0.5-0.6,0.5C13.7,5.1,13.5,4.9,13.5,4.6z"
			/>
		<path class="st6" d="M14.6,23.3c0,0.3-0.2,0.5-0.5,0.5c-0.3,0-0.5-0.2-0.5-0.5c0-0.3,0.2-0.5,0.5-0.5C14.4,22.7,14.6,23,14.6,23.3
			z"/>
		<path class="st6" d="M21.3,23.3c0,0.3-0.2,0.5-0.5,0.5c-0.3,0-0.6-0.2-0.6-0.5c0-0.3,0.2-0.5,0.5-0.5C21.1,22.7,21.3,23,21.3,23.3
			z"/>
		<path class="st6" d="M7.9,23.3c0,0.3-0.2,0.5-0.5,0.5c-0.3,0-0.5-0.2-0.5-0.5c0-0.3,0.3-0.5,0.6-0.5C7.6,22.7,7.9,23,7.9,23.3z"/>
		<path class="st6" d="M26.9,23.2c0-0.3,0.2-0.5,0.5-0.5c0.3,0,0.5,0.2,0.5,0.5c0,0.3-0.2,0.5-0.5,0.5
			C27.2,23.8,26.9,23.6,26.9,23.2z"/>
	</g>
</g>
</svg>
