<?xml version="1.0" encoding="utf-8"?>
<!-- Generator: Adobe Illustrator 24.0.0, SVG Export Plug-In . SVG Version: 6.00 Build 0)  -->
<svg version="1.1" id="Layer_1" xmlns="http://www.w3.org/2000/svg" xmlns:xlink="http://www.w3.org/1999/xlink" x="0px" y="0px"
	 viewBox="0 0 94 35.9" style="enable-background:new 0 0 94 35.9;" xml:space="preserve">
<style type="text/css">
	.st0{fill:none;stroke:#BFBFBF;stroke-width:3;stroke-miterlimit:10;}
	.st1{fill:#FFFFFF;stroke:#000000;stroke-width:0.5;stroke-miterlimit:10;}
	.st2{fill:#EBEBEB;stroke:#000000;stroke-width:0.5;stroke-miterlimit:10;}
</style>
<g>
	<rect x="79.6" y="7.9" class="st0" width="14.4" height="0"/>
	<rect x="79.6" y="12.1" class="st0" width="14.4" height="0"/>
	<g>
		
			<rect x="0.3" y="0.2" transform="matrix(-1 -1.224647e-16 1.224647e-16 -1 79.8701 18.9253)" class="st1" width="79.4" height="18.4"/>
		<path class="st2" d="M79.6,35.7v-17H0.2v17H79.6z M59.8,27.1c0-1.9,1.6-3.5,3.5-3.5h7.2c1.9,0,3.5,1.6,3.5,3.5v0.2
			c0,1.9-1.6,3.5-3.5,3.5h-7.2c-1.9,0-3.5-1.6-3.5-3.5V27.1z M5.9,27.1c0-1.9,1.6-3.5,3.5-3.5h7.2c1.9,0,3.5,1.6,3.5,3.5v0.2
			c0,1.9-1.6,3.5-3.5,3.5H9.4c-1.9,0-3.5-1.6-3.5-3.5V27.1z"/>
	</g>
</g>
</svg>
