<?xml version="1.0" encoding="utf-8"?>
<!-- Generator: Adobe Illustrator 24.0.0, SVG Export Plug-In . SVG Version: 6.00 Build 0)  -->
<svg version="1.1" id="Layer_1" xmlns="http://www.w3.org/2000/svg" xmlns:xlink="http://www.w3.org/1999/xlink" x="0px" y="0px"
	 viewBox="0 0 28.3 12.8" style="enable-background:new 0 0 28.3 12.8;" xml:space="preserve">
<style type="text/css">
	.st0{fill:#FFFFFF;stroke:#000000;stroke-width:0.25;stroke-miterlimit:10;}
	.st1{fill:#EBEBEB;stroke:#000000;stroke-width:0.25;stroke-miterlimit:10;}
</style>
<rect x="0.1" y="0.1" class="st0" width="28" height="12.5"/>
<path class="st1" d="M0.1,0.1v6h28v-6H0.1z M7.1,3.2c0,0.7-0.5,1.2-1.2,1.2H3.3c-0.7,0-1.2-0.5-1.2-1.2V3.1c0-0.7,0.5-1.2,1.2-1.2
	h2.6C6.6,1.9,7.1,2.4,7.1,3.2L7.1,3.2z M26.1,3.2c0,0.7-0.5,1.2-1.2,1.2h-2.6c-0.7,0-1.2-0.5-1.2-1.2V3.1c0-0.7,0.5-1.2,1.2-1.2h2.6
	C25.6,1.9,26.1,2.4,26.1,3.2L26.1,3.2z"/>
</svg>
