<?xml version="1.0" encoding="utf-8"?>
<!-- Generator: Adobe Illustrator 24.0.0, SVG Export Plug-In . SVG Version: 6.00 Build 0)  -->
<svg version="1.1" id="Layer_1" xmlns="http://www.w3.org/2000/svg" xmlns:xlink="http://www.w3.org/1999/xlink" x="0px" y="0px"
	 viewBox="0 0 31.2 58.8" style="enable-background:new 0 0 31.2 58.8;" xml:space="preserve">
<style type="text/css">
	.st0{fill:#AF6B00;}
	.st1{fill:#ADADAD;}
	.st2{fill:#D6D6D6;}
	.st3{fill:#1A1A1A;}
	.st4{fill:#4D4D4D;}
	.st5{opacity:0.5;fill:none;stroke:#000000;stroke-miterlimit:10;}
</style>
<g>
	<g>
		<rect x="0" y="25.5" class="st0" width="0" height="2.8"/>
		<rect x="0" y="25.5" class="st0" width="5.7" height="2.8"/>
		<rect x="11.3" y="25.5" class="st0" width="8.5" height="2.8"/>
		<rect x="25.5" y="25.5" class="st0" width="5.7" height="2.8"/>
		<polygon class="st1" points="0,14.2 0,25.5 5.7,25.5 5.7,28.3 11.3,28.3 11.3,25.5 19.8,25.5 19.8,28.3 25.5,28.3 25.5,25.5 
			31.2,25.5 31.2,14.2 		"/>
	</g>
	<g>
		<path class="st2" d="M6.8,39.7H6.4c-0.5,0-0.9-0.4-0.9-0.9V28.3h2.3v10.4C7.7,39.3,7.3,39.7,6.8,39.7z"/>
		<path class="st2" d="M15.8,39.7h-0.5c-0.5,0-0.9-0.4-0.9-0.9V28.3h2.3v10.4C16.7,39.3,16.3,39.7,15.8,39.7z"/>
		<path class="st2" d="M24.8,39.7h-0.5c-0.5,0-0.9-0.4-0.9-0.9V28.3h2.3v10.4C25.7,39.3,25.3,39.7,24.8,39.7z"/>
	</g>
	<polygon points="15.6,2.8 13.1,0 10.6,2.8 8.2,0 5.7,2.8 5.7,2.8 5.7,14.2 15.6,14.2 15.6,2.8 	"/>
</g>
<rect y="43.2" class="st1" width="31.2" height="15.6"/>
<g>
	<g>
		<rect x="5.7" y="46.7" class="st3" width="2.5" height="8.5"/>
		<rect x="8.2" y="46.7" class="st4" width="2.5" height="8.5"/>
		<rect x="10.6" y="46.7" class="st3" width="2.5" height="8.5"/>
		<rect x="13.1" y="46.7" class="st4" width="2.5" height="8.5"/>
	</g>
	<polygon class="st3" points="23,46.7 20.6,46.7 18.1,46.7 15.6,46.7 15.6,55.2 18.1,55.2 20.6,55.2 23,55.2 25.5,55.2 25.5,46.7 	
		"/>
</g>
<g>
	<circle class="st5" cx="6.6" cy="51" r="1.1"/>
	<circle class="st5" cx="15.6" cy="51" r="1.1"/>
	<circle class="st5" cx="24.6" cy="51" r="1.1"/>
</g>
</svg>
