<?xml version="1.0" encoding="utf-8"?>
<!-- Generator: Adobe Illustrator 23.0.3, SVG Export Plug-In . SVG Version: 6.00 Build 0)  -->
<svg version="1.1" id="Layer_1" xmlns="http://www.w3.org/2000/svg" xmlns:xlink="http://www.w3.org/1999/xlink" x="0px" y="0px"
	 viewBox="0 0 52.5 46.5" style="enable-background:new 0 0 52.5 46.5;" xml:space="preserve">
<style type="text/css">
	.st0{fill:#666666;}
	.st1{fill:#4D4D4D;}
	.st2{fill:#333333;}
	.st3{opacity:0.25;enable-background:new    ;}
	.st4{opacity:0.3;enable-background:new    ;}
	.st5{fill:#1A1A1A;}
	.st6{opacity:0.33;}
	.st7{fill:#F8F8F8;}
	.st8{font-family:'ArialMT';}
	.st9{font-size:5px;}
	.st10{opacity:0.24;enable-background:new    ;}
	.st11{opacity:0.24;fill:#F2F2F2;enable-background:new    ;}
	.st12{opacity:0.19;}
	.st13{fill:#FFFFFF;}
	.st14{opacity:0.52;fill:#4D4D4D;enable-background:new    ;}
</style>
<desc>
	<referenceFile>sparkfun-connectors_r_sw_th_breadboard.svg</referenceFile>
</desc>
<desc>Fritzing breadboard generated by brd2svg</desc>
<g id="breadboard">
	<g id="icon">
		<g transform="translate(100,176.854)">
			<g>
				<g>
					<g>
						<g>
							<polygon class="st0" points="-50.3,-134.1 -50.3,-140.2 -97.3,-140.2 -97.3,-134.1 -97.3,-133.2 -97.3,-130.3 -91.9,-130.3 
								-91.9,-133.2 -55.7,-133.2 -55.7,-130.3 -50.2,-130.3 -50.2,-134.1 							"/>
							<rect x="-80.4" y="-140.2" class="st1" width="13.3" height="7"/>
							<ellipse cx="-73.8" cy="-139.9" rx="4.7" ry="2.4"/>
							<rect x="-80.4" y="-136.9" class="st2" width="13.3" height="3.7"/>
							<polygon class="st1" points="-48.8,-138.9 -50.3,-138.9 -50.3,-135.1 							"/>
							<polygon class="st1" points="-97.3,-138.9 -98.7,-138.9 -97.3,-135.1 							"/>
							<polygon class="st3" points="-97.3,-130.8 -91.9,-130.8 -91.9,-133.7 -55.7,-133.7 -55.7,-130.8 -50.2,-130.8 -50.2,-130.3 
								-55.7,-130.3 -55.7,-133.2 -91.9,-133.2 -91.9,-130.3 -97.3,-130.3 							"/>
						</g>
						<g>
							<polyline class="st2" points="-47.5,-176.9 -47.5,-140.8 -100,-140.8 -100,-176.9 -47.5,-176.9 							"/>
							<polygon class="st1" points="-92.9,-172.2 -93,-171.4 -54.6,-171.6 -54.7,-172.2 							"/>
							<polygon class="st4" points="-92.9,-145.5 -93,-146.3 -54.6,-146.1 -54.7,-145.5 							"/>
							<path d="M-54.1-158.8c0-6.9-0.3-13.1-0.6-13.1l-38.2,0c-0.3,0-0.6,6.2-0.6,13.1c0,6.9,0.3,13.1,0.6,13.1h38.2
								C-54.4-145.7-54.1-151.9-54.1-158.8z"/>
							<path class="st2" d="M-58-171.4L-58-171.4L-58-171.4h-34.4c-0.3,0-0.6,5.6-0.6,12.6c0,6.9,0.3,12.6,0.6,12.6h30.9l3.5,0
								c0.4,0,0.9-0.2,0.9-0.6c0,0,0.3-4.3,0.3-11.8c0-7.5-0.3-11.9-0.3-11.9C-57.1-170.9-57.6-171.4-58-171.4z"/>
							<path class="st5" d="M-92.2-171.4c-0.3,0-0.6,5.6-0.6,12.6c0,6.9,0.3,12.6,0.6,12.6l-0.3,0c-0.3,0-0.6-5.6-0.6-12.6
								c0-6.9,0.3-12.6,0.6-12.6L-92.2-171.4z"/>
							<polyline class="st2" points="-47.6,-140.8 -100,-140.8 -100,-138.8 -47.6,-138.8 -47.6,-140.8 							"/>
							<path class="st1" d="M-58.3-170c-0.2-0.1-1.5-0.1-2.9-0.1h-19c-1.4,0-1.5,0.3-0.1,0.7c0,0,6,1.7,6,10.2
								c0,5.8-0.8,9.3-0.8,9.3c-0.3,1.4,0.6,2.5,2,2.5h11.9c1.4,0,2.8-0.1,2.9-0.1c0.2-0.1,0.4-1.7,0.5-3.1c0,0,0.2-2.4,0.2-8.1
								c0-5.7-0.2-8.1-0.2-8.1C-57.9-168.4-58.1-169.9-58.3-170z"/>
							<g class="st6">
								<path d="M-89.3-169.6c0.9,0,1.5-0.1,1.5-0.3s-0.7-0.3-1.5-0.3l-1,0c-0.9,0-1.6,0.7-1.6,1.5c0,0-0.2,4.4-0.2,9.8
									s0.2,9.8,0.2,9.8c0,0.9,0.8,1.5,1.6,1.5h8.7c0.9,0,1.5-0.1,1.5-0.3s-0.7-0.3-1.5-0.3h-8.2c-0.9,0-1.6-0.7-1.6-1.5
									c0,0-0.2-4.3-0.2-9.2c0-5,0.2-9.2,0.2-9.2c0-0.9,0.8-1.5,1.6-1.5L-89.3-169.6z"/>
							</g>
							<g transform="matrix(-4.44222e-08, 1.0163, -1, -4.37114e-08, 138.435, 240.272)">
								<text transform="matrix(1 0 0 1 -393.4138 228.4678)" class="st7 st8 st9">I</text>
							</g>
							<g transform="matrix(-4.44222e-08, 1.0163, -1, -4.37114e-08, 488.017, 222.632)">
								<text transform="matrix(1 0 0 1 -377.3064 552.8799)" class="st7 st8 st9">O</text>
							</g>
							<g>
								<polygon class="st10" points="-47.5,-140.8 -47.5,-141.8 -99,-141.8 -100,-140.8 								"/>
								<polygon class="st11" points="-48.5,-175.8 -47.5,-176.9 -100,-176.9 -100,-175.8 								"/>
								<polygon class="st11" points="-99,-141.8 -100,-140.8 -100,-175.8 -99,-175.8 								"/>
								<polygon class="st10" points="-47.5,-176.9 -48.5,-175.8 -48.5,-141.8 -47.5,-141.8 								"/>
							</g>
						</g>
					</g>
				</g>
				<g class="st12">
					<path class="st13" d="M-58.5-170.7c0,0.1-0.1,0.2-0.3,0.2h-32.8c-0.2,0-0.3-0.1-0.3-0.2c0-0.1,0.1-0.2,0.3-0.2h32.8
						C-58.6-170.9-58.5-170.8-58.5-170.7z"/>
				</g>
				<g class="st6">
					<path d="M-58.5-146.9c0,0.1-0.1,0.2-0.3,0.2l-32.8,0c-0.2,0-0.3-0.1-0.3-0.2c0-0.1,0.1-0.2,0.3-0.2h32.8
						C-58.6-147.1-58.5-147-58.5-146.9z"/>
				</g>
				<path class="st14" d="M-58.4-171.4c0.4,0,0.9,0.5,0.9,0.9c0,0,0.4,4.5,0.4,12c0,7.5-0.4,11.7-0.4,11.7c0,0.4-0.5,0.6-0.9,0.6
					h0.3c0.4,0,0.9-0.2,0.9-0.6c0,0,0.3-4.3,0.3-11.8c0-7.5-0.3-11.9-0.3-11.9c0-0.4-0.5-0.9-0.9-0.9H-58.4z"/>
			</g>
		</g>
	</g>
</g>
</svg>
