<?xml version="1.0" encoding="utf-8"?>
<!-- Generator: Adobe Illustrator 24.0.0, SVG Export Plug-In . SVG Version: 6.00 Build 0)  -->
<svg version="1.1" id="Layer_1" xmlns="http://www.w3.org/2000/svg" xmlns:xlink="http://www.w3.org/1999/xlink" x="0px" y="0px"
	 viewBox="0 0 27.5 75.5" style="enable-background:new 0 0 27.5 75.5;" xml:space="preserve">
<style type="text/css">
	.st0{fill:#8C8C8C;}
	.st1{fill:#1A1A1A;}
	.st2{fill:#404040;}
	.st3{fill:#828282;stroke:#404040;stroke-width:0.1;}
	.st4{fill:#FFFFFF;}
	.st5{font-family:'ArialMT';}
	.st6{font-size:8px;}
</style>
<desc>
	<referenceFile>voltage_regulator_vreg.svg</referenceFile>
</desc>
<g>
	<g>
		<g>
			<polygon class="st0" points="8.1,39.5 7.3,39.5 5.7,39.5 5,39.5 5,46.6 5.7,47.1 5.7,74.3 6,75.5 7,75.5 7.3,74.3 7.3,47.1 
				8.1,46.6 			"/>
			<polygon class="st0" points="15.3,39.5 14.5,39.5 12.9,39.5 12.2,39.5 12.2,46.6 12.9,47.1 12.9,74.3 13.2,75.5 14.2,75.5 
				14.5,74.3 14.5,47.1 15.3,46.6 			"/>
			<polygon class="st0" points="22.5,39.5 21.7,39.5 20.1,39.5 19.4,39.5 19.4,46.6 20.1,47.1 20.1,74.3 20.4,75.5 21.4,75.5 
				21.7,74.3 21.7,47.1 22.5,46.6 			"/>
		</g>
		<rect y="16.5" class="st1" width="27.4" height="23"/>
		<rect x="0.6" y="17.3" class="st2" width="26.3" height="21.9"/>
		<path class="st3" d="M0.1,0.1v16.4h27.4V0.1H0.1z M13.7,12c-2.7,0-5-2.2-5-5s2.2-5,5-5s5,2.2,5,5S16.5,12,13.7,12z"/>
	</g>
	<text transform="matrix(1 0 0 1 4.8514 29.0656)" class="st4 st5 st6">7805</text>
</g>
</svg>
