<?xml version="1.0" encoding="utf-8"?>
<!-- Generator: Adobe Illustrator 24.0.0, SVG Export Plug-In . SVG Version: 6.00 Build 0)  -->
<svg version="1.1" id="Layer_1" xmlns="http://www.w3.org/2000/svg" xmlns:xlink="http://www.w3.org/1999/xlink" x="0px" y="0px"
	 viewBox="0 0 15.3 8.9" style="enable-background:new 0 0 15.3 8.9;" xml:space="preserve">
<style type="text/css">
	.st0{fill:none;stroke:#636363;stroke-width:2;stroke-miterlimit:10;}
	.st1{fill:#AAAAAA;}
	.st2{font-family:'ArialMT';}
	.st3{font-size:1.5462px;}
	.st4{fill:#FFFFFF;}
	.st5{font-size:4.6008px;}
	.st6{font-family:'MyriadPro-Bold';}
	.st7{font-size:1.2434px;}
</style>
<g>
	<line class="st0" x1="11.2" y1="6.6" x2="15.3" y2="6.6"/>
	<line class="st0" x1="4.1" y1="6.6" x2="0" y2="6.6"/>
	<g>
		<g>
			<path d="M14.5,8.9c0.2-0.6,0.2-1.2,0.2-1.8c0.1-3.9-3.1-7.1-7-7.1S0.6,3.2,0.6,7.1c0,0.6,0.1,1.2,0.2,1.8H14.5z"/>
		</g>
		<circle class="st1" cx="11.2" cy="6.6" r="1"/>
		<circle class="st1" cx="7.5" cy="6.6" r="1"/>
		<circle class="st1" cx="4.1" cy="6.6" r="1"/>
		<text transform="matrix(1 0 0 1 10.7512 7.1368)" class="st2 st3">3</text>
		<text transform="matrix(1 0 0 1 7.1066 7.0899)" class="st2 st3">2</text>
		<text transform="matrix(1 0 0 1 3.613 7.0899)" class="st2 st3">1</text>
		<text transform="matrix(1 0 0 1 6.1457 4.4795)" class="st4 st2 st5">N</text>
		<text transform="matrix(1.2983 0 0 1 3.5311 8.6367)" class="st4 st6 st7">E        B        C</text>
	</g>
</g>
</svg>
