<?xml version="1.0" encoding="utf-8"?>
<!-- Generator: Adobe Illustrator 23.0.1, SVG Export Plug-In . SVG Version: 6.00 Build 0)  -->
<svg version="1.1" id="Layer_1" xmlns="http://www.w3.org/2000/svg" xmlns:xlink="http://www.w3.org/1999/xlink" x="0px" y="0px"
	 viewBox="0 0 14.2 8.9" style="enable-background:new 0 0 14.2 8.9;" xml:space="preserve">
<style type="text/css">
	.st0{fill:#AAAAAA;}
	.st1{font-family:'MyriadPro-Regular';}
	.st2{font-size:1.5462px;}
	.st3{fill:#FFFFFF;}
	.st4{font-size:4.6008px;}
</style>
<g>
	<g>
		<path d="M13.9,8.9c0.2-0.6,0.2-1.2,0.2-1.8C14.2,3.2,11,0,7.1,0C3.2,0,0,3.2,0,7.1c0,0.6,0.1,1.2,0.2,1.8H13.9z"/>
	</g>
	<circle class="st0" cx="10.6" cy="6.6" r="1"/>
	<circle class="st0" cx="6.9" cy="6.6" r="1"/>
	<circle class="st0" cx="3.5" cy="6.6" r="1"/>
	<text transform="matrix(1 0 0 1 3.0769 7.0899)" class="st1 st2">3</text>
	<text transform="matrix(1 0 0 1 6.5339 7.0899)" class="st1 st2">2</text>
	<text transform="matrix(1 0 0 1 10.1653 7.0899)" class="st1 st2">1</text>
	<text transform="matrix(1 0 0 1 5.8191 4.4795)" class="st3 st1 st4">P</text>
</g>
</svg>
